<?xml version="1.0" encoding="utf-8"?>
<!-- Generator: Adobe Illustrator 15.0.0, SVG Export Plug-In . SVG Version: 6.00 Build 0)  -->
<!DOCTYPE svg PUBLIC "-//W3C//DTD SVG 1.1//EN" "http://www.w3.org/Graphics/SVG/1.1/DTD/svg11.dtd">
<svg version="1.1" id="Calque_1" xmlns="http://www.w3.org/2000/svg" xmlns:xlink="http://www.w3.org/1999/xlink" x="0px" y="0px"
	 width="841.89px" height="616.282px" viewBox="0 0 841.89 616.282" enable-background="new 0 0 841.89 616.282"
	 xml:space="preserve">
<g>
	<defs>
		<rect id="SVGID_1_" width="841.89" height="616.282"/>
	</defs>
	<clipPath id="SVGID_2_">
		<use xlink:href="#SVGID_1_"  overflow="visible"/>
	</clipPath>
	<g id="_111" clip-path="url(#SVGID_2_)">
		<rect fill="#FFFFFF" width="841.89" height="616.282"/>
		
			<line id="Ligne_12" fill="none" stroke="#61B59D" stroke-width="2" stroke-miterlimit="10" x1="470.875" y1="355.467" x2="470.875" y2="533.352"/>
		<path id="Tracé_50" fill="#252525" d="M566.212,260.128c0.002,52.654-42.684,95.339-95.338,95.339
			c-52.654,0.002-95.339-42.684-95.339-95.337c-0.001-52.654,42.684-95.339,95.337-95.34c0.002,0,0.002,0,0.002,0
			C523.529,164.792,566.21,207.475,566.212,260.128z"/>
		<path id="Tracé_51" fill="#7F7E7F" d="M376.769,152.723c0,21.551-18.051,39.022-40.319,39.022
			c-22.27,0-40.32-17.471-40.32-39.022c0-21.551,18.051-39.018,40.32-39.018C358.718,113.705,376.769,131.174,376.769,152.723z"/>
		<text transform="matrix(1 0 0 1 319.498 156.3843)" fill="#FFFFFF" font-family="'Hind-Bold'" font-size="11">THÈME</text>
		<path id="Tracé_52" fill="#7F7E7F" d="M192.634,251.952c0,21.55-18.052,39.021-40.32,39.021s-40.32-17.471-40.32-39.021
			c0-21.55,18.051-39.018,40.32-39.018S192.634,230.406,192.634,251.952z"/>
		<text transform="matrix(1 0 0 1 135.5762 249.3677)" fill="#FFFFFF" font-family="'Hind-Bold'" font-size="12">SOUS-</text>
		<text transform="matrix(1 0 0 1 133.0439 263.7671)" fill="#FFFFFF" font-family="'Hind-Bold'" font-size="12">THÈME</text>
		<path id="Tracé_53" fill="#61B59D" d="M512.115,415.474c0,21.552-18.053,39.021-40.32,39.021s-40.32-17.469-40.32-39.021
			s18.053-39.019,40.32-39.019C494.064,376.456,512.115,393.924,512.115,415.474z"/>
		<path id="Tracé_54" fill="#FFFFFF" stroke="#61B59D" stroke-width="3" stroke-miterlimit="10" d="M506.023,499.336
			c0,18.785-15.736,34.016-35.148,34.016s-35.148-15.23-35.148-34.016s15.736-34.01,35.148-34.01S506.023,480.551,506.023,499.336z"
			/>
		<text transform="matrix(1 0 0 1 452.0835 495.0835)" fill="#61B59D" font-family="'Hind-Medium'" font-size="13">REVUE</text>
		<text transform="matrix(1 0 0 1 445.7983 510.6831)" fill="#61B59D" font-family="'Hind-Medium'" font-size="13">HYBRIDE</text>
		<path id="Tracé_55" fill="#FFFFFF" stroke="#61B59D" stroke-width="2" stroke-miterlimit="10" d="M440.365,548.676
			c0,16.143-13.52,29.227-30.2,29.227c-16.68,0-30.2-13.084-30.2-29.227c0-16.141,13.521-29.221,30.2-29.221
			C426.845,519.456,440.365,532.54,440.365,548.676z"/>
		<text transform="matrix(1 0 0 1 402.2891 545.0249)" fill="#040506" font-family="'Hind-Medium'" font-size="11.169">Sur</text>
		<text transform="matrix(1 0 0 1 394.7109 558.4272)" fill="#040506" font-family="'Hind-Medium'" font-size="11.169">papier</text>
		<path id="Tracé_56" fill="#FFFFFF" stroke="#61B59D" stroke-width="2" stroke-miterlimit="10" d="M559.898,548.676
			c0,16.143-13.52,29.227-30.199,29.227c-16.682,0-30.201-13.084-30.201-29.227c0-16.141,13.52-29.221,30.201-29.221
			C546.378,519.456,559.898,532.54,559.898,548.676z"/>
		<text transform="matrix(1 0 0 1 521.8218 545.0249)" fill="#040506" font-family="'Hind-Medium'" font-size="11.169">Sur</text>
		<text transform="matrix(1 0 0 1 516.3823 558.4272)" fill="#040506" font-family="'Hind-Medium'" font-size="11.169">écran</text>
		<path id="Tracé_57" fill="none" stroke="#E75010" stroke-width="3" stroke-miterlimit="10" d="M729.357,429.118
			c0,18.785-15.736,34.014-35.148,34.014s-35.148-15.229-35.148-34.014s15.736-34.012,35.148-34.012
			S729.357,410.331,729.357,429.118z"/>
		<text transform="matrix(1 0 0 1 683.2476 424.8638)" fill="#E75010" font-family="'Hind-Medium'" font-size="11">1 fois</text>
		<text transform="matrix(1 0 0 1 679.5679 440.4634)" fill="#E75010" font-family="'Hind-Medium'" font-size="11">par an</text>
		<path id="Tracé_59" fill="none" stroke="#A291C5" stroke-width="3" stroke-miterlimit="10" d="M732.121,103.122
			c0,18.787-15.736,34.016-35.15,34.016c-19.412,0-35.146-15.232-35.146-34.016s15.734-34.011,35.146-34.011
			S732.121,84.339,732.121,103.122z"/>
		<text transform="matrix(1 0 0 1 674.5015 99.4692)" enable-background="new    "><tspan x="0" y="0" fill="#A291C5" font-family="'Hind-Medium'" font-size="11">Entre SIC </tspan><tspan x="0" y="13.2" fill="#A291C5" font-family="'Hind-Medium'" font-size="11">et design</tspan></text>
		<path id="Tracé_60" fill="none" stroke="#A291C5" stroke-width="3" stroke-miterlimit="10" d="M673.134,260.128
			c0,18.785-15.736,34.016-35.148,34.016s-35.146-15.231-35.146-34.016s15.734-34.011,35.146-34.011
			S673.134,241.343,673.134,260.128z"/>
		<text transform="matrix(1 0 0 1 618.9272 255.0063)" enable-background="new    "><tspan x="0" y="0" fill="#A291C5" font-family="'Hind-Medium'" font-size="11">Cycle en</tspan><tspan x="-9.328" y="13.2" fill="#A291C5" font-family="'Hind-Medium'" font-size="11">deux temps </tspan></text>
		<path id="Tracé_61" fill="none" stroke="#2D7158" stroke-width="3" stroke-miterlimit="10" d="M391.805,451.129
			c0,18.785-15.735,34.016-35.147,34.016s-35.147-15.23-35.147-34.016s15.735-34.012,35.147-34.012S391.805,432.344,391.805,451.129
			z"/>
		<text transform="matrix(1 0 0 1 338.1748 447.9399)" fill="#2D7158" font-family="'Hind-Medium'" font-size="9">Étudiants </text>
		<text transform="matrix(1 0 0 1 330.6602 458.7397)" fill="#2D7158" font-family="'Hind-Medium'" font-size="9">DIIS et DNHD</text>
		<path id="Tracé_62" fill="none" stroke="#2D7158" stroke-width="3" stroke-miterlimit="10" d="M296.341,418.081
			c0,18.787-15.737,34.016-35.149,34.016s-35.147-15.229-35.147-34.016c0-18.785,15.735-34.011,35.147-34.011
			S296.341,399.295,296.341,418.081z"/>
		<text transform="matrix(1 0 0 1 233.0679 422.0796)" fill="#2D7158" font-family="'Hind-Medium'" font-size="9">Professionnels</text>
		<path id="Tracé_63" fill="none" stroke="#2D7158" stroke-width="3" stroke-miterlimit="10" d="M286.787,334.863
			c0,18.784-15.736,34.015-35.149,34.015c-19.413,0-35.147-15.23-35.147-34.015s15.735-34.013,35.147-34.013
			C271.05,300.85,286.787,316.077,286.787,334.863z"/>
		<text transform="matrix(1 0 0 1 229.6968 338.0698)" fill="#2D7158" font-family="'Hind-Medium'" font-size="9">Chercheurs</text>
		<text transform="matrix(1 0 0 1 185.0562 148.1187)" fill="#7F7E7F" font-family="'Hind-Medium'" font-size="12">Pratiques </text>
		<text transform="matrix(1 0 0 1 180.8862 162.5181)" fill="#7F7E7F" font-family="'Hind-Medium'" font-size="12">réticulaires</text>
		<path id="Tracé_64" fill="none" stroke="#7F7E7F" stroke-width="3" stroke-miterlimit="10" d="M258.034,152.722
			c0,25.913-21.705,46.92-48.481,46.92c-26.776,0-48.481-21.007-48.481-46.92c0-25.913,21.699-46.916,48.476-46.916
			C236.325,105.806,258.034,126.812,258.034,152.722z"/>
		<text transform="matrix(1 0 0 1 238.4707 225.2212)" enable-background="new    "><tspan x="0" y="0" fill="#DB0617" font-family="'Hind-Medium'" font-size="11">Potentialités </tspan><tspan x="-0.369" y="13.2" fill="#DB0617" font-family="'Hind-Medium'" font-size="11">du réseau en </tspan><tspan x="-2.288" y="26.4" fill="#DB0617" font-family="'Hind-Medium'" font-size="11">SIC et design  </tspan></text>
		<path id="Tracé_65" fill="none" stroke="#7F7E7F" stroke-width="2" stroke-miterlimit="10" d="M308.757,238.118
			c0,22.059-18.477,39.942-41.272,39.942s-41.27-17.883-41.27-39.942c0-22.059,18.476-39.937,41.27-39.937
			S308.757,216.061,308.757,238.118z"/>
		<text transform="matrix(1 0 0 1 63.9858 170.3774)" enable-background="new    "><tspan x="0" y="0" fill="#7F7E7F" font-family="'Hind-Medium'" font-size="9">Processus </tspan><tspan x="-7.848" y="10.8" fill="#7F7E7F" font-family="'Hind-Medium'" font-size="9">de conception</tspan><tspan x="-1.03" y="21.6" fill="#7F7E7F" font-family="'Hind-Medium'" font-size="9">et mise en </tspan><tspan x="-1.422" y="32.4" fill="#7F7E7F" font-family="'Hind-Medium'" font-size="9">production</tspan></text>
		<path id="Tracé_66" fill="none" stroke="#7F7E7F" stroke-width="2" stroke-miterlimit="10" d="M126.757,185.706
			c0,22.059-18.477,39.942-41.272,39.942s-41.27-17.883-41.27-39.942s18.476-39.937,41.27-39.937S126.757,163.644,126.757,185.706z"
			/>
		<text transform="matrix(1 0 0 1 102.4941 322.9634)" enable-background="new    "><tspan x="0" y="0" fill="#7F7E7F" font-family="'Hind-Medium'" font-size="9">Architecture </tspan><tspan x="-6.624" y="10.8" fill="#7F7E7F" font-family="'Hind-Medium'" font-size="9">de l’information,</tspan><tspan x="-5.643" y="21.6" fill="#7F7E7F" font-family="'Hind-Medium'" font-size="9">documentation </tspan><tspan x="-1.714" y="32.4" fill="#7F7E7F" font-family="'Hind-Medium'" font-size="9">et publication</tspan></text>
		<path id="Tracé_67" fill="none" stroke="#7F7E7F" stroke-width="2" stroke-miterlimit="10" d="M168.028,338.077
			c0,22.059-18.477,39.941-41.272,39.941s-41.27-17.883-41.27-39.941c0-22.06,18.476-39.938,41.27-39.938
			S168.028,316.019,168.028,338.077z"/>
		<text transform="matrix(1 0 0 1 267.8687 65.0894)" enable-background="new    "><tspan x="0" y="0" fill="#DB0617" font-family="'Hind-Medium'" font-size="10">Réflexion </tspan><tspan x="-15.405" y="12" fill="#DB0617" font-family="'Hind-Medium'" font-size="10">épistémologique</tspan><tspan x="0.27" y="24" fill="#DB0617" font-family="'Hind-Medium'" font-size="10">entre SIC </tspan><tspan x="1.13" y="36" fill="#DB0617" font-family="'Hind-Medium'" font-size="10">et design</tspan></text>
		<path id="Tracé_68" fill="none" stroke="#7F7E7F" stroke-width="2" stroke-miterlimit="10" d="M330.407,78.317
			c0,22.059-18.478,39.942-41.272,39.942s-41.27-17.883-41.27-39.942s18.476-39.937,41.27-39.937S330.407,56.26,330.407,78.317z"/>
		<path id="Tracé_69" fill="none" stroke="#61B59D" stroke-miterlimit="10" d="M366.734,538.098
			c0,15.91-13.326,28.809-29.766,28.809c-16.438,0-29.763-12.9-29.763-28.809c0-15.906,13.325-28.799,29.763-28.799
			C353.407,509.299,366.734,522.194,366.734,538.098z"/>
		<text transform="matrix(1 0 0 1 314.3589 534.7808)" fill="#252525" font-family="'Hind-Medium'" font-size="9">Évènement</text>
		<text transform="matrix(1 0 0 1 316.8291 545.5806)" fill="#252525" font-family="'Hind-Medium'" font-size="9">Reticulum</text>
		<path id="Tracé_70" fill="none" stroke="#61B59D" stroke-miterlimit="10" d="M630.404,538.098
			c0,15.91-13.326,28.809-29.766,28.809s-29.764-12.9-29.764-28.809c0-15.906,13.326-28.799,29.764-28.799
			S630.404,522.194,630.404,538.098z"/>
		<text transform="matrix(1 0 0 1 585.1782 539.4224)" fill="#252525" font-family="'Hind-Medium'" font-size="9">En ligne</text>
		<path id="Tracé_71" fill="none" stroke="#A291C5" stroke-width="2" stroke-miterlimit="10" d="M739.97,299.461
			c0,15.909-13.326,28.8-29.764,28.8s-29.764-12.9-29.764-28.8s13.324-28.8,29.764-28.8S739.97,283.553,739.97,299.461z"/>
		<text transform="matrix(1 0 0 1 694.8052 297.1206)" fill="#252525" font-family="'Hind-Medium'" font-size="9">Journée </text>
		<text transform="matrix(1 0 0 1 695.1733 307.9204)" fill="#252525" font-family="'Hind-Medium'" font-size="9">d’étude</text>
		<text transform="matrix(1 0 0 1 442.8433 410.4399)" fill="#FFFFFF" font-family="'Hind-Bold'" font-size="11">TYPOLOGIE</text>
		<text transform="matrix(1 0 0 1 447.0122 423.6392)" fill="#FFFFFF" font-family="'Hind-Bold'" font-size="11">DE REVUE</text>
		
			<line id="Ligne_13" fill="none" stroke="#2D7158" stroke-width="2" stroke-miterlimit="10" x1="289.136" y1="397.976" x2="401.767" y2="325.806"/>
		<path id="Tracé_72" fill="#2D7158" d="M383.396,361.89c0,21.551-18.052,39.022-40.32,39.022c-22.27,0-40.32-17.472-40.32-39.022
			c0-21.552,18.051-39.019,40.32-39.019C365.345,322.872,383.396,340.34,383.396,361.89z"/>
		<text transform="matrix(1 0 0 1 304.874 366.0151)" fill="#FFFFFF" font-family="'Hind-Bold'" font-size="11">COMMUNAUTÉ</text>
		<line id="Ligne_14" fill="none" stroke="#61B59D" stroke-miterlimit="10" x1="431.474" y1="530.385" x2="443.333" y2="520.459"/>
		<line id="Ligne_15" fill="none" stroke="#61B59D" stroke-miterlimit="10" x1="509.462" y1="528.151" x2="499.703" y2="518.788"/>
		
			<line id="Ligne_16" fill="none" stroke="#E75010" stroke-width="2" stroke-miterlimit="10" x1="539.982" y1="325.806" x2="665.707" y2="407.381"/>
		<path id="Tracé_73" fill="#E75010" d="M643.164,368.875c0,21.551-18.051,39.022-40.32,39.022
			c-22.268,0-40.32-17.472-40.32-39.022s18.053-39.017,40.32-39.017C625.113,329.859,643.164,347.327,643.164,368.875z"/>
		<text transform="matrix(1 0 0 1 567.2925 373.0015)" fill="#FFFFFF" font-family="'Hind-Bold'" font-size="11">TEMPORALITÉ</text>
		<text transform="matrix(1 0 0 1 394.4702 269.9478)" fill="#FFFFFF" font-family="'Hind-Regular'" font-size="18">prototype de revue</text>
		<text transform="matrix(1 0 0 1 417.5459 291.9058)" fill="#61B59D" font-family="'Hind-Regular'" font-size="13">Interroger le réseau </text>
		<text transform="matrix(1 0 0 1 436.4214 307.5054)" fill="#61B59D" font-family="'Hind-Regular'" font-size="13">par le réseau</text>
		<text transform="matrix(1 0 0 1 398.8389 246.397)" fill="#FFFFFF" font-family="'Hind-Bold'" font-size="27">RETICULUM</text>
		
			<line id="Ligne_17" fill="none" stroke="#A291C5" stroke-width="2" stroke-miterlimit="10" x1="543.013" y1="197.796" x2="663.804" y2="117.26"/>
		<path id="Tracé_74" fill="#A291C5" d="M646.853,152.723c0,21.551-18.051,39.022-40.32,39.022s-40.32-17.471-40.32-39.022
			c0-21.551,18.051-39.017,40.322-39.017C628.804,113.706,646.853,131.174,646.853,152.723z"/>
		<text transform="matrix(1 0 0 1 582.6567 155.1743)" fill="#FFFFFF" font-family="'Hind-Bold'" font-size="11">FORMAT</text>
		
			<line id="Ligne_18" fill="none" stroke="#7F7E7F" stroke-width="2" stroke-miterlimit="10" x1="258.029" y1="152.722" x2="298.782" y2="152.722"/>
		
			<line id="Ligne_19" fill="none" stroke="#7F7E7F" stroke-width="2" stroke-miterlimit="10" x1="372.993" y1="160.509" x2="411.296" y2="185.703"/>
		
			<line id="Ligne_20" fill="none" stroke="#7F7E7F" stroke-width="2" stroke-miterlimit="10" x1="311.77" y1="183.572" x2="292.03" y2="206.01"/>
		
			<line id="Ligne_21" fill="none" stroke="#A291C5" stroke-width="2" stroke-miterlimit="10" x1="615.806" y1="189.328" x2="629.062" y2="227.226"/>
		<line id="Ligne_22" fill="none" stroke="#61B59D" stroke-miterlimit="10" x1="379.008" y1="546.049" x2="366.251" y2="543.258"/>
		<line id="Ligne_23" fill="none" stroke="#61B59D" stroke-miterlimit="10" x1="559.699" y1="546.049" x2="571.158" y2="542.051"/>
		<path id="Tracé_75" fill="#FFFFFF" stroke="#A291C5" stroke-width="2" stroke-miterlimit="10" d="M739.97,206.348
			c0,15.909-13.326,28.806-29.764,28.806s-29.764-12.9-29.764-28.806c0-15.906,13.324-28.8,29.764-28.8
			S739.97,190.441,739.97,206.348z"/>
		<text transform="matrix(1 0 0 1 697.1001 197.0796)" fill="#252525" font-family="'Hind-Medium'" font-size="9">Atelier </text>
		<text transform="matrix(1 0 0 1 685.8481 207.8794)" fill="#252525" font-family="'Hind-Medium'" font-size="9">Masters DIIS </text>
		<text transform="matrix(1 0 0 1 693.0405 218.6792)" fill="#252525" font-family="'Hind-Medium'" font-size="9">et DNHD</text>
		
			<line id="Ligne_24" fill="none" stroke="#7F7E7F" stroke-width="2" stroke-miterlimit="10" x1="311.771" y1="111.711" x2="317.543" y2="118.26"/>
		
			<line id="Ligne_25" fill="none" stroke="#A291C5" stroke-width="2" stroke-miterlimit="10" x1="670.16" y1="273.84" x2="683.775" y2="286.224"/>
		
			<line id="Ligne_26" fill="none" stroke="#A291C5" stroke-width="2" stroke-miterlimit="10" x1="667.736" y1="242.016" x2="688.57" y2="226.116"/>
		
			<line id="Ligne_27" fill="none" stroke="#2D7158" stroke-width="2" stroke-miterlimit="10" x1="285.473" y1="344.07" x2="307.208" y2="350.875"/>
		
			<line id="Ligne_28" fill="none" stroke="#2D7158" stroke-width="2" stroke-miterlimit="10" x1="353.346" y1="417.292" x2="350.846" y2="397.977"/>
		
			<line id="Ligne_29" fill="none" stroke="#7F7E7F" stroke-width="2" stroke-miterlimit="10" x1="300.287" y1="169.989" x2="182.083" y2="225.642"/>
		
			<line id="Ligne_30" fill="none" stroke="#7F7E7F" stroke-width="2" stroke-miterlimit="10" x1="114.643" y1="213.968" x2="126.757" y2="225.642"/>
		
			<line id="Ligne_31" fill="none" stroke="#7F7E7F" stroke-width="2" stroke-miterlimit="10" x1="143.43" y1="287.32" x2="137.317" y2="299.464"/>
	</g>
</g>
</svg>
