<svg xmlns="http://www.w3.org/2000/svg" xmlns:xlink="http://www.w3.org/1999/xlink" width="841.89" height="616.282" viewBox="0 0 841.89 616.282">
  <defs>
    <clipPath id="clip-_111">
      <rect width="841.89" height="616.282"/>
    </clipPath>
  </defs>
  <g id="_111" data-name="111" clip-path="url(#clip-_111)">
    <rect width="841.89" height="616.282" fill="#fff"/>
    <line id="Ligne_10" data-name="Ligne 10" x2="17.808" y2="21.055" transform="translate(728.471 322.197)" fill="none" stroke="#e75010" stroke-miterlimit="10" stroke-width="2"/>
    <line id="Ligne_11" data-name="Ligne 11" x1="14.313" y2="12.255" transform="translate(720.302 394.077)" fill="none" stroke="#e75010" stroke-miterlimit="10" stroke-width="2"/>
    <line id="Ligne_12" data-name="Ligne 12" y2="177.885" transform="translate(470.875 355.468)" fill="none" stroke="#61b59d" stroke-miterlimit="10" stroke-width="2"/>
    <path id="Tracé_50" data-name="Tracé 50" d="M551.779,249.022a95.339,95.339,0,1,1-95.338-95.338A95.341,95.341,0,0,1,551.779,249.022Z" transform="translate(14.434 11.106)" fill="#252525"/>
    <path id="Tracé_51" data-name="Tracé 51" d="M362.335,141.617c0,21.551-18.051,39.022-40.32,39.022s-40.32-17.471-40.32-39.022,18.051-39.018,40.32-39.018S362.335,120.068,362.335,141.617Z" transform="translate(14.434 11.106)" fill="#7f7e7f"/>
    <text id="THÈME_" data-name="THÈME
" transform="translate(299.492 144.385)" fill="#fff" font-size="11" font-family="Hind-Bold, Hind" font-weight="700"><tspan x="20.006" y="12">THÈME</tspan><tspan font-family="Hind-Bold"><tspan x="37.667" y="25.2"></tspan></tspan></text>
    <path id="Tracé_52" data-name="Tracé 52" d="M178.2,240.846c0,21.55-18.052,39.021-40.32,39.021s-40.32-17.471-40.32-39.021,18.051-39.018,40.32-39.018S178.2,219.3,178.2,240.846Z" transform="translate(14.434 11.106)" fill="#7f7e7f"/>
    <text id="SOUS-_THÈME_" data-name="SOUS-
THÈME
" transform="translate(114.643 236.368)" fill="#fff" font-size="12" font-family="Hind-Bold, Hind" font-weight="700"><tspan x="20.933" y="13">SOUS-</tspan><tspan x="18.401" y="27.4">THÈME</tspan></text>
    <path id="Tracé_53" data-name="Tracé 53" d="M497.681,404.368c0,21.551-18.052,39.021-40.32,39.021s-40.321-17.47-40.321-39.021,18.052-39.018,40.321-39.018S497.681,382.819,497.681,404.368Z" transform="translate(14.434 11.106)" fill="#61b59d"/>
    <path id="Tracé_54" data-name="Tracé 54" d="M491.588,488.231c0,18.785-15.736,34.016-35.148,34.016s-35.148-15.231-35.148-34.016,15.736-34.011,35.148-34.011S491.588,469.446,491.588,488.231Z" transform="translate(14.434 11.106)" fill="#fff" stroke="#61b59d" stroke-miterlimit="10" stroke-width="3"/>
    <text id="REVUE_HYBRIDE_" data-name="REVUE
HYBRIDE
" transform="translate(437.706 481.084)" fill="#61b59d" font-size="13" font-family="Hind-Medium, Hind" font-weight="500"><tspan x="14.377" y="14">REVUE</tspan><tspan x="8.092" y="29.6">HYBRIDE</tspan></text>
    <path id="Tracé_55" data-name="Tracé 55" d="M425.931,537.571c0,16.141-13.52,29.225-30.2,29.225s-30.2-13.084-30.2-29.225,13.52-29.221,30.2-29.221S425.931,521.434,425.931,537.571Z" transform="translate(14.434 11.106)" fill="#fff" stroke="#61b59d" stroke-miterlimit="10" stroke-width="2"/>
    <text id="Sur_papier_" data-name="Sur
papier
" transform="translate(381.672 533.025)" fill="#040506" font-size="11.169" font-family="Hind-Medium, Hind" font-weight="500"><tspan x="20.617" y="12">Sur</tspan><tspan x="13.039" y="25.403">papier</tspan></text>
    <path id="Tracé_56" data-name="Tracé 56" d="M545.464,537.571c0,16.141-13.52,29.225-30.2,29.225s-30.2-13.084-30.2-29.225,13.519-29.221,30.2-29.221S545.464,521.434,545.464,537.571Z" transform="translate(14.434 11.106)" fill="#fff" stroke="#61b59d" stroke-miterlimit="10" stroke-width="2"/>
    <text id="Sur_écran_" data-name="Sur
écran
" transform="translate(501.205 533.025)" fill="#040506" font-size="11.169" font-family="Hind-Medium, Hind" font-weight="500"><tspan x="20.617" y="12">Sur</tspan><tspan x="15.178" y="25.403">écran</tspan></text>
    <path id="Tracé_57" data-name="Tracé 57" d="M714.922,418.011c0,18.785-15.736,34.015-35.148,34.015s-35.148-15.23-35.148-34.015S660.362,384,679.774,384,714.922,399.225,714.922,418.011Z" transform="translate(14.434 11.106)" fill="none" stroke="#e75010" stroke-miterlimit="10" stroke-width="3"/>
    <text id="_1_fois_par_an_" data-name="1 fois
par an
" transform="translate(661.04 410.864)" fill="#e75010" font-size="13" font-family="Hind-Medium, Hind" font-weight="500"><tspan x="19.207" y="14">1 fois</tspan><tspan x="15.528" y="29.6">par an</tspan><tspan font-family="Hind-Medium"><tspan x="33.169" y="45.2"></tspan></tspan></text>
    <path id="Tracé_58" data-name="Tracé 58" d="M783.24,362.3c0,18.785-15.737,34.015-35.149,34.015s-35.147-15.23-35.147-34.015,15.735-34.012,35.147-34.012S783.24,343.518,783.24,362.3Z" transform="translate(14.434 11.106)" fill="none" stroke="#e75010" stroke-miterlimit="10" stroke-width="2"/>
    <text id="_8_février_2021_" data-name="8 février 2021
" transform="translate(729.357 366.326)" fill="#252525" font-size="9" font-family="Hind-Medium, Hind" font-weight="500"><tspan x="7.393" y="9">8 février 2021</tspan></text>
    <path id="Tracé_59" data-name="Tracé 59" d="M717.686,92.016c0,18.787-15.736,34.016-35.149,34.016S647.39,110.8,647.39,92.016s15.735-34.011,35.147-34.011S717.686,73.233,717.686,92.016Z" transform="translate(14.434 11.106)" fill="none" stroke="#a291c5" stroke-miterlimit="10" stroke-width="3"/>
    <text id="Croisée_des_sciences_de_l_information_et_de_la_communication_et_du_design" data-name="Croisée des sciences de l’information et de la communication et du design" transform="translate(670.16 76.72)" fill="#a291c5" font-size="7" font-family="Hind-Medium, Hind" font-weight="500"><tspan x="9.341" y="7">Croisée des </tspan><tspan x="9.393" y="15.4">sciences de </tspan><tspan x="3.391" y="23.8">l’information et </tspan><tspan x="19.48" y="32.2">de la </tspan><tspan x="3.202" y="40.6">communication </tspan><tspan x="7.909" y="49">et du design</tspan></text>
    <path id="Tracé_60" data-name="Tracé 60" d="M658.7,249.022c0,18.785-15.736,34.016-35.148,34.016s-35.147-15.231-35.147-34.016,15.735-34.011,35.147-34.011S658.7,230.237,658.7,249.022Z" transform="translate(14.434 11.106)" fill="none" stroke="#a291c5" stroke-miterlimit="10" stroke-width="3"/>
    <text id="Cycle_en_deux_temps_" data-name="Cycle en deux temps
" transform="translate(604.822 233.507)" fill="#a291c5" font-size="13" font-family="Hind-Medium, Hind" font-weight="500"><tspan x="9.301" y="14">Cycle en </tspan><tspan x="19.207" y="29.6">deux </tspan><tspan x="15.437" y="45.2">temps</tspan></text>
    <path id="Tracé_61" data-name="Tracé 61" d="M377.371,440.023c0,18.785-15.736,34.016-35.148,34.016s-35.147-15.231-35.147-34.016,15.735-34.011,35.147-34.011S377.371,421.238,377.371,440.023Z" transform="translate(14.434 11.106)" fill="none" stroke="#2d7158" stroke-miterlimit="10" stroke-width="3"/>
    <text id="Étudiants_DIIS_et_DNHD" data-name="Étudiants 
DIIS et DNHD" transform="translate(328.071 438.94)" fill="#2d7158" font-size="9" font-family="Hind-Medium, Hind" font-weight="500"><tspan x="10.104" y="9">Étudiants </tspan><tspan x="2.589" y="19.8">DIIS et DNHD</tspan></text>
    <path id="Tracé_62" data-name="Tracé 62" d="M281.907,406.975c0,18.786-15.737,34.016-35.149,34.016s-35.147-15.23-35.147-34.016,15.735-34.011,35.147-34.011S281.907,388.19,281.907,406.975Z" transform="translate(14.434 11.106)" fill="none" stroke="#2d7158" stroke-miterlimit="10" stroke-width="3"/>
    <text id="Professionnels" transform="translate(232.607 413.08)" fill="#2d7158" font-size="9" font-family="Hind-Medium, Hind" font-weight="500"><tspan x="0.461" y="9">Professionnels</tspan></text>
    <path id="Tracé_63" data-name="Tracé 63" d="M272.353,323.757c0,18.784-15.736,34.014-35.149,34.014s-35.147-15.23-35.147-34.014,15.735-34.013,35.147-34.013S272.353,304.97,272.353,323.757Z" transform="translate(14.434 11.106)" fill="none" stroke="#2d7158" stroke-miterlimit="10" stroke-width="3"/>
    <text id="Chercheurs" transform="translate(223.053 329.07)" fill="#2d7158" font-size="9" font-family="Hind-Medium, Hind" font-weight="500"><tspan x="6.644" y="9">Chercheurs</tspan></text>
    <text id="Pratiques_réticulaires_" data-name="Pratiques réticulaires
" transform="translate(172.308 135.119)" fill="#7f7e7f" font-size="12" font-family="Hind-Medium, Hind" font-weight="500"><tspan x="12.748" y="13">Pratiques </tspan><tspan x="8.578" y="27.4">réticulaires</tspan></text>
    <path id="Tracé_64" data-name="Tracé 64" d="M243.6,141.616c0,25.913-21.705,46.92-48.481,46.92s-48.481-21.007-48.481-46.92S168.337,94.7,195.114,94.7,243.6,115.706,243.6,141.616Z" transform="translate(14.434 11.106)" fill="none" stroke="#7f7e7f" stroke-miterlimit="10" stroke-width="3"/>
    <text id="Potentialités_du_réseau_dans_les_pratiques_en_design_et_les_technologies_de_l_information_" data-name="Potentialités du réseau dans les pratiques en design et les technologies de l’information
" transform="translate(230.246 213.222)" fill="#db0617" font-size="8" font-family="Hind-Medium, Hind" font-weight="500"><tspan x="9.772" y="8">Potentialités du </tspan><tspan x="10.888" y="17.6">réseau dans les </tspan><tspan x="3.004" y="27.2">pratiques en design </tspan><tspan x="4.548" y="36.8">et les technologies </tspan><tspan x="9.648" y="46.4">de l’information</tspan></text>
    <path id="Tracé_65" data-name="Tracé 65" d="M294.323,227.012c0,22.059-18.477,39.942-41.272,39.942s-41.27-17.883-41.27-39.942,18.476-39.937,41.27-39.937S294.323,204.955,294.323,227.012Z" transform="translate(14.434 11.106)" fill="none" stroke="#7f7e7f" stroke-miterlimit="10" stroke-width="2"/>
    <text id="Processus_de_conception_production" data-name="Processus de conception/
production" transform="translate(53.613 167.378)" fill="#7f7e7f" font-size="9" font-family="Hind-Medium, Hind" font-weight="500"><tspan x="6.636" y="9">Processus de </tspan><tspan x="7.946" y="19.8">conception/</tspan><tspan x="10.187" y="30.6">production</tspan></text>
    <path id="Tracé_66" data-name="Tracé 66" d="M112.323,174.6c0,22.059-18.477,39.942-41.272,39.942s-41.27-17.883-41.27-39.942,18.476-39.937,41.27-39.937S112.323,152.538,112.323,174.6Z" transform="translate(14.434 11.106)" fill="none" stroke="#7f7e7f" stroke-miterlimit="10" stroke-width="2"/>
    <text id="Possibilités_d_architecture_et_d_éditorialisation_suivant_une_approche_documentaire" data-name="Possibilités d’architecture et d’éditorialisation suivant une approche documentaire" transform="translate(89.517 302.964)" fill="#7f7e7f" font-size="9" font-family="Hind-Medium, Hind" font-weight="500"><tspan x="15.496" y="9">Possibilités </tspan><tspan x="4.863" y="19.8">d’architecture et </tspan><tspan x="4.395" y="30.6">d’éditorialisation </tspan><tspan x="14.623" y="41.4">suivant une </tspan><tspan x="18.75" y="52.2">approche </tspan><tspan x="9.997" y="63">documentaire</tspan></text>
    <path id="Tracé_67" data-name="Tracé 67" d="M153.594,326.97c0,22.059-18.477,39.942-41.272,39.942s-41.27-17.883-41.27-39.942,18.476-39.937,41.27-39.937S153.594,304.913,153.594,326.97Z" transform="translate(14.434 11.106)" fill="none" stroke="#7f7e7f" stroke-miterlimit="10" stroke-width="2"/>
    <text id="Réflexion_épistémologique_entre_design_et_documentation_" data-name="Réflexion épistémologique entre design et documentation
" transform="translate(255.702 54.09)" fill="#db0617" font-size="9" font-family="Hind-Medium, Hind" font-weight="500"><tspan x="15.416" y="9">Réflexion </tspan><tspan x="0.444" y="19.8">épistémologique </tspan><tspan x="3.806" y="30.6">entre design et </tspan><tspan x="3.378" y="41.4">documentation</tspan></text>
    <path id="Tracé_68" data-name="Tracé 68" d="M315.973,67.211c0,22.059-18.477,39.942-41.272,39.942s-41.27-17.883-41.27-39.942,18.476-39.937,41.27-39.937S315.973,45.154,315.973,67.211Z" transform="translate(14.434 11.106)" fill="none" stroke="#7f7e7f" stroke-miterlimit="10" stroke-width="2"/>
    <path id="Tracé_69" data-name="Tracé 69" d="M352.3,526.993c0,15.91-13.326,28.807-29.765,28.807s-29.763-12.9-29.763-28.807,13.325-28.8,29.763-28.8S352.3,511.087,352.3,526.993Z" transform="translate(14.434 11.106)" fill="none" stroke="#61b59d" stroke-miterlimit="10" stroke-width="1"/>
    <text id="Évènement_Reticulum_" data-name="Évènement
Reticulum
" transform="translate(306.451 525.781)" fill="#252525" font-size="9" font-family="Hind-Medium, Hind" font-weight="500"><tspan x="7.908" y="9">Évènement</tspan><tspan x="10.378" y="19.8">Reticulum</tspan><tspan font-family="Hind-Medium"><tspan x="29.998" y="30.6"></tspan></tspan></text>
    <path id="Tracé_70" data-name="Tracé 70" d="M615.969,526.993c0,15.91-13.326,28.807-29.765,28.807s-29.763-12.9-29.763-28.807,13.325-28.8,29.763-28.8S615.969,511.087,615.969,526.993Z" transform="translate(14.434 11.106)" fill="none" stroke="#61b59d" stroke-miterlimit="10" stroke-width="1"/>
    <text id="En_ligne_" data-name="En ligne
" transform="translate(570.642 530.423)" fill="#252525" font-size="9" font-family="Hind-Medium, Hind" font-weight="500"><tspan x="14.536" y="9">En ligne</tspan></text>
    <path id="Tracé_71" data-name="Tracé 71" d="M725.537,288.355c0,15.908-13.326,28.8-29.764,28.8s-29.764-12.9-29.764-28.8,13.325-28.8,29.764-28.8S725.537,272.447,725.537,288.355Z" transform="translate(14.434 11.106)" fill="none" stroke="#a291c5" stroke-miterlimit="10" stroke-width="2"/>
    <text id="Journée_d_étude" data-name="Journée d’étude" transform="translate(680.21 288.121)" fill="#252525" font-size="9" font-family="Hind-Medium, Hind" font-weight="500"><tspan x="14.595" y="9">Journée </tspan><tspan x="14.964" y="19.8">d’étude</tspan></text>
    <text id="TYPOLOGIE_DE_REVUE_" data-name="TYPOLOGIE
DE REVUE
" transform="translate(434.128 398.44)" fill="#fff" font-size="11" font-family="Hind-Bold, Hind" font-weight="700"><tspan x="8.715" y="12">TYPOLOGIE</tspan><tspan x="12.884" y="25.2">DE REVUE</tspan><tspan font-family="Hind-Bold"><tspan x="37.667" y="38.4"></tspan></tspan></text>
    <line id="Ligne_13" data-name="Ligne 13" y1="72.17" x2="112.631" transform="translate(289.136 325.806)" fill="none" stroke="#2d7158" stroke-miterlimit="10" stroke-width="2"/>
    <path id="Tracé_72" data-name="Tracé 72" d="M368.962,350.784c0,21.551-18.051,39.022-40.32,39.022s-40.32-17.471-40.32-39.022,18.051-39.018,40.32-39.018S368.962,329.235,368.962,350.784Z" transform="translate(14.434 11.106)" fill="#2d7158"/>
    <text id="COMMUNAUTÉ_" data-name="COMMUNAUTÉ
" transform="translate(300.287 354.016)" fill="#fff" font-size="11" font-family="Hind-Bold, Hind" font-weight="700"><tspan x="4.587" y="12">COMMUNAUTÉ</tspan></text>
    <line id="Ligne_14" data-name="Ligne 14" y1="9.926" x2="11.859" transform="translate(431.475 520.459)" fill="none" stroke="#61b59d" stroke-miterlimit="10" stroke-width="1"/>
    <line id="Ligne_15" data-name="Ligne 15" x1="9.759" y1="9.363" transform="translate(499.703 518.787)" fill="none" stroke="#61b59d" stroke-miterlimit="10" stroke-width="1"/>
    <line id="Ligne_16" data-name="Ligne 16" x2="125.726" y2="81.576" transform="translate(539.981 325.806)" fill="none" stroke="#e75010" stroke-miterlimit="10" stroke-width="2"/>
    <path id="Tracé_73" data-name="Tracé 73" d="M628.73,357.77c0,21.551-18.052,39.022-40.32,39.022s-40.321-17.471-40.321-39.022,18.052-39.017,40.321-39.017S628.73,336.221,628.73,357.77Z" transform="translate(14.434 11.106)" fill="#e75010"/>
    <text id="TEMPORALITÉ_" data-name="TEMPORALITÉ
" transform="translate(560.054 361.002)" fill="#fff" font-size="11" font-family="Hind-Bold, Hind" font-weight="700"><tspan x="7.238" y="12">TEMPORALITÉ</tspan></text>
    <text id="prototype_de_revue_" data-name="prototype de revue
" transform="translate(385.535 250.948)" fill="#fff" font-size="18" font-family="Hind-Regular, Hind"><tspan x="8.935" y="19">prototype de revue</tspan></text>
    <text id="Interroger_le_réseau_par_le_réseau" data-name="Interroger le réseau 
par le réseau" transform="translate(397.746 277.906)" fill="#61b59d" font-size="13" font-family="Hind-Regular, Hind"><tspan x="19.8" y="14">Interroger le réseau </tspan><tspan x="38.676" y="29.6">par le réseau</tspan></text>
    <text id="RETICULUM_" data-name="RETICULUM
" transform="translate(396.826 218.397)" fill="#fff" font-size="27" font-family="Hind-Bold, Hind" font-weight="700"><tspan x="2.013" y="28">RETICULUM</tspan></text>
    <line id="Ligne_17" data-name="Ligne 17" y1="80.536" x2="120.79" transform="translate(543.014 117.26)" fill="none" stroke="#a291c5" stroke-miterlimit="10" stroke-width="2"/>
    <path id="Tracé_74" data-name="Tracé 74" d="M632.419,141.617c0,21.551-18.051,39.022-40.32,39.022s-40.32-17.471-40.32-39.022S569.83,102.6,592.1,102.6,632.419,120.068,632.419,141.617Z" transform="translate(14.434 11.106)" fill="#a291c5"/>
    <text id="CARACTÉRISTIQUES" transform="translate(569.073 149.925)" fill="#fff" font-size="8" font-family="Hind-Bold, Hind" font-weight="700"><tspan x="1.24" y="8">CARACTÉRISTIQUES</tspan></text>
    <line id="Ligne_18" data-name="Ligne 18" x2="40.753" transform="translate(258.029 152.722)" fill="none" stroke="#7f7e7f" stroke-miterlimit="10" stroke-width="2"/>
    <line id="Ligne_19" data-name="Ligne 19" x2="38.303" y2="25.194" transform="translate(372.993 160.509)" fill="none" stroke="#7f7e7f" stroke-miterlimit="10" stroke-width="2"/>
    <line id="Ligne_20" data-name="Ligne 20" x1="19.74" y2="22.438" transform="translate(292.03 183.572)" fill="none" stroke="#7f7e7f" stroke-miterlimit="10" stroke-width="2"/>
    <line id="Ligne_21" data-name="Ligne 21" x2="13.256" y2="37.898" transform="translate(615.806 189.328)" fill="none" stroke="#a291c5" stroke-miterlimit="10" stroke-width="2"/>
    <line id="Ligne_22" data-name="Ligne 22" x1="12.757" y1="2.791" transform="translate(366.251 543.259)" fill="none" stroke="#61b59d" stroke-miterlimit="10" stroke-width="1"/>
    <line id="Ligne_23" data-name="Ligne 23" y1="3.998" x2="11.459" transform="translate(559.699 542.052)" fill="none" stroke="#61b59d" stroke-miterlimit="10" stroke-width="1"/>
    <path id="Tracé_75" data-name="Tracé 75" d="M725.537,195.242c0,15.909-13.326,28.806-29.764,28.806s-29.764-12.9-29.764-28.806,13.325-28.8,29.764-28.8S725.537,179.335,725.537,195.242Z" transform="translate(14.434 11.106)" fill="#fff" stroke="#a291c5" stroke-miterlimit="10" stroke-width="2"/>
    <text id="Atelier_étudiants_DIIS_et_DNHD" data-name="Atelier étudiants DIIS et DNHD" transform="translate(680.21 188.08)" fill="#252525" font-size="9" font-family="Hind-Medium, Hind" font-weight="500"><tspan x="16.89" y="9">Atelier </tspan><tspan x="2.638" y="19.8">étudiants DIIS </tspan><tspan x="12.831" y="30.6">et DNHD</tspan></text>
    <line id="Ligne_24" data-name="Ligne 24" x2="5.772" y2="6.549" transform="translate(311.771 111.711)" fill="none" stroke="#7f7e7f" stroke-miterlimit="10" stroke-width="2"/>
    <line id="Ligne_25" data-name="Ligne 25" x2="13.615" y2="12.384" transform="translate(670.16 273.84)" fill="none" stroke="#a291c5" stroke-miterlimit="10" stroke-width="2"/>
    <line id="Ligne_26" data-name="Ligne 26" y1="15.9" x2="20.834" transform="translate(667.736 226.116)" fill="none" stroke="#a291c5" stroke-miterlimit="10" stroke-width="2"/>
    <line id="Ligne_27" data-name="Ligne 27" x2="21.735" y2="6.805" transform="translate(285.473 344.07)" fill="none" stroke="#2d7158" stroke-miterlimit="10" stroke-width="2"/>
    <line id="Ligne_28" data-name="Ligne 28" x1="2.5" y1="19.315" transform="translate(350.846 397.977)" fill="none" stroke="#2d7158" stroke-miterlimit="10" stroke-width="2"/>
    <line id="Ligne_29" data-name="Ligne 29" x1="118.204" y2="55.653" transform="translate(182.083 169.989)" fill="none" stroke="#7f7e7f" stroke-miterlimit="10" stroke-width="2"/>
    <line id="Ligne_30" data-name="Ligne 30" x2="12.114" y2="11.674" transform="translate(114.643 213.968)" fill="none" stroke="#7f7e7f" stroke-miterlimit="10" stroke-width="2"/>
    <line id="Ligne_31" data-name="Ligne 31" x1="6.113" y2="12.144" transform="translate(137.317 287.32)" fill="none" stroke="#7f7e7f" stroke-miterlimit="10" stroke-width="2"/>
  </g>
</svg>
