<svg xmlns="http://www.w3.org/2000/svg" xmlns:xlink="http://www.w3.org/1999/xlink" width="841.891" height="595.28" viewBox="0 0 841.891 595.28">
  <defs>
    <clipPath id="clip-_112">
      <rect width="841.891" height="595.28"/>
    </clipPath>
  </defs>
  <g id="_112" data-name="112" clip-path="url(#clip-_112)">
    <rect width="841.891" height="595.28" fill="#fff"/>
    <circle id="Ellipse_1" data-name="Ellipse 1" cx="214.49" cy="214.49" r="214.49" transform="translate(119.054 310.702) rotate(-45)" fill="#a9a8a8"/>
    <circle id="Ellipse_2" data-name="Ellipse 2" cx="166.492" cy="166.492" r="166.492" transform="translate(256.397 145.211)" fill="#fff" stroke="#252525" stroke-miterlimit="10" stroke-width="2"/>
    <path id="Tracé_1" data-name="Tracé 1" d="M1355.965,383.408c0,21.551-18.053,39.022-40.321,39.022s-40.322-17.471-40.322-39.022,18.051-39.018,40.322-39.018S1355.965,361.859,1355.965,383.408Z" transform="translate(-892.551 7)" fill="#2d7158"/>
    <circle id="Ellipse_3" data-name="Ellipse 3" cx="38.852" cy="38.852" r="38.852" transform="matrix(0.924, -0.383, 0.383, 0.924, 590.415, 485.242)" fill="#252525"/>
    <text id="Travailler_en_réseau_en_temps_de_Covid" data-name="Travailler en réseau en temps de Covid" transform="translate(604.507 490.133)" fill="#fff" font-size="9.593" font-family="Hind-Regular, Hind"><tspan x="11.008" y="10">Travailler en </tspan><tspan x="1.885" y="21.512">réseau en temps </tspan><tspan x="17.474" y="33.024">de Covid</tspan></text>
    <circle id="Ellipse_4" data-name="Ellipse 4" cx="38.852" cy="38.852" r="38.852" transform="translate(569.253 144.731) rotate(-76.717)" fill="#252525" opacity="0.9"/>
    <circle id="Ellipse_5" data-name="Ellipse 5" cx="38.852" cy="38.852" r="38.852" transform="translate(644.774 144.731) rotate(-76.717)" fill="#252525" opacity="0.9"/>
    <circle id="Ellipse_6" data-name="Ellipse 6" cx="38.852" cy="38.852" r="38.852" transform="translate(599.898 170.533) rotate(-45)" fill="#252525" opacity="0.9"/>
    <text id="Le_collectif_-_Le_projet_des_aidants_" data-name="Le collectif - Le projet des aidants " transform="translate(580.28 99.38)" fill="#fff" font-size="9.593" font-family="Hind-Regular, Hind"><tspan x="4.528" y="10">Le collectif - Le </tspan><tspan x="14.994" y="21.512">projet des </tspan><tspan x="20.817" y="33.024">aidants </tspan></text>
    <text id="Efficacité_et_pertinence_Le_workshop" data-name="Efficacité et pertinence – Le workshop" transform="translate(658.173 99.38)" fill="#fff" font-size="9.593" font-family="Hind-Regular, Hind"><tspan x="9.458" y="10">Efficacité et </tspan><tspan x="1.496" y="21.512">pertinence – Le </tspan><tspan x="12.998" y="33.024">workshop</tspan></text>
    <text id="La_collaboration_entre_designers_et_ingénieurs" data-name="La collaboration entre designers et ingénieurs" transform="translate(619.132 155.28)" fill="#fff" font-size="9.593" font-family="Hind-Regular, Hind"><tspan x="2.815" y="10">La collaboration </tspan><tspan x="4.024" y="21.512">entre designers </tspan><tspan x="9.08" y="33.024">et ingénieurs</tspan></text>
    <path id="Tracé_2" data-name="Tracé 2" d="M1283.963,283.074c0,21.551-18.053,39.022-40.321,39.022s-40.32-17.471-40.32-39.022,18.051-39.018,40.32-39.018S1283.963,261.525,1283.963,283.074Z" transform="translate(-892.551 7)" fill="#a291c5"/>
    <text id="RETICULUM" transform="translate(362.113 173.44)" fill="#584e92" font-size="23" font-family="Hind-Medium, Hind" font-weight="500"><tspan x="2.395" y="24">RETICULUM</tspan></text>
    <text id="PARTIE_2" data-name="PARTIE 2" transform="translate(147.348 62.036)" fill="#584e92" font-size="14" font-family="Hind-Medium, Hind" font-weight="500"><tspan x="22.583" y="15">PARTIE 2</tspan></text>
    <text id="Une_entrée_en_matière" data-name="Une entrée en matière" transform="translate(149.47 81.768)" fill="#584e92" font-size="9" font-family="Hind-Regular, Hind"><tspan x="6.041" y="9">Une entrée en matière</tspan></text>
    <text id="PARTIE_1_" data-name="PARTIE 1 " transform="translate(76.98 313.227)" fill="#999" font-size="14" font-family="Hind-Medium, Hind" font-weight="500"><tspan x="0" y="15">PARTIE 1 </tspan></text>
    <text id="PARTIE_1_2" data-name="PARTIE 1 " transform="translate(396.065 271.168)" fill="#999" font-size="14" font-family="Hind-Medium, Hind" font-weight="500"><tspan x="1.33" y="15">PARTIE 1 </tspan></text>
    <text id="PARTIE_3" data-name="PARTIE 3" transform="translate(605.674 32.919)" fill="#e75010" font-size="14" font-family="Hind-Medium, Hind" font-weight="500"><tspan x="22.758" y="15">PARTIE 3</tspan></text>
    <text id="Pratiques_réticulaires_en_design" data-name="Pratiques réticulaires en design" transform="translate(605.674 52.732)" fill="#e75010" font-size="9" font-family="Hind-Regular, Hind"><tspan x="3.111" y="9">Pratiques réticulaires en </tspan><tspan x="36.465" y="19.8">design</tspan></text>
    <text id="PARTIE_4" data-name="PARTIE 4" transform="translate(593.099 421.737)" fill="#2d7158" font-size="14" font-family="Hind-Medium, Hind" font-weight="500"><tspan x="22.233" y="15">PARTIE 4</tspan></text>
    <text id="_La_réticularité_dans_notre_quotidien" data-name=" La réticularité dans notre quotidien" transform="translate(593.099 440.26)" fill="#2d7158" font-size="9" font-family="Hind-Regular, Hind"><tspan x="0.069" y="9" xml:space="preserve"> La réticularité dans notre </tspan><tspan x="30.57" y="19.8">quotidien</tspan></text>
    <text id="Interroger_le_réseau_par_le_réseau" data-name="Interroger le réseau
 par le réseau" transform="translate(354.18 107.536)" fill="#252525" font-size="12" font-family="Hind-Regular, Hind"><tspan x="22.863" y="13">Interroger le réseau</tspan><tspan x="38.823" y="27.4" xml:space="preserve"> par le réseau</tspan></text>
    <text id="Finalité_du_système:_Rendre_compte_des_potentialités_du_réseau_dans_les_pratiques_de_design_" data-name="Finalité du système:
 Rendre compte des potentialités du réseau dans les pratiques de design
 " transform="translate(94.18 487.536)" fill="#252525" font-size="12" font-family="Hind-Bold, Hind" font-weight="700"><tspan x="16.847" y="13">Finalité du système:</tspan><tspan fill="#7f7e7f" font-size="11" font-family="Hind-Regular, Hind" font-weight="400"><tspan x="23.974" y="27.4" xml:space="preserve"> Rendre compte des </tspan><tspan x="4.614" y="41.8">potentialités du réseau dans </tspan><tspan x="16.978" y="56.2">les pratiques de design</tspan></tspan><tspan font-family="Hind-Medium, Hind" font-weight="500"><tspan x="71.093" y="70.6"> </tspan></tspan></text>
    <path id="Tracé_3" data-name="Tracé 3" d="M992.742,385.525" transform="translate(-892.551 7)" fill="none" stroke="#e75010" stroke-linecap="round" stroke-linejoin="round" stroke-width="3"/>
    <text id="VISUALISATION" transform="translate(314.877 282.63)" fill="#fff" font-size="10" font-family="Hind-Bold, Hind" font-weight="700"><tspan x="0.151" y="11">VISUALISATION</tspan></text>
    <path id="Tracé_4" data-name="Tracé 4" d="M1425.965,283.074c0,21.551-18.053,39.022-40.321,39.022s-40.32-17.471-40.32-39.022,18.051-39.018,40.32-39.018S1425.965,261.525,1425.965,283.074Z" transform="translate(-892.551 7)" fill="#e75010"/>
    <path id="Tracé_5" data-name="Tracé 5" d="M1643.926,113.844c0,52.543-44.012,95.136-98.3,95.136s-98.3-42.593-98.3-95.136,44.008-95.124,98.3-95.124S1643.926,61.308,1643.926,113.844Z" transform="translate(-892.551 7)" fill="none" stroke="#e75010" stroke-miterlimit="10" stroke-width="4"/>
    <path id="Tracé_6" data-name="Tracé 6" d="M1620.131,487.955c0,46.184-38.686,83.621-86.4,83.621s-86.4-37.437-86.4-83.621,38.682-83.611,86.4-83.611S1620.131,441.779,1620.131,487.955Z" transform="translate(-892.551 7)" fill="none" stroke="#2d7158" stroke-miterlimit="10" stroke-width="4"/>
    <path id="Tracé_7" data-name="Tracé 7" d="M1179.152,126.475c0,46.183-38.685,83.621-86.4,83.621s-86.4-37.438-86.4-83.621,38.681-83.612,86.4-83.612S1179.152,80.3,1179.152,126.475Z" transform="translate(-892.551 7)" fill="none" stroke="#a291c5" stroke-miterlimit="10" stroke-width="4"/>
    <g id="Groupe_2" data-name="Groupe 2" transform="translate(-892.551 7)">
      <g id="Groupe_1" data-name="Groupe 1">
        <path id="Tracé_8" data-name="Tracé 8" d="M1001.1,122.6a3.64,3.64,0,0,0,.6-1.679c.056-.92-.37-1.387-.969-1.423s-.958.307-1.367,1.22c-.547,1.258-1.271,1.814-2.12,1.762a2.193,2.193,0,0,1-1.923-2.569,3.3,3.3,0,0,1,.545-1.7l.916.365a2.738,2.738,0,0,0-.513,1.421c-.047.76.366,1.2.891,1.229.586.036.874-.356,1.3-1.254.528-1.185,1.18-1.792,2.233-1.727,1.258.079,2.074,1.112,1.972,2.764a4.035,4.035,0,0,1-.621,1.957Z" fill="#584e92"/>
        <path id="Tracé_9" data-name="Tracé 9" d="M1000.122,110.018a3.471,3.471,0,0,1,3.235,4.021,3.379,3.379,0,0,1-4.087,2.857,3.466,3.466,0,0,1-3.223-4.005A3.353,3.353,0,0,1,1000.122,110.018Zm-.711,5.567c1.539.216,2.822-.491,3-1.738.172-1.219-.848-2.3-2.428-2.517-1.191-.167-2.768.216-2.981,1.725S998.09,115.4,999.411,115.585Z" fill="#584e92"/>
        <path id="Tracé_10" data-name="Tracé 10" d="M1003.442,102.935c.726.171,1.357.306,1.908.391l-.262,1.111-1.142-.193-.007.028a2.644,2.644,0,0,1,.743,2.583c-.254,1.083-1.174,2.236-3.583,1.667l-4.034-.952.3-1.255,3.8.9c1.312.311,2.308.109,2.574-1.017a1.854,1.854,0,0,0-.766-1.926,1.768,1.768,0,0,0-.613-.266l-4.221-1,.3-1.255Z" fill="#584e92"/>
        <path id="Tracé_11" data-name="Tracé 11" d="M1004.609,101.283a3.625,3.625,0,0,0,1-1.479c.282-.878-.016-1.436-.588-1.62s-1,.061-1.627.845c-.842,1.084-1.682,1.444-2.491,1.183a2.2,2.2,0,0,1-1.23-2.967,3.3,3.3,0,0,1,.95-1.512l.8.582a2.732,2.732,0,0,0-.849,1.25,1.02,1.02,0,0,0,.56,1.412c.557.181.936-.129,1.567-.894.8-1.02,1.589-1.445,2.593-1.121,1.2.386,1.735,1.591,1.229,3.167a4.062,4.062,0,0,1-1.087,1.745Z" fill="#584e92"/>
        <path id="Tracé_12" data-name="Tracé 12" d="M1004.672,91.766l.873.342-1.31,3.37-.873-.339Z" fill="#584e92"/>
        <path id="Tracé_13" data-name="Tracé 13" d="M1008.069,91.723a3.639,3.639,0,0,0,1.168-1.351c.385-.838.154-1.428-.391-1.679-.56-.257-1.006-.057-1.716.648-.964.978-1.84,1.237-2.614.881a2.2,2.2,0,0,1-.871-3.092,3.3,3.3,0,0,1,1.121-1.388l.725.671a2.737,2.737,0,0,0-.992,1.141,1.023,1.023,0,0,0,.39,1.469c.533.244.944-.019,1.662-.7.92-.918,1.748-1.246,2.707-.808,1.147.527,1.537,1.785.845,3.29a4.037,4.037,0,0,1-1.284,1.6Z" fill="#584e92"/>
        <path id="Tracé_14" data-name="Tracé 14" d="M1005.737,83.178l4.41.669c.5.071,1.068.186,1.5.288l.014-.026c-.311-.319-.713-.71-1.078-1.11l-2.97-3.236.655-1.193,3.5,4.127c1.688,1.979,2.463,3.124,2.72,4.267a3.671,3.671,0,0,1-.042,1.783l-1.094-.234a3.392,3.392,0,0,0-.008-1.291,4.049,4.049,0,0,0-.736-1.64.882.882,0,0,0-.221-.24.9.9,0,0,0-.343-.072l-6.981-.858Z" fill="#584e92"/>
        <path id="Tracé_15" data-name="Tracé 15" d="M1013.808,80.665a3.647,3.647,0,0,0,1.349-1.168c.5-.775.358-1.391-.145-1.716s-.986-.2-1.791.394c-1.094.828-2,.958-2.711.5a2.194,2.194,0,0,1-.418-3.181,3.3,3.3,0,0,1,1.308-1.214l.62.767a2.762,2.762,0,0,0-1.145.987,1.023,1.023,0,0,0,.176,1.51c.492.317.936.116,1.744-.459,1.042-.775,1.909-.982,2.793-.409,1.059.684,1.264,1.985.364,3.374a4.019,4.019,0,0,1-1.5,1.4Z" fill="#584e92"/>
        <path id="Tracé_16" data-name="Tracé 16" d="M1011.959,70.065l1.372,1.007,1.092-1.487.792.581-1.093,1.488,3.082,2.264c.709.521,1.257.615,1.681.038a2.415,2.415,0,0,0,.373-.657l.826.536a3.527,3.527,0,0,1-.535,1.025,1.842,1.842,0,0,1-1.261.8,2.773,2.773,0,0,1-1.8-.7l-3.118-2.291-.651.885-.79-.581.651-.886-1.064-.781Z" fill="#584e92"/>
        <path id="Tracé_17" data-name="Tracé 17" d="M1014.614,64.5l2.431.366-.586.694-2.753.016Zm4.2,5.632a2.265,2.265,0,0,0,3.449-.269,4.6,4.6,0,0,0,.987-1.738l.857.416a5.776,5.776,0,0,1-1.185,2.106,3.3,3.3,0,0,1-4.991.35c-1.635-1.379-2.1-3.418-.764-5,1.5-1.78,3.433-.934,4.43-.094a3.083,3.083,0,0,1,.43.422Zm1.732-3.482a1.827,1.827,0,0,0-2.74.023,2.111,2.111,0,0,0,.314,2.853Z" fill="#584e92"/>
        <path id="Tracé_18" data-name="Tracé 18" d="M1021.862,63.643c-.515-.541-.94-.945-1.365-1.35l.816-.777.841.8.031-.031a2.453,2.453,0,0,1,.724-2.489,2.09,2.09,0,0,1,2.422-.344l.021-.021a2.814,2.814,0,0,1-.053-1.223,2.371,2.371,0,0,1,.782-1.43c.689-.658,2.121-1.171,3.817.61l2.868,3.013-.912.867-2.757-2.9c-.948-1-1.876-1.226-2.618-.519a1.694,1.694,0,0,0-.316,1.9,2.208,2.208,0,0,0,.371.538l3.018,3.171-.911.869-2.93-3.077c-.777-.817-1.693-1.057-2.4-.38a1.78,1.78,0,0,0-.267,2.035,1.7,1.7,0,0,0,.36.525l2.938,3.087-.912.869Z" fill="#584e92"/>
        <path id="Tracé_19" data-name="Tracé 19" d="M1032.8,56.241a2.266,2.266,0,0,0,3.428.472,4.626,4.626,0,0,0,1.336-1.485l.748.591a5.819,5.819,0,0,1-1.608,1.805,3.307,3.307,0,0,1-4.953-.729c-1.3-1.7-1.316-3.79.323-5.047,1.849-1.417,3.556-.178,4.35.858a3.154,3.154,0,0,1,.33.5Zm2.44-3.034a1.832,1.832,0,0,0-2.686-.564,2.114,2.114,0,0,0-.305,2.856Z" fill="#584e92"/>
      </g>
    </g>
    <g id="Groupe_4" data-name="Groupe 4" transform="translate(-892.551 7)">
      <g id="Groupe_3" data-name="Groupe 3">
        <path id="Tracé_20" data-name="Tracé 20" d="M1611.4,33.606a4.136,4.136,0,0,0,1.18,1.653c.823.651,1.535.554,1.959.019s.334-1.1-.255-2.069c-.821-1.328-.87-2.366-.272-3.124a2.5,2.5,0,0,1,3.65-.131,3.744,3.744,0,0,1,1.233,1.61l-.936.62a3.127,3.127,0,0,0-.995-1.4,1.16,1.16,0,0,0-1.727.036c-.413.522-.233,1.048.333,2.025.765,1.262.907,2.266.162,3.207-.887,1.124-2.383,1.217-3.86.05a4.582,4.582,0,0,1-1.428-1.85Z" fill="#e75010"/>
        <path id="Tracé_21" data-name="Tracé 21" d="M1623.765,40.821a3.952,3.952,0,0,1-5.858.417,3.847,3.847,0,0,1-.021-5.672,3.943,3.943,0,0,1,5.834-.416A3.816,3.816,0,0,1,1623.765,40.821Zm-4.743-4.274c-1.2,1.3-1.37,2.955-.318,3.928,1.027.951,2.692.7,3.925-.636.928-1,1.592-2.727.32-3.9S1620.052,35.434,1619.022,36.547Z" fill="#e75010"/>
        <path id="Tracé_22" data-name="Tracé 22" d="M1628.273,48.544c-.634.569-1.167,1.073-1.606,1.534l-.87-.968.925-.942-.023-.025a3.016,3.016,0,0,1-2.9-.979c-.847-.943-1.33-2.55.766-4.435l3.508-3.155.98,1.09-3.309,2.977c-1.14,1.027-1.6,2.088-.716,3.068a2.109,2.109,0,0,0,2.3.534,2.007,2.007,0,0,0,.647-.4l3.67-3.3.981,1.09Z" fill="#e75010"/>
        <path id="Tracé_23" data-name="Tracé 23" d="M1629.054,50.7a4.122,4.122,0,0,0,.735,1.893c.637.835,1.353.918,1.9.5.557-.426.6-.979.265-2.07-.468-1.489-.262-2.509.507-3.1a2.5,2.5,0,0,1,3.572.774,3.746,3.746,0,0,1,.8,1.866l-1.062.37a3.112,3.112,0,0,0-.618-1.6,1.163,1.163,0,0,0-1.685-.39c-.53.405-.484.959-.177,2.046.43,1.413.32,2.422-.634,3.151-1.138.871-2.611.592-3.757-.905a4.6,4.6,0,0,1-.928-2.146Z" fill="#e75010"/>
        <path id="Tracé_24" data-name="Tracé 24" d="M1637.892,56.9l-.885.6-2.3-3.414.884-.6Z" fill="#e75010"/>
        <path id="Tracé_25" data-name="Tracé 25" d="M1635.725,60.1a4.15,4.15,0,0,0,.508,1.968c.535.9,1.233,1.07,1.822.722s.7-.9.506-2.025c-.289-1.535.036-2.522.868-3.015a2.5,2.5,0,0,1,3.457,1.189,3.759,3.759,0,0,1,.573,1.947l-1.1.243a3.122,3.122,0,0,0-.426-1.667,1.162,1.162,0,0,0-1.626-.586c-.573.339-.594.9-.417,2.01.262,1.455.032,2.443-1,3.055-1.233.73-2.663.28-3.624-1.341a4.61,4.61,0,0,1-.668-2.24Z" fill="#e75010"/>
        <path id="Tracé_26" data-name="Tracé 26" d="M1645.233,63.462l-3.488,3.692c-.389.417-.868.878-1.242,1.214l.016.029c.5-.081,1.126-.207,1.738-.287l4.951-.678.692,1.388-6.13.594c-2.946.293-4.52.275-5.756-.227a4.167,4.167,0,0,1-1.638-1.195l.926-.871a3.9,3.9,0,0,0,1.214.829,4.634,4.634,0,0,0,2.014.378,1.079,1.079,0,0,0,.365-.052,1,1,0,0,0,.29-.276l5.334-5.97Z" fill="#e75010"/>
        <path id="Tracé_27" data-name="Tracé 27" d="M1642.347,72.636a4.138,4.138,0,0,0,.218,2.019c.4.971,1.067,1.235,1.7.975s.826-.791.791-1.929c-.065-1.559.4-2.49,1.292-2.858a2.5,2.5,0,0,1,3.248,1.673,3.723,3.723,0,0,1,.286,2.009l-1.119.082a3.1,3.1,0,0,0-.181-1.709,1.161,1.161,0,0,0-1.525-.814c-.616.253-.716.8-.7,1.929.049,1.476-.32,2.419-1.429,2.877-1.325.545-2.675-.106-3.391-1.848a4.584,4.584,0,0,1-.339-2.311Z" fill="#e75010"/>
        <path id="Tracé_28" data-name="Tracé 28" d="M1653.457,77.779l-1.831.628.683,1.987-1.057.362-.681-1.986-4.115,1.413c-.947.325-1.39.777-1.124,1.55a2.718,2.718,0,0,0,.37.772l-1.036.425a4.061,4.061,0,0,1-.611-1.164,2.092,2.092,0,0,1,.069-1.7,3.146,3.146,0,0,1,1.819-1.224l4.162-1.429-.406-1.183,1.055-.363.408,1.182,1.419-.487Z" fill="#e75010"/>
        <path id="Tracé_29" data-name="Tracé 29" d="M1648.943,84.1a2.578,2.578,0,0,0-1.981,3.4,5.248,5.248,0,0,0,.986,2.047l-.945.532a6.593,6.593,0,0,1-1.2-2.471,3.759,3.759,0,0,1,2.9-4.9c2.348-.635,4.558.252,5.171,2.52.693,2.559-1.349,3.818-2.781,4.207a3.645,3.645,0,0,1-.672.129Zm2.136,3.876a2.081,2.081,0,0,0,1.753-2.58,2.4,2.4,0,0,0-2.872-1.554Zm5.85-4.155-1.917,2.039-.27-1,1.769-2.585Z" fill="#e75010"/>
        <path id="Tracé_30" data-name="Tracé 30" d="M1653.042,91.159c.84-.132,1.494-.269,2.147-.4l.2,1.269-1.29.27.007.048a2.794,2.794,0,0,1,1.861,2.291,2.384,2.384,0,0,1-1.247,2.492l.006.032a3.2,3.2,0,0,1,1.179.744,2.7,2.7,0,0,1,.834,1.657c.168,1.07-.279,2.744-3.046,3.178l-4.679.733-.222-1.417,4.5-.7c1.547-.243,2.364-.961,2.183-2.114a1.93,1.93,0,0,0-1.572-1.526,2.523,2.523,0,0,0-.742,0l-4.926.771-.223-1.416,4.778-.749c1.268-.2,2.087-.9,1.914-2a2.025,2.025,0,0,0-1.732-1.568,1.983,1.983,0,0,0-.726,0l-4.793.751-.222-1.416Z" fill="#e75010"/>
        <path id="Tracé_31" data-name="Tracé 31" d="M1652.877,106.187a2.578,2.578,0,0,0-2.664,2.9,5.254,5.254,0,0,0,.526,2.211l-1.036.318a6.6,6.6,0,0,1-.648-2.672,3.761,3.761,0,0,1,3.888-4.161c2.431-.118,4.4,1.221,4.513,3.569.128,2.648-2.137,3.442-3.619,3.514a3.545,3.545,0,0,1-.684-.017Zm1.258,4.245a2.083,2.083,0,0,0,2.266-2.146,2.4,2.4,0,0,0-2.474-2.134Z" fill="#e75010"/>
      </g>
    </g>
    <g id="Groupe_6" data-name="Groupe 6" transform="translate(-892.551 7)">
      <g id="Groupe_5" data-name="Groupe 5">
        <path id="Tracé_32" data-name="Tracé 32" d="M1541.329,396.429a3.619,3.619,0,0,0,1.669.626c.92.071,1.393-.348,1.438-.946.047-.614-.294-.963-1.2-1.385-1.25-.564-1.8-1.3-1.731-2.143a2.192,2.192,0,0,1,2.6-1.888,3.3,3.3,0,0,1,1.69.568l-.377.911a2.747,2.747,0,0,0-1.414-.533c-.759-.057-1.2.35-1.243.875-.044.583.345.878,1.237,1.313,1.177.546,1.774,1.207,1.693,2.258-.1,1.256-1.141,2.058-2.791,1.932a4.038,4.038,0,0,1-1.947-.648Z" fill="#2d7158"/>
        <path id="Tracé_33" data-name="Tracé 33" d="M1553.923,395.629a3.473,3.473,0,0,1-4.068,3.178,3.379,3.379,0,0,1-2.8-4.127,3.466,3.466,0,0,1,4.051-3.166A3.353,3.353,0,0,1,1553.923,395.629Zm-5.556-.79c-.24,1.536.449,2.829,1.7,3.021,1.216.19,2.306-.813,2.551-2.391.184-1.186-.177-2.77-1.683-3S1548.572,393.522,1548.367,394.839Z" fill="#2d7158"/>
        <path id="Tracé_34" data-name="Tracé 34" d="M1560.957,399.05c-.181.724-.325,1.354-.417,1.9l-1.109-.279.21-1.139-.026-.007a2.654,2.654,0,0,1-2.595.708c-1.08-.273-2.22-1.207-1.617-3.608l1.011-4.021,1.251.314-.954,3.792c-.328,1.308-.14,2.307.982,2.588a1.85,1.85,0,0,0,1.936-.736,1.776,1.776,0,0,0,.275-.61l1.056-4.206,1.249.314Z" fill="#2d7158"/>
        <path id="Tracé_35" data-name="Tracé 35" d="M1562.592,400.241a3.645,3.645,0,0,0,1.464,1.022c.875.3,1.438.006,1.63-.563s-.047-1.006-.823-1.64c-1.072-.857-1.419-1.7-1.148-2.508a2.2,2.2,0,0,1,2.986-1.186,3.3,3.3,0,0,1,1.5.97l-.594.79a2.744,2.744,0,0,0-1.237-.868,1.021,1.021,0,0,0-1.42.541c-.188.555.115.937.872,1.58,1.008.819,1.421,1.609,1.083,2.609-.4,1.193-1.615,1.713-3.184,1.182a4.061,4.061,0,0,1-1.728-1.111Z" fill="#2d7158"/>
        <path id="Tracé_36" data-name="Tracé 36" d="M1572.106,400.44l-.352.869-3.353-1.358.352-.868Z" fill="#2d7158"/>
        <path id="Tracé_37" data-name="Tracé 37" d="M1572.1,403.838a3.637,3.637,0,0,0,1.334,1.187c.833.4,1.426.176,1.684-.366.265-.557.072-1.005-.623-1.726-.963-.977-1.209-1.857-.844-2.626a2.2,2.2,0,0,1,3.1-.827,3.3,3.3,0,0,1,1.372,1.141l-.68.715a2.749,2.749,0,0,0-1.128-1.008,1.021,1.021,0,0,0-1.474.369c-.252.53.005.945.681,1.673.9.932,1.221,1.765.768,2.717-.544,1.139-1.807,1.51-3.3.8a4.022,4.022,0,0,1-1.585-1.306Z" fill="#2d7158"/>
        <path id="Tracé_38" data-name="Tracé 38" d="M1580.679,401.627l-.732,4.4c-.077.494-.2,1.064-.31,1.492l.027.015c.325-.305.719-.7,1.126-1.063l3.276-2.922,1.184.673-4.176,3.44c-2,1.657-3.159,2.416-4.306,2.656a3.646,3.646,0,0,1-1.781-.068l.248-1.088a3.435,3.435,0,0,0,1.292.009,4.074,4.074,0,0,0,1.651-.712.967.967,0,0,0,.242-.217.865.865,0,0,0,.077-.344l.96-6.968Z" fill="#2d7158"/>
        <path id="Tracé_39" data-name="Tracé 39" d="M1583.077,409.735a3.636,3.636,0,0,0,1.148,1.365c.769.513,1.386.379,1.719-.121s.216-.983-.369-1.8c-.813-1.105-.93-2.011-.457-2.718a2.195,2.195,0,0,1,3.187-.373,3.3,3.3,0,0,1,1.194,1.326l-.776.61a2.744,2.744,0,0,0-.971-1.159,1.021,1.021,0,0,0-1.51.154c-.326.487-.13.935.432,1.75.76,1.054.955,1.923.37,2.8-.7,1.048-2,1.233-3.379.315a4.036,4.036,0,0,1-1.381-1.52Z" fill="#2d7158"/>
        <path id="Tracé_40" data-name="Tracé 40" d="M1593.7,408.038l-1.027,1.356,1.473,1.115-.593.783-1.473-1.116-2.308,3.05c-.531.7-.633,1.249-.062,1.682a2.414,2.414,0,0,0,.651.381l-.546.819a3.5,3.5,0,0,1-1.019-.55,1.846,1.846,0,0,1-.782-1.272,2.779,2.779,0,0,1,.727-1.786l2.336-3.084-.877-.664.591-.783.877.664.8-1.05Z" fill="#2d7158"/>
        <path id="Tracé_41" data-name="Tracé 41" d="M1593.536,414.886a2.265,2.265,0,0,0,.221,3.452,4.587,4.587,0,0,0,1.721,1.012l-.428.851a5.785,5.785,0,0,1-2.089-1.215,3.3,3.3,0,0,1-.277-4.995c1.4-1.614,3.449-2.048,5.007-.694,1.759,1.529.886,3.448.03,4.432a3.089,3.089,0,0,1-.427.425Zm3.458,1.783a1.829,1.829,0,0,0,.014-2.742,2.112,2.112,0,0,0-2.857.273Zm2.233-5.9-.4,2.426-.686-.6.024-2.752Z" fill="#2d7158"/>
        <path id="Tracé_42" data-name="Tracé 42" d="M1599.983,418.032c.549-.508.958-.927,1.368-1.347l.767.829-.811.828.031.033a2.447,2.447,0,0,1,2.478.759,2.088,2.088,0,0,1,.309,2.426l.022.022a2.782,2.782,0,0,1,1.224-.036,2.378,2.378,0,0,1,1.419.8c.646.7,1.139,2.137-.666,3.808l-3.054,2.824-.854-.923,2.935-2.716c1.011-.933,1.253-1.857.556-2.61a1.69,1.69,0,0,0-1.893-.343,2.134,2.134,0,0,0-.542.363l-3.215,2.973-.855-.925,3.117-2.884c.828-.765,1.082-1.678.415-2.4a1.775,1.775,0,0,0-2.03-.3,1.7,1.7,0,0,0-.532.352l-3.129,2.894-.855-.923Z" fill="#2d7158"/>
        <path id="Tracé_43" data-name="Tracé 43" d="M1607.229,429.078a2.263,2.263,0,0,0-.523,3.42,4.6,4.6,0,0,0,1.466,1.357l-.6.739a5.749,5.749,0,0,1-1.781-1.634,3.3,3.3,0,0,1,.8-4.94c1.717-1.277,3.809-1.264,5.043.394,1.39,1.87.126,3.559-.921,4.337a3.074,3.074,0,0,1-.507.323Zm3,2.481a1.833,1.833,0,0,0,.6-2.676,2.113,2.113,0,0,0-2.852-.344Z" fill="#2d7158"/>
      </g>
    </g>
    <text id="VARIA" transform="translate(386.678 384.287)" fill="#fff" font-size="10" font-family="Hind-Bold, Hind" font-weight="700"><tspan x="20.926" y="11">VARIA</tspan></text>
    <path id="Tracé_44" data-name="Tracé 44" d="M1338.5,306.74c0,12.162-10.188,22.022-22.754,22.022s-22.754-9.86-22.754-22.022,10.188-22.018,22.754-22.018S1338.5,294.58,1338.5,306.74Z" transform="translate(-892.551 7)" fill="#999"/>
    <text id="INTRODUCTION" transform="translate(402.756 310.291)" fill="#fff" font-size="5" font-family="Hind-Bold, Hind" font-weight="700"><tspan x="2.303" y="5">INTRODUCTION</tspan></text>
    <text id="PROJETS_DE_MASTER" data-name="PROJETS DE
MASTER" transform="translate(458.163 276.2)" fill="#fff" font-size="10" font-family="Hind-Bold, Hind" font-weight="700"><tspan x="8.792" y="11">PROJETS DE</tspan><tspan x="16.717" y="23">MASTER</tspan></text>
    <path id="Tracé_45" data-name="Tracé 45" d="M1359.793,367.146a74.043,74.043,0,0,0,26.633-40.7" transform="translate(-892.551 7)" fill="none" stroke="#2f2f2f" stroke-miterlimit="10" stroke-width="2"/>
    <path id="Tracé_46" data-name="Tracé 46" d="M1244.572,332.5a74.139,74.139,0,0,0,23.235,33.361" transform="translate(-892.551 7)" fill="none" stroke="#2f2f2f" stroke-miterlimit="10" stroke-width="2"/>
    <path id="Tracé_47" data-name="Tracé 47" d="M1347.662,241.627a74.127,74.127,0,0,0-69.66,1.611" transform="translate(-892.551 7)" fill="none" stroke="#2f2f2f" stroke-miterlimit="10" stroke-width="2"/>
    <line id="Ligne_1" data-name="Ligne 1" x2="107" y2="171" transform="translate(281.391 103.205)" fill="none" stroke="#a291c5" stroke-miterlimit="10" stroke-width="1"/>
    <line id="Ligne_2" data-name="Ligne 2" x2="176" y2="117.334" transform="translate(149.059 201.539)" fill="none" stroke="#a291c5" stroke-miterlimit="10" stroke-width="1"/>
    <line id="Ligne_3" data-name="Ligne 3" y1="171.629" x2="95.487" transform="translate(463.393 93.576)" fill="none" stroke="#e75010" stroke-miterlimit="10" stroke-width="1"/>
    <line id="Ligne_4" data-name="Ligne 4" y1="108.217" x2="172.166" transform="translate(520.393 207.988)" fill="none" stroke="#e75010" stroke-miterlimit="10" stroke-width="1"/>
    <line id="Ligne_5" data-name="Ligne 5" x2="174.5" y2="129" transform="translate(403.893 424.205)" fill="none" stroke="#2d7158" stroke-miterlimit="10" stroke-width="1"/>
    <line id="Ligne_6" data-name="Ligne 6" x2="219.668" y2="56.668" transform="translate(445.059 358.205)" fill="none" stroke="#2d7158" stroke-miterlimit="10" stroke-width="1"/>
    <line id="Ligne_7" data-name="Ligne 7" x1="170" transform="translate(164.865 436.205)" fill="none" stroke="#252525" stroke-miterlimit="10" stroke-width="2"/>
    <line id="Ligne_8" data-name="Ligne 8" y2="47.998" transform="translate(164.865 435.207)" fill="none" stroke="#252525" stroke-miterlimit="10" stroke-width="2"/>
    <path id="Tracé_48" data-name="Tracé 48" d="M1091.189,137.576a38.851,38.851,0,1,1-38.851-38.851A38.852,38.852,0,0,1,1091.189,137.576Z" transform="translate(-892.551 7)" fill="#252525"/>
    <path id="Tracé_49" data-name="Tracé 49" d="M1172.01,136.775a38.851,38.851,0,1,1-38.852-38.851A38.852,38.852,0,0,1,1172.01,136.775Z" transform="translate(-892.551 7)" fill="#252525"/>
    <text id="Prototypage_d_une_revue" data-name="Prototypage d’une revue" transform="translate(126.771 128.031)" fill="#fff" font-size="11.512" font-family="Hind-Regular, Hind"><tspan x="2.188" y="12">Prototypage </tspan><tspan x="4.185" y="25.814">d’une revue</tspan></text>
    <text id="Éditorial_Concepts_clefs" data-name="Éditorial
Concepts clefs" transform="translate(76.98 335.673)" fill="#999" font-size="11.512" font-family="Hind-Regular, Hind"><tspan x="0" y="12">Éditorial</tspan><tspan x="0" y="25.814">Concepts clefs</tspan></text>
    <text id="Le_préfixe_hyper-_et_le_paradigme_du_réseau" data-name="Le préfixe hyper- et le paradigme du réseau" transform="translate(204.899 114.593)" fill="#fff" font-size="11.512" font-family="Hind-Regular, Hind"><tspan x="11.697" y="12">Le préfixe </tspan><tspan x="7.334" y="25.814">hyper- et le </tspan><tspan x="1.652" y="39.629">paradigme du </tspan><tspan x="19.513" y="53.443">réseau</tspan></text>
    <line id="Ligne_9" data-name="Ligne 9" x1="347.276" transform="translate(76.98 333.451)" fill="none" stroke="#999" stroke-miterlimit="10" stroke-width="2"/>
  </g>
</svg>
