<svg xmlns="http://www.w3.org/2000/svg" xmlns:xlink="http://www.w3.org/1999/xlink" width="841.891" height="622.283" viewBox="0 0 841.891 622.283">
  <defs>
    <clipPath id="clip-_121">
      <rect width="841.891" height="622.283"/>
    </clipPath>
  </defs>
  <g id="_121" data-name="121" clip-path="url(#clip-_121)">
    <rect width="841.891" height="622.283" fill="#fff"/>
    <g id="Groupe_295" data-name="Groupe 295" transform="translate(0 -645.447)">
      <path id="Tracé_683" data-name="Tracé 683" d="M493.2,984.841a54.727,54.727,0,1,1-54.727-54.727A54.727,54.727,0,0,1,493.2,984.841Z" fill="#ff6800"/>
      <circle id="Ellipse_88" data-name="Ellipse 88" cx="283.279" cy="283.279" r="283.279" transform="translate(-20.27 950.075) rotate(-45)" fill="#231f20"/>
      <g id="Groupe_294" data-name="Groupe 294">
        <g id="Groupe_293" data-name="Groupe 293">
          <path id="Tracé_684" data-name="Tracé 684" d="M467.8,696.992l-3.351,4.04-1.97-.772,10.816-12.782,2.277.893-.746,16.728-2.036-.8.242-5.258Zm5.443.416.2-4.823c.05-1.091.174-2.053.29-2.993l-.044-.016c-.553.767-1.133,1.6-1.791,2.379l-3.117,3.7Z" fill="#fff"/>
          <path id="Tracé_685" data-name="Tracé 685" d="M483.2,691.724a23.716,23.716,0,0,1,3.715,1.312c1.995.9,3.128,1.873,3.649,3.062a4.047,4.047,0,0,1-.109,3.278,4.163,4.163,0,0,1-4.353,2.449l-.029.064c.92.879,1.121,2.207.788,3.863a25.183,25.183,0,0,0-.671,4.468l-1.93-.869a20.018,20.018,0,0,1,.611-3.877c.47-2.187.015-3.295-1.65-4.123l-1.758-.791-2.82,6.26-1.865-.84Zm-1.1,7.422,1.908.859c1.994.9,3.752.373,4.495-1.277.84-1.865-.144-3.288-2.116-4.176a9.031,9.031,0,0,0-1.911-.681Z" fill="#fff"/>
          <path id="Tracé_686" data-name="Tracé 686" d="M498.234,715.774a10.075,10.075,0,0,1-4.069-1.233c-3.979-2.032-5.67-6.063-3.3-10.712,2.267-4.441,6.78-5.885,11.157-3.65a8.6,8.6,0,0,1,3.031,2.338l-1.221,1.252a7.244,7.244,0,0,0-2.527-2.029c-3.309-1.69-6.588-.7-8.48,3.01-1.776,3.476-.909,6.691,2.505,8.433a8.214,8.214,0,0,0,3.294.944Z" fill="#fff"/>
          <path id="Tracé_687" data-name="Tracé 687" d="M509.82,704.672l-3.325,5.736,6.63,3.844,3.326-5.735,1.789,1.038-7.948,13.708-1.79-1.039,3.727-6.426-6.631-3.843-3.726,6.425-1.79-1.037,7.949-13.709Z" fill="#fff"/>
          <path id="Tracé_688" data-name="Tracé 688" d="M523.343,712.794l-8.466,13.4-1.749-1.106,8.466-13.4Z" fill="#fff"/>
          <path id="Tracé_689" data-name="Tracé 689" d="M528.193,718.048l-3.99-2.7.975-1.439,9.713,6.58-.975,1.439-4.011-2.715-7.91,11.678-1.713-1.16Z" fill="#fff"/>
          <path id="Tracé_690" data-name="Tracé 690" d="M538.277,733.467l-4.928-3.655-3.4,4.588,5.513,4.09-1.021,1.378-7.176-5.322,9.439-12.725,6.892,5.111-1.023,1.378-5.23-3.879-2.983,4.022,4.929,3.655Z" fill="#fff"/>
          <path id="Tracé_691" data-name="Tracé 691" d="M545.271,747.986a10.06,10.06,0,0,1-3.718-2.062c-3.463-2.822-4.267-7.12-.969-11.165,3.149-3.863,7.865-4.326,11.674-1.221a8.593,8.593,0,0,1,2.47,2.924l-1.456.967a7.255,7.255,0,0,0-2.044-2.515c-2.879-2.348-6.293-2.068-8.923,1.158-2.467,3.025-2.295,6.349.675,8.771A8.234,8.234,0,0,0,546,746.459Z" fill="#fff"/>
          <path id="Tracé_692" data-name="Tracé 692" d="M558.915,741.906l-3.586-3.223,1.163-1.294,8.728,7.845-1.164,1.295-3.6-3.238-9.433,10.493-1.539-1.384Z" fill="#fff"/>
          <path id="Tracé_693" data-name="Tracé 693" d="M568.248,748.224l-6.543,6.76c-2.454,2.534-2.369,4.711-.848,6.184,1.673,1.619,3.851,1.566,6.271-.934l6.543-6.76,1.487,1.441-6.445,6.657c-3.385,3.5-6.6,3.135-9.068.746-2.332-2.258-2.813-5.277.622-8.825l6.493-6.708Z" fill="#fff"/>
          <path id="Tracé_694" data-name="Tracé 694" d="M577.9,758.21a23.856,23.856,0,0,1,2.893,2.679c1.475,1.615,2.129,2.962,2.137,4.261a4.049,4.049,0,0,1-1.4,2.966,4.163,4.163,0,0,1-4.969.523l-.051.048c.5,1.171.154,2.471-.809,3.859a25.3,25.3,0,0,0-2.389,3.837l-1.427-1.562a19.829,19.829,0,0,1,2.1-3.318c1.3-1.823,1.32-3.021.118-4.441l-1.3-1.424-5.073,4.631-1.379-1.512Zm-3.953,6.381,1.412,1.546c1.475,1.615,3.3,1.831,4.635.611,1.511-1.38,1.171-3.078-.288-4.676a8.9,8.9,0,0,0-1.485-1.382Z" fill="#fff"/>
          <path id="Tracé_695" data-name="Tracé 695" d="M585.65,779.543l-3.936-4.709L577.33,778.5l4.4,5.267-1.316,1.1-5.732-6.855,12.159-10.168,5.506,6.585-1.317,1.1-4.179-5-3.842,3.213,3.937,4.709Z" fill="#fff"/>
          <path id="Tracé_696" data-name="Tracé 696" d="M597.61,781.482a26.554,26.554,0,0,1,2.843,3.312c1.727,2.377,2.386,4.486,2.174,6.354a7.231,7.231,0,0,1-3.276,5.172,8.48,8.48,0,0,1-6.325,1.775c-2.082-.345-4.166-1.855-5.977-4.346a32.629,32.629,0,0,1-2.032-3.117Zm-10.135,9.894a17.188,17.188,0,0,0,1.14,1.728c2.585,3.558,5.946,4.023,9.408,1.507,3.038-2.178,3.716-5.287,1.172-8.787a11.661,11.661,0,0,0-1.581-1.816Z" fill="#fff"/>
          <path id="Tracé_697" data-name="Tracé 697" d="M604.662,806.053l-3.354-5.138-4.785,3.122,3.752,5.75-1.437.938-4.883-7.483,13.272-8.661,4.69,7.187-1.437.939-3.56-5.455-4.194,2.737,3.354,5.139Z" fill="#fff"/>
          <path id="Tracé_698" data-name="Tracé 698" d="M616.426,809.179l1.026,1.8-12.282,7,3.356,5.887-1.492.849-4.382-7.683Z" fill="#fff"/>
          <path id="Tracé_699" data-name="Tracé 699" d="M622.387,818.984a28.879,28.879,0,0,1-5.962.75l-.753-1.09a35.311,35.311,0,0,0,5.5-1.408Z" fill="#fff"/>
          <path id="Tracé_700" data-name="Tracé 700" d="M624.157,823.285l-14.072,7.3-.952-1.838,14.071-7.294Z" fill="#fff"/>
          <path id="Tracé_701" data-name="Tracé 701" d="M611.688,833.6l14.34-6.749.962,2.042-5.1,7.988a44.186,44.186,0,0,1-3.458,4.746l.051.055c1.835-1.071,3.56-1.935,5.794-2.986l6-2.824.821,1.746-14.341,6.748-.881-1.873,5.135-7.978a46.013,46.013,0,0,1,3.535-4.913l-.051-.053c-1.759.957-3.472,1.789-5.855,2.911l-6.128,2.884Z" fill="#fff"/>
          <path id="Tracé_702" data-name="Tracé 702" d="M632.709,841.418l3.247,7.892-1.588.653-2.459-5.977-4.87,2,2.272,5.523-1.566.644-2.272-5.523-6.631,2.729-.787-1.914Z" fill="#fff"/>
          <path id="Tracé_703" data-name="Tracé 703" d="M634.457,867.972c-5.122,1.808-8.975-.347-10.32-4.162-1.4-3.969.712-7.806,5.235-9.4,4.744-1.673,8.881.159,10.289,4.149C641.109,862.66,638.913,866.4,634.457,867.972Zm-4.321-11.539c-3.215,1.134-5.465,3.872-4.386,6.932s4.505,3.8,7.9,2.6c2.994-1.055,5.55-3.7,4.415-6.918S633.4,855.283,630.136,856.433Z" fill="#fff"/>
          <path id="Tracé_704" data-name="Tracé 704" d="M642.517,868.6a23.629,23.629,0,0,1,1.426,3.672c.618,2.1.617,3.592.056,4.763a4.052,4.052,0,0,1-2.557,2.053,4.162,4.162,0,0,1-4.693-1.705l-.068.02c-.067,1.269-.944,2.288-2.416,3.113a25.283,25.283,0,0,0-3.826,2.4l-.6-2.029a19.951,19.951,0,0,1,3.338-2.062c1.965-1.07,2.508-2.137,2.05-3.938l-.545-1.849-6.584,1.941-.579-1.963Zm-6.345,4,.592,2.007c.618,2.1,2.16,3.089,3.9,2.577,1.962-.578,2.4-2.252,1.789-4.328a9.012,9.012,0,0,0-.73-1.891Z" fill="#fff"/>
          <path id="Tracé_705" data-name="Tracé 705" d="M640.842,896.373c2.126-.618,4.705-1.364,6.607-1.807l-.011-.045c-1.915-.134-4.006-.3-6.317-.58l-8.126-.981-.353-1.51,6.766-4.236c2.027-1.244,3.859-2.3,5.59-3.162l-.011-.045c-1.935.4-4.527.885-6.9,1.293l-6.716,1.131-.443-1.9,15.69-2.524.593,2.542-6.854,4.375c-1.752,1.085-3.329,1.985-4.836,2.771l.011.045c1.653.051,3.477.205,5.584.437l8.108,1.008.593,2.543-15.215,4.562-.459-1.97Z" fill="#fff"/>
          <path id="Tracé_706" data-name="Tracé 706" d="M640.4,904.61l-5.193-.784-.356-2.086,16.538,2.664.412,2.411-14.717,8-.368-2.156,4.63-2.509Zm2.455,4.878,4.233-2.322c.961-.522,1.849-.913,2.714-1.3l-.009-.045c-.943-.078-1.956-.144-2.962-.306l-4.783-.759Z" fill="#fff"/>
          <path id="Tracé_707" data-name="Tracé 707" d="M651.462,916.367l-.616-4.782,1.727-.222,1.5,11.64-1.725.222-.618-4.806-14,1.8-.264-2.053Z" fill="#fff"/>
          <path id="Tracé_708" data-name="Tracé 708" d="M654.435,927.172,638.654,928.7l-.2-2.062,15.78-1.527Z" fill="#fff"/>
          <path id="Tracé_709" data-name="Tracé 709" d="M647.868,945.16c-5.423.308-8.524-2.836-8.753-6.873-.24-4.2,2.858-7.3,7.648-7.574,5.024-.286,8.487,2.626,8.728,6.852C655.739,941.908,652.587,944.89,647.868,945.16Zm-.935-12.289c-3.4.193-6.329,2.2-6.145,5.437s3.272,4.9,6.863,4.7c3.17-.181,6.363-2.011,6.169-5.416S650.383,932.673,646.933,932.871Z" fill="#fff"/>
          <path id="Tracé_710" data-name="Tracé 710" d="M639.825,948.043l15.846.008v2.257l-8.019,5.051a44.2,44.2,0,0,1-5.151,2.818l.023.072c2.117-.188,4.045-.234,6.513-.232l6.631,0,0,1.929-15.846-.008v-2.069l8.043-5.028a46.241,46.241,0,0,1,5.292-2.935l-.024-.072c-2,.117-3.9.14-6.536.138l-6.771,0Z" fill="#fff"/>
        </g>
      </g>
      <circle id="Ellipse_89" data-name="Ellipse 89" cx="252.762" cy="252.762" r="252.762" transform="translate(22.887 950.074) rotate(-45)" fill="#fff"/>
      <path id="Tracé_711" data-name="Tracé 711" d="M476.642,807.565A102.432,102.432,0,1,1,374.21,705.132,102.431,102.431,0,0,1,476.642,807.565Z" fill="#231f20"/>
      <text id="PENSÉE_RÉTICULAIRE" data-name="PENSÉE 
RÉTICULAIRE" transform="translate(240.617 746.446)" fill="#fff" font-size="23.516" font-family="Hind-Bold, Hind" font-weight="700"><tspan x="93.547" y="25">PENSÉE </tspan><tspan x="63.905" y="53.219">RÉTICULAIRE</tspan></text>
      <text id="OBJECTIF:_PROPOSER_UN_RAISONNEMENT_DIFFÉRENT" data-name="OBJECTIF:
PROPOSER UN 
RAISONNEMENT 
DIFFÉRENT" transform="translate(296.839 806.837)" fill="#fff" font-size="14.468" font-family="Hind-Bold, Hind" font-weight="700"><tspan x="44.601" y="15">OBJECTIF:</tspan><tspan font-family="Hind-Medium, Hind" font-weight="500"><tspan x="32.007" y="32.361">PROPOSER UN </tspan><tspan x="25.576" y="49.723">RAISONNEMENT </tspan><tspan x="43.408" y="67.084">DIFFÉRENT</tspan></tspan></text>
      <line id="Ligne_131" data-name="Ligne 131" y2="14.021" transform="translate(380.347 904.843)" fill="none" stroke="#231f20" stroke-miterlimit="10" stroke-width="1"/>
      <line id="Ligne_132" data-name="Ligne 132" y2="22.5" transform="translate(205.968 940.797)" fill="none" stroke="#231f20" stroke-miterlimit="10" stroke-width="1"/>
      <line id="Ligne_133" data-name="Ligne 133" y2="22.5" transform="translate(322.222 918.864)" fill="none" stroke="#231f20" stroke-miterlimit="10" stroke-width="1"/>
      <line id="Ligne_134" data-name="Ligne 134" y2="22.5" transform="translate(205.968 918.864)" fill="none" stroke="#231f20" stroke-miterlimit="10" stroke-width="1"/>
      <line id="Ligne_135" data-name="Ligne 135" y2="22.5" transform="translate(438.474 918.864)" fill="none" stroke="#231f20" stroke-miterlimit="10" stroke-width="1"/>
      <line id="Ligne_136" data-name="Ligne 136" y2="22.5" transform="translate(554.728 918.864)" fill="none" stroke="#231f20" stroke-miterlimit="10" stroke-width="1"/>
      <line id="Ligne_137" data-name="Ligne 137" y2="22.5" transform="translate(438.474 1024.177)" fill="none" stroke="#ff6800" stroke-miterlimit="10" stroke-width="1"/>
      <line id="Ligne_138" data-name="Ligne 138" y2="22.5" transform="translate(554.728 1024.177)" fill="none" stroke="#ff6800" stroke-miterlimit="10" stroke-width="1"/>
      <line id="Ligne_139" data-name="Ligne 139" x2="348.76" transform="translate(205.968 918.864)" fill="none" stroke="#231f20" stroke-miterlimit="10" stroke-width="1"/>
      <line id="Ligne_140" data-name="Ligne 140" y1="14.021" transform="translate(380.349 1108.612)" fill="none" stroke="#231f20" stroke-miterlimit="10" stroke-width="2"/>
      <line id="Ligne_141" data-name="Ligne 141" x1="30.652" transform="translate(663.482 959.085)" fill="none" stroke="#231f20" stroke-miterlimit="10" stroke-width="3"/>
      <line id="Ligne_142" data-name="Ligne 142" y1="22.5" transform="translate(554.728 1086.112)" fill="none" stroke="#231f20" stroke-miterlimit="10" stroke-width="2"/>
      <line id="Ligne_143" data-name="Ligne 143" y1="22.5" transform="translate(205.968 1086.112)" fill="none" stroke="#231f20" stroke-miterlimit="10" stroke-width="2"/>
      <line id="Ligne_144" data-name="Ligne 144" x1="348.76" transform="translate(205.968 1108.612)" fill="none" stroke="#231f20" stroke-miterlimit="10" stroke-width="2"/>
      <path id="Tracé_712" data-name="Tracé 712" d="M260.7,984.841a54.727,54.727,0,1,1-54.727-54.727A54.727,54.727,0,0,1,260.7,984.841Z" fill="#b9a3e3"/>
      <path id="Tracé_713" data-name="Tracé 713" d="M376.949,984.841a54.727,54.727,0,1,1-54.727-54.727A54.729,54.729,0,0,1,376.949,984.841Z" fill="#50ddba"/>
      <path id="Tracé_714" data-name="Tracé 714" d="M609.455,984.841a54.727,54.727,0,1,1-54.727-54.727A54.727,54.727,0,0,1,609.455,984.841Z" fill="#2f836b"/>
      <path id="Tracé_715" data-name="Tracé 715" d="M493.2,984.841a54.728,54.728,0,1,1-54.729-54.727A54.728,54.728,0,0,1,493.2,984.841Z" fill="#ff6800"/>
      <text id="_1" data-name="1" transform="translate(195.097 933.445)" fill="#231f20" font-size="17" font-family="Hind-Bold, Hind" font-weight="700"><tspan x="7.641" y="18">1</tspan></text>
      <text id="_2" data-name="2" transform="translate(311.349 933.445)" fill="#231f20" font-size="17" font-family="Hind-Bold, Hind" font-weight="700"><tspan x="6.614" y="18">2</tspan></text>
      <text id="_3" data-name="3" transform="translate(427.603 933.445)" fill="#231f20" font-size="17" font-family="Hind-Bold, Hind" font-weight="700"><tspan x="6.767" y="18">3</tspan></text>
      <text id="_4" data-name="4" transform="translate(543.857 933.445)" fill="#231f20" font-size="17" font-family="Hind-Bold, Hind" font-weight="700"><tspan x="6.094" y="18">4</tspan></text>
      <text id="Connaissance_approfondie_d_un_problème" data-name="Connaissance approfondie d&apos;un problème" transform="translate(160.792 958.314)" fill="#231f20" font-size="13" font-family="Hind-Regular, Hind"><tspan x="7.359" y="14">Connaissance </tspan><tspan x="10.94" y="29.6">approfondie </tspan><tspan x="5.071" y="45.2">d&apos;un problème</tspan></text>
      <text id="Définition_des_facteurs_d_influence" data-name="Définition des facteurs 
d&apos;influence" transform="translate(277.044 958.314)" fill="#231f20" font-size="13" font-family="Hind-Regular, Hind"><tspan x="6.703" y="14">Définition des </tspan><tspan x="22.68" y="29.6">facteurs </tspan><tspan x="15.251" y="45.2">d&apos;influence</tspan></text>
      <text id="Solution_qui_prend_en_compte_tous_ces_facteurs" data-name="Solution qui prend en compte tous ces facteurs" transform="translate(509.552 958.314)" fill="#231f20" font-size="13" font-family="Hind-Regular, Hind"><tspan x="11.72" y="14">Solution qui </tspan><tspan x="20.294" y="29.6">prend en </tspan><tspan x="9.842" y="45.2">compte tous </tspan><tspan x="11.961" y="60.8">ces facteurs</tspan></text>
      <text id="Moyen_utilisé_pour_montrer_la_pensée_réticulaire_dans_la_revue" data-name="Moyen utilisé pour montrer la pensée réticulaire dans la revue" transform="translate(704.542 929.358)" fill="#231f20" font-size="14" font-family="Hind-Regular, Hind"><tspan x="14.386" y="15">Moyen utilisé </tspan><tspan x="8.009" y="31.8">pour montrer la </tspan><tspan x="1.534" y="48.6">pensée réticulaire </tspan><tspan x="15.233" y="65.4">dans la revue</tspan></text>
      <text id="Analyse_des_interactions_et_des_niveaux_logiques_entre_ces_facteurs_" data-name="Analyse des interactions et des niveaux logiques entre ces facteurs
" transform="translate(393.298 950.814)" fill="#231f20" font-size="13" font-family="Hind-Regular, Hind"><tspan x="12.124" y="14">Analyse des </tspan><tspan x="4.851" y="29.6">interactions et </tspan><tspan x="12.319" y="45.2">des niveaux </tspan><tspan x="5.26" y="60.8">logiques entre </tspan><tspan x="11.962" y="76.4">ces facteurs</tspan></text>
      <text id="Paradigmes_de_réseau_" data-name="Paradigmes de réseau
" transform="translate(451.581 1073.98)" fill="#ff6800" font-size="13" font-family="Hind-Bold, Hind" font-weight="700"><tspan x="1.893" y="14">Paradigmes de </tspan><tspan x="25.885" y="29.6">réseau</tspan></text>
      <text id="Nouvelles_méthodes_d_acquisition_de_savoirs_plus_efficaces_" data-name="Nouvelles méthodes d’acquisition de savoirs plus efficaces ?" transform="translate(258.923 1128.315)" fill="#231f20" font-size="13" font-family="Hind-Bold, Hind" font-weight="700"><tspan x="12.979" y="14">Nouvelles méthodes d’acquisition de </tspan><tspan x="55.294" y="29.6">savoirs plus efficaces ?</tspan></text>
      <line id="Ligne_145" data-name="Ligne 145" y2="17" transform="translate(493.201 1050.843)" fill="none" stroke="#ff6800" stroke-miterlimit="10" stroke-width="2"/>
      <line id="Ligne_146" data-name="Ligne 146" x2="116.254" transform="translate(438.474 1046.677)" fill="none" stroke="#ff6800" stroke-miterlimit="10" stroke-width="1"/>
    </g>
  </g>
</svg>
