<svg xmlns="http://www.w3.org/2000/svg" xmlns:xlink="http://www.w3.org/1999/xlink" width="822.693" height="595.28" viewBox="0 0 822.693 595.28">
  <defs>
    <clipPath id="clip-_122">
      <rect width="822.693" height="595.28"/>
    </clipPath>
  </defs>
  <g id="_122" data-name="122" clip-path="url(#clip-_122)">
    <rect width="822.693" height="595.28" fill="#fff"/>
    <g id="Groupe_292" data-name="Groupe 292" transform="translate(-888.511 -645.447)">
      <g id="Groupe_283" data-name="Groupe 283">
        <path id="Tracé_604" data-name="Tracé 604" d="M1185.37,717.375c-118.51,0-214.581,96.072-214.581,214.581s96.071,214.581,214.581,214.581,214.581-96.071,214.581-214.581S1303.88,717.375,1185.37,717.375Zm0,400.434c-102,0-184.683-82.686-184.683-184.683s82.685-184.683,184.683-184.683,184.683,82.685,184.683,184.683S1287.367,1117.809,1185.37,1117.809Z" fill="#b9a3e3"/>
        <circle id="Ellipse_78" data-name="Ellipse 78" cx="184.366" cy="184.366" r="184.366" transform="translate(1001.004 748.76)" fill="none" stroke="#2f836b" stroke-miterlimit="10" stroke-width="2"/>
      </g>
      <path id="Tracé_605" data-name="Tracé 605" d="M1049.068,833.494l14.672,69.078-11.112,52.779-31.164,18.369,75.614,46.336,51.644-22.225,66.314,48.031,53.99,31.831,33.914-127.276-33.914-22.225" fill="none" stroke="#50ddba" stroke-miterlimit="10" stroke-width="3"/>
      <line id="Ligne_123" data-name="Ligne 123" x2="39.149" y2="40.595" transform="translate(1198.112 933.126)" fill="none" stroke="#898888" stroke-miterlimit="10" stroke-width="3"/>
      <line id="Ligne_124" data-name="Ligne 124" x2="49.917" y2="46.336" transform="translate(1237.261 973.721)" fill="none" stroke="#898888" stroke-miterlimit="10" stroke-width="3"/>
      <line id="Ligne_125" data-name="Ligne 125" x2="202.609" transform="translate(1287.178 1020.057)" fill="none" stroke="#898888" stroke-miterlimit="10" stroke-width="3"/>
      <path id="Tracé_606" data-name="Tracé 606" d="M1127.96,917.08a11.112,11.112,0,1,1-11.113-11.112A11.113,11.113,0,0,1,1127.96,917.08Z" fill="#919191"/>
      <circle id="Ellipse_79" data-name="Ellipse 79" cx="11.112" cy="11.112" r="11.112" transform="translate(1137.61 851.196)" fill="#919191"/>
      <path id="Tracé_607" data-name="Tracé 607" d="M1153.737,808.475a11.113,11.113,0,1,1-11.112-11.113A11.112,11.112,0,0,1,1153.737,808.475Z" fill="#a8a8a8"/>
      <path id="Tracé_608" data-name="Tracé 608" d="M1241.571,808.475a11.113,11.113,0,1,1-11.113-11.113A11.113,11.113,0,0,1,1241.571,808.475Z" fill="#a8a8a8"/>
      <path id="Tracé_609" data-name="Tracé 609" d="M1226.149,765.975a11.113,11.113,0,1,1-11.113-11.113A11.113,11.113,0,0,1,1226.149,765.975Z" fill="#c6c6c6"/>
      <path id="Tracé_610" data-name="Tracé 610" d="M1305.282,804.225a11.112,11.112,0,1,1-11.112-11.113A11.112,11.112,0,0,1,1305.282,804.225Z" fill="#c6c6c6"/>
      <circle id="Ellipse_80" data-name="Ellipse 80" cx="11.112" cy="11.112" r="11.112" transform="translate(1324.475 851.196)" fill="#c6c6c6"/>
      <path id="Tracé_611" data-name="Tracé 611" d="M1362.657,928.194a11.112,11.112,0,1,1-11.112-11.114A11.113,11.113,0,0,1,1362.657,928.194Z" fill="#c6c6c6"/>
      <path id="Tracé_612" data-name="Tracé 612" d="M1340.432,1020.057a11.112,11.112,0,1,1-11.113-11.112A11.112,11.112,0,0,1,1340.432,1020.057Z" fill="#c6c6c6"/>
      <path id="Tracé_613" data-name="Tracé 613" d="M1280.138,1077.695a11.112,11.112,0,1,1-11.112-11.113A11.112,11.112,0,0,1,1280.138,1077.695Z" fill="#231f20"/>
      <path id="Tracé_614" data-name="Tracé 614" d="M1203.923,1102.365a11.112,11.112,0,1,1-11.112-11.113A11.112,11.112,0,0,1,1203.923,1102.365Z" fill="#c6c6c6"/>
      <path id="Tracé_615" data-name="Tracé 615" d="M1116.847,1083.159a11.113,11.113,0,1,1-11.112-11.112A11.112,11.112,0,0,1,1116.847,1083.159Z" fill="#c6c6c6"/>
      <path id="Tracé_616" data-name="Tracé 616" d="M1060.181,1034.75a11.112,11.112,0,1,1-11.113-11.112A11.113,11.113,0,0,1,1060.181,1034.75Z" fill="#c6c6c6"/>
      <path id="Tracé_617" data-name="Tracé 617" d="M1032.576,973.721a11.113,11.113,0,1,1-11.112-11.112A11.113,11.113,0,0,1,1032.576,973.721Z" fill="#231f20"/>
      <path id="Tracé_618" data-name="Tracé 618" d="M1029.034,901.309a11.113,11.113,0,1,1-11.113-11.113A11.112,11.112,0,0,1,1029.034,901.309Z" fill="#c6c6c6"/>
      <path id="Tracé_619" data-name="Tracé 619" d="M1060.181,833.494a11.112,11.112,0,1,1-11.113-11.112A11.113,11.113,0,0,1,1060.181,833.494Z" fill="#231f20"/>
      <circle id="Ellipse_81" data-name="Ellipse 81" cx="11.112" cy="11.112" r="11.112" transform="translate(1105.735 765.975)" fill="#c6c6c6"/>
      <circle id="Ellipse_82" data-name="Ellipse 82" cx="11.112" cy="11.112" r="11.112" transform="translate(1283.057 851.196)" fill="#a8a8a8"/>
      <path id="Tracé_620" data-name="Tracé 620" d="M1316.4,944.239a11.112,11.112,0,1,1-11.113-11.113A11.113,11.113,0,0,1,1316.4,944.239Z" fill="#231f20"/>
      <path id="Tracé_621" data-name="Tracé 621" d="M1298.291,1020.057a11.113,11.113,0,1,1-11.113-11.112A11.113,11.113,0,0,1,1298.291,1020.057Z" fill="#231f20"/>
      <path id="Tracé_622" data-name="Tracé 622" d="M1226.149,1050.516a11.113,11.113,0,1,1-11.113-11.113A11.113,11.113,0,0,1,1226.149,1050.516Z" fill="#231f20"/>
      <circle id="Ellipse_83" data-name="Ellipse 83" cx="11.112" cy="11.112" r="11.112" transform="translate(1137.61 1045.512)" fill="#a8a8a8"/>
      <path id="Tracé_623" data-name="Tracé 623" d="M1112.378,1020.057a11.113,11.113,0,1,1-11.114-11.112A11.113,11.113,0,0,1,1112.378,1020.057Z" fill="#231f20"/>
      <path id="Tracé_624" data-name="Tracé 624" d="M1063.74,955.352a11.113,11.113,0,1,1-11.112-11.113A11.113,11.113,0,0,1,1063.74,955.352Z" fill="#231f20"/>
      <path id="Tracé_625" data-name="Tracé 625" d="M1074.852,902.573a11.112,11.112,0,1,1-11.112-11.114A11.112,11.112,0,0,1,1074.852,902.573Z" fill="#231f20"/>
      <path id="Tracé_626" data-name="Tracé 626" d="M1097.078,840.28a11.113,11.113,0,1,1-11.113-11.113A11.114,11.114,0,0,1,1097.078,840.28Z" fill="#a8a8a8"/>
      <path id="Tracé_627" data-name="Tracé 627" d="M1237.261,879.082a11.112,11.112,0,1,1-11.112-11.112A11.113,11.113,0,0,1,1237.261,879.082Z" fill="#919191"/>
      <circle id="Ellipse_84" data-name="Ellipse 84" cx="11.112" cy="11.112" r="11.112" transform="translate(1164.774 902.573)" fill="#686767"/>
      <circle id="Ellipse_85" data-name="Ellipse 85" cx="11.113" cy="11.113" r="11.113" transform="translate(1186.999 922.013)" fill="#686767"/>
      <path id="Tracé_628" data-name="Tracé 628" d="M1187,950.418a11.112,11.112,0,1,1-11.113-11.112A11.113,11.113,0,0,1,1187,950.418Z" fill="#686767"/>
      <path id="Tracé_629" data-name="Tracé 629" d="M1280.138,928.194a11.112,11.112,0,1,1-11.112-11.114A11.113,11.113,0,0,1,1280.138,928.194Z" fill="#231f20"/>
      <path id="Tracé_630" data-name="Tracé 630" d="M1248.374,973.721a11.112,11.112,0,1,1-11.113-11.112A11.112,11.112,0,0,1,1248.374,973.721Z" fill="#919191"/>
      <path id="Tracé_631" data-name="Tracé 631" d="M1159.835,997.832a11.112,11.112,0,1,1-11.113-11.113A11.113,11.113,0,0,1,1159.835,997.832Z" fill="#231f20"/>
      <text id="Plusieurs_niveaux" data-name="Plusieurs niveaux" transform="translate(1494.523 824.605)" fill="#2f836b" font-size="14.875" font-family="Hind-Regular, Hind"><tspan x="0" y="16">Plusieurs niveaux</tspan></text>
      <text id="FLUX_RELATIONS" data-name="FLUX / RELATIONS" transform="translate(1494.523 967.705)" fill="#50ddba" font-size="14.875" font-family="Hind-Bold, Hind" font-weight="700"><tspan x="0" y="16">FLUX / RELATIONS</tspan></text>
      <text id="Sous-systèmes" transform="translate(1494.523 840.787)" fill="#2f836b" font-size="14.875" font-family="Hind-Regular, Hind"><tspan x="0" y="16">Sous-systèmes</tspan></text>
      <g id="Groupe_287" data-name="Groupe 287">
        <g id="Groupe_284" data-name="Groupe 284">
          <path id="Tracé_632" data-name="Tracé 632" d="M1194.595,891.459" fill="none" stroke="#2f836b" stroke-miterlimit="10" stroke-width="1"/>
        </g>
        <g id="Groupe_286" data-name="Groupe 286">
          <g id="Groupe_285" data-name="Groupe 285">
            <path id="Tracé_633" data-name="Tracé 633" d="M1226.149,931.959a41.762,41.762,0,1,1-41.763-41.763A41.762,41.762,0,0,1,1226.149,931.959Z" fill="none" stroke="#2f836b" stroke-miterlimit="10" stroke-width="3"/>
            <path id="Tracé_634" data-name="Tracé 634" d="M1226.149,931.959a41.762,41.762,0,1,1-41.763-41.763A41.762,41.762,0,0,1,1226.149,931.959Z" fill="none" stroke="#2f836b" stroke-miterlimit="10" stroke-width="3"/>
          </g>
          <path id="Tracé_635" data-name="Tracé 635" d="M1194.595,891.459" fill="none" stroke="#2f836b" stroke-miterlimit="10" stroke-width="3"/>
        </g>
      </g>
      <circle id="Ellipse_86" data-name="Ellipse 86" cx="102.791" cy="102.791" r="102.791" transform="matrix(0.16, -0.987, 0.987, 0.16, 1066.457, 1016.958)" fill="none" stroke="#2f836b" stroke-miterlimit="10" stroke-width="3"/>
      <circle id="Ellipse_87" data-name="Ellipse 87" cx="151.202" cy="151.202" r="151.202" transform="translate(970.554 931.958) rotate(-45)" fill="none" stroke="#2f836b" stroke-miterlimit="10" stroke-width="3"/>
      <path id="Tracé_636" data-name="Tracé 636" d="M957.2,862.308a238.138,238.138,0,0,1,150.747-155.344" fill="none" stroke="#ff6800" stroke-miterlimit="10" stroke-width="4"/>
      <g id="Groupe_289" data-name="Groupe 289">
        <g id="Groupe_288" data-name="Groupe 288">
          <path id="Tracé_637" data-name="Tracé 637" d="M958.911,826.627a8.669,8.669,0,0,1-.731,3.542c-1.459,3.426-4.73,4.666-8.205,3.188a6.294,6.294,0,0,1-3.458-8.68,7.093,7.093,0,0,1,1.83-2.6l1.373,1.138a5.473,5.473,0,0,0-1.558,2.165c-1.11,2.6.238,4.841,2.586,5.841,2.627,1.119,4.966.119,5.926-2.134a6.4,6.4,0,0,0,.538-2.764Z" fill="#ff6800"/>
          <path id="Tracé_638" data-name="Tracé 638" d="M961.444,815.505a20.682,20.682,0,0,0,2.74,1.129l-.878,1.815-1.478-.518-.034.069a4.591,4.591,0,0,1,.006,4.2,3.515,3.515,0,0,1-4.836,1.849c-2.684-1.3-3-4.4-.893-8.679l-.23-.112a2.528,2.528,0,0,0-3.77,1.289,5.941,5.941,0,0,0-.587,3.317l-1.576-.2a7.972,7.972,0,0,1,.816-4.139c1.645-3.4,4.363-3.1,6.566-2.031Zm-3.952.495c-1.114,2.179-1.935,4.871.222,5.916a1.966,1.966,0,0,0,2.84-.948,3.118,3.118,0,0,0-.536-3.631,2.5,2.5,0,0,0-.6-.4Z" fill="#ff6800"/>
          <path id="Tracé_639" data-name="Tracé 639" d="M967.689,803.089c1.137.629,2.132,1.151,3.018,1.555l-.965,1.74-1.825-.865-.025.045a4.611,4.611,0,0,1,.031,4.682c-.939,1.7-3.023,3.2-6.795,1.107l-6.314-3.5,1.088-1.965,5.958,3.3c2.053,1.137,3.816,1.269,4.793-.494a3.231,3.231,0,0,0-.374-3.59,3.1,3.1,0,0,0-.9-.734l-6.606-3.657,1.086-1.964Z" fill="#ff6800"/>
          <path id="Tracé_640" data-name="Tracé 640" d="M970.39,800.789a6.315,6.315,0,0,0,2.311-2.079c.848-1.363.581-2.429-.307-2.982-.91-.566-1.724-.32-3.1.744-1.877,1.475-3.448,1.731-4.7.949-1.688-1.048-2.212-3.3-.826-5.527A5.718,5.718,0,0,1,966,789.742l1.1,1.316a4.784,4.784,0,0,0-1.96,1.754,1.777,1.777,0,0,0,.353,2.621c.867.537,1.633.174,3.022-.855,1.789-1.379,3.291-1.768,4.851-.8,1.861,1.158,2.26,3.416.74,5.863a7.044,7.044,0,0,1-2.567,2.488Z" fill="#ff6800"/>
          <path id="Tracé_641" data-name="Tracé 641" d="M980.225,784.535a20.6,20.6,0,0,0,2.538,1.529l-1.14,1.66-1.384-.734-.044.062a4.6,4.6,0,0,1-.625,4.151,3.518,3.518,0,0,1-5.059,1.1c-2.459-1.689-2.3-4.8.423-8.713l-.21-.144a2.526,2.526,0,0,0-3.922.707,5.95,5.95,0,0,0-1.078,3.187l-1.529-.431a8.011,8.011,0,0,1,1.43-3.969c2.139-3.109,4.781-2.406,6.8-1.02Zm-3.98-.106c-1.429,1.987-2.647,4.524-.673,5.881a1.965,1.965,0,0,0,2.95-.51,3.116,3.116,0,0,0,.019-3.67,2.586,2.586,0,0,0-.533-.49Z" fill="#ff6800"/>
          <path id="Tracé_642" data-name="Tracé 642" d="M970.215,772.615l1.342-1.8,14.512,10.82-1.341,1.8Z" fill="#ff6800"/>
          <path id="Tracé_643" data-name="Tracé 643" d="M977.42,766.99a1.338,1.338,0,0,1,.2,1.972,1.318,1.318,0,0,1-1.916.213,1.365,1.365,0,0,1-.238-1.968A1.346,1.346,0,0,1,977.42,766.99ZM988.3,778.72l-9.7-7.623,1.387-1.765,9.7,7.625Z" fill="#ff6800"/>
          <path id="Tracé_644" data-name="Tracé 644" d="M981.928,762.263l2.272,1.9,2.059-2.465,1.313,1.094-2.061,2.466,5.108,4.268c1.175.98,2.119,1.205,2.92.244a4.1,4.1,0,0,0,.715-1.1l1.378,1.018a6.142,6.142,0,0,1-1.04,1.723,3.207,3.207,0,0,1-2.278,1.254,4.821,4.821,0,0,1-3.043-1.411l-5.166-4.316-1.227,1.469-1.311-1.1,1.226-1.469-1.762-1.47Z" fill="#ff6800"/>
          <path id="Tracé_645" data-name="Tracé 645" d="M989.71,749.878l.6,4.756-1.065,1.17-1.184-4.117Zm4.024,13.266c2.277,2.008,4.489,1.436,6.018-.242a8.014,8.014,0,0,0,1.832-2.955l1.463.781a10.069,10.069,0,0,1-2.2,3.586c-2.561,2.809-5.956,2.783-8.707.275s-3.423-6.089-1-8.746c2.733-3,6.039-1.4,7.716.131a5.684,5.684,0,0,1,.722.762Zm3.246-5.945c-1.019-.965-3.07-2.008-4.772-.141-1.546,1.7-.674,3.8.356,4.985Z" fill="#ff6800"/>
          <path id="Tracé_646" data-name="Tracé 646" d="M1015.53,748.617a8.678,8.678,0,0,1-2.08,2.955c-2.7,2.562-6.2,2.4-8.793-.344a6.287,6.287,0,0,1,.286-9.334,7.074,7.074,0,0,1,2.714-1.66l.8,1.592a5.491,5.491,0,0,0-2.291,1.363c-2.053,1.947-1.709,4.535.046,6.387,1.965,2.072,4.507,2.086,6.284.4a6.43,6.43,0,0,0,1.595-2.32Z" fill="#ff6800"/>
          <path id="Tracé_647" data-name="Tracé 647" d="M1009.137,733.779a1.336,1.336,0,0,1-.161,1.976,1.318,1.318,0,0,1-1.924-.14,1.365,1.365,0,0,1,.124-1.979A1.347,1.347,0,0,1,1009.137,733.779Zm8.581,13.515-8.163-9.261,1.685-1.485,8.163,9.262Z" fill="#ff6800"/>
          <path id="Tracé_648" data-name="Tracé 648" d="M1016.7,736.921c-.929-1.117-1.745-2.062-2.537-2.9l1.51-1.254,1.642,1.816.059-.046a3.735,3.735,0,0,1,.922-4.28,4.652,4.652,0,0,1,.5-.351l1.353,1.629a3.488,3.488,0,0,0-.622.449,3.124,3.124,0,0,0-.49,4.119,6.524,6.524,0,0,0,.608.852l4.2,5.062-1.728,1.434Z" fill="#ff6800"/>
          <path id="Tracé_649" data-name="Tracé 649" d="M1034.941,732.746a8.694,8.694,0,0,1-2.38,2.72c-2.955,2.264-6.414,1.733-8.708-1.263a6.289,6.289,0,0,1,1.264-9.252,7.06,7.06,0,0,1,2.873-1.366l.634,1.667a5.518,5.518,0,0,0-2.422,1.115c-2.247,1.72-2.174,4.33-.624,6.355,1.736,2.268,4.261,2.549,6.207,1.061a6.447,6.447,0,0,0,1.828-2.141Z" fill="#ff6800"/>
          <path id="Tracé_650" data-name="Tracé 650" d="M1043.779,723.021c.735,1.072,1.39,1.984,2,2.74l-1.641,1.125-1.245-1.592-.042.03a4.61,4.61,0,0,1-2.068,4.2c-1.6,1.094-4.134,1.5-6.57-2.053l-4.08-5.953,1.852-1.269,3.848,5.617c1.328,1.935,2.846,2.843,4.507,1.7a3.222,3.222,0,0,0,1.273-3.375,3.075,3.075,0,0,0-.48-1.063l-4.267-6.226,1.851-1.27Z" fill="#ff6800"/>
          <path id="Tracé_651" data-name="Tracé 651" d="M1039.093,708.6l1.9-1.191,9.61,15.345-1.9,1.192Z" fill="#ff6800"/>
          <path id="Tracé_652" data-name="Tracé 652" d="M1059.72,713.955a21.153,21.153,0,0,0,1.63,2.476l-1.747,1-.93-1.262-.066.039a4.6,4.6,0,0,1-2.357,3.475,3.52,3.52,0,0,1-5.04-1.193c-1.486-2.588,0-5.325,4.147-7.68l-.127-.221a2.529,2.529,0,0,0-3.843-1.056,5.951,5.951,0,0,0-2.35,2.41l-1.193-1.051a8,8,0,0,1,3-2.961c3.273-1.883,5.353-.107,6.572,2.016Zm-3.545-1.817c-2.146,1.176-4.341,2.938-3.146,5.016a1.968,1.968,0,0,0,2.881.816,3.115,3.115,0,0,0,1.6-3.3,2.5,2.5,0,0,0-.267-.67Z" fill="#ff6800"/>
          <path id="Tracé_653" data-name="Tracé 653" d="M1059.095,699.755a1.34,1.34,0,0,1-.623,1.885,1.319,1.319,0,0,1-1.836-.592,1.367,1.367,0,0,1,.588-1.894A1.347,1.347,0,0,1,1059.095,699.755Zm5.146,15.159-5.743-10.926,1.986-1.045,5.744,10.926Z" fill="#ff6800"/>
          <path id="Tracé_654" data-name="Tracé 654" d="M1065.7,704.591c-.639-1.306-1.21-2.418-1.785-3.416l1.765-.863,1.168,2.154.068-.033a3.731,3.731,0,0,1,1.907-3.941,4.311,4.311,0,0,1,.572-.223l.93,1.9a3.627,3.627,0,0,0-.711.289,3.13,3.13,0,0,0-1.448,3.891,6.708,6.708,0,0,0,.391.971l2.891,5.914-2.017.984Z" fill="#ff6800"/>
          <path id="Tracé_655" data-name="Tracé 655" d="M1075.367,702.994c1.262,2.759,3.516,3.136,5.6,2.226a8.017,8.017,0,0,0,2.875-1.953l1.018,1.309a10.059,10.059,0,0,1-3.469,2.381c-3.48,1.523-6.571.119-8.063-3.291s-.65-6.954,2.645-8.4c3.714-1.625,6.082,1.18,6.992,3.26a5.481,5.481,0,0,1,.349.988Zm5.383-4.11c-.539-1.295-1.99-3.082-4.3-2.07-2.1.92-2.163,3.2-1.7,4.7Z" fill="#ff6800"/>
        </g>
      </g>
      <g id="Groupe_291" data-name="Groupe 291">
        <g id="Groupe_290" data-name="Groupe 290">
          <path id="Tracé_656" data-name="Tracé 656" d="M995.791,848.593a20.393,20.393,0,0,1,1.193-3.191,7.171,7.171,0,0,1,3.524-3.879,5.647,5.647,0,0,1,4.769.293,6.616,6.616,0,0,1,3.6,3.656,7.7,7.7,0,0,1-.722,5.723,25.341,25.341,0,0,1-1.365,2.562Zm10.579,3.2a13.608,13.608,0,0,0,.753-1.429c1.459-3.108.51-5.58-2.512-7-2.635-1.256-5.014-.549-6.45,2.508a9.059,9.059,0,0,0-.645,1.763Z" fill="#fff"/>
          <path id="Tracé_657" data-name="Tracé 657" d="M1013.1,840.959l-4.62-2.483-8.127.086.869-1.615,3.83.08c1.041.039,1.886.057,2.826.125l.019-.031c-.555-.674-1.057-1.444-1.654-2.307l-2.163-3.182.851-1.582,4.3,6.994,4.636,2.495Z" fill="#fff"/>
          <path id="Tracé_658" data-name="Tracé 658" d="M1016.4,834.91l-10.551-6.448.918-1.5,7.4-.105a34.344,34.344,0,0,1,4.576.217l.013-.057c-1.485-.734-2.789-1.488-4.432-2.492l-4.414-2.7.784-1.285,10.551,6.447-.842,1.377-7.4.08a36.325,36.325,0,0,1-4.718-.2l-.013.056c1.378.737,2.655,1.494,4.408,2.567l4.509,2.754Z" fill="#fff"/>
          <path id="Tracé_659" data-name="Tracé 659" d="M1020.632,820.943l2.456,3.277-.943,1.354-7.731-10.528,1.089-1.566,12.556,3.605-.975,1.4-3.947-1.139Zm1.3-4.055-3.623-1.023c-.818-.237-1.525-.506-2.218-.764l-.02.029c.481.559,1.008,1.151,1.478,1.791l2.243,3.039Z" fill="#fff"/>
          <path id="Tracé_660" data-name="Tracé 660" d="M1031.224,804.3c-1.4-1-3.1-2.224-4.3-3.175l-.022.029c.844,1.238,1.752,2.6,2.695,4.15l3.322,5.449-.756.948-5.859-2.1c-1.743-.641-3.272-1.252-4.637-1.9l-.022.029c1.181.99,2.727,2.344,4.121,3.6l3.935,3.568-.952,1.189-9.119-8.392,1.272-1.59,5.989,2.086c1.509.549,2.821,1.08,4.031,1.625l.023-.029c-.769-1.037-1.554-2.229-2.429-3.633l-3.3-5.453,1.273-1.59,10.139,7.119-.986,1.23Z" fill="#fff"/>
          <path id="Tracé_661" data-name="Tracé 661" d="M1030.029,795.166l9.263,8.187-1.068,1.209-9.265-8.187Z" fill="#fff"/>
          <path id="Tracé_662" data-name="Tracé 662" d="M1049.428,795.252c-1.476.9-2.966,1.726-4.316,2.412a2.445,2.445,0,0,0-.654.414c-2.129,2.049-5.419,2.338-8.3-.438-2.851-2.752-3.016-6.25-.7-8.652,2.343-2.428,5.733-2.19,8.36.346,2.3,2.214,2.728,4.671,1.83,6.66l.053.05c1.078-.667,2.218-1.427,3.076-2.052Zm-6.712-4.643c-1.794-1.731-4.519-2.578-6.341-.691-1.873,1.941-.994,4.623.932,6.482,1.9,1.836,4.6,2.449,6.355.627S1044.737,792.56,1042.716,790.609Z" fill="#fff"/>
          <path id="Tracé_663" data-name="Tracé 663" d="M1042.578,782.24l4.952,5.412c1.857,2.029,3.556,2.066,4.774.951,1.339-1.226,1.4-2.924-.43-4.926l-4.954-5.412,1.191-1.09,4.879,5.33c2.562,2.8,2.128,5.289.153,7.1-1.867,1.709-4.24,1.942-6.841-.9l-4.916-5.371Z" fill="#fff"/>
          <path id="Tracé_664" data-name="Tracé 664" d="M1059.681,776.1l-3.7,3.041,2.832,3.442,4.135-3.4.85,1.033-5.382,4.428-7.853-9.545,5.168-4.252.851,1.034-3.922,3.228,2.482,3.016,3.7-3.041Z" fill="#fff"/>
          <path id="Tracé_665" data-name="Tracé 665" d="M1061.314,766.742a20.6,20.6,0,0,1,2.612-2.186,7.169,7.169,0,0,1,4.98-1.637,5.641,5.641,0,0,1,4,2.606,6.614,6.614,0,0,1,1.326,4.951,7.69,7.69,0,0,1-3.449,4.625,25.9,25.9,0,0,1-2.452,1.557Zm7.624,8a13.025,13.025,0,0,0,1.36-.873c2.8-1.983,3.2-4.6,1.265-7.329-1.671-2.39-4.09-2.949-6.846-1a9.009,9.009,0,0,0-1.431,1.217Z" fill="#fff"/>
          <path id="Tracé_666" data-name="Tracé 666" d="M1073.084,758.441l3.87,6.236c1.451,2.338,3.114,2.688,4.517,1.817,1.543-.957,1.918-2.616.487-4.922l-3.87-6.237,1.372-.851,3.811,6.143c2,3.228,1.115,5.591-1.16,7-2.151,1.336-4.527,1.125-6.559-2.148l-3.84-6.189Z" fill="#fff"/>
          <path id="Tracé_667" data-name="Tracé 667" d="M1090.524,760.212a5.39,5.39,0,0,0,2.893-.6c1.446-.758,1.891-1.963,1.312-3.068-.526-1.006-1.427-1.3-3.194-1.081-2.127.288-3.725-.078-4.525-1.605-.893-1.707-.143-3.713,1.986-4.828a5.538,5.538,0,0,1,2.684-.723l.214,1.358a4.6,4.6,0,0,0-2.335.56c-1.495.783-1.6,1.975-1.2,2.721.535,1.025,1.465,1.18,3.282.973,2.227-.254,3.621.154,4.462,1.763.885,1.69.425,3.815-2.158,5.168a6.355,6.355,0,0,1-3.17.746Z" fill="#fff"/>
          <path id="Tracé_668" data-name="Tracé 668" d="M1101.99,756.617l-2.206-4.76-6.553-4.807,1.664-.771,3.016,2.363c.808.654,1.474,1.176,2.186,1.8l.033-.016c-.04-.871.021-1.789.06-2.838l.18-3.843,1.63-.756-.759,8.176,2.213,4.775Z" fill="#fff"/>
          <path id="Tracé_669" data-name="Tracé 669" d="M1107.261,752.1a5.427,5.427,0,0,0,2.94-.322c1.512-.617,2.071-1.773,1.6-2.932-.427-1.052-1.3-1.433-3.078-1.383-2.145.081-3.7-.435-4.353-2.033-.726-1.785.214-3.713,2.442-4.619a5.55,5.55,0,0,1,2.744-.461l.083,1.373a4.574,4.574,0,0,0-2.381.334c-1.563.635-1.778,1.813-1.461,2.6.436,1.07,1.347,1.314,3.176,1.281,2.243-.039,3.592.5,4.276,2.186.719,1.767.056,3.84-2.648,4.939a6.4,6.4,0,0,1-3.227.442Z" fill="#fff"/>
          <path id="Tracé_670" data-name="Tracé 670" d="M1114.988,739.363l-3.545,1.256-.453-1.282,8.63-3.054.454,1.281-3.564,1.26,3.672,10.379-1.521.539Z" fill="#fff"/>
          <path id="Tracé_671" data-name="Tracé 671" d="M1123.194,732.273l2.248,1.543-1.247.377-2.862-1.358Zm6.2,7.916-4.582,1.383,1.288,4.265,5.127-1.546.386,1.281-6.671,2.013-3.572-11.832,6.407-1.933.388,1.281-4.864,1.469,1.129,3.738,4.582-1.383Z" fill="#fff"/>
          <path id="Tracé_672" data-name="Tracé 672" d="M1142.3,737.339c-.487-1.658-1.075-3.668-1.426-5.15l-.037.008c-.1,1.494-.22,3.127-.435,4.931l-.742,6.342-1.179.28-3.321-5.268c-.976-1.578-1.805-3.006-2.482-4.354l-.035.01c.319,1.508.7,3.53,1.027,5.375l.9,5.237-1.483.349-2.008-12.232,1.981-.469,3.431,5.336c.85,1.363,1.556,2.592,2.174,3.766l.036-.01c.033-1.289.149-2.711.326-4.358l.765-6.326,1.982-.471,3.6,11.858-1.536.363Z" fill="#fff"/>
          <path id="Tracé_673" data-name="Tracé 673" d="M1152.917,735.033l-4.716.818.759,4.391,5.279-.912.227,1.318-6.868,1.189-2.108-12.183,6.6-1.143.228,1.321-5.007.865.666,3.851,4.719-.816Z" fill="#fff"/>
          <path id="Tracé_674" data-name="Tracé 674" d="M1168.708,738.6a7.837,7.837,0,0,1-3.189.916c-3.468.354-6.283-1.572-6.7-5.623a6.144,6.144,0,0,1,5.765-7.117,6.7,6.7,0,0,1,2.976.25l-.269,1.336a5.672,5.672,0,0,0-2.516-.26c-2.883.295-4.612,2.334-4.282,5.565.309,3.031,2.239,4.769,5.213,4.466a6.4,6.4,0,0,0,2.559-.779Z" fill="#fff"/>
          <path id="Tracé_675" data-name="Tracé 675" d="M1180.506,732.1c.187,4.233-2.3,6.621-5.449,6.758-3.281.145-5.666-2.3-5.83-6.041-.174-3.922,2.132-6.594,5.432-6.738C1178.049,725.927,1180.343,728.416,1180.506,732.1Zm-9.595.608c.117,2.656,1.65,4.957,4.18,4.845s3.856-2.5,3.732-5.306c-.109-2.473-1.505-4.983-4.162-4.866S1170.792,730.011,1170.911,732.707Z" fill="#fff"/>
          <path id="Tracé_676" data-name="Tracé 676" d="M1193.2,733.21c-.048-1.728-.1-3.82-.066-5.341l-.037,0c-.475,1.42-1.011,2.965-1.678,4.654l-2.336,5.941-1.21-.031-1.867-5.937c-.541-1.776-.978-3.364-1.29-4.84l-.036,0c-.076,1.539-.221,3.592-.378,5.459l-.465,5.293-1.523-.041,1.178-12.338,2.036.053,1.956,6.031c.474,1.535.844,2.9,1.141,4.2h.037c.362-1.238.836-2.584,1.426-4.129l2.353-5.922,2.036.053.455,12.379-1.577-.041Z" fill="#fff"/>
          <path id="Tracé_677" data-name="Tracé 677" d="M1198.24,726.724a18.674,18.674,0,0,1,3.072.029,5.083,5.083,0,0,1,3.364,1.325,3.381,3.381,0,0,1,.854,2.67,3.63,3.63,0,0,1-1.179,2.548,5.143,5.143,0,0,1-3.883,1.024,5.5,5.5,0,0,1-1.269-.221l-.43,4.934-1.59-.137Zm1.072,6.078a5.275,5.275,0,0,0,1.3.242c1.92.168,3.172-.681,3.316-2.343.144-1.645-.957-2.532-2.694-2.684a6.847,6.847,0,0,0-1.509,0Z" fill="#fff"/>
          <path id="Tracé_678" data-name="Tracé 678" d="M1208.385,727.55l1.6.215-1.472,10.926,5.236.705-.179,1.326-6.835-.92Z" fill="#fff"/>
          <path id="Tracé_679" data-name="Tracé 679" d="M1222.535,736.431l-4.71-.851-.793,4.384,5.27.954-.239,1.316L1215.206,741l2.2-12.162,6.587,1.189-.239,1.316-5-.9-.694,3.844,4.709.849Z" fill="#fff"/>
          <path id="Tracé_680" data-name="Tracé 680" d="M1230.56,744.152l-.938-3.024c-.39-1.164-.612-1.912-.827-2.7l-.035-.008c-.5.618-1.007,1.18-1.859,2.092l-2.061,2.311-1.787-.414,5.094-5.243-2.16-6.771,1.8.418.936,3.193c.265.889.464,1.576.637,2.293l.052.014c.506-.637.938-1.121,1.562-1.785l2.281-2.448,1.806.418-5.022,5.014,2.321,7.053Z" fill="#fff"/>
          <path id="Tracé_681" data-name="Tracé 681" d="M1241.716,741.209l-4.6-1.311-1.22,4.287,5.151,1.465-.367,1.289-6.7-1.91,3.385-11.891,6.44,1.834-.366,1.287-4.888-1.39-1.069,3.758,4.6,1.31Z" fill="#fff"/>
        </g>
      </g>
      <line id="Ligne_126" data-name="Ligne 126" x2="184.505" transform="translate(1305.282 843.301)" fill="none" stroke="#2f836b" stroke-miterlimit="10" stroke-width="3"/>
      <text id="S_intéresse_à_la_façon_de_communiquer_des_sous-systèmes" data-name="S’intéresse à la façon de communiquer des sous-systèmes" transform="translate(1494.523 898.765)" fill="#ff6800" font-size="14.875" font-family="Hind-Regular, Hind"><tspan x="0" y="16">S’intéresse à la façon de </tspan><tspan x="0" y="33.85">communiquer des sous-</tspan><tspan x="0" y="51.7">systèmes</tspan></text>
      <text id="Toute_action_d_un_agent_en_affecte_un_autre" data-name="Toute action d’un agent en affecte un autre" transform="translate(1494.523 999.753)" fill="#a8a8a8" font-size="14.875" font-family="Hind-Regular, Hind"><tspan x="0" y="16">Toute action d’un agent </tspan><tspan x="0" y="33.85">en affecte un autre</tspan></text>
      <line id="Ligne_127" data-name="Ligne 127" x2="137.078" transform="translate(1352.709 928.845)" fill="none" stroke="#ff6800" stroke-miterlimit="10" stroke-width="3"/>
      <line id="Ligne_128" data-name="Ligne 128" x2="194.386" transform="translate(1295.402 978.707)" fill="none" stroke="#50ddba" stroke-miterlimit="10" stroke-width="3"/>
      <text id="Agents_" data-name="Agents " transform="translate(1494.523 792.403)" fill="#a8a8a8" font-size="14.875" font-family="Hind-Regular, Hind"><tspan x="0" y="16">Agents </tspan></text>
      <line id="Ligne_129" data-name="Ligne 129" x2="188.01" transform="translate(1301.777 804.225)" fill="none" stroke="#c6c6c6" stroke-miterlimit="10" stroke-width="3"/>
      <text id="Pensée_systémique_stratégies_d_intervention_Approche_holistique" data-name="Pensée systémique = stratégies d’intervention
Approche holistique" transform="translate(1494.523 1061.255)" fill="#b9a3e3" font-size="14.875" font-family="Hind-Regular, Hind"><tspan x="0" y="16">Pensée systémique = </tspan><tspan x="0" y="33.85">stratégies d’intervention</tspan><tspan font-family="ArialMT, Arial"><tspan x="0" y="51.7">Approche holistique</tspan></tspan></text>
      <line id="Ligne_130" data-name="Ligne 130" x2="188.01" transform="translate(1301.777 1091.252)" fill="none" stroke="#b9a3e3" stroke-miterlimit="10" stroke-width="3"/>
      <path id="Tracé_682" data-name="Tracé 682" d="M1302.94,936.936a36.219,36.219,0,0,1,49.769-12.235" fill="none" stroke="#ff6800" stroke-miterlimit="10" stroke-width="3"/>
    </g>
  </g>
</svg>
