<svg xmlns="http://www.w3.org/2000/svg" xmlns:xlink="http://www.w3.org/1999/xlink" width="841.89" height="595.28" viewBox="0 0 841.89 595.28">
  <defs>
    <clipPath id="clip-_123">
      <rect width="841.89" height="595.28"/>
    </clipPath>
  </defs>
  <g id="_123" data-name="123" clip-path="url(#clip-_123)">
    <rect width="841.89" height="595.28" fill="#fff"/>
    <line id="Ligne_120" data-name="Ligne 120" x1="103.209" y2="58.539" transform="translate(493.373 183.786)" fill="none" stroke="#b9a3e3" stroke-miterlimit="10" stroke-width="3"/>
    <line id="Ligne_121" data-name="Ligne 121" x2="104.19" y2="57.841" transform="translate(245.307 186.765)" fill="none" stroke="#2f836b" stroke-miterlimit="10" stroke-width="3"/>
    <path id="Tracé_599" data-name="Tracé 599" d="M2379.644,933.278a165.953,165.953,0,1,1-165.956-165.955A165.953,165.953,0,0,1,2379.644,933.278Z" transform="translate(-1792.746 -649.985)" fill="none" stroke="#2f836b" stroke-miterlimit="10" stroke-width="4"/>
    <path id="Tracé_600" data-name="Tracé 600" d="M2290.486,933.276a76.8,76.8,0,1,1-76.8-76.8A76.8,76.8,0,0,1,2290.486,933.276Z" transform="translate(-1792.746 -649.985)" fill="#2f836b"/>
    <text id="CONTENUS_DISPOSITIF_DE_COMPRÉHENSION_" data-name="CONTENUS /
DISPOSITIF DE 
COMPRÉHENSION
 " transform="translate(314.981 246.223)" fill="#fff" font-size="17" font-family="Hind-Bold, Hind" font-weight="700"><tspan x="57.285" y="18">CONTENUS /</tspan><tspan x="51.148" y="39.157">DISPOSITIF DE </tspan><tspan x="36.766" y="60.313">COMPRÉHENSION</tspan><tspan x="105.965" y="81.47"> </tspan></text>
    <path id="Tracé_601" data-name="Tracé 601" d="M2125.871,836.752a87.819,87.819,0,1,1-87.82-87.821A87.819,87.819,0,0,1,2125.871,836.752Z" transform="translate(-1792.746 -649.985)" fill="#231f20"/>
    <text id="Structure_et_organisation_des_informations_" data-name="Structure et organisation des informations
 " transform="translate(168.85 143.225)" fill="#fff" font-size="20" font-family="Hind-Bold, Hind" font-weight="700"><tspan x="22.887" y="21">Structure et </tspan><tspan x="1.607" y="45">organisation des </tspan><tspan x="18.867" y="69">informations</tspan><tspan x="76.457" y="93"> </tspan></text>
    <path id="Tracé_602" data-name="Tracé 602" d="M2477.148,836.752a87.819,87.819,0,1,1-87.82-87.821A87.819,87.819,0,0,1,2477.148,836.752Z" transform="translate(-1792.746 -649.985)" fill="#b9a3e3"/>
    <text id="Méthodologies_d_organisation_et_nomenclatures" data-name="Méthodologies d’organisation et nomenclatures" transform="translate(517.611 151.384)" fill="#fff" font-size="20" font-family="Hind-Bold, Hind" font-weight="700"><tspan x="10.872" y="21">Méthodologies </tspan><tspan x="1.952" y="45">d’organisation et </tspan><tspan x="12.122" y="69">nomenclatures</tspan></text>
    <path id="Tracé_603" data-name="Tracé 603" d="M2301.51,1133.709a87.819,87.819,0,1,1-87.821-87.821A87.819,87.819,0,0,1,2301.51,1133.709Z" transform="translate(-1792.746 -649.985)" fill="#50ddba"/>
    <text id="Intègre_les_principes_du_design_et_de_l_architecture_à_l_univers_numérique_" data-name="Intègre les principes du design et de l’architecture à l’univers numérique
 " transform="translate(344.153 417.605)" fill="#fff" font-size="17.631" font-family="Hind-Bold, Hind" font-weight="700"><tspan x="34.601" y="19">Intègre les </tspan><tspan x="27.399" y="40.157">principes du </tspan><tspan x="27.566" y="61.313">design et de </tspan><tspan x="17.05" y="82.47">l’architecture à </tspan><tspan x="42.817" y="103.627">l’univers </tspan><tspan x="33.402" y="124.784">numérique</tspan><tspan x="76.791" y="145.94"> </tspan></text>
    <text id="Architecture_de_l_information:_maîtrise_de_la_production_des_contenus" data-name="Architecture de l’information: maîtrise de la production des contenus" transform="translate(198.598 37.479)" fill="#2f836b" font-size="21" font-family="Hind-Bold, Hind" font-weight="700"><tspan x="14.699" y="22">Architecture de l’information: maîtrise de la </tspan><tspan x="104.453" y="47.2">production des contenus</tspan></text>
    <line id="Ligne_122" data-name="Ligne 122" y1="26.619" transform="translate(420.944 369.284)" fill="none" stroke="#50ddba" stroke-miterlimit="10" stroke-width="3"/>
  </g>
</svg>
