<svg xmlns="http://www.w3.org/2000/svg" xmlns:xlink="http://www.w3.org/1999/xlink" width="629.177" height="595.28" viewBox="0 0 629.177 595.28">
  <defs>
    <clipPath id="clip-_211">
      <rect width="629.177" height="595.28"/>
    </clipPath>
  </defs>
  <g id="_211" data-name="211" clip-path="url(#clip-_211)">
    <rect width="629.177" height="595.28" fill="#fff"/>
    <g id="Groupe_282" data-name="Groupe 282" transform="translate(-12.228 -1309.818)">
      <circle id="Ellipse_73" data-name="Ellipse 73" cx="252.102" cy="252.102" r="252.102" transform="translate(74.715 1355.356)" fill="none" stroke="#1d1d1b" stroke-miterlimit="10" stroke-width="2"/>
      <circle id="Ellipse_74" data-name="Ellipse 74" cx="69.874" cy="69.874" r="69.874" transform="translate(225.814 1454.312) rotate(-45)" fill="none" stroke="#3e836c" stroke-miterlimit="10" stroke-width="3"/>
      <g id="Groupe_274" data-name="Groupe 274">
        <g id="Groupe_273" data-name="Groupe 273">
          <path id="Tracé_542" data-name="Tracé 542" d="M140.63,1682.058a15.737,15.737,0,0,1,.153-2.594,5.473,5.473,0,0,1,1.7-3.622,4.311,4.311,0,0,1,3.543-.858,5.045,5.045,0,0,1,3.444,1.854,5.875,5.875,0,0,1,.762,4.335,19.635,19.635,0,0,1-.418,2.176Zm8.434-.044a10.2,10.2,0,0,0,.227-1.213c.364-2.592-.883-4.182-3.407-4.537-2.2-.323-3.779.728-4.136,3.279a6.961,6.961,0,0,0-.075,1.433Z" fill="#b29fcd"/>
          <path id="Tracé_543" data-name="Tracé 543" d="M142.39,1671.055l9.2,2.121-.277,1.2-9.2-2.122Z" fill="#b29fcd"/>
          <path id="Tracé_544" data-name="Tracé 544" d="M143.138,1668.5a14.2,14.2,0,0,1,.508-2.29,3.9,3.9,0,0,1,1.546-2.376,2.4,2.4,0,0,1,1.944-.172,2.473,2.473,0,0,1,1.76,2.394l.041.012a2.366,2.366,0,0,1,2.224-.743,15.221,15.221,0,0,0,2.688.075l-.374,1.2a11.805,11.805,0,0,1-2.334-.082c-1.326-.119-1.947.23-2.316,1.273l-.341,1.095,3.9,1.215-.363,1.162Zm4.464.114.37-1.19a1.854,1.854,0,0,0-1.078-2.562c-1.162-.362-1.932.321-2.314,1.551a5.332,5.332,0,0,0-.264,1.176Z" fill="#b29fcd"/>
          <path id="Tracé_545" data-name="Tracé 545" d="M152.125,1658.121l-1.427,3.363,3.133,1.33,1.6-3.765.942.4-2.079,4.9-8.688-3.686,2-4.7.942.4-1.515,3.569,2.745,1.166,1.427-3.365Z" fill="#b29fcd"/>
          <path id="Tracé_546" data-name="Tracé 546" d="M159.873,1652.334a5.976,5.976,0,0,1-.812,2.4,4.4,4.4,0,0,1-6.438,1.759,4.691,4.691,0,0,1-1.961-6.712,5.135,5.135,0,0,1,1.45-1.759l.722.75a4.315,4.315,0,0,0-1.256,1.466c-1.07,1.937-.541,3.908,1.63,5.106,2.035,1.122,3.965.669,5.068-1.331a4.91,4.91,0,0,0,.624-1.942Z" fill="#b29fcd"/>
          <path id="Tracé_547" data-name="Tracé 547" d="M155.223,1644.806l-1.652,2.348-.847-.6,4.022-5.715.847.6-1.661,2.358,6.871,4.837-.71,1.007Z" fill="#b29fcd"/>
          <path id="Tracé_548" data-name="Tracé 548" d="M158.549,1638.714l7.307,5.975-.78.954-7.307-5.975Z" fill="#b29fcd"/>
          <path id="Tracé_549" data-name="Tracé 549" d="M169.237,1634.025c2.31,2.264,2.169,4.891.483,6.611-1.755,1.79-4.36,1.668-6.4-.332-2.142-2.1-2.248-4.79-.484-6.591C164.649,1631.863,167.226,1632.054,169.237,1634.025Zm-5.036,5.339c1.45,1.423,3.506,1.906,4.858.526s.847-3.406-.684-4.906c-1.35-1.322-3.437-1.995-4.858-.545S162.73,1637.923,164.2,1639.364Z" fill="#b29fcd"/>
          <path id="Tracé_550" data-name="Tracé 550" d="M173.649,1636.6l-5.815-7.434,1.058-.829,5.314,1.907a26.211,26.211,0,0,1,3.213,1.38l.024-.038c-.864-.923-1.594-1.81-2.5-2.968l-2.434-3.111.9-.708,5.816,7.434-.971.76-5.311-1.926a27.618,27.618,0,0,1-3.32-1.4l-.025.037c.789.894,1.5,1.779,2.465,3.013l2.485,3.177Z" fill="#b29fcd"/>
          <path id="Tracé_551" data-name="Tracé 551" d="M185.314,1623.437l-3.186,1.787,1.664,2.967,3.564-2,.5.892-4.638,2.6-4.614-8.225,4.455-2.5.5.89-3.382,1.9,1.459,2.6,3.186-1.787Z" fill="#b29fcd"/>
          <path id="Tracé_552" data-name="Tracé 552" d="M185.381,1617.924a15.56,15.56,0,0,1,2.3-1.2,5.474,5.474,0,0,1,3.976-.409,4.3,4.3,0,0,1,2.559,2.594,5.049,5.049,0,0,1,.181,3.905,5.873,5.873,0,0,1-3.323,2.884,19.608,19.608,0,0,1-2.079.759Zm4.376,7.2a10.159,10.159,0,0,0,1.156-.428c2.409-1.021,3.129-2.908,2.135-5.253-.855-2.054-2.566-2.863-4.937-1.859a6.955,6.955,0,0,0-1.265.673Z" fill="#b29fcd"/>
          <path id="Tracé_553" data-name="Tracé 553" d="M195.737,1613.761l2.912,8.981-1.173.379-2.912-8.98Z" fill="#b29fcd"/>
          <path id="Tracé_554" data-name="Tracé 554" d="M200.259,1613.555l-2.784.688-.248-1.005,6.778-1.674.248,1.006-2.8.69,2.011,8.152-1.2.3Z" fill="#b29fcd"/>
          <path id="Tracé_555" data-name="Tracé 555" d="M214.01,1614.8c.427,3.2-1.3,5.184-3.686,5.5-2.484.33-4.459-1.369-4.835-4.2-.4-2.968,1.178-5.153,3.675-5.485C211.73,1610.273,213.64,1612.01,214.01,1614.8Zm-7.249,1.1c.268,2.012,1.586,3.657,3.5,3.4s2.762-2.16,2.48-4.282c-.248-1.873-1.478-3.686-3.489-3.418S206.49,1613.863,206.761,1615.9Z" fill="#b29fcd"/>
          <path id="Tracé_556" data-name="Tracé 556" d="M215.859,1610.263a14.1,14.1,0,0,1,2.335-.223,3.9,3.9,0,0,1,2.738.738,2.406,2.406,0,0,1,.763,1.8,2.478,2.478,0,0,1-1.736,2.414v.042a2.367,2.367,0,0,1,1.4,1.887,15.02,15.02,0,0,0,.758,2.582l-1.26.015a11.954,11.954,0,0,1-.643-2.248c-.294-1.3-.818-1.781-1.924-1.81l-1.148.013.048,4.087-1.219.015Zm1.267,4.282,1.246-.013c1.3-.015,2.12-.739,2.107-1.817-.015-1.217-.9-1.739-2.19-1.725a5.448,5.448,0,0,0-1.2.112Z" fill="#b29fcd"/>
          <path id="Tracé_557" data-name="Tracé 557" d="M225.117,1610.29l-.594,9.42-1.231-.077.594-9.421Z" fill="#b29fcd"/>
          <path id="Tracé_558" data-name="Tracé 558" d="M228.414,1617.091l-1.4,2.793-1.247-.181,4.56-8.87,1.441.21,1.815,9.808-1.289-.19-.567-3.083Zm3.213-.49-.533-2.824c-.118-.641-.175-1.215-.234-1.775l-.028,0c-.217.519-.442,1.08-.719,1.62l-1.312,2.567Z" fill="#b29fcd"/>
          <path id="Tracé_559" data-name="Tracé 559" d="M236.994,1612.023l1.193.306-2.086,8.147,3.9,1-.254.99-5.1-1.3Z" fill="#b29fcd"/>
          <path id="Tracé_560" data-name="Tracé 560" d="M246.918,1620.3l-3.442-1.231-1.146,3.206,3.852,1.377-.345.963-5.012-1.793,3.179-8.89,4.815,1.722-.345.963-3.654-1.308-1,2.811,3.442,1.231Z" fill="#b29fcd"/>
        </g>
      </g>
      <circle id="Ellipse_75" data-name="Ellipse 75" cx="69.874" cy="69.874" r="69.874" transform="translate(365.59 1622.56)" fill="none" stroke="#eb6739" stroke-miterlimit="10" stroke-width="3"/>
      <circle id="Ellipse_76" data-name="Ellipse 76" cx="69.874" cy="69.874" r="69.874" transform="translate(153.888 1625.992)" fill="none" stroke="#b29fcd" stroke-miterlimit="10" stroke-width="3"/>
      <text id="Design_graphique" data-name="Design graphique" transform="translate(292.225 1434.548)" fill="#3e836c" font-size="10" font-family="Hind-Regular, Hind"><tspan x="19.261" y="11">Design </tspan><tspan x="12.166" y="23">graphique</tspan></text>
      <text id="Faciliter_les_transmissions" data-name="Faciliter les transmissions" transform="translate(360.659 1550.167)" fill="#1d1d1b" font-size="9" font-family="Hind-Regular, Hind"><tspan x="12.34" y="9">Faciliter les </tspan><tspan x="7.921" y="19.8">transmissions</tspan></text>
      <text id="Outils_de_gestion_collaboratifs" data-name="Outils de gestion collaboratifs" transform="translate(223.762 1550.167)" fill="#1d1d1b" font-size="9" font-family="Hind-Regular, Hind"><tspan x="1.216" y="9">Outils de gestion </tspan><tspan x="10.068" y="19.8">collaboratifs</tspan></text>
      <text id="Supervision_Coordination" data-name="Supervision
Coordination" transform="translate(291.222 1642.993)" fill="#1d1d1b" font-size="9" font-family="Hind-Regular, Hind"><tspan x="11.508" y="9">Supervision</tspan><tspan x="8.7" y="19.8">Coordination</tspan></text>
      <text id="Mise_en_page_print_et_web" data-name="Mise en page print et web" transform="translate(292.225 1398.883)" fill="#3e836c" font-size="10" font-family="Hind-Regular, Hind"><tspan x="5.326" y="11">Mise en page </tspan><tspan x="7.356" y="23">print et web</tspan></text>
      <text id="Performance_d_affichage" data-name="Performance d’affichage" transform="translate(292.225 1469.386)" fill="#3e836c" font-size="10" font-family="Hind-Regular, Hind"><tspan x="6.581" y="11">Performance </tspan><tspan x="10.851" y="23">d’affichage</tspan></text>
      <text id="Modalités_d_interaction_print_et_web" data-name="Modalités d’interaction print et web" transform="translate(402.162 1679.552)" fill="#eb6739" font-size="10" font-family="Hind-Regular, Hind"><tspan x="12.611" y="11">Modalités </tspan><tspan x="6.821" y="23">d’interaction </tspan><tspan x="7.356" y="35">print et web</tspan></text>
      <text id="Aspect_technique_de_l_hybridité" data-name="Aspect technique de l’hybridité" transform="translate(402.162 1635.177)" fill="#eb6739" font-size="10" font-family="Hind-Regular, Hind"><tspan x="18.901" y="11">Aspect </tspan><tspan x="5.661" y="23">technique de </tspan><tspan x="12.511" y="35">l’hybridité</tspan></text>
      <text id="Impression_CTRL_P" data-name="Impression CTRL+P" transform="translate(402.162 1725.155)" fill="#eb6739" font-size="10" font-family="Hind-Regular, Hind"><tspan x="10.651" y="11">Impression </tspan><tspan x="17.811" y="23">CTRL+P</tspan></text>
      <text id="Identification_des_sujets" data-name="Identification
des sujets" transform="translate(189.169 1677.534)" fill="#b29fcd" font-size="10" font-family="Hind-Regular, Hind"><tspan x="5.551" y="11">Identification</tspan><tspan x="12.706" y="23">des sujets</tspan></text>
      <text id="Production_de_contenus" data-name="Production de contenus" transform="translate(189.169 1644.146)" fill="#b29fcd" font-size="10" font-family="Hind-Regular, Hind"><tspan x="3.606" y="11">Production de </tspan><tspan x="14.066" y="23">contenus</tspan></text>
      <text id="Garantir_une_approche_réflexive" data-name="Garantir une approche réflexive" transform="translate(189.169 1713.933)" fill="#b29fcd" font-size="10" font-family="Hind-Regular, Hind"><tspan x="7.376" y="11">Garantir une </tspan><tspan x="13.611" y="23">approche </tspan><tspan x="15.756" y="35">réflexive</tspan></text>
      <path id="Tracé_561" data-name="Tracé 561" d="M184.153,1608.386c-21.066-42.052,1.2-95.773,49.778-120.11" fill="none" stroke="#909090" stroke-miterlimit="10" stroke-width="2"/>
      <path id="Tracé_562" data-name="Tracé 562" d="M409.876,1487.6c44.825,14.245,67.781,67.674,51.325,119.458" fill="none" stroke="#909090" stroke-miterlimit="10" stroke-width="2"/>
      <path id="Tracé_563" data-name="Tracé 563" d="M392.725,1761.459c-28.534,37.39-86.576,40.971-129.77,8.007" fill="none" stroke="#909090" stroke-miterlimit="10" stroke-width="2"/>
      <line id="Ligne_117" data-name="Ligne 117" x1="27.137" y2="27.137" transform="translate(268.944 1616.428)" fill="none" stroke="#b29fcd" stroke-miterlimit="10" stroke-width="3"/>
      <line id="Ligne_118" data-name="Ligne 118" x2="26.341" y2="26.341" transform="translate(355.322 1618.967)" fill="none" stroke="#eb6739" stroke-miterlimit="10" stroke-width="3"/>
      <line id="Ligne_119" data-name="Ligne 119" y1="24.499" transform="translate(325.068 1524.187)" fill="none" stroke="#3e836c" stroke-miterlimit="10" stroke-width="3"/>
      <g id="Groupe_275" data-name="Groupe 275">
        <circle id="Ellipse_77" data-name="Ellipse 77" cx="43.673" cy="43.673" r="43.673" transform="translate(281.395 1548.686)" fill="#909090"/>
        <text id="CHARGÉ_DE_PROJET" data-name="CHARGÉ DE PROJET" transform="translate(299.753 1580.027)" fill="#fff" font-size="10" font-family="Hind-Bold, Hind" font-weight="700"><tspan x="6.051" y="11">CHARGÉ </tspan><tspan x="0.966" y="23">DE PROJET</tspan></text>
      </g>
      <g id="Groupe_278" data-name="Groupe 278">
        <g id="Groupe_277" data-name="Groupe 277">
          <g id="Groupe_276" data-name="Groupe 276">
            <path id="Tracé_564" data-name="Tracé 564" d="M418.609,1610.986a15.738,15.738,0,0,1,2.491-.741,5.469,5.469,0,0,1,3.983.361,4.3,4.3,0,0,1,2.016,3.036,5.047,5.047,0,0,1-.571,3.871,5.875,5.875,0,0,1-3.815,2.2,19.825,19.825,0,0,1-2.188.348Zm2.917,7.914a10.2,10.2,0,0,0,1.218-.2c2.561-.541,3.63-2.255,3.1-4.748-.446-2.182-1.971-3.305-4.492-2.772a6.877,6.877,0,0,0-1.372.418Z" fill="#eb6739"/>
            <path id="Tracé_565" data-name="Tracé 565" d="M429.562,1608.888l1.144,9.366-1.223.15-1.144-9.365Z" fill="#eb6739"/>
            <path id="Tracé_566" data-name="Tracé 566" d="M432.212,1608.712a14.19,14.19,0,0,1,2.327-.3,3.9,3.9,0,0,1,2.762.64,2.413,2.413,0,0,1,.825,1.77,2.48,2.48,0,0,1-1.649,2.475l0,.041a2.366,2.366,0,0,1,1.459,1.837,15,15,0,0,0,.848,2.553l-1.259.06a11.877,11.877,0,0,1-.72-2.224c-.341-1.286-.881-1.752-1.988-1.742l-1.146.054.19,4.083-1.216.057Zm1.418,4.237,1.244-.059c1.3-.06,2.092-.812,2.043-1.889-.058-1.216-.964-1.707-2.25-1.646a5.309,5.309,0,0,0-1.2.154Z" fill="#eb6739"/>
            <path id="Tracé_567" data-name="Tracé 567" d="M445.034,1613.619l-3.648-.191-.177,3.4,4.081.213-.053,1.021-5.312-.279.493-9.422,5.1.268-.053,1.02-3.872-.2-.156,2.976,3.648.192Z" fill="#eb6739"/>
            <path id="Tracé_568" data-name="Tracé 568" d="M453.115,1618.933a6.006,6.006,0,0,1-2.533.055,4.406,4.406,0,0,1-3.848-5.455,4.691,4.691,0,0,1,5.643-4.131,5.127,5.127,0,0,1,2.148.764l-.46.933a4.342,4.342,0,0,0-1.806-.681c-2.186-.344-3.859.824-4.245,3.273-.362,2.3.723,3.957,2.979,4.312a4.889,4.889,0,0,0,2.039-.076Z" fill="#eb6739"/>
            <path id="Tracé_569" data-name="Tracé 569" d="M458.621,1612l-2.768-.754.272-1,6.738,1.839-.272,1-2.781-.759-2.213,8.1-1.188-.324Z" fill="#eb6739"/>
            <path id="Tracé_570" data-name="Tracé 570" d="M465.479,1613.054l-3.127,8.9-1.162-.409,3.127-8.9Z" fill="#eb6739"/>
            <path id="Tracé_571" data-name="Tracé 571" d="M473.5,1621.507c-1.344,2.941-3.861,3.7-6.05,2.7-2.279-1.043-3.05-3.534-1.862-6.131,1.246-2.725,3.742-3.739,6.033-2.691C473.979,1616.46,474.673,1618.949,473.5,1621.507Zm-6.729-2.923c-.844,1.845-.6,3.943,1.155,4.746s3.489-.36,4.38-2.307c.786-1.72.71-3.909-1.136-4.754S467.63,1616.712,466.774,1618.584Z" fill="#eb6739"/>
            <path id="Tracé_572" data-name="Tracé 572" d="M472.611,1626.538l5.01-8,1.139.713.017,5.645a26.505,26.505,0,0,1-.2,3.49l.043.011c.574-1.128,1.16-2.115,1.94-3.361l2.1-3.347.973.609-5.009,8-1.045-.654,0-5.648a27.525,27.525,0,0,1,.189-3.6l-.043-.01c-.572,1.046-1.162,2.015-1.994,3.343l-2.142,3.418Z" fill="#eb6739"/>
            <path id="Tracé_573" data-name="Tracé 573" d="M483.2,1631.986a4.125,4.125,0,0,0,1.271,1.863,1.693,1.693,0,0,0,2.546.028c.556-.667.5-1.387-.172-2.569-.824-1.414-1.034-2.647-.192-3.658.941-1.127,2.576-1.186,3.984-.012a4.227,4.227,0,0,1,1.294,1.682l-.895.548a3.5,3.5,0,0,0-1.077-1.483,1.525,1.525,0,0,0-2.27-.053c-.565.677-.4,1.377.273,2.6.831,1.494.951,2.6.063,3.66-.932,1.118-2.565,1.413-4.273-.011a4.857,4.857,0,0,1-1.454-2.016Z" fill="#eb6739"/>
            <path id="Tracé_574" data-name="Tracé 574" d="M495.1,1631.992l-4.093,3.821c-1.534,1.433-1.549,2.73-.69,3.65.946,1.013,2.243,1.048,3.757-.366l4.093-3.82.84.9-4.032,3.764c-2.118,1.977-4.018,1.664-5.412.17-1.319-1.412-1.514-3.222.635-5.227l4.062-3.793Z" fill="#eb6739"/>
            <path id="Tracé_575" data-name="Tracé 575" d="M500.763,1638.535a14.165,14.165,0,0,1,1.536,1.773,3.878,3.878,0,0,1,.941,2.595,2.582,2.582,0,0,1-1.1,1.837,2.78,2.78,0,0,1-2.055.613,3.939,3.939,0,0,1-2.546-1.705,4.116,4.116,0,0,1-.515-.839l-3.042,2.246-.723-.979Zm-2.937,3.683a4.031,4.031,0,0,0,.519.869c.874,1.184,1.992,1.471,3.017.715s.966-1.828.176-2.9a5.088,5.088,0,0,0-.761-.866Z" fill="#eb6739"/>
            <path id="Tracé_576" data-name="Tracé 576" d="M505.488,1645.183a14.062,14.062,0,0,1,1.344,1.922,3.875,3.875,0,0,1,.669,2.676,2.587,2.587,0,0,1-1.281,1.715,2.777,2.777,0,0,1-2.105.4,3.929,3.929,0,0,1-2.358-1.957,4.223,4.223,0,0,1-.425-.887l-3.256,1.92-.618-1.049Zm-3.3,3.36a4.028,4.028,0,0,0,.427.917c.747,1.268,1.829,1.669,2.927,1.022s1.148-1.717.473-2.863a5.255,5.255,0,0,0-.668-.939Z" fill="#eb6739"/>
            <path id="Tracé_577" data-name="Tracé 577" d="M508.717,1661.593c-2.963,1.3-5.346.186-6.313-2.019-1.006-2.3.08-4.668,2.7-5.815,2.745-1.2,5.283-.3,6.295,2.012C512.436,1658.144,511.3,1660.462,508.717,1661.593Zm-3.074-6.666c-1.859.815-3.076,2.541-2.3,4.311s2.843,2.056,4.806,1.2c1.731-.759,3.134-2.444,2.319-4.305S507.529,1654.1,505.643,1654.927Z" fill="#eb6739"/>
            <path id="Tracé_578" data-name="Tracé 578" d="M513.57,1662.064a14.281,14.281,0,0,1,.866,2.182,3.9,3.9,0,0,1,.055,2.836,2.413,2.413,0,0,1-1.513,1.234,2.481,2.481,0,0,1-2.8-.994l-.04.012a2.366,2.366,0,0,1-1.424,1.866,15.094,15.094,0,0,0-2.267,1.448l-.366-1.2a11.675,11.675,0,0,1,1.979-1.244c1.164-.646,1.483-1.284,1.2-2.354l-.333-1.1-3.912,1.187-.353-1.166Zm-3.759,2.414.361,1.191a1.855,1.855,0,0,0,2.332,1.518c1.165-.353,1.419-1.352,1.045-2.586a5.373,5.373,0,0,0-.443-1.123Z" fill="#eb6739"/>
            <path id="Tracé_579" data-name="Tracé 579" d="M515.283,1672.037l-.55-2.817,1.017-.2,1.338,6.855-1.017.2-.552-2.83-8.243,1.608-.235-1.209Z" fill="#eb6739"/>
          </g>
        </g>
      </g>
      <g id="Groupe_281" data-name="Groupe 281">
        <g id="Groupe_280" data-name="Groupe 280">
          <g id="Groupe_279" data-name="Groupe 279">
            <path id="Tracé_580" data-name="Tracé 580" d="M259.006,1401.847a15.689,15.689,0,0,1,1.394-2.191,5.468,5.468,0,0,1,3.244-2.338,4.307,4.307,0,0,1,3.511.972,5.04,5.04,0,0,1,2.105,3.295,5.872,5.872,0,0,1-1.442,4.157,19.7,19.7,0,0,1-1.423,1.7Zm7.387,4.062a10.083,10.083,0,0,0,.788-.949c1.579-2.087,1.263-4.081-.769-5.618-1.766-1.354-3.654-1.2-5.207.853a6.91,6.91,0,0,0-.761,1.214Z" fill="#3e836c"/>
            <path id="Tracé_581" data-name="Tracé 581" d="M265.908,1393.086l7,6.334-.827.915-7-6.335Z" fill="#3e836c"/>
            <path id="Tracé_582" data-name="Tracé 582" d="M267.782,1391.237a14.212,14.212,0,0,1,1.558-1.752,3.9,3.9,0,0,1,2.507-1.325,2.412,2.412,0,0,1,1.783.8,2.478,2.478,0,0,1,.372,2.95l.03.03a2.364,2.364,0,0,1,2.3.434,15.133,15.133,0,0,0,2.312,1.374l-.912.868a11.961,11.961,0,0,1-2-1.207c-1.1-.75-1.813-.748-2.642-.016l-.832.791,2.818,2.96-.882.84Zm3.844,2.273.9-.858a1.855,1.855,0,0,0,.306-2.764c-.84-.883-1.846-.66-2.778.227a5.406,5.406,0,0,0-.8.9Z" fill="#3e836c"/>
            <path id="Tracé_583" data-name="Tracé 583" d="M280.7,1386.535l-2.884,2.243,2.089,2.685,3.227-2.51.628.806-4.2,3.267-5.794-7.447,4.033-3.138.628.807-3.061,2.381,1.832,2.354,2.883-2.244Z" fill="#3e836c"/>
            <path id="Tracé_584" data-name="Tracé 584" d="M290.3,1385.252a5.958,5.958,0,0,1-1.878,1.7,4.4,4.4,0,0,1-6.481-1.6,4.69,4.69,0,0,1,1.559-6.816,5.123,5.123,0,0,1,2.125-.83l.264,1.007a4.326,4.326,0,0,0-1.812.668c-1.878,1.17-2.377,3.15-1.065,5.254,1.231,1.972,3.138,2.516,5.076,1.308a4.882,4.882,0,0,0,1.491-1.393Z" fill="#3e836c"/>
            <path id="Tracé_585" data-name="Tracé 585" d="M289.9,1376.417l-2.586,1.244-.449-.934,6.3-3.029.449.934-2.6,1.25,3.642,7.57-1.11.535Z" fill="#3e836c"/>
            <path id="Tracé_586" data-name="Tracé 586" d="M295.762,1372.716l3.478,8.775-1.146.454-3.476-8.776Z" fill="#3e836c"/>
            <path id="Tracé_587" data-name="Tracé 587" d="M307.383,1373.835c.914,3.1-.488,5.324-2.8,6-2.4.707-4.617-.668-5.424-3.407-.846-2.872.373-5.273,2.789-5.985C304.434,1369.715,306.588,1371.137,307.383,1373.835Zm-6.995,2.208c.574,1.946,2.131,3.369,3.984,2.823s2.4-2.559,1.792-4.613c-.534-1.812-2.027-3.416-3.973-2.841S299.807,1374.069,300.388,1376.043Z" fill="#3e836c"/>
            <path id="Tracé_588" data-name="Tracé 588" d="M309.98,1378.226l-1.46-9.325,1.328-.208,3.714,4.252a26.744,26.744,0,0,1,2.135,2.769l.039-.019c-.3-1.228-.511-2.359-.738-3.812l-.612-3.9,1.135-.177,1.46,9.326-1.217.19-3.7-4.268a27.219,27.219,0,0,1-2.218-2.842l-.038.02c.253,1.166.442,2.284.685,3.834l.624,3.984Z" fill="#3e836c"/>
            <path id="Tracé_589" data-name="Tracé 589" d="M323.26,1373.86l-1.008,2.959-1.259-.013,3.308-9.4,1.456.013,3.13,9.464-1.3-.011-.979-2.978Zm3.117-.922-.912-2.725c-.2-.618-.339-1.179-.474-1.725h-.028c-.145.544-.291,1.131-.492,1.7l-.95,2.722Z" fill="#3e836c"/>
            <path id="Tracé_590" data-name="Tracé 590" d="M331.09,1367.78a14.161,14.161,0,0,1,2.344.081,3.892,3.892,0,0,1,2.619,1.088,2.4,2.4,0,0,1,.523,1.88,2.475,2.475,0,0,1-2.034,2.167l-.005.042a2.369,2.369,0,0,1,1.137,2.052,15.121,15.121,0,0,0,.416,2.659l-1.25-.151a11.7,11.7,0,0,1-.345-2.31c-.124-1.326-.581-1.873-1.674-2.045l-1.139-.136-.484,4.058-1.208-.144Zm.7,4.41,1.237.146a1.854,1.854,0,0,0,2.324-1.526c.144-1.209-.668-1.842-1.947-1.994a5.293,5.293,0,0,0-1.207-.045Z" fill="#3e836c"/>
            <path id="Tracé_591" data-name="Tracé 591" d="M340.916,1370.212l-2.8-.626.226-1.011,6.815,1.526-.227,1.01-2.812-.629-1.835,8.192-1.2-.268Z" fill="#3e836c"/>
            <path id="Tracé_592" data-name="Tracé 592" d="M347.811,1370.943l-2.717,9.037-1.179-.354,2.716-9.038Z" fill="#3e836c"/>
            <path id="Tracé_593" data-name="Tracé 593" d="M347.355,1379.107a4.143,4.143,0,0,0,1.811,1.347c1.165.44,2.078.084,2.416-.806.308-.812.021-1.475-1-2.372-1.242-1.069-1.844-2.166-1.378-3.4.522-1.374,2.048-1.962,3.763-1.312a4.22,4.22,0,0,1,1.773,1.168l-.667.809a3.482,3.482,0,0,0-1.5-1.049c-1.2-.457-1.936.089-2.164.692-.313.824.07,1.433,1.109,2.366,1.274,1.142,1.746,2.145,1.255,3.441-.517,1.362-1.963,2.176-4.045,1.385a4.869,4.869,0,0,1-2.033-1.43Z" fill="#3e836c"/>
            <path id="Tracé_594" data-name="Tracé 594" d="M358.516,1376.276,355.945,1375l.46-.927,6.257,3.1-.459.929-2.584-1.28-3.729,7.524-1.1-.548Z" fill="#3e836c"/>
            <path id="Tracé_595" data-name="Tracé 595" d="M365.024,1378.611l-4.779,8.138-1.062-.623,4.778-8.138Z" fill="#3e836c"/>
            <path id="Tracé_596" data-name="Tracé 596" d="M367.453,1393.341c-.84-1.015-1.632-2.047-2.3-2.991a1.929,1.929,0,0,0-.384-.448c-1.783-1.382-2.366-3.833-.588-6.313,1.762-2.456,4.386-2.968,6.455-1.483,2.093,1.5,2.288,4.087.665,6.35-1.42,1.979-3.227,2.577-4.827,2.118l-.033.046c.624.739,1.323,1.517,1.89,2.095Zm2.762-5.58c1.109-1.546,1.447-3.7-.179-4.865-1.672-1.2-3.6-.239-4.791,1.421-1.175,1.638-1.341,3.741.229,4.866S368.966,1389.5,370.215,1387.761Z" fill="#3e836c"/>
            <path id="Tracé_597" data-name="Tracé 597" d="M376.781,1387.161l-3.821,4.1c-1.432,1.536-1.357,2.832-.436,3.693,1.014.945,2.31.89,3.724-.626l3.821-4.1.9.84-3.763,4.036c-1.978,2.12-3.9,1.939-5.392.545-1.413-1.317-1.733-3.11.272-5.262l3.792-4.067Z" fill="#3e836c"/>
            <path id="Tracé_598" data-name="Tracé 598" d="M382.3,1400.155l-2.382-2.768-2.579,2.217,2.666,3.1-.774.667-3.47-4.033,7.151-6.153,3.333,3.872-.775.667-2.529-2.938-2.26,1.944,2.383,2.77Z" fill="#3e836c"/>
          </g>
        </g>
      </g>
      <text id="_Définition_d_une_mise_en_page_graphique_des_contenus" data-name=" Définition d’une mise en page graphique des contenus" transform="translate(107.386 1514.876)" fill="#909090" font-size="8" font-family="Hind-Bold, Hind" font-weight="700"><tspan x="10.634" y="8" xml:space="preserve"> Définition </tspan><tspan x="4.306" y="17.6">d’une mise en </tspan><tspan x="0.83" y="27.2">page graphique </tspan><tspan x="5.614" y="36.8">des contenus</tspan></text>
      <text id="Interaction_print_et_web_composition_et_mise_en_page_contraste_entre_les_supports_et_technique_de_programmation" data-name="Interaction print et web, composition et mise en page, contraste entre les supports
et technique de programmation" transform="translate(480.338 1503.676)" fill="#909090" font-size="8" font-family="Hind-Bold, Hind" font-weight="700"><tspan x="0.549" y="8">Interaction print </tspan><tspan x="16.657" y="17.6">et web, </tspan><tspan x="3.257" y="27.2">composition et </tspan><tspan x="5.285" y="36.8">mise en page, </tspan><tspan x="2.729" y="46.4">contraste entre </tspan><tspan x="8.341" y="56">les supports</tspan><tspan x="1.865" y="65.6">et technique de </tspan><tspan x="2.061" y="75.2">programmation</tspan></text>
      <text id="Définition_des_interactions_et_disposition_des_contenus_pour_gérer_les_logiques_entre_print_et_web" data-name="Définition des interactions et disposition des contenus pour 
gérer les logiques entre print et web" transform="translate(257.771 1801.396)" fill="#909090" font-size="8" font-family="Hind-Bold, Hind" font-weight="700"><tspan x="17.749" y="8">Définition des interactions et </tspan><tspan x="15.625" y="17.6">disposition des contenus pour </tspan><tspan x="4.093" y="27.2">gérer les logiques entre print et web</tspan></text>
    </g>
  </g>
</svg>
