<svg xmlns="http://www.w3.org/2000/svg" xmlns:xlink="http://www.w3.org/1999/xlink" width="786.752" height="332.28" viewBox="0 0 786.752 332.28">
  <defs>
    <clipPath id="clip-_221">
      <rect width="786.752" height="332.28"/>
    </clipPath>
  </defs>
  <g id="_221" data-name="221" clip-path="url(#clip-_221)">
    <rect width="786.752" height="332.28" fill="#fff"/>
    <g id="Groupe_270" data-name="Groupe 270" transform="translate(-7.498 -2116.349)">
      <rect id="Rectangle_35" data-name="Rectangle 35" width="216.725" height="34.076" rx="12" transform="translate(301.892 2200.4)" fill="#1d1d1b"/>
      <text id="Systèmes_hypermédia" data-name="Systèmes hypermédia" transform="translate(309.489 2201.992)" fill="#fff" font-size="20.718" font-family="Hind-Regular, Hind"><tspan x="3.431" y="22">Systèmes hypermédia</tspan></text>
      <text id="Usages_et_humains" data-name="Usages et humains" transform="translate(98.798 2172.88)" fill="#1d1d1b" font-size="16.575" font-family="Hind-Regular, Hind"><tspan x="9.467" y="17">Usages et humains</tspan></text>
      <text id="Culture_scientifique" data-name="Culture scientifique" transform="translate(126.059 2274.734)" fill="#1d1d1b" font-size="16.575" font-family="Hind-Regular, Hind"><tspan x="6.873" y="17">Culture scientifique</tspan></text>
      <text id="Société" transform="translate(313.246 2303.409)" fill="#1d1d1b" font-size="16.575" font-family="Hind-Regular, Hind"><tspan x="49.105" y="17">Société</tspan></text>
      <text id="Enjeux_modernes" data-name="Enjeux modernes" transform="translate(501.356 2282.489)" fill="#1d1d1b" font-size="16.575" font-family="Hind-Regular, Hind"><tspan x="14.969" y="17">Enjeux modernes</tspan></text>
      <text id="Culture_sociale" data-name="Culture sociale" transform="translate(567.469 2171.981)" fill="#1d1d1b" font-size="16.575" font-family="Hind-Regular, Hind"><tspan x="23.431" y="17">Culture sociale</tspan></text>
      <rect id="Rectangle_36" data-name="Rectangle 36" width="105.723" height="24.862" rx="10.104" transform="translate(339.617 2302.629)" fill="none" stroke="#1d1d1b" stroke-miterlimit="10" stroke-width="1"/>
      <rect id="Rectangle_37" data-name="Rectangle 37" width="142.823" height="24.862" rx="10.104" transform="translate(505.593 2281.399)" fill="none" stroke="#1d1d1b" stroke-miterlimit="10" stroke-width="1"/>
      <rect id="Rectangle_38" data-name="Rectangle 38" width="142.823" height="24.862" rx="10.104" transform="translate(571.707 2171.981)" fill="none" stroke="#1d1d1b" stroke-miterlimit="10" stroke-width="1"/>
      <rect id="Rectangle_39" data-name="Rectangle 39" width="154.325" height="24.862" rx="10.104" transform="translate(123.033 2274.734)" fill="none" stroke="#1d1d1b" stroke-miterlimit="10" stroke-width="1"/>
      <rect id="Rectangle_40" data-name="Rectangle 40" width="154.325" height="24.862" rx="10.104" transform="translate(95.635 2172.88)" fill="none" stroke="#1d1d1b" stroke-miterlimit="10" stroke-width="1"/>
      <g id="Groupe_261" data-name="Groupe 261">
        <line id="Ligne_107" data-name="Ligne 107" x2="36.948" y2="17.156" transform="translate(257.643 2193.854)" fill="none" stroke="#1d1d1b" stroke-miterlimit="10" stroke-width="1"/>
        <path id="Tracé_511" data-name="Tracé 511" d="M257.462,2198.781l4.266-8.217-7.98,1.073Z" fill="#1d1d1b"/>
        <path id="Tracé_512" data-name="Tracé 512" d="M294.407,2205.661l-4.127,8.288,7.961-1.208Z" fill="#1d1d1b"/>
      </g>
      <g id="Groupe_262" data-name="Groupe 262">
        <line id="Ligne_108" data-name="Ligne 108" y1="1.089" x2="18.699" transform="translate(54.478 2190.262)" fill="none" stroke="#1d1d1b" stroke-miterlimit="10" stroke-width="1"/>
        <path id="Tracé_513" data-name="Tracé 513" d="M70.484,2185.636l.286,9.254,6.442-4.83Z" fill="#1d1d1b"/>
      </g>
      <g id="Groupe_263" data-name="Groupe 263">
        <line id="Ligne_109" data-name="Ligne 109" x1="18.699" y1="1.088" transform="translate(728.571 2190.667)" fill="none" stroke="#1d1d1b" stroke-miterlimit="10" stroke-width="1"/>
        <path id="Tracé_514" data-name="Tracé 514" d="M731.264,2186.042l-.286,9.254-6.442-4.83Z" fill="#1d1d1b"/>
      </g>
      <g id="Groupe_264" data-name="Groupe 264">
        <line id="Ligne_110" data-name="Ligne 110" y1="13.807" x2="12.658" transform="translate(105.674 2308.824)" fill="none" stroke="#1d1d1b" stroke-miterlimit="10" stroke-width="1"/>
        <path id="Tracé_515" data-name="Tracé 515" d="M113.177,2307.382l6.651,6.44,1.257-7.953Z" fill="#1d1d1b"/>
      </g>
      <g id="Groupe_265" data-name="Groupe 265">
        <line id="Ligne_111" data-name="Ligne 111" x1="12.658" y1="13.807" transform="translate(653.502 2319.017)" fill="none" stroke="#1d1d1b" stroke-miterlimit="10" stroke-width="1"/>
        <path id="Tracé_516" data-name="Tracé 516" d="M658.656,2317.573,652,2324.014l-1.257-7.953Z" fill="#1d1d1b"/>
      </g>
      <line id="Ligne_112" data-name="Ligne 112" x1="0.008" y1="48.081" transform="translate(388.888 2344.257)" fill="none" stroke="#1d1d1b" stroke-miterlimit="10" stroke-width="1"/>
      <path id="Tracé_517" data-name="Tracé 517" d="M384.262,2345.254l9.253.332-4.39-6.75Z" fill="#1d1d1b"/>
      <g id="Groupe_266" data-name="Groupe 266">
        <line id="Ligne_113" data-name="Ligne 113" x1="38.013" y2="14.645" transform="translate(526.552 2195.277)" fill="none" stroke="#1d1d1b" stroke-miterlimit="10" stroke-width="1"/>
        <path id="Tracé_518" data-name="Tracé 518" d="M564.416,2200.2l-3.706-8.484,7.89,1.6Z" fill="#1d1d1b"/>
        <path id="Tracé_519" data-name="Tracé 519" d="M527.094,2204.6l3.563,8.546-7.862-1.738Z" fill="#1d1d1b"/>
      </g>
      <g id="Groupe_267" data-name="Groupe 267">
        <line id="Ligne_114" data-name="Ligne 114" y1="31.07" x2="26.346" transform="translate(281.354 2243.032)" fill="none" stroke="#1d1d1b" stroke-miterlimit="10" stroke-width="1"/>
        <path id="Tracé_520" data-name="Tracé 520" d="M286.056,2275.584l-6.791-6.294-1.083,7.979Z" fill="#1d1d1b"/>
        <path id="Tracé_521" data-name="Tracé 521" d="M302.494,2241.79l6.9,6.178.948-8Z" fill="#1d1d1b"/>
      </g>
      <g id="Groupe_268" data-name="Groupe 268">
        <line id="Ligne_115" data-name="Ligne 115" x1="17.583" y1="36.746" transform="translate(484.768 2243.024)" fill="none" stroke="#1d1d1b" stroke-miterlimit="10" stroke-width="1"/>
        <path id="Tracé_522" data-name="Tracé 522" d="M497.426,2280.009l8.167-4.361-.981,7.992Z" fill="#1d1d1b"/>
        <path id="Tracé_523" data-name="Tracé 523" d="M490.119,2243.146l-8.24,4.222,1.115-7.974Z" fill="#1d1d1b"/>
      </g>
      <g id="Groupe_269" data-name="Groupe 269">
        <line id="Ligne_116" data-name="Ligne 116" y1="40.734" x2="0.44" transform="translate(391.081 2246.563)" fill="none" stroke="#1d1d1b" stroke-miterlimit="10" stroke-width="1"/>
        <path id="Tracé_524" data-name="Tracé 524" d="M395.646,2285.435l-9.245-.508,4.261,6.832Z" fill="#1d1d1b"/>
        <path id="Tracé_525" data-name="Tracé 525" d="M386.72,2248.93l9.252.353-4.375-6.759Z" fill="#1d1d1b"/>
      </g>
      <path id="Tracé_526" data-name="Tracé 526" d="M54.825,2191.72s-10.877,104.108,89.09,158.494,316.473,41.436,316.473,41.436,182.322-5.9,248.621-99.291c0,0,23.308-30.712,37.811-100.639" fill="none" stroke="#000" stroke-miterlimit="10" stroke-width="1"/>
    </g>
  </g>
</svg>
