<svg xmlns="http://www.w3.org/2000/svg" xmlns:xlink="http://www.w3.org/1999/xlink" width="658.902" height="508.761" viewBox="0 0 658.902 508.761">
  <defs>
    <clipPath id="clip-_311">
      <rect width="658.902" height="508.761"/>
    </clipPath>
  </defs>
  <g id="_311" data-name="311" clip-path="url(#clip-_311)">
    <rect width="658.902" height="508.761" fill="#fff"/>
    <g id="Groupe_260" data-name="Groupe 260" transform="translate(-33.764 -2660.697)">
      <path id="Tracé_411" data-name="Tracé 411" d="M651.34,2915.6c0,109.372-88.677,198.059-198.056,198.059S255.226,3024.973,255.226,2915.6s88.675-198.057,198.058-198.057S651.34,2806.23,651.34,2915.6Z" fill="#b9a3e3"/>
      <path id="Tracé_412" data-name="Tracé 412" d="M591.352,2748.112a217.057,217.057,0,0,1,10.8,325.448" fill="none" stroke="#b9a3e3" stroke-miterlimit="10" stroke-width="4"/>
      <path id="Tracé_413" data-name="Tracé 413" d="M520.177,3123.989a217.06,217.06,0,0,1-263.3-116.6" fill="none" stroke="#b9a3e3" stroke-miterlimit="10" stroke-width="4"/>
      <path id="Tracé_414" data-name="Tracé 414" d="M251.35,2828.851a217.137,217.137,0,0,1,238.031-129.3" fill="none" stroke="#b9a3e3" stroke-miterlimit="10" stroke-width="4"/>
      <g id="Groupe_223" data-name="Groupe 223">
        <g id="Groupe_222" data-name="Groupe 222">
          <path id="Tracé_415" data-name="Tracé 415" d="M496.317,2702.209c.354-1.639.63-3.055.823-4.369l2.215.479-.481,2.786.086.019a4.3,4.3,0,0,1,4.541-2.21,5.126,5.126,0,0,1,.678.206l-.515,2.387a4.021,4.021,0,0,0-.851-.244,3.6,3.6,0,0,0-4.089,2.489,7.764,7.764,0,0,0-.341,1.161l-1.6,7.421-2.531-.547Z" fill="#b9a3e3"/>
          <path id="Tracé_416" data-name="Tracé 416" d="M506.27,2707.705c-.875,3.391.868,5.368,3.393,6.065a9.279,9.279,0,0,0,4,.34l-.039,1.912a11.6,11.6,0,0,1-4.838-.389c-4.227-1.167-5.977-4.672-4.834-8.812s4.475-6.7,8.474-5.6c4.511,1.244,4.594,5.481,3.9,8.005a6.344,6.344,0,0,1-.406,1.14Zm7.811.232c.459-1.552.459-4.208-2.349-4.982-2.553-.705-4.265,1.3-4.941,2.97Zm3.73-11.3-4.581,3.1-1.758-.485,3.615-3.369Z" fill="#b9a3e3"/>
          <path id="Tracé_417" data-name="Tracé 417" d="M517.476,2715.143a7.3,7.3,0,0,0,2.928,2.069c1.752.6,2.884.031,3.278-1.11.4-1.168-.081-2.02-1.632-3.3-2.14-1.735-2.83-3.436-2.273-5.049.749-2.169,3.143-3.335,6.008-2.347a6.6,6.6,0,0,1,3,1.967l-1.2,1.579a5.522,5.522,0,0,0-2.476-1.757c-1.447-.5-2.513.066-2.859,1.067-.384,1.114.222,1.883,1.735,3.183,2.011,1.659,2.832,3.25,2.141,5.252-.826,2.392-3.265,3.419-6.409,2.334a8.121,8.121,0,0,1-3.456-2.251Z" fill="#b9a3e3"/>
          <path id="Tracé_418" data-name="Tracé 418" d="M531.559,2715.932c-1.3,3.255.186,5.436,2.6,6.445a9.255,9.255,0,0,0,3.922.84l-.279,1.893a11.624,11.624,0,0,1-4.752-1c-4.047-1.69-5.342-5.387-3.686-9.353s5.283-6.087,9.113-4.488c4.318,1.8,3.868,6.016,2.858,8.433a6.3,6.3,0,0,1-.546,1.08Zm7.721,1.214c.651-1.482.985-4.118-1.7-5.24-2.445-1.021-4.4.749-5.277,2.326Z" fill="#b9a3e3"/>
          <path id="Tracé_419" data-name="Tracé 419" d="M551.35,2728.621a23.935,23.935,0,0,0-1.345,3.143l-2.078-1.042.62-1.7-.079-.04a5.31,5.31,0,0,1-4.843-.057,4.056,4.056,0,0,1-2.06-5.607c1.542-3.078,5.122-3.391,10.028-.9l.132-.262c.514-1.027,1.187-3.092-1.431-4.37a6.864,6.864,0,0,0-3.815-.728l.251-1.815a9.215,9.215,0,0,1,4.763,1c3.894,1.951,3.509,5.083,2.243,7.608Zm-.509-4.568c-2.5-1.317-5.59-2.307-6.829.165a2.269,2.269,0,0,0,1.049,3.291,3.6,3.6,0,0,0,4.2-.562,2.935,2.935,0,0,0,.474-.684Z" fill="#b9a3e3"/>
          <path id="Tracé_420" data-name="Tracé 420" d="M565.439,2736.212c-.767,1.29-1.4,2.417-1.9,3.423l-1.973-1.174,1.062-2.072-.05-.03a5.319,5.319,0,0,1-5.4-.132c-1.921-1.143-3.575-3.6-1.033-7.873l4.258-7.155,2.225,1.324-4.017,6.751c-1.384,2.326-1.6,4.355.4,5.544a3.724,3.724,0,0,0,4.152-.3,3.572,3.572,0,0,0,.879-1.017l4.453-7.485,2.225,1.324Z" fill="#b9a3e3"/>
        </g>
      </g>
      <g id="Groupe_225" data-name="Groupe 225">
        <g id="Groupe_224" data-name="Groupe 224">
          <path id="Tracé_421" data-name="Tracé 421" d="M579.764,3080.626a10.045,10.045,0,0,1,2.675-3.2c3.351-2.69,7.356-2.168,10.083,1.23a7.261,7.261,0,0,1-1.214,10.712,8.156,8.156,0,0,1-3.28,1.651l-.776-1.906a6.355,6.355,0,0,0,2.766-1.352c2.547-2.045,2.4-5.055.553-7.35-2.063-2.572-4.988-2.828-7.191-1.06a7.427,7.427,0,0,0-2.056,2.518Z" fill="#b9a3e3"/>
          <path id="Tracé_422" data-name="Tracé 422" d="M589.442,3098.753l-2.094,1.522-12.28-16.9,2.1-1.522Z" fill="#b9a3e3"/>
          <path id="Tracé_423" data-name="Tracé 423" d="M565.249,3094.086a24.046,24.046,0,0,0-2.038-2.747l1.947-1.269,1.155,1.391.072-.047a5.311,5.311,0,0,1,2.492-4.155,4.057,4.057,0,0,1,5.882,1.047c1.882,2.885.346,6.134-4.279,9.115l.16.247c.628.961,2.072,2.584,4.5.967a6.852,6.852,0,0,0,2.552-2.928l1.442,1.132a9.226,9.226,0,0,1-3.269,3.608c-3.649,2.379-6.16.469-7.7-1.9Zm4.2,1.864c2.4-1.494,4.813-3.665,3.3-5.984a2.27,2.27,0,0,0-3.371-.752,3.6,3.6,0,0,0-1.632,3.91,2.932,2.932,0,0,0,.352.755Z" fill="#b9a3e3"/>
          <path id="Tracé_424" data-name="Tracé 424" d="M561.644,3095.315a7.312,7.312,0,0,0-3.489.829c-1.612.914-1.929,2.144-1.335,3.193.61,1.075,1.569,1.275,3.555.96,2.719-.459,4.45.149,5.292,1.634,1.133,2,.424,4.565-2.213,6.059a6.61,6.61,0,0,1-3.455.947l-.392-1.944a5.513,5.513,0,0,0,2.956-.7c1.331-.754,1.611-1.928,1.088-2.85-.58-1.024-1.558-1.078-3.534-.8-2.574.412-4.31-.024-5.356-1.867-1.249-2.2-.4-4.71,2.488-6.351a8.1,8.1,0,0,1,3.974-1.1Z" fill="#b9a3e3"/>
          <path id="Tracé_425" data-name="Tracé 425" d="M551.568,3100.919a7.339,7.339,0,0,0-3.528.633c-1.66.825-2.046,2.033-1.51,3.114.55,1.107,1.5,1.36,3.5,1.156,2.738-.307,4.433.4,5.191,1.925,1.02,2.055.17,4.579-2.545,5.926a6.609,6.609,0,0,1-3.5.751l-.282-1.961a5.5,5.5,0,0,0,2.988-.53c1.371-.68,1.717-1.837,1.245-2.786-.522-1.054-1.5-1.162-3.483-1-2.593.268-4.3-.264-5.243-2.161-1.124-2.267-.143-4.725,2.835-6.2a8.114,8.114,0,0,1,4.029-.882Z" fill="#b9a3e3"/>
          <path id="Tracé_426" data-name="Tracé 426" d="M541.134,3110.4c-1.411-3.207-4-3.682-6.421-2.668a9.272,9.272,0,0,0-3.352,2.205l-1.151-1.527a11.589,11.589,0,0,1,4.043-2.688c4.044-1.7,7.588-.024,9.251,3.94s.629,8.037-3.2,9.642c-4.315,1.813-7-1.466-8.014-3.882a6.293,6.293,0,0,1-.386-1.147Zm-6.285,4.65c.6,1.5,2.242,3.592,4.928,2.464,2.443-1.025,2.552-3.656,2.047-5.392Z" fill="#b9a3e3"/>
        </g>
      </g>
      <g id="Groupe_227" data-name="Groupe 227">
        <g id="Groupe_226" data-name="Groupe 226">
          <path id="Tracé_427" data-name="Tracé 427" d="M250.3,2986.846c4.909-1.914,8.385.679,9.625,3.861,1.39,3.564-.152,7.387-4.347,9.024-4.415,1.721-8.164-.2-9.586-3.844C244.506,2992.076,246.271,2988.418,250.3,2986.846Zm4.233,10.449c2.907-1.133,4.459-3.634,3.539-5.993-.9-2.3-3.738-3.186-6.727-2.02-2.248.877-4.634,3.1-3.522,5.955C248.925,2998.061,252.039,2998.268,254.534,2997.295Z" fill="#b9a3e3"/>
          <path id="Tracé_428" data-name="Tracé 428" d="M246.847,2984.358c-1.6.512-2.962.98-4.2,1.469l-.692-2.159,2.654-.974-.026-.083a4.308,4.308,0,0,1-4.183-2.832,5.231,5.231,0,0,1-.159-.691l2.325-.745a4.041,4.041,0,0,0,.214.86,3.6,3.6,0,0,0,4.2,2.3,7.759,7.759,0,0,0,1.177-.284l7.229-2.317.79,2.467Z" fill="#b9a3e3"/>
          <path id="Tracé_429" data-name="Tracé 429" d="M248.387,2961.412c3.194-.813,5.272-.642,6.832.358a7.832,7.832,0,0,1,2.937,4.628,9.173,9.173,0,0,1,.026,4.881l-2.1-.134a7.763,7.763,0,0,0,.083-4.333c-.653-2.566-2.472-4.107-5.98-3.217l-1.512.384.015.058a5.049,5.049,0,0,1,3.427,3.8c.869,3.422-1.416,6.615-5.238,7.585-4.678,1.19-8.077-1.2-8.889-4.389a4.755,4.755,0,0,1,1.273-4.909l-.014-.057-2.1.443-.565-2.223c.991-.163,2.139-.423,3.794-.843Zm-5.694,4.119a3.36,3.36,0,0,0-1.076.425,3.7,3.7,0,0,0-1.789,4.189c.609,2.4,3.069,3.593,6.263,2.781,2.71-.689,4.608-2.659,3.926-5.341a3.735,3.735,0,0,0-3.451-2.827,4.558,4.558,0,0,0-1.391.142Z" fill="#b9a3e3"/>
          <path id="Tracé_430" data-name="Tracé 430" d="M244.525,2947.832a24.012,24.012,0,0,0,3.327-.8l.406,2.289-1.732.516.016.087a5.309,5.309,0,0,1,2.848,3.919,4.06,4.06,0,0,1-3.268,5.005c-3.391.6-5.78-2.084-6.713-7.508l-.29.052c-1.13.2-3.189.894-2.652,3.758a6.882,6.882,0,0,0,1.7,3.5l-1.606.882a9.214,9.214,0,0,1-2.041-4.42c-.761-4.289,1.981-5.853,4.764-6.346Zm-3.358,3.137c.435,2.792,1.489,5.865,4.212,5.38a2.268,2.268,0,0,0,2.014-2.807,3.6,3.6,0,0,0-2.96-3.033,2.913,2.913,0,0,0-.832.029Z" fill="#b9a3e3"/>
          <path id="Tracé_431" data-name="Tracé 431" d="M236.988,2944.543c-1.493.154-2.661.3-3.823.513l-.237-2.283,2.328-.39-.006-.058a5.275,5.275,0,0,1-3.121-4.412c-.2-1.961.652-5.127,5.512-5.63l8.431-.875.267,2.576-8.168.847c-2.283.237-4.1,1.283-3.846,3.712a3.8,3.8,0,0,0,4.211,3.234l8.52-.883.267,2.576Z" fill="#b9a3e3"/>
          <path id="Tracé_432" data-name="Tracé 432" d="M227.551,2925.472a1.545,1.545,0,0,1,1.666,1.57,1.523,1.523,0,0,1-1.513,1.633,1.578,1.578,0,0,1-1.694-1.539A1.554,1.554,0,0,1,227.551,2925.472Zm18.36,2.005-14.225.683-.124-2.586,14.224-.684Z" fill="#b9a3e3"/>
          <path id="Tracé_433" data-name="Tracé 433" d="M243.011,2921.169a7.31,7.31,0,0,0,.986-3.447c-.008-1.853-.923-2.732-2.129-2.726-1.236,0-1.881.742-2.578,2.629-.932,2.592-2.31,3.8-4.016,3.811-2.295.01-4.185-1.865-4.2-4.9a6.613,6.613,0,0,1,.869-3.476l1.885.61a5.523,5.523,0,0,0-.841,2.917c.006,1.53.892,2.35,1.951,2.346,1.177-.005,1.7-.832,2.432-2.687.9-2.446,2.132-3.747,4.251-3.754,2.529-.011,4.3,1.953,4.316,5.277a8.117,8.117,0,0,1-.983,4.006Z" fill="#b9a3e3"/>
          <path id="Tracé_434" data-name="Tracé 434" d="M242.831,2899.283a24.026,24.026,0,0,0,3.419-.01l-.132,2.32-1.8.1,0,.088a5.3,5.3,0,0,1,1.865,4.468,4.058,4.058,0,0,1-4.332,4.115c-3.438-.2-5.143-3.361-4.8-8.852l-.293-.017c-1.146-.066-3.309.134-3.447,3.045a6.86,6.86,0,0,0,.844,3.791l-1.767.489a9.219,9.219,0,0,1-.964-4.771c.249-4.349,3.276-5.236,6.1-5.075Zm-3.992,2.276c-.221,2.818.1,6.048,2.857,6.206a2.267,2.267,0,0,0,2.606-2.266,3.6,3.6,0,0,0-2.179-3.633,2.883,2.883,0,0,0-.816-.165Z" fill="#b9a3e3"/>
          <path id="Tracé_435" data-name="Tracé 435" d="M229.43,2890.6l3.392.386.42-3.685,1.959.223-.419,3.685,7.633.868c1.755.2,2.806-.185,2.969-1.618a4.82,4.82,0,0,0-.006-1.511l1.974.106a7.1,7.1,0,0,1,.091,2.321,3.7,3.7,0,0,1-1.4,2.656,5.562,5.562,0,0,1-3.827.571l-7.721-.878-.249,2.194-1.96-.223.25-2.194-2.633-.3Z" fill="#b9a3e3"/>
          <path id="Tracé_436" data-name="Tracé 436" d="M230.217,2880.585a1.545,1.545,0,0,1,1.32,1.871,1.522,1.522,0,0,1-1.808,1.3,1.577,1.577,0,0,1-1.353-1.845A1.555,1.555,0,0,1,230.217,2880.585Zm17.6,5.624-14.078-2.165.393-2.559,14.078,2.164Z" fill="#b9a3e3"/>
          <path id="Tracé_437" data-name="Tracé 437" d="M244.353,2865.593c5.156,1.08,6.648,5.152,5.948,8.492-.783,3.746-4.164,6.1-8.572,5.181-4.637-.971-6.728-4.626-5.925-8.457C236.642,2866.8,240.118,2864.707,244.353,2865.593Zm-2.167,11.062c3.053.64,5.719-.606,6.238-3.083.507-2.419-1.388-4.71-4.528-5.368-2.362-.5-5.577.064-6.2,3.06C237.071,2874.231,239.564,2876.107,242.186,2876.655Z" fill="#b9a3e3"/>
          <path id="Tracé_438" data-name="Tracé 438" d="M242.2,2861.389c-1.442-.421-2.58-.721-3.735-.965l.641-2.2,2.3.517.017-.057a5.272,5.272,0,0,1-1.227-5.26c.55-1.893,2.536-4.5,7.225-3.137l8.136,2.369-.724,2.486-7.881-2.294c-2.2-.641-4.279-.357-4.961,1.989a3.8,3.8,0,0,0,2.681,4.579l8.221,2.393-.723,2.487Z" fill="#b9a3e3"/>
        </g>
      </g>
      <circle id="Ellipse_71" data-name="Ellipse 71" cx="148.891" cy="148.891" r="148.891" transform="matrix(0.057, -0.998, 0.998, 0.057, 296.105, 3055.719)" fill="#2f836b"/>
      <g id="Groupe_229" data-name="Groupe 229">
        <g id="Groupe_228" data-name="Groupe 228">
          <path id="Tracé_439" data-name="Tracé 439" d="M531.9,2839.585a4.135,4.135,0,0,1-2.967,1.608A3.871,3.871,0,0,1,526.5,2840a4.548,4.548,0,0,1-1.268-2.047l.919-.484a3.825,3.825,0,0,0,1.08,1.845c.935.911,2.1,1.092,3.344-.186l.537-.551-.02-.021a2.492,2.492,0,0,1-2.422-.719,3.14,3.14,0,0,1,.251-4.54c1.661-1.705,3.706-1.577,4.871-.441a2.346,2.346,0,0,1,.727,2.393l.021.02.771-.729.811.792c-.376.323-.791.727-1.379,1.331Zm1.334-3.2a1.686,1.686,0,0,0,.345-.456,1.82,1.82,0,0,0-.327-2.223c-.872-.852-2.215-.722-3.35.443-.964.985-1.255,2.3-.278,3.256a1.841,1.841,0,0,0,2.18.3,2.207,2.207,0,0,0,.549-.417Z" fill="#fff"/>
          <path id="Tracé_440" data-name="Tracé 440" d="M536.015,2838.443c.61-.559,1.125-1.05,1.578-1.523l.754.825-.989.984.03.03a2.128,2.128,0,0,1,2.459.408,2.677,2.677,0,0,1,.214.276l-.889.813a1.959,1.959,0,0,0-.274-.34,1.775,1.775,0,0,0-2.354-.165,3.657,3.657,0,0,0-.469.37l-2.763,2.529-.863-.942Z" fill="#fff"/>
          <path id="Tracé_441" data-name="Tracé 441" d="M542.251,2847.669a3.443,3.443,0,0,1-5.1-.348,3.35,3.35,0,0,1,.667-4.9,3.438,3.438,0,0,1,5.085.346A3.324,3.324,0,0,1,542.251,2847.669Zm-3.577-4.259c-1.192.972-1.539,2.383-.749,3.351.772.944,2.239.926,3.464-.077.923-.753,1.7-2.161.748-3.33S539.7,2842.573,538.674,2843.41Z" fill="#fff"/>
          <path id="Tracé_442" data-name="Tracé 442" d="M545.31,2854.785c-.6.426-1.118.806-1.544,1.16l-.653-.925.9-.72-.016-.024a2.621,2.621,0,0,1-2.4-1.147c-.635-.9-.887-2.339,1.119-3.752l3.356-2.366.737,1.043-3.168,2.233c-1.091.769-1.6,1.64-.936,2.577a1.836,1.836,0,0,0,1.931.7,1.779,1.779,0,0,0,.6-.281l3.51-2.474.737,1.043Z" fill="#fff"/>
          <path id="Tracé_443" data-name="Tracé 443" d="M548.86,2855.1c.771-.465,1.378-.862,1.935-1.231l.584.971-1,.683.015.024a2.733,2.733,0,0,1,2.443,1.445c.883,1.469.308,3.3-1.508,4.394-2.166,1.3-4.036.612-4.888-.806a2.461,2.461,0,0,1-.168-2.421l-.015-.026-3.273,1.966-.65-1.083Zm-.955,2.046a2.013,2.013,0,0,0-.419.318,1.977,1.977,0,0,0-.3,2.415c.7,1.156,2.045,1.259,3.425.429,1.2-.717,1.847-1.971,1.152-3.129a2.012,2.012,0,0,0-2.338-.847,2.053,2.053,0,0,0-.48.187Z" fill="#fff"/>
          <path id="Tracé_444" data-name="Tracé 444" d="M552.145,2863.658a2.244,2.244,0,0,0-1.078,3.254,4.561,4.561,0,0,0,1.206,1.567l-.708.622a5.691,5.691,0,0,1-1.469-1.891,3.272,3.272,0,0,1,1.6-4.691c1.888-.963,3.929-.6,4.859,1.221,1.047,2.055-.467,3.5-1.617,4.082a3.021,3.021,0,0,1-.55.232Zm2.515,2.92a1.812,1.812,0,0,0,1.031-2.513,2.091,2.091,0,0,0-2.725-.81Z" fill="#fff"/>
          <path id="Tracé_445" data-name="Tracé 445" d="M553.141,2873.257l.728-.29,1.275.574c3.021,1.4,4.563,1.973,5.885,1.449a1.674,1.674,0,0,0,1.031-2.408,3.217,3.217,0,0,0-1.481-1.569l.687-.711a4.194,4.194,0,0,1,1.871,2.119,2.659,2.659,0,0,1-1.489,3.7c-1.62.641-3.4-.015-5.911-1.158l-.92-.432-.027.011,1.556,3.929-.986.391Z" fill="#fff"/>
        </g>
      </g>
      <g id="Groupe_231" data-name="Groupe 231">
        <g id="Groupe_230" data-name="Groupe 230">
          <path id="Tracé_446" data-name="Tracé 446" d="M551.664,2964.692a4.129,4.129,0,0,1-2.506-2.261,3.86,3.86,0,0,1,.313-2.684,4.541,4.541,0,0,1,1.507-1.879l.762.705a3.819,3.819,0,0,0-1.378,1.634c-.548,1.185-.33,2.34,1.291,3.089l.7.323.012-.026a2.49,2.49,0,0,1-.131-2.522,3.141,3.141,0,0,1,4.364-1.279c2.161,1,2.723,2.967,2.041,4.444a2.347,2.347,0,0,1-2.013,1.485l-.012.026.944.484-.474,1.028c-.431-.247-.952-.5-1.716-.856Zm3.461.192a1.7,1.7,0,0,0,.544.172,1.821,1.821,0,0,0,1.987-1.05c.512-1.106-.059-2.329-1.535-3.01-1.252-.579-2.591-.413-3.163.825a1.839,1.839,0,0,0,.444,2.155,2.2,2.2,0,0,0,.577.379Z" fill="#fff"/>
          <path id="Tracé_447" data-name="Tracé 447" d="M554.116,2968.2c.731.389,1.364.711,1.962.979l-.525.986-1.258-.6-.02.038a2.125,2.125,0,0,1,.437,2.454,2.356,2.356,0,0,1-.19.294l-1.063-.566a1.974,1.974,0,0,0,.23-.37,1.78,1.78,0,0,0-.629-2.277,4.033,4.033,0,0,0-.505-.319l-3.306-1.759.6-1.128Z" fill="#fff"/>
          <path id="Tracé_448" data-name="Tracé 448" d="M547.5,2977.154a3.442,3.442,0,0,1-1.376-4.928,3.35,3.35,0,0,1,4.839-1.005,3.435,3.435,0,0,1,1.37,4.907A3.322,3.322,0,0,1,547.5,2977.154Zm2.822-4.793c-1.316-.8-2.761-.656-3.409.412-.633,1.043-.126,2.419,1.227,3.24,1.018.618,2.606.885,3.389-.406S551.451,2973.046,550.321,2972.361Z" fill="#fff"/>
          <path id="Tracé_449" data-name="Tracé 449" d="M541.811,2982.413c-.6-.427-1.133-.786-1.608-1.07l.654-.923.978.6.017-.024a2.622,2.622,0,0,1,.277-2.649c.639-.9,1.912-1.617,3.912-.2l3.351,2.376-.739,1.042-3.161-2.241c-1.089-.773-2.079-.958-2.742-.023a1.837,1.837,0,0,0-.015,2.053,1.794,1.794,0,0,0,.466.474l3.505,2.483-.739,1.042Z" fill="#fff"/>
          <path id="Tracé_450" data-name="Tracé 450" d="M542.7,2985.863c.693.572,1.273,1.012,1.806,1.414l-.72.874-.976-.711-.019.022a2.733,2.733,0,0,1-.547,2.785c-1.089,1.322-3.011,1.393-4.645.045-1.949-1.608-1.924-3.6-.871-4.876a2.46,2.46,0,0,1,2.227-.967l.019-.023L536.031,2982l.8-.974Zm-2.248-.217a1.969,1.969,0,0,0-2.813.237c-.859,1.042-.506,2.349.736,3.373,1.075.889,2.476,1.083,3.335.042a2.011,2.011,0,0,0,.019-2.486,2.059,2.059,0,0,0-.336-.391Z" fill="#fff"/>
          <path id="Tracé_451" data-name="Tracé 451" d="M535.727,2991.816a2.244,2.244,0,0,0-3.427.069,4.573,4.573,0,0,0-1.075,1.66l-.824-.46a5.725,5.725,0,0,1,1.292-2.016,3.272,3.272,0,0,1,4.956-.058c1.538,1.458,1.879,3.5.471,4.988-1.589,1.672-3.451.726-4.388-.163a3.116,3.116,0,0,1-.4-.441Zm-1.914,3.346a1.814,1.814,0,0,0,2.713.132,2.09,2.09,0,0,0-.146-2.838Z" fill="#fff"/>
          <path id="Tracé_452" data-name="Tracé 452" d="M527.736,2997.252a4.4,4.4,0,0,0-1.958.938,1.85,1.85,0,0,0-.406,2.783c.881.986,2.15.63,3.081-.181l.536-.468.63.721-.536.468c-.7.612-1.272,1.746-.537,2.589a1.424,1.424,0,0,0,2.184-.017,3.461,3.461,0,0,0,1.012-1.71l.874.469a4.58,4.58,0,0,1-1.394,2.181c-1.4,1.223-2.761.945-3.516.08a2.365,2.365,0,0,1-.157-2.831l-.02-.022a2.445,2.445,0,0,1-3.172-.433c-.993-1.138-.964-2.916.732-4.4a4.8,4.8,0,0,1,2.269-1.132Z" fill="#fff"/>
        </g>
      </g>
      <g id="Groupe_233" data-name="Groupe 233">
        <g id="Groupe_232" data-name="Groupe 232">
          <path id="Tracé_453" data-name="Tracé 453" d="M436.178,3024.182a4.133,4.133,0,0,1,1.367-3.084,3.874,3.874,0,0,1,2.65-.54,4.54,4.54,0,0,1,2.255.848l-.432.943a3.828,3.828,0,0,0-1.982-.8c-1.3-.151-2.328.415-2.534,2.19l-.09.764.029,0a2.489,2.489,0,0,1,2.357-.909,3.141,3.141,0,0,1,2.574,3.748c-.275,2.366-1.972,3.512-3.587,3.324a2.346,2.346,0,0,1-2.038-1.451l-.029,0-.165,1.048-1.125-.131c.1-.485.182-1.059.279-1.9Zm.9,3.35a1.683,1.683,0,0,0,.006.57,1.826,1.826,0,0,0,1.616,1.562c1.211.141,2.2-.783,2.384-2.4.159-1.37-.415-2.591-1.77-2.748a1.839,1.839,0,0,0-1.91,1.092,2.192,2.192,0,0,0-.18.666Z" fill="#fff"/>
          <path id="Tracé_454" data-name="Tracé 454" d="M433.612,3027.6c-.142.815-.249,1.52-.319,2.169l-1.1-.191.183-1.382-.043-.008a2.123,2.123,0,0,1-2.2,1.179,2.773,2.773,0,0,1-.338-.087l.207-1.188a1.976,1.976,0,0,0,.424.1,1.778,1.778,0,0,0,1.966-1.308,3.833,3.833,0,0,0,.145-.579l.643-3.69,1.259.219Z" fill="#fff"/>
          <path id="Tracé_455" data-name="Tracé 455" d="M423.041,3024.106a3.442,3.442,0,0,1,4.254-2.842,3.349,3.349,0,0,1,2.462,4.285,3.435,3.435,0,0,1-4.237,2.831A3.324,3.324,0,0,1,423.041,3024.106Zm5.433,1.188c.349-1.5-.237-2.828-1.453-3.11-1.188-.276-2.339.634-2.7,2.175-.27,1.16-.029,2.752,1.443,3.1C427.222,3027.792,428.174,3026.582,428.474,3025.294Z" fill="#fff"/>
          <path id="Tracé_456" data-name="Tracé 456" d="M416.271,3020.338c.219-.706.394-1.32.516-1.86l1.081.334-.27,1.117.028.009a2.624,2.624,0,0,1,2.6-.561c1.054.326,2.131,1.312,1.406,3.656l-1.214,3.923-1.22-.377,1.145-3.7c.394-1.277.263-2.275-.832-2.614a1.839,1.839,0,0,0-1.956.627,1.753,1.753,0,0,0-.3.589l-1.27,4.1-1.22-.376Z" fill="#fff"/>
          <path id="Tracé_457" data-name="Tracé 457" d="M413.29,3022.267c-.328.839-.566,1.525-.781,2.157l-1.055-.413.371-1.147-.027-.011a2.735,2.735,0,0,1-2.817.348c-1.594-.624-2.261-2.429-1.489-4.4.92-2.352,2.821-2.949,4.362-2.346a2.462,2.462,0,0,1,1.613,1.815l.027.011,1.391-3.556,1.176.461Zm-.494-2.2a2.013,2.013,0,0,0,.136-.508,1.972,1.972,0,0,0-1.24-2.092c-1.257-.491-2.388.251-2.975,1.751-.508,1.3-.258,2.691,1,3.182a2.012,2.012,0,0,0,2.369-.757,2.088,2.088,0,0,0,.267-.441Z" fill="#fff"/>
          <path id="Tracé_458" data-name="Tracé 458" d="M405.441,3017.487a2.244,2.244,0,0,0-1.133-3.235,4.583,4.583,0,0,0-1.913-.5l.182-.926a5.748,5.748,0,0,1,2.317.6,3.273,3.273,0,0,1,1.6,4.692c-.907,1.916-2.743,2.876-4.592,2-2.085-.987-1.766-3.053-1.213-4.22a3.1,3.1,0,0,1,.294-.518Zm-3.775-.777a1.814,1.814,0,0,0,.718,2.621,2.093,2.093,0,0,0,2.653-1.024Z" fill="#fff"/>
          <path id="Tracé_459" data-name="Tracé 459" d="M395.395,3008.476l-1.322,2.222,3.77,2.242-.424.713-6.7,3.026-1.186-.7,3-5.044-1.136-.675.505-.848,1.136.676,1.321-2.223Zm-1.827,3.07-1.611,2.71q-.378.636-.8,1.25l.037.023c.532-.326.94-.557,1.387-.8l3.626-1.578.015-.027Z" fill="#fff"/>
        </g>
      </g>
      <g id="Groupe_235" data-name="Groupe 235">
        <g id="Groupe_234" data-name="Groupe 234">
          <path id="Tracé_460" data-name="Tracé 460" d="M343.581,2935.21a4.129,4.129,0,0,1,3.358.338,3.867,3.867,0,0,1,1.338,2.349,4.558,4.558,0,0,1-.1,2.407l-1.031-.117a3.823,3.823,0,0,0,.143-2.133c-.261-1.279-1.121-2.082-2.871-1.725l-.754.155.006.027a2.49,2.49,0,0,1,1.6,1.955,3.142,3.142,0,0,1-2.758,3.616c-2.333.475-3.952-.78-4.277-2.373a2.343,2.343,0,0,1,.742-2.388l-.005-.028-1.048.168-.227-1.11c.494-.055,1.065-.157,1.89-.325Zm-2.9,1.9a1.715,1.715,0,0,0-.54.185,1.822,1.822,0,0,0-.98,2.022c.243,1.194,1.427,1.842,3.021,1.517,1.351-.276,2.333-1.2,2.06-2.539a1.843,1.843,0,0,0-1.635-1.474,2.226,2.226,0,0,0-.688.037Z" fill="#fff"/>
          <path id="Tracé_461" data-name="Tracé 461" d="M339.53,2933.839c-.819.119-1.52.237-2.161.373l-.161-1.1,1.371-.259-.007-.043a2.125,2.125,0,0,1-1.8-1.718,2.489,2.489,0,0,1-.021-.348l1.192-.175a2,2,0,0,0,.034.436,1.777,1.777,0,0,0,1.856,1.46,3.8,3.8,0,0,0,.6-.042l3.706-.54.183,1.265Z" fill="#fff"/>
          <path id="Tracé_462" data-name="Tracé 462" d="M339.557,2922.7a3.442,3.442,0,0,1,4.027,3.156,3.35,3.35,0,0,1-3.305,3.676,3.435,3.435,0,0,1-4.01-3.143A3.323,3.323,0,0,1,339.557,2922.7Zm.564,5.535c1.533-.137,2.614-1.108,2.5-2.352-.107-1.215-1.331-2.025-2.908-1.884-1.186.1-2.623.83-2.49,2.334S338.8,2928.354,340.121,2928.238Z" fill="#fff"/>
          <path id="Tracé_463" data-name="Tracé 463" d="M341.026,2915.1c.74-.014,1.379-.039,1.929-.092l.02,1.132-1.146.092v.029a2.623,2.623,0,0,1,1.345,2.3c.019,1.1-.582,2.435-3.035,2.477l-4.106.07-.022-1.277,3.874-.067c1.335-.022,2.242-.459,2.223-1.606a1.836,1.836,0,0,0-1.205-1.662,1.71,1.71,0,0,0-.654-.1l-4.3.073-.022-1.278Z" fill="#fff"/>
          <path id="Tracé_464" data-name="Tracé 464" d="M338.264,2912.867c-.9-.05-1.625-.062-2.294-.07l.063-1.131,1.208,0v-.03a2.736,2.736,0,0,1-1.208-2.568c.1-1.711,1.6-2.905,3.717-2.788,2.521.142,3.682,1.763,3.589,3.415a2.464,2.464,0,0,1-1.222,2.1l0,.029,3.812.213-.07,1.26Zm1.939-1.157a1.992,1.992,0,0,0,.526-.029,1.969,1.969,0,0,0,1.6-1.829c.075-1.349-.982-2.192-2.591-2.282-1.391-.077-2.635.595-2.711,1.941a2.015,2.015,0,0,0,1.457,2.016,2.068,2.068,0,0,0,.5.115Z" fill="#fff"/>
          <path id="Tracé_465" data-name="Tracé 465" d="M340.358,2903.918a2.243,2.243,0,0,0,2.72-2.086,4.551,4.551,0,0,0-.117-1.975l.936-.116a5.715,5.715,0,0,1,.154,2.388,3.274,3.274,0,0,1-3.96,2.984c-2.1-.266-3.588-1.71-3.332-3.74.289-2.289,2.349-2.63,3.632-2.469a3.141,3.141,0,0,1,.584.118Zm-.438-3.83a1.815,1.815,0,0,0-2.267,1.5,2.094,2.094,0,0,0,1.8,2.2Z" fill="#fff"/>
          <path id="Tracé_466" data-name="Tracé 466" d="M337.991,2888.1l-.784,3.516,2.288.883a5.346,5.346,0,0,1,.125-.762,3.818,3.818,0,0,1,.939-1.874,2.665,2.665,0,0,1,2.647-.793,3.276,3.276,0,0,1,2.382,4.133,4.658,4.658,0,0,1-1.08,2.17l-.88-.525a4.24,4.24,0,0,0,.954-1.871,2.069,2.069,0,0,0-1.516-2.613c-1.19-.267-2.207.355-2.615,2.184a10.1,10.1,0,0,0-.2,1.308l-4.291-1.582.983-4.408Z" fill="#fff"/>
        </g>
      </g>
      <g id="Groupe_237" data-name="Groupe 237">
        <g id="Groupe_236" data-name="Groupe 236">
          <path id="Tracé_467" data-name="Tracé 467" d="M393.448,2823.332a4.13,4.13,0,0,1,.99,3.226,3.868,3.868,0,0,1-1.647,2.144,4.541,4.541,0,0,1-2.259.838l-.292-1a3.813,3.813,0,0,0,2.021-.694c1.079-.737,1.486-1.84.479-3.315l-.433-.635-.025.016a2.486,2.486,0,0,1-1.183,2.231,3.14,3.14,0,0,1-4.4-1.143c-1.342-1.966-.811-3.945.531-4.862a2.346,2.346,0,0,1,2.49-.24l.024-.017-.562-.9.935-.637c.242.432.558.919,1.032,1.614Zm-2.871-1.942a1.719,1.719,0,0,0-.38-.427,1.824,1.824,0,0,0-2.244-.12c-1.007.688-1.144,2.03-.228,3.373.776,1.138,2.01,1.685,3.137.915a1.839,1.839,0,0,0,.727-2.077,2.233,2.233,0,0,0-.3-.621Z" fill="#fff"/>
          <path id="Tracé_468" data-name="Tracé 468" d="M393.145,2819.066c-.428-.709-.808-1.311-1.181-1.847l.956-.577.769,1.163.038-.022a2.122,2.122,0,0,1,.885-2.329,2.552,2.552,0,0,1,.312-.156l.622,1.033a2,2,0,0,0-.388.2,1.78,1.78,0,0,0-.628,2.276,3.763,3.763,0,0,0,.27.532l1.933,3.208-1.094.66Z" fill="#fff"/>
          <path id="Tracé_469" data-name="Tracé 469" d="M403.422,2814.779a3.443,3.443,0,0,1-1.351,4.935,3.348,3.348,0,0,1-4.667-1.623,3.436,3.436,0,0,1,1.344-4.915A3.324,3.324,0,0,1,403.422,2814.779Zm-4.883,2.663c.718,1.361,2.031,1.981,3.136,1.4,1.078-.571,1.351-2.012.612-3.411-.556-1.053-1.783-2.1-3.118-1.391S397.921,2816.274,398.539,2817.442Z" fill="#fff"/>
          <path id="Tracé_470" data-name="Tracé 470" d="M411,2813.187c.3.677.568,1.256.83,1.742l-1.036.457-.527-1.019-.027.01a2.626,2.626,0,0,1-1.6,2.132c-1.009.444-2.469.406-3.457-1.84l-1.655-3.758,1.168-.515,1.562,3.547c.538,1.222,1.292,1.889,2.341,1.427a1.836,1.836,0,0,0,1.066-1.755,1.739,1.739,0,0,0-.156-.644l-1.731-3.932,1.168-.515Z" fill="#fff"/>
          <path id="Tracé_471" data-name="Tracé 471" d="M412.009,2809.769c-.3-.849-.571-1.522-.824-2.142l1.067-.379.473,1.111.026-.01a2.739,2.739,0,0,1,1.9-2.109c1.614-.574,3.3.351,4.009,2.347.848,2.38-.2,4.077-1.757,4.632a2.462,2.462,0,0,1-2.407-.314l-.027.01,1.28,3.6-1.19.424Zm1.817,1.341a1.971,1.971,0,0,0,2.536,1.238c1.273-.452,1.641-1.755,1.1-3.272-.468-1.313-1.568-2.2-2.84-1.747a2.013,2.013,0,0,0-1.294,2.124,2.063,2.063,0,0,0,.089.507Z" fill="#fff"/>
          <path id="Tracé_472" data-name="Tracé 472" d="M421.051,2808.242a2.242,2.242,0,0,0,2.975,1.7,4.6,4.6,0,0,0,1.777-.872l.468.817a5.69,5.69,0,0,1-2.143,1.066,3.273,3.273,0,0,1-4.283-2.494c-.571-2.041.187-3.971,2.157-4.522,2.224-.621,3.335,1.148,3.683,2.393a3.128,3.128,0,0,1,.118.585Zm3.359-1.889a1.812,1.812,0,0,0-2.259-1.507,2.092,2.092,0,0,0-1.333,2.511Z" fill="#fff"/>
          <path id="Tracé_473" data-name="Tracé 473" d="M431.925,2800.552l-.028,0-1.459,1.163-.415-.914,1.834-1.452,1.072-.193,1.674,9.292-1.216.218Z" fill="#fff"/>
        </g>
      </g>
      <circle id="Ellipse_72" data-name="Ellipse 72" cx="85.32" cy="85.32" r="85.32" transform="translate(348.449 2855.863) rotate(-15.323)" fill="#2f836b" stroke="#fff" stroke-miterlimit="10" stroke-width="2"/>
      <text id="Notion_Individu_acteur" data-name="Notion
Individu/acteur" transform="translate(85.26 2834.466)" fill="#303030" font-size="12.949" font-family="Hind-Medium, Hind" font-weight="500"><tspan x="0" y="14">Notion</tspan><tspan font-family="Hind-Bold, Hind" font-weight="700"><tspan x="0" y="29.539">Individu/acteur</tspan></tspan></text>
      <text id="Notion_Equipe_groupe" data-name="Notion
Equipe/groupe" transform="translate(85.26 2876.846)" fill="#303030" font-size="12.949" font-family="Hind-Medium, Hind" font-weight="500"><tspan x="0" y="14">Notion</tspan><tspan font-family="Hind-Bold, Hind" font-weight="700"><tspan x="0" y="29.539">Equipe/groupe</tspan></tspan></text>
      <text id="Notion_Classe_réseau_organisation" data-name="Notion
Classe/réseau/
organisation" transform="translate(85.26 2920.404)" fill="#303030" font-size="12.949" font-family="Hind-Medium, Hind" font-weight="500"><tspan x="0" y="14">Notion</tspan><tspan font-family="Hind-Bold, Hind" font-weight="700"><tspan x="0" y="29.539">Classe/réseau/</tspan><tspan x="0" y="45.079">organisation</tspan></tspan></text>
      <text id="Interaction_acteur-équipe" data-name="Interaction 
acteur-équipe" transform="translate(85.26 2977.948)" fill="#303030" font-size="12.949" font-family="Hind-Medium, Hind" font-weight="500"><tspan x="0" y="14">Interaction </tspan><tspan x="0" y="29.539">acteur-équipe</tspan></text>
      <text id="Interaction_équipe_réseau" data-name="Interaction 
équipe – réseau" transform="translate(85.26 3016.402)" fill="#303030" font-size="12.949" font-family="Hind-Medium, Hind" font-weight="500"><tspan x="0" y="14">Interaction </tspan><tspan x="0" y="29.539">équipe – réseau</tspan></text>
      <path id="Tracé_474" data-name="Tracé 474" d="M465.16,2915.6a11.877,11.877,0,1,1-11.877-11.876A11.878,11.878,0,0,1,465.16,2915.6Z" fill="#ff6800"/>
      <line id="Ligne_84" data-name="Ligne 84" x2="111.607" y2="79.498" transform="translate(331.811 2829.488)" fill="#2f836b" stroke="#fff" stroke-miterlimit="10" stroke-width="1"/>
      <line id="Ligne_85" data-name="Ligne 85" y1="130.204" x2="42.798" transform="translate(457.226 2774.198)" fill="#2f836b" stroke="#fff" stroke-miterlimit="10" stroke-width="1"/>
      <line id="Ligne_86" data-name="Ligne 86" x2="42.185" y2="130.398" transform="translate(456.887 2926.92)" fill="#2f836b" stroke="#fff" stroke-miterlimit="10" stroke-width="1"/>
      <line id="Ligne_87" data-name="Ligne 87" x1="109.979" y2="81.739" transform="translate(334.047 2923.041)" fill="#2f836b" stroke="#fff" stroke-miterlimit="10" stroke-width="1"/>
      <line id="Ligne_88" data-name="Ligne 88" x2="137.011" transform="translate(465.16 2916.086)" fill="#2f836b" stroke="#fff" stroke-miterlimit="10" stroke-width="1"/>
      <line id="Ligne_89" data-name="Ligne 89" x1="37.817" y1="62.972" transform="translate(409.352 2842.451)" fill="#2f836b" stroke="#fff" stroke-miterlimit="10" stroke-width="1"/>
      <line id="Ligne_90" data-name="Ligne 90" x1="10.226" y1="72.744" transform="translate(441.406 2831.108)" fill="#2f836b" stroke="#fff" stroke-miterlimit="10" stroke-width="1"/>
      <line id="Ligne_91" data-name="Ligne 91" y1="53.731" x2="50.602" transform="translate(461.18 2853.003)" fill="#2f836b" stroke="#fff" stroke-miterlimit="10" stroke-width="1"/>
      <line id="Ligne_92" data-name="Ligne 92" y1="29.646" x2="67.43" transform="translate(463.96 2880.78)" fill="#2f836b" stroke="#fff" stroke-miterlimit="10" stroke-width="1"/>
      <line id="Ligne_93" data-name="Ligne 93" x2="67.231" y2="27.816" transform="translate(464.529 2919.429)" fill="#2f836b" stroke="#fff" stroke-miterlimit="10" stroke-width="1"/>
      <line id="Ligne_94" data-name="Ligne 94" x2="50.848" y2="51.674" transform="translate(461.909 2923.767)" fill="#2f836b" stroke="#fff" stroke-miterlimit="10" stroke-width="1"/>
      <line id="Ligne_95" data-name="Ligne 95" x1="8.491" y2="73.033" transform="translate(443.276 2927.307)" fill="#2f836b" stroke="#fff" stroke-miterlimit="10" stroke-width="1"/>
      <line id="Ligne_96" data-name="Ligne 96" x1="35.882" y2="63.12" transform="translate(411.116 2925.681)" fill="#2f836b" stroke="#fff" stroke-miterlimit="10" stroke-width="1"/>
      <line id="Ligne_97" data-name="Ligne 97" x1="71.095" y2="18.085" transform="translate(370.591 2918.177)" fill="#2f836b" stroke="#fff" stroke-miterlimit="10" stroke-width="1"/>
      <line id="Ligne_98" data-name="Ligne 98" x1="72.658" y1="11.136" transform="translate(368.946 2902.3)" fill="#2f836b" stroke="#fff" stroke-miterlimit="10" stroke-width="1"/>
      <line id="Ligne_99" data-name="Ligne 99" x1="16.239" y1="41.902" transform="translate(389.037 2754.219)" fill="none" stroke="#353535" stroke-miterlimit="10" stroke-width="2"/>
      <line id="Ligne_100" data-name="Ligne 100" x1="7.733" y1="17.453" transform="translate(417.28 2819.346)" fill="none" stroke="#50ddba" stroke-miterlimit="10" stroke-width="2"/>
      <line id="Ligne_101" data-name="Ligne 101" y1="28.733" x2="40.924" transform="translate(556.58 2816.174)" fill="none" stroke="#353535" stroke-miterlimit="10" stroke-width="2"/>
      <line id="Ligne_102" data-name="Ligne 102" x2="42.592" y2="33.837" transform="translate(553.302 2988.801)" fill="none" stroke="#353535" stroke-miterlimit="10" stroke-width="2"/>
      <line id="Ligne_103" data-name="Ligne 103" x1="16.671" y2="50.28" transform="translate(397.145 3030.771)" fill="none" stroke="#353535" stroke-miterlimit="10" stroke-width="2"/>
      <line id="Ligne_104" data-name="Ligne 104" y1="1.069" x2="46.571" transform="translate(280.481 2913.864)" fill="none" stroke="#353535" stroke-miterlimit="10" stroke-width="2"/>
      <g id="Groupe_238" data-name="Groupe 238">
        <path id="Tracé_475" data-name="Tracé 475" d="M457.233,2854.688q-3.129,0-6.258,0c-.972,0-1.365-.411-1.348-1.383a7.6,7.6,0,0,1,14.967-1.551,8.56,8.56,0,0,1,.227,1.54c.051.978-.361,1.392-1.329,1.393Q460.363,2854.693,457.233,2854.688Z" fill="#fff" fill-rule="evenodd"/>
        <path id="Tracé_476" data-name="Tracé 476" d="M457.21,2843.8a4.339,4.339,0,1,1,4.356-4.331A4.338,4.338,0,0,1,457.21,2843.8Z" fill="#fff" fill-rule="evenodd"/>
      </g>
      <g id="Groupe_245" data-name="Groupe 245">
        <g id="Groupe_241" data-name="Groupe 241">
          <g id="Groupe_240" data-name="Groupe 240">
            <g id="Groupe_239" data-name="Groupe 239">
              <path id="Tracé_477" data-name="Tracé 477" d="M78.018,2856.977c.062,1.278-.477,1.833-1.74,1.833H59.907c-1.278,0-1.786-.539-1.771-1.818a9.947,9.947,0,0,1,19.589-2.017A11.037,11.037,0,0,1,78.018,2856.977Z" fill="#303030"/>
              <path id="Tracé_478" data-name="Tracé 478" d="M68.07,2833.215a5.674,5.674,0,1,1-5.652,5.636A5.7,5.7,0,0,1,68.07,2833.215Z" fill="#303030"/>
            </g>
          </g>
        </g>
        <g id="Groupe_244" data-name="Groupe 244">
          <g id="Groupe_243" data-name="Groupe 243">
            <g id="Groupe_242" data-name="Groupe 242">
              <path id="Tracé_479" data-name="Tracé 479" d="M78.018,2856.977c.062,1.278-.477,1.833-1.74,1.833H59.907c-1.278,0-1.786-.539-1.771-1.818a9.947,9.947,0,0,1,19.589-2.017A11.037,11.037,0,0,1,78.018,2856.977Z" fill="#303030"/>
              <path id="Tracé_480" data-name="Tracé 480" d="M68.07,2833.215a5.674,5.674,0,1,1-5.652,5.636A5.7,5.7,0,0,1,68.07,2833.215Z" fill="#303030"/>
            </g>
          </g>
        </g>
      </g>
      <g id="Groupe_246" data-name="Groupe 246">
        <path id="Tracé_481" data-name="Tracé 481" d="M483.685,2863.21q-2.724-1.536-5.449-3.076a1.159,1.159,0,0,1-.492-1.869,7.6,7.6,0,0,1,13.793,6.01,8.441,8.441,0,0,1-.56,1.453,1.139,1.139,0,0,1-1.841.559Q486.407,2864.754,483.685,2863.21Z" fill="#fff" fill-rule="evenodd"/>
        <path id="Tracé_482" data-name="Tracé 482" d="M489.018,2853.72a4.339,4.339,0,1,1,5.924-1.629A4.339,4.339,0,0,1,489.018,2853.72Z" fill="#fff" fill-rule="evenodd"/>
      </g>
      <g id="Groupe_247" data-name="Groupe 247">
        <path id="Tracé_483" data-name="Tracé 483" d="M503.114,2880.528q-1.791-2.567-3.582-5.131a1.157,1.157,0,0,1,.365-1.9,7.6,7.6,0,0,1,9.834,11.386,8.461,8.461,0,0,1-1.133,1.067,1.138,1.138,0,0,1-1.9-.293Q504.9,2883.1,503.114,2880.528Z" fill="#fff" fill-rule="evenodd"/>
        <path id="Tracé_484" data-name="Tracé 484" d="M512.028,2874.279a4.339,4.339,0,1,1,6.046,1.095A4.337,4.337,0,0,1,512.028,2874.279Z" fill="#fff" fill-rule="evenodd"/>
      </g>
      <g id="Groupe_248" data-name="Groupe 248">
        <path id="Tracé_485" data-name="Tracé 485" d="M512.513,2903.588c-.331-2.061-.666-4.118-.993-6.178-.152-.963.189-1.415,1.153-1.551a7.6,7.6,0,0,1,3.905,14.53,8.4,8.4,0,0,1-1.486.467c-.957.206-1.431-.133-1.585-1.09C513.171,2907.708,512.844,2905.647,512.513,2903.588Z" fill="#fff" fill-rule="evenodd"/>
        <path id="Tracé_486" data-name="Tracé 486" d="M523.258,2901.836a4.339,4.339,0,1,1,4.968,3.616A4.333,4.333,0,0,1,523.258,2901.836Z" fill="#fff" fill-rule="evenodd"/>
      </g>
      <g id="Groupe_249" data-name="Groupe 249">
        <path id="Tracé_487" data-name="Tracé 487" d="M512.941,2927.108c.309-2.064.614-4.126.928-6.188.146-.962.609-1.291,1.568-1.127a7.6,7.6,0,0,1-.687,15.03,8.44,8.44,0,0,1-1.557-.006c-.974-.094-1.322-.562-1.179-1.52C512.318,2931.234,512.632,2929.172,512.941,2927.108Z" fill="#fff" fill-rule="evenodd"/>
        <path id="Tracé_488" data-name="Tracé 488" d="M523.711,2928.7a4.339,4.339,0,1,1,3.637,4.954A4.336,4.336,0,0,1,523.711,2928.7Z" fill="#fff" fill-rule="evenodd"/>
      </g>
      <g id="Groupe_250" data-name="Groupe 250">
        <path id="Tracé_489" data-name="Tracé 489" d="M503.136,2949.9c1.234-1.681,2.461-3.366,3.7-5.047a1.158,1.158,0,0,1,1.913-.267,7.6,7.6,0,0,1-7.6,12.987,8.354,8.354,0,0,1-1.377-.729,1.139,1.139,0,0,1-.336-1.9Q501.279,2952.422,503.136,2949.9Z" fill="#fff" fill-rule="evenodd"/>
        <path id="Tracé_490" data-name="Tracé 490" d="M511.932,2956.314a4.339,4.339,0,1,1,.917,6.077A4.332,4.332,0,0,1,511.932,2956.314Z" fill="#fff" fill-rule="evenodd"/>
      </g>
      <g id="Groupe_251" data-name="Groupe 251">
        <path id="Tracé_491" data-name="Tracé 491" d="M485.3,2967.1q2.654-1.657,5.3-3.319a1.156,1.156,0,0,1,1.875.459,7.6,7.6,0,0,1-11.865,9.251,8.263,8.263,0,0,1-1.008-1.186,1.139,1.139,0,0,1,.388-1.885C481.756,2969.311,483.527,2968.21,485.3,2967.1Z" fill="#fff" fill-rule="evenodd"/>
        <path id="Tracé_492" data-name="Tracé 492" d="M491.092,2976.316a4.34,4.34,0,1,1-1.4,5.986A4.337,4.337,0,0,1,491.092,2976.316Z" fill="#fff" fill-rule="evenodd"/>
      </g>
      <g id="Groupe_252" data-name="Groupe 252">
        <path id="Tracé_493" data-name="Tracé 493" d="M458.9,2975.949c2.082-.092,4.165-.193,6.251-.282.97-.041,1.382.349,1.408,1.322a7.6,7.6,0,0,1-14.881,2.223,8.409,8.409,0,0,1-.295-1.527c-.1-.974.3-1.409,1.265-1.452C454.73,2976.134,456.814,2976.044,458.9,2975.949Z" fill="#fff" fill-rule="evenodd"/>
        <path id="Tracé_494" data-name="Tracé 494" d="M459.418,2986.824a4.339,4.339,0,1,1-4.16,4.525A4.332,4.332,0,0,1,459.418,2986.824Z" fill="#fff" fill-rule="evenodd"/>
      </g>
      <g id="Groupe_253" data-name="Groupe 253">
        <path id="Tracé_495" data-name="Tracé 495" d="M434.164,2973.217c1.995.609,3.991,1.211,5.985,1.826a1.157,1.157,0,0,1,.885,1.718,7.6,7.6,0,0,1-14.767-2.889,8.369,8.369,0,0,1,.234-1.537c.236-.95.751-1.229,1.678-.944Q431.17,2972.3,434.164,2973.217Z" fill="#fff" fill-rule="evenodd"/>
        <path id="Tracé_496" data-name="Tracé 496" d="M431.012,2983.638a4.339,4.339,0,1,1-5.434,2.87A4.329,4.329,0,0,1,431.012,2983.638Z" fill="#fff" fill-rule="evenodd"/>
      </g>
      <g id="Groupe_254" data-name="Groupe 254">
        <path id="Tracé_497" data-name="Tracé 497" d="M412.848,2960.66c1.585,1.355,3.174,2.7,4.756,4.066a1.157,1.157,0,0,1,.125,1.928,7.6,7.6,0,0,1-12.381-8.55,8.232,8.232,0,0,1,.828-1.315,1.138,1.138,0,0,1,1.915-.2Q410.473,2958.618,412.848,2960.66Z" fill="#fff" fill-rule="evenodd"/>
        <path id="Tracé_498" data-name="Tracé 498" d="M405.793,2968.95a4.339,4.339,0,1,1-6.129.459A4.332,4.332,0,0,1,405.793,2968.95Z" fill="#fff" fill-rule="evenodd"/>
      </g>
      <g id="Groupe_255" data-name="Groupe 255">
        <path id="Tracé_499" data-name="Tracé 499" d="M398.276,2941.653c.887,1.887,1.78,3.77,2.663,5.661a1.159,1.159,0,0,1-.679,1.81,7.6,7.6,0,0,1-7.77-12.886,8.214,8.214,0,0,1,1.3-.857,1.137,1.137,0,0,1,1.826.609C396.5,2937.874,397.387,2939.763,398.276,2941.653Z" fill="#fff" fill-rule="evenodd"/>
        <path id="Tracé_500" data-name="Tracé 500" d="M388.435,2946.309a4.338,4.338,0,1,1-5.775-2.1A4.33,4.33,0,0,1,388.435,2946.309Z" fill="#fff" fill-rule="evenodd"/>
      </g>
      <g id="Groupe_256" data-name="Groupe 256">
        <path id="Tracé_501" data-name="Tracé 501" d="M392.687,2918.09c.125,2.081.257,4.162.376,6.245.057.971-.33,1.388-1.3,1.43a7.6,7.6,0,0,1-2.439-14.85,8.356,8.356,0,0,1,1.521-.316c.975-.111,1.414.276,1.47,1.244C392.444,2913.922,392.564,2916,392.687,2918.09Z" fill="#fff" fill-rule="evenodd"/>
        <path id="Tracé_502" data-name="Tracé 502" d="M381.822,2918.766a4.338,4.338,0,1,1-4.584-4.1A4.329,4.329,0,0,1,381.822,2918.766Z" fill="#fff" fill-rule="evenodd"/>
      </g>
      <g id="Groupe_257" data-name="Groupe 257">
        <path id="Tracé_503" data-name="Tracé 503" d="M396.746,2892.734c-.7,1.963-1.4,3.927-2.106,5.892a1.159,1.159,0,0,1-1.758.8,7.6,7.6,0,0,1,3.584-14.615,8.318,8.318,0,0,1,1.523.306,1.139,1.139,0,0,1,.865,1.722Q397.81,2889.785,396.746,2892.734Z" fill="#fff" fill-rule="evenodd"/>
        <path id="Tracé_504" data-name="Tracé 504" d="M386.487,2889.091a4.338,4.338,0,1,1-2.609-5.566A4.328,4.328,0,0,1,386.487,2889.091Z" fill="#fff" fill-rule="evenodd"/>
      </g>
      <g id="Groupe_258" data-name="Groupe 258">
        <path id="Tracé_505" data-name="Tracé 505" d="M412.416,2871.015c-1.454,1.493-2.9,2.99-4.364,4.482a1.16,1.16,0,0,1-1.932,0,7.6,7.6,0,0,1,9.336-11.8,8.4,8.4,0,0,1,1.258.911,1.14,1.14,0,0,1,.07,1.927Q414.612,2868.776,412.416,2871.015Z" fill="#fff" fill-rule="evenodd"/>
        <path id="Tracé_506" data-name="Tracé 506" d="M404.6,2863.435a4.338,4.338,0,1,1-.058-6.147A4.327,4.327,0,0,1,404.6,2863.435Z" fill="#fff" fill-rule="evenodd"/>
      </g>
      <g id="Groupe_259" data-name="Groupe 259">
        <path id="Tracé_507" data-name="Tracé 507" d="M433.269,2857.855c-1.947.744-3.891,1.5-5.843,2.234a1.158,1.158,0,0,1-1.754-.812,7.6,7.6,0,0,1,13.43-6.786,8.358,8.358,0,0,1,.759,1.356,1.139,1.139,0,0,1-.746,1.776C437.172,2856.372,435.223,2857.111,433.269,2857.855Z" fill="#fff" fill-rule="evenodd"/>
        <path id="Tracé_508" data-name="Tracé 508" d="M429.362,2847.694a4.338,4.338,0,1,1,2.529-5.6A4.329,4.329,0,0,1,429.362,2847.694Z" fill="#fff" fill-rule="evenodd"/>
      </g>
      <path id="Tracé_509" data-name="Tracé 509" d="M76.628,2890.739a8.535,8.535,0,1,1-8.535-8.535A8.534,8.534,0,0,1,76.628,2890.739Z" fill="#2f836b"/>
      <path id="Tracé_510" data-name="Tracé 510" d="M76.628,2935.042a8.535,8.535,0,1,1-8.535-8.534A8.535,8.535,0,0,1,76.628,2935.042Z" fill="#b9a3e3"/>
      <line id="Ligne_105" data-name="Ligne 105" x2="17.938" transform="translate(58.554 2982.281)" fill="none" stroke="#50ddba" stroke-miterlimit="10" stroke-width="2"/>
      <line id="Ligne_106" data-name="Ligne 106" x2="21.935" transform="translate(56.087 3030.771)" fill="none" stroke="#353535" stroke-miterlimit="10" stroke-width="2"/>
    </g>
  </g>
</svg>
