<svg xmlns="http://www.w3.org/2000/svg" xmlns:xlink="http://www.w3.org/1999/xlink" width="929.785" height="631.646" viewBox="0 0 929.785 631.646">
  <defs>
    <clipPath id="clip-_312">
      <rect width="929.785" height="631.646"/>
    </clipPath>
  </defs>
  <g id="_312" data-name="312" clip-path="url(#clip-_312)">
    <rect width="929.785" height="631.646" fill="#fff"/>
    <g id="Groupe_221" data-name="Groupe 221" transform="translate(-944.917 -2633.888)">
      <circle id="Ellipse_65" data-name="Ellipse 65" cx="263.423" cy="263.423" r="263.423" transform="translate(1081.295 2949.711) rotate(-45)" fill="#b9a3e3"/>
      <line id="Ligne_64" data-name="Ligne 64" y1="94.016" x2="87.597" transform="translate(1283.137 2835.616)" fill="none" stroke="#ff6800" stroke-miterlimit="10" stroke-width="2"/>
      <line id="Ligne_65" data-name="Ligne 65" x2="130.056" y2="33.845" transform="translate(1370.734 2835.616)" fill="none" stroke="#ff6800" stroke-miterlimit="10" stroke-width="2"/>
      <line id="Ligne_66" data-name="Ligne 66" x2="118.658" y2="174.32" transform="translate(1500.79 2869.461)" fill="none" stroke="#ff6800" stroke-miterlimit="10" stroke-width="2"/>
      <line id="Ligne_67" data-name="Ligne 67" x1="169.881" y2="35.98" transform="translate(1449.566 3043.781)" fill="none" stroke="#ff6800" stroke-miterlimit="10" stroke-width="2"/>
      <line id="Ligne_68" data-name="Ligne 68" x1="181.278" y1="130.898" transform="translate(1268.289 2948.863)" fill="none" stroke="#ff6800" stroke-miterlimit="10" stroke-width="2"/>
      <g id="Groupe_188" data-name="Groupe 188">
        <g id="Groupe_185" data-name="Groupe 185">
          <g id="Groupe_184" data-name="Groupe 184">
            <path id="Tracé_319" data-name="Tracé 319" d="M1572.478,2750.447l1.755.727a1.793,1.793,0,0,0,.328,1.389,3.2,3.2,0,0,0,1.776,1,3.45,3.45,0,0,0,2.142-.017,2.639,2.639,0,0,0,1.324-1.218,12.4,12.4,0,0,0,.739-2.373,3.977,3.977,0,0,1-3.427.68A4.3,4.3,0,0,1,1574,2748.1a6.545,6.545,0,0,1-.261-4.263,7.586,7.586,0,0,1,1.306-2.779,4.716,4.716,0,0,1,2.181-1.651,4.621,4.621,0,0,1,2.74-.089,4.089,4.089,0,0,1,2.833,2.393l.335-1.333,1.73.434-2.4,9.565a9.37,9.37,0,0,1-1.444,3.531,3.976,3.976,0,0,1-2.095,1.286,5.972,5.972,0,0,1-2.964-.079,5.461,5.461,0,0,1-2.976-1.693A3.106,3.106,0,0,1,1572.478,2750.447Zm3.219-6.259a4.946,4.946,0,0,0,.068,3.4,2.94,2.94,0,0,0,4.334,1.091,4.787,4.787,0,0,0,1.657-2.9,4.678,4.678,0,0,0-.133-3.289,2.878,2.878,0,0,0-1.914-1.576,2.79,2.79,0,0,0-2.38.483A4.641,4.641,0,0,0,1575.7,2744.188Z" fill="#2f836b"/>
            <path id="Tracé_320" data-name="Tracé 320" d="M1584.51,2752.719l3.757-10.771,1.644.572-.57,1.634a4.715,4.715,0,0,1,1.688-1.107,2.146,2.146,0,0,1,1.3.043,3.778,3.778,0,0,1,1.672,1.244l-1.22,1.474a2.759,2.759,0,0,0-1.2-.862,1.838,1.838,0,0,0-1.2-.016,2.075,2.075,0,0,0-1.028.763,7.544,7.544,0,0,0-1.047,2.023l-1.967,5.64Z" fill="#2f836b"/>
            <path id="Tracé_321" data-name="Tracé 321" d="M1592.822,2749.539a5.879,5.879,0,0,1,3.542-3.549,5.313,5.313,0,0,1,3.791.326,5.118,5.118,0,0,1,2.867,2.991,5.866,5.866,0,0,1-.4,4.5,7.533,7.533,0,0,1-2.032,2.883,4.667,4.667,0,0,1-2.56.992,5.6,5.6,0,0,1-2.8-.5,5.127,5.127,0,0,1-2.894-3A6.137,6.137,0,0,1,1592.822,2749.539Zm1.81.82a4.865,4.865,0,0,0-.484,3.384,3.183,3.183,0,0,0,4.376,1.976,4.967,4.967,0,0,0,2.25-2.648,4.721,4.721,0,0,0,.448-3.318,3.188,3.188,0,0,0-4.367-1.984A4.846,4.846,0,0,0,1594.632,2750.359Z" fill="#2f836b"/>
            <path id="Tracé_322" data-name="Tracé 322" d="M1608.276,2763.877l.858-1.439a4.176,4.176,0,0,1-4.1-.193,4.626,4.626,0,0,1-1.422-1.3,3.109,3.109,0,0,1-.618-1.5,3.651,3.651,0,0,1,.222-1.537,9.891,9.891,0,0,1,.824-1.611l3.62-6.07,1.66.99-3.24,5.434a11.305,11.305,0,0,0-.944,1.813,2.018,2.018,0,0,0,.051,1.426,2.389,2.389,0,0,0,1.032,1.121,3.179,3.179,0,0,0,1.63.454,2.477,2.477,0,0,0,1.549-.49,6.075,6.075,0,0,0,1.414-1.752l3.131-5.249,1.66.99-5.843,9.8Z" fill="#2f836b"/>
            <path id="Tracé_323" data-name="Tracé 323" d="M1609.291,2769.705l9.54-12.57,1.4,1.065-.9,1.181a4.344,4.344,0,0,1,1.911-.189,3.853,3.853,0,0,1,1.777.8,4.5,4.5,0,0,1,1.6,2.157,4.623,4.623,0,0,1,.061,2.71,7.754,7.754,0,0,1-1.362,2.735,7.633,7.633,0,0,1-2.407,2.132,4.739,4.739,0,0,1-2.753.606,4.679,4.679,0,0,1-2.458-.927,3.636,3.636,0,0,1-1.136-1.374,3.973,3.973,0,0,1-.382-1.585l-3.357,4.424Zm7.447-6.916a4.965,4.965,0,0,0-1.258,3.131,2.739,2.739,0,0,0,1.084,2.144,2.8,2.8,0,0,0,2.417.467,5.172,5.172,0,0,0,2.775-2.136,5.04,5.04,0,0,0,1.26-3.143,2.7,2.7,0,0,0-1.051-2.161,2.788,2.788,0,0,0-2.44-.4A5.173,5.173,0,0,0,1616.738,2762.789Z" fill="#2f836b"/>
            <path id="Tracé_324" data-name="Tracé 324" d="M1629.431,2776.173l1.278,1.556a4.878,4.878,0,0,1-3.142.764,5.931,5.931,0,0,1-4.848-5.4,6.023,6.023,0,0,1,1.916-4.143,6.3,6.3,0,0,1,4.154-2.218,5.02,5.02,0,0,1,3.882,1.5,4.879,4.879,0,0,1,1.637,3.7,6.191,6.191,0,0,1-1.969,4.176q-.118.125-.363.366l-6.166-5.862a4.382,4.382,0,0,0-1.213,2.819,3.165,3.165,0,0,0,1.04,2.367,2.954,2.954,0,0,0,1.7.846A3.7,3.7,0,0,0,1629.431,2776.173Zm-2.448-6.639,4.617,4.388a3.86,3.86,0,0,0,.958-2.067,2.961,2.961,0,0,0-.967-2.461,3.07,3.07,0,0,0-2.237-.9A3.521,3.521,0,0,0,1626.983,2769.534Z" fill="#2f836b"/>
          </g>
        </g>
        <g id="Groupe_187" data-name="Groupe 187">
          <g id="Groupe_186" data-name="Groupe 186">
            <path id="Tracé_325" data-name="Tracé 325" d="M1572.478,2750.447l1.755.727a1.793,1.793,0,0,0,.328,1.389,3.2,3.2,0,0,0,1.776,1,3.45,3.45,0,0,0,2.142-.017,2.639,2.639,0,0,0,1.324-1.218,12.4,12.4,0,0,0,.739-2.373,3.977,3.977,0,0,1-3.427.68A4.3,4.3,0,0,1,1574,2748.1a6.545,6.545,0,0,1-.261-4.263,7.586,7.586,0,0,1,1.306-2.779,4.716,4.716,0,0,1,2.181-1.651,4.621,4.621,0,0,1,2.74-.089,4.089,4.089,0,0,1,2.833,2.393l.335-1.333,1.73.434-2.4,9.565a9.37,9.37,0,0,1-1.444,3.531,3.976,3.976,0,0,1-2.095,1.286,5.972,5.972,0,0,1-2.964-.079,5.461,5.461,0,0,1-2.976-1.693A3.106,3.106,0,0,1,1572.478,2750.447Zm3.219-6.259a4.946,4.946,0,0,0,.068,3.4,2.94,2.94,0,0,0,4.334,1.091,4.787,4.787,0,0,0,1.657-2.9,4.678,4.678,0,0,0-.133-3.289,2.878,2.878,0,0,0-1.914-1.576,2.79,2.79,0,0,0-2.38.483A4.641,4.641,0,0,0,1575.7,2744.188Z" fill="#2f836b"/>
            <path id="Tracé_326" data-name="Tracé 326" d="M1584.51,2752.719l3.757-10.771,1.644.572-.57,1.634a4.715,4.715,0,0,1,1.688-1.107,2.146,2.146,0,0,1,1.3.043,3.778,3.778,0,0,1,1.672,1.244l-1.22,1.474a2.759,2.759,0,0,0-1.2-.862,1.838,1.838,0,0,0-1.2-.016,2.075,2.075,0,0,0-1.028.763,7.544,7.544,0,0,0-1.047,2.023l-1.967,5.64Z" fill="#2f836b"/>
            <path id="Tracé_327" data-name="Tracé 327" d="M1592.822,2749.539a5.879,5.879,0,0,1,3.542-3.549,5.313,5.313,0,0,1,3.791.326,5.118,5.118,0,0,1,2.867,2.991,5.866,5.866,0,0,1-.4,4.5,7.533,7.533,0,0,1-2.032,2.883,4.667,4.667,0,0,1-2.56.992,5.6,5.6,0,0,1-2.8-.5,5.127,5.127,0,0,1-2.894-3A6.137,6.137,0,0,1,1592.822,2749.539Zm1.81.82a4.865,4.865,0,0,0-.484,3.384,3.183,3.183,0,0,0,4.376,1.976,4.967,4.967,0,0,0,2.25-2.648,4.721,4.721,0,0,0,.448-3.318,3.188,3.188,0,0,0-4.367-1.984A4.846,4.846,0,0,0,1594.632,2750.359Z" fill="#2f836b"/>
            <path id="Tracé_328" data-name="Tracé 328" d="M1608.276,2763.877l.858-1.439a4.176,4.176,0,0,1-4.1-.193,4.626,4.626,0,0,1-1.422-1.3,3.109,3.109,0,0,1-.618-1.5,3.651,3.651,0,0,1,.222-1.537,9.891,9.891,0,0,1,.824-1.611l3.62-6.07,1.66.99-3.24,5.434a11.305,11.305,0,0,0-.944,1.813,2.018,2.018,0,0,0,.051,1.426,2.389,2.389,0,0,0,1.032,1.121,3.179,3.179,0,0,0,1.63.454,2.477,2.477,0,0,0,1.549-.49,6.075,6.075,0,0,0,1.414-1.752l3.131-5.249,1.66.99-5.843,9.8Z" fill="#2f836b"/>
            <path id="Tracé_329" data-name="Tracé 329" d="M1609.291,2769.705l9.54-12.57,1.4,1.065-.9,1.181a4.344,4.344,0,0,1,1.911-.189,3.853,3.853,0,0,1,1.777.8,4.5,4.5,0,0,1,1.6,2.157,4.623,4.623,0,0,1,.061,2.71,7.754,7.754,0,0,1-1.362,2.735,7.633,7.633,0,0,1-2.407,2.132,4.739,4.739,0,0,1-2.753.606,4.679,4.679,0,0,1-2.458-.927,3.636,3.636,0,0,1-1.136-1.374,3.973,3.973,0,0,1-.382-1.585l-3.357,4.424Zm7.447-6.916a4.965,4.965,0,0,0-1.258,3.131,2.739,2.739,0,0,0,1.084,2.144,2.8,2.8,0,0,0,2.417.467,5.172,5.172,0,0,0,2.775-2.136,5.04,5.04,0,0,0,1.26-3.143,2.7,2.7,0,0,0-1.051-2.161,2.788,2.788,0,0,0-2.44-.4A5.173,5.173,0,0,0,1616.738,2762.789Z" fill="#2f836b"/>
            <path id="Tracé_330" data-name="Tracé 330" d="M1629.431,2776.173l1.278,1.556a4.878,4.878,0,0,1-3.142.764,5.931,5.931,0,0,1-4.848-5.4,6.023,6.023,0,0,1,1.916-4.143,6.3,6.3,0,0,1,4.154-2.218,5.02,5.02,0,0,1,3.882,1.5,4.879,4.879,0,0,1,1.637,3.7,6.191,6.191,0,0,1-1.969,4.176q-.118.125-.363.366l-6.166-5.862a4.382,4.382,0,0,0-1.213,2.819,3.165,3.165,0,0,0,1.04,2.367,2.954,2.954,0,0,0,1.7.846A3.7,3.7,0,0,0,1629.431,2776.173Zm-2.448-6.639,4.617,4.388a3.86,3.86,0,0,0,.958-2.067,2.961,2.961,0,0,0-.967-2.461,3.07,3.07,0,0,0-2.237-.9A3.521,3.521,0,0,0,1626.983,2769.534Z" fill="#2f836b"/>
          </g>
        </g>
      </g>
      <g id="Groupe_193" data-name="Groupe 193">
        <g id="Groupe_190" data-name="Groupe 190">
          <g id="Groupe_189" data-name="Groupe 189">
            <path id="Tracé_331" data-name="Tracé 331" d="M1391.294,2703.812l1.323,1.364a1.792,1.792,0,0,0-.25,1.406,3.21,3.21,0,0,0,1.234,1.621,3.441,3.441,0,0,0,1.973.833,2.636,2.636,0,0,0,1.7-.594,12.3,12.3,0,0,0,1.619-1.884,3.976,3.976,0,0,1-3.415-.735,4.3,4.3,0,0,1-1.861-3.56,6.536,6.536,0,0,1,1.451-4.016,7.568,7.568,0,0,1,2.3-2.035,4.725,4.725,0,0,1,2.656-.652,4.631,4.631,0,0,1,2.552,1.006,4.092,4.092,0,0,1,1.652,3.32l.835-1.092,1.416,1.084-5.994,7.832a9.342,9.342,0,0,1-2.725,2.668,3.961,3.961,0,0,1-2.432.351,5.961,5.961,0,0,1-2.691-1.249,5.464,5.464,0,0,1-2.061-2.733A3.107,3.107,0,0,1,1391.294,2703.812Zm5.436-4.47a4.953,4.953,0,0,0-1.283,3.145,2.832,2.832,0,0,0,1.148,2.177,2.861,2.861,0,0,0,2.4.543,4.8,4.8,0,0,0,2.671-2.007,4.677,4.677,0,0,0,1.182-3.073,2.877,2.877,0,0,0-1.132-2.2,2.793,2.793,0,0,0-2.377-.5A4.664,4.664,0,0,0,1396.73,2699.342Z" fill="#2f836b"/>
            <path id="Tracé_332" data-name="Tracé 332" d="M1401.438,2710.669l7.72-8.4,1.282,1.177-1.171,1.274a4.707,4.707,0,0,1,1.989-.346,2.156,2.156,0,0,1,1.175.553,3.78,3.78,0,0,1,1.042,1.8l-1.7.87a2.776,2.776,0,0,0-.761-1.267,1.833,1.833,0,0,0-1.1-.491,2.081,2.081,0,0,0-1.247.292,7.565,7.565,0,0,0-1.763,1.444l-4.042,4.4Z" fill="#2f836b"/>
            <path id="Tracé_333" data-name="Tracé 333" d="M1410.33,2711.043a5.887,5.887,0,0,1,4.659-1.853,5.314,5.314,0,0,1,3.351,1.8,5.122,5.122,0,0,1,1.446,3.883,5.862,5.862,0,0,1-2.148,3.969,7.539,7.539,0,0,1-3.008,1.842,4.673,4.673,0,0,1-2.744-.1,5.588,5.588,0,0,1-2.37-1.57,5.121,5.121,0,0,1-1.468-3.9A6.139,6.139,0,0,1,1410.33,2711.043Zm1.337,1.472a4.854,4.854,0,0,0-1.786,2.914,3.184,3.184,0,0,0,3.234,3.551,4.972,4.972,0,0,0,3.114-1.54,4.711,4.711,0,0,0,1.728-2.869,3.188,3.188,0,0,0-3.223-3.553A4.846,4.846,0,0,0,1411.667,2712.515Z" fill="#2f836b"/>
            <path id="Tracé_334" data-name="Tracé 334" d="M1418.833,2730.334l1.359-.981a4.172,4.172,0,0,1-3.687-1.8,4.611,4.611,0,0,1-.791-1.755,3.11,3.11,0,0,1,.028-1.623,3.634,3.634,0,0,1,.813-1.323,9.884,9.884,0,0,1,1.394-1.152l5.73-4.137,1.132,1.567-5.129,3.705a11.36,11.36,0,0,0-1.586,1.289,2.022,2.022,0,0,0-.518,1.33,2.4,2.4,0,0,0,.5,1.438,3.188,3.188,0,0,0,1.316,1.064,2.488,2.488,0,0,0,1.618.164,6.082,6.082,0,0,0,1.992-1.049l4.955-3.578,1.132,1.568-9.249,6.678Z" fill="#2f836b"/>
            <path id="Tracé_335" data-name="Tracé 335" d="M1417.455,2736.086l13.742-7.756.866,1.533-1.292.73a4.362,4.362,0,0,1,1.83.582,3.876,3.876,0,0,1,1.313,1.444,4.5,4.5,0,0,1,.612,2.614,4.625,4.625,0,0,1-1.018,2.513,7.784,7.784,0,0,1-2.335,1.97,7.619,7.619,0,0,1-3.055,1,4.781,4.781,0,0,1-4.657-2.361,3.644,3.644,0,0,1-.5-1.712,3.983,3.983,0,0,1,.278-1.606l-4.836,2.73Zm9.579-3.4a4.96,4.96,0,0,0-2.4,2.376,2.733,2.733,0,0,0,.145,2.4,2.8,2.8,0,0,0,2.034,1.387,5.178,5.178,0,0,0,3.393-.861,5.039,5.039,0,0,0,2.4-2.386,2.7,2.7,0,0,0-.108-2.4,2.784,2.784,0,0,0-2.08-1.336A5.162,5.162,0,0,0,1427.034,2732.69Z" fill="#2f836b"/>
            <path id="Tracé_336" data-name="Tracé 336" d="M1433.379,2750.01l.557,1.935a4.882,4.882,0,0,1-3.187-.545,5.928,5.928,0,0,1-2.309-6.881,6.019,6.019,0,0,1,3.4-3.044,6.307,6.307,0,0,1,4.693-.39,5.026,5.026,0,0,1,2.971,2.914,4.877,4.877,0,0,1,.033,4.049,6.183,6.183,0,0,1-3.462,3.054q-.159.067-.479.192l-3.337-7.826a4.381,4.381,0,0,0-2.231,2.108,3.167,3.167,0,0,0,.016,2.586,2.968,2.968,0,0,0,1.226,1.45A3.7,3.7,0,0,0,1433.379,2750.01Zm.385-7.066,2.5,5.858a3.853,3.853,0,0,0,1.7-1.517,2.967,2.967,0,0,0,.088-2.643,3.073,3.073,0,0,0-1.7-1.709A3.517,3.517,0,0,0,1433.764,2742.944Z" fill="#2f836b"/>
          </g>
        </g>
        <g id="Groupe_192" data-name="Groupe 192">
          <g id="Groupe_191" data-name="Groupe 191">
            <path id="Tracé_337" data-name="Tracé 337" d="M1391.294,2703.812l1.323,1.364a1.792,1.792,0,0,0-.25,1.406,3.21,3.21,0,0,0,1.234,1.621,3.441,3.441,0,0,0,1.973.833,2.636,2.636,0,0,0,1.7-.594,12.3,12.3,0,0,0,1.619-1.884,3.976,3.976,0,0,1-3.415-.735,4.3,4.3,0,0,1-1.861-3.56,6.536,6.536,0,0,1,1.451-4.016,7.568,7.568,0,0,1,2.3-2.035,4.725,4.725,0,0,1,2.656-.652,4.631,4.631,0,0,1,2.552,1.006,4.092,4.092,0,0,1,1.652,3.32l.835-1.092,1.416,1.084-5.994,7.832a9.342,9.342,0,0,1-2.725,2.668,3.961,3.961,0,0,1-2.432.351,5.961,5.961,0,0,1-2.691-1.249,5.464,5.464,0,0,1-2.061-2.733A3.107,3.107,0,0,1,1391.294,2703.812Zm5.436-4.47a4.953,4.953,0,0,0-1.283,3.145,2.832,2.832,0,0,0,1.148,2.177,2.861,2.861,0,0,0,2.4.543,4.8,4.8,0,0,0,2.671-2.007,4.677,4.677,0,0,0,1.182-3.073,2.877,2.877,0,0,0-1.132-2.2,2.793,2.793,0,0,0-2.377-.5A4.664,4.664,0,0,0,1396.73,2699.342Z" fill="#2f836b"/>
            <path id="Tracé_338" data-name="Tracé 338" d="M1401.438,2710.669l7.72-8.4,1.282,1.177-1.171,1.274a4.707,4.707,0,0,1,1.989-.346,2.156,2.156,0,0,1,1.175.553,3.78,3.78,0,0,1,1.042,1.8l-1.7.87a2.776,2.776,0,0,0-.761-1.267,1.833,1.833,0,0,0-1.1-.491,2.081,2.081,0,0,0-1.247.292,7.565,7.565,0,0,0-1.763,1.444l-4.042,4.4Z" fill="#2f836b"/>
            <path id="Tracé_339" data-name="Tracé 339" d="M1410.33,2711.043a5.887,5.887,0,0,1,4.659-1.853,5.314,5.314,0,0,1,3.351,1.8,5.122,5.122,0,0,1,1.446,3.883,5.862,5.862,0,0,1-2.148,3.969,7.539,7.539,0,0,1-3.008,1.842,4.673,4.673,0,0,1-2.744-.1,5.588,5.588,0,0,1-2.37-1.57,5.121,5.121,0,0,1-1.468-3.9A6.139,6.139,0,0,1,1410.33,2711.043Zm1.337,1.472a4.854,4.854,0,0,0-1.786,2.914,3.184,3.184,0,0,0,3.234,3.551,4.972,4.972,0,0,0,3.114-1.54,4.711,4.711,0,0,0,1.728-2.869,3.188,3.188,0,0,0-3.223-3.553A4.846,4.846,0,0,0,1411.667,2712.515Z" fill="#2f836b"/>
            <path id="Tracé_340" data-name="Tracé 340" d="M1418.833,2730.334l1.359-.981a4.172,4.172,0,0,1-3.687-1.8,4.611,4.611,0,0,1-.791-1.755,3.11,3.11,0,0,1,.028-1.623,3.634,3.634,0,0,1,.813-1.323,9.884,9.884,0,0,1,1.394-1.152l5.73-4.137,1.132,1.567-5.129,3.705a11.36,11.36,0,0,0-1.586,1.289,2.022,2.022,0,0,0-.518,1.33,2.4,2.4,0,0,0,.5,1.438,3.188,3.188,0,0,0,1.316,1.064,2.488,2.488,0,0,0,1.618.164,6.082,6.082,0,0,0,1.992-1.049l4.955-3.578,1.132,1.568-9.249,6.678Z" fill="#2f836b"/>
            <path id="Tracé_341" data-name="Tracé 341" d="M1417.455,2736.086l13.742-7.756.866,1.533-1.292.73a4.362,4.362,0,0,1,1.83.582,3.876,3.876,0,0,1,1.313,1.444,4.5,4.5,0,0,1,.612,2.614,4.625,4.625,0,0,1-1.018,2.513,7.784,7.784,0,0,1-2.335,1.97,7.619,7.619,0,0,1-3.055,1,4.781,4.781,0,0,1-4.657-2.361,3.644,3.644,0,0,1-.5-1.712,3.983,3.983,0,0,1,.278-1.606l-4.836,2.73Zm9.579-3.4a4.96,4.96,0,0,0-2.4,2.376,2.733,2.733,0,0,0,.145,2.4,2.8,2.8,0,0,0,2.034,1.387,5.178,5.178,0,0,0,3.393-.861,5.039,5.039,0,0,0,2.4-2.386,2.7,2.7,0,0,0-.108-2.4,2.784,2.784,0,0,0-2.08-1.336A5.162,5.162,0,0,0,1427.034,2732.69Z" fill="#2f836b"/>
            <path id="Tracé_342" data-name="Tracé 342" d="M1433.379,2750.01l.557,1.935a4.882,4.882,0,0,1-3.187-.545,5.928,5.928,0,0,1-2.309-6.881,6.019,6.019,0,0,1,3.4-3.044,6.307,6.307,0,0,1,4.693-.39,5.026,5.026,0,0,1,2.971,2.914,4.877,4.877,0,0,1,.033,4.049,6.183,6.183,0,0,1-3.462,3.054q-.159.067-.479.192l-3.337-7.826a4.381,4.381,0,0,0-2.231,2.108,3.167,3.167,0,0,0,.016,2.586,2.968,2.968,0,0,0,1.226,1.45A3.7,3.7,0,0,0,1433.379,2750.01Zm.385-7.066,2.5,5.858a3.853,3.853,0,0,0,1.7-1.517,2.967,2.967,0,0,0,.088-2.643,3.073,3.073,0,0,0-1.7-1.709A3.517,3.517,0,0,0,1433.764,2742.944Z" fill="#2f836b"/>
          </g>
        </g>
      </g>
      <g id="Groupe_198" data-name="Groupe 198">
        <g id="Groupe_195" data-name="Groupe 195">
          <g id="Groupe_194" data-name="Groupe 194">
            <path id="Tracé_343" data-name="Tracé 343" d="M1753.3,2961.681l.887,1.68a1.8,1.8,0,0,0-.636,1.278,3.21,3.21,0,0,0,.728,1.9,3.453,3.453,0,0,0,1.658,1.355,2.641,2.641,0,0,0,1.8-.092,12.253,12.253,0,0,0,2.084-1.353,3.977,3.977,0,0,1-3.071-1.665,4.309,4.309,0,0,1-.783-3.941,6.544,6.544,0,0,1,2.524-3.445,7.577,7.577,0,0,1,2.78-1.305,4.752,4.752,0,0,1,2.733.123,4.633,4.633,0,0,1,2.165,1.682,4.093,4.093,0,0,1,.65,3.652l1.108-.812,1.055,1.439-7.956,5.826a9.36,9.36,0,0,1-3.366,1.794,3.97,3.97,0,0,1-2.434-.348,5.986,5.986,0,0,1-2.23-1.955,5.467,5.467,0,0,1-1.207-3.2A3.105,3.105,0,0,1,1753.3,2961.681Zm6.476-2.758a4.937,4.937,0,0,0-2.116,2.655,2.939,2.939,0,0,0,2.636,3.607,4.772,4.772,0,0,0,3.128-1.173,4.68,4.68,0,0,0,2-2.616,2.872,2.872,0,0,0-.465-2.434,2.793,2.793,0,0,0-2.14-1.15A4.652,4.652,0,0,0,1759.772,2958.923Z" fill="#2f836b"/>
            <path id="Tracé_344" data-name="Tracé 344" d="M1761.1,2971.115l9.772-5.886.9,1.491-1.481.893a4.706,4.706,0,0,1,2.005.226,2.141,2.141,0,0,1,.972.864,3.775,3.775,0,0,1,.492,2.023l-1.881.356a2.744,2.744,0,0,0-.373-1.43,1.836,1.836,0,0,0-.914-.78,2.072,2.072,0,0,0-1.277-.07,7.586,7.586,0,0,0-2.1.887l-5.115,3.083Z" fill="#2f836b"/>
            <path id="Tracé_345" data-name="Tracé 345" d="M1769.527,2973.979a5.884,5.884,0,0,1,4.992-.468,5.312,5.312,0,0,1,2.709,2.674,5.117,5.117,0,0,1,.295,4.131,5.859,5.859,0,0,1-3.18,3.205,7.517,7.517,0,0,1-3.4.92,4.663,4.663,0,0,1-2.6-.872,5.584,5.584,0,0,1-1.832-2.173,5.126,5.126,0,0,1-.311-4.154A6.13,6.13,0,0,1,1769.527,2973.979Zm.869,1.787a4.863,4.863,0,0,0-2.534,2.294,3.185,3.185,0,0,0,2.1,4.318,4.977,4.977,0,0,0,3.423-.6,4.725,4.725,0,0,0,2.465-2.267,3.187,3.187,0,0,0-2.092-4.316A4.839,4.839,0,0,0,1770.4,2975.766Z" fill="#2f836b"/>
            <path id="Tracé_346" data-name="Tracé 346" d="M1772.255,2994.882l1.58-.558a4.172,4.172,0,0,1-3.029-2.769,4.627,4.627,0,0,1-.265-1.906,3.085,3.085,0,0,1,.484-1.549,3.622,3.622,0,0,1,1.152-1.041,9.9,9.9,0,0,1,1.662-.714l6.663-2.356.645,1.823-5.964,2.108a11.443,11.443,0,0,0-1.885.793,2.031,2.031,0,0,0-.872,1.129,2.4,2.4,0,0,0,.078,1.523,3.177,3.177,0,0,0,.964,1.39,2.483,2.483,0,0,0,1.506.614,6.134,6.134,0,0,0,2.207-.446l5.762-2.037.644,1.823-10.754,3.8Z" fill="#2f836b"/>
            <path id="Tracé_347" data-name="Tracé 347" d="M1769.314,3000.013l15.37-3.574.4,1.716-1.445.337a4.352,4.352,0,0,1,1.591,1.074,3.856,3.856,0,0,1,.854,1.754,4.517,4.517,0,0,1-.149,2.681,4.627,4.627,0,0,1-1.684,2.124,7.756,7.756,0,0,1-2.795,1.234,7.622,7.622,0,0,1-3.214.1,4.778,4.778,0,0,1-3.8-3.576,3.622,3.622,0,0,1,.005-1.781,3.954,3.954,0,0,1,.719-1.465l-5.411,1.259Zm10.148-.561a4.954,4.954,0,0,0-2.968,1.6,2.726,2.726,0,0,0-.535,2.341,2.788,2.788,0,0,0,1.56,1.9,5.163,5.163,0,0,0,3.5.13,5.041,5.041,0,0,0,2.978-1.613,2.708,2.708,0,0,0,.572-2.333,2.788,2.788,0,0,0-1.621-1.868A5.159,5.159,0,0,0,1779.462,2999.452Z" fill="#2f836b"/>
            <path id="Tracé_348" data-name="Tracé 348" d="M1780.675,3017.857l-.011,2.014a4.889,4.889,0,0,1-2.9-1.42,5.274,5.274,0,0,1-1.343-3.13,5.22,5.22,0,0,1,1.065-4.123,6.027,6.027,0,0,1,4.121-1.964,6.306,6.306,0,0,1,4.612.947,5.025,5.025,0,0,1,2.031,3.633,4.883,4.883,0,0,1-1.109,3.9,6.187,6.187,0,0,1-4.181,1.955c-.115.012-.286.03-.514.049l-1-8.449a4.385,4.385,0,0,0-2.734,1.4,3.162,3.162,0,0,0-.713,2.485,2.959,2.959,0,0,0,.769,1.737A3.7,3.7,0,0,0,1780.675,3017.857Zm2.36-6.672.747,6.326a3.854,3.854,0,0,0,2.058-.978,2.962,2.962,0,0,0,.827-2.511,3.068,3.068,0,0,0-1.148-2.12A3.526,3.526,0,0,0,1783.035,3011.185Z" fill="#2f836b"/>
          </g>
        </g>
        <g id="Groupe_197" data-name="Groupe 197">
          <g id="Groupe_196" data-name="Groupe 196">
            <path id="Tracé_349" data-name="Tracé 349" d="M1753.3,2961.681l.887,1.68a1.8,1.8,0,0,0-.636,1.278,3.21,3.21,0,0,0,.728,1.9,3.453,3.453,0,0,0,1.658,1.355,2.641,2.641,0,0,0,1.8-.092,12.253,12.253,0,0,0,2.084-1.353,3.977,3.977,0,0,1-3.071-1.665,4.309,4.309,0,0,1-.783-3.941,6.544,6.544,0,0,1,2.524-3.445,7.577,7.577,0,0,1,2.78-1.305,4.752,4.752,0,0,1,2.733.123,4.633,4.633,0,0,1,2.165,1.682,4.093,4.093,0,0,1,.65,3.652l1.108-.812,1.055,1.439-7.956,5.826a9.36,9.36,0,0,1-3.366,1.794,3.97,3.97,0,0,1-2.434-.348,5.986,5.986,0,0,1-2.23-1.955,5.467,5.467,0,0,1-1.207-3.2A3.105,3.105,0,0,1,1753.3,2961.681Zm6.476-2.758a4.937,4.937,0,0,0-2.116,2.655,2.939,2.939,0,0,0,2.636,3.607,4.772,4.772,0,0,0,3.128-1.173,4.68,4.68,0,0,0,2-2.616,2.872,2.872,0,0,0-.465-2.434,2.793,2.793,0,0,0-2.14-1.15A4.652,4.652,0,0,0,1759.772,2958.923Z" fill="#2f836b"/>
            <path id="Tracé_350" data-name="Tracé 350" d="M1761.1,2971.115l9.772-5.886.9,1.491-1.481.893a4.706,4.706,0,0,1,2.005.226,2.141,2.141,0,0,1,.972.864,3.775,3.775,0,0,1,.492,2.023l-1.881.356a2.744,2.744,0,0,0-.373-1.43,1.836,1.836,0,0,0-.914-.78,2.072,2.072,0,0,0-1.277-.07,7.586,7.586,0,0,0-2.1.887l-5.115,3.083Z" fill="#2f836b"/>
            <path id="Tracé_351" data-name="Tracé 351" d="M1769.527,2973.979a5.884,5.884,0,0,1,4.992-.468,5.312,5.312,0,0,1,2.709,2.674,5.117,5.117,0,0,1,.295,4.131,5.859,5.859,0,0,1-3.18,3.205,7.517,7.517,0,0,1-3.4.92,4.663,4.663,0,0,1-2.6-.872,5.584,5.584,0,0,1-1.832-2.173,5.126,5.126,0,0,1-.311-4.154A6.13,6.13,0,0,1,1769.527,2973.979Zm.869,1.787a4.863,4.863,0,0,0-2.534,2.294,3.185,3.185,0,0,0,2.1,4.318,4.977,4.977,0,0,0,3.423-.6,4.725,4.725,0,0,0,2.465-2.267,3.187,3.187,0,0,0-2.092-4.316A4.839,4.839,0,0,0,1770.4,2975.766Z" fill="#2f836b"/>
            <path id="Tracé_352" data-name="Tracé 352" d="M1772.255,2994.882l1.58-.558a4.172,4.172,0,0,1-3.029-2.769,4.627,4.627,0,0,1-.265-1.906,3.085,3.085,0,0,1,.484-1.549,3.622,3.622,0,0,1,1.152-1.041,9.9,9.9,0,0,1,1.662-.714l6.663-2.356.645,1.823-5.964,2.108a11.443,11.443,0,0,0-1.885.793,2.031,2.031,0,0,0-.872,1.129,2.4,2.4,0,0,0,.078,1.523,3.177,3.177,0,0,0,.964,1.39,2.483,2.483,0,0,0,1.506.614,6.134,6.134,0,0,0,2.207-.446l5.762-2.037.644,1.823-10.754,3.8Z" fill="#2f836b"/>
            <path id="Tracé_353" data-name="Tracé 353" d="M1769.314,3000.013l15.37-3.574.4,1.716-1.445.337a4.352,4.352,0,0,1,1.591,1.074,3.856,3.856,0,0,1,.854,1.754,4.517,4.517,0,0,1-.149,2.681,4.627,4.627,0,0,1-1.684,2.124,7.756,7.756,0,0,1-2.795,1.234,7.622,7.622,0,0,1-3.214.1,4.778,4.778,0,0,1-3.8-3.576,3.622,3.622,0,0,1,.005-1.781,3.954,3.954,0,0,1,.719-1.465l-5.411,1.259Zm10.148-.561a4.954,4.954,0,0,0-2.968,1.6,2.726,2.726,0,0,0-.535,2.341,2.788,2.788,0,0,0,1.56,1.9,5.163,5.163,0,0,0,3.5.13,5.041,5.041,0,0,0,2.978-1.613,2.708,2.708,0,0,0,.572-2.333,2.788,2.788,0,0,0-1.621-1.868A5.159,5.159,0,0,0,1779.462,2999.452Z" fill="#2f836b"/>
            <path id="Tracé_354" data-name="Tracé 354" d="M1780.675,3017.857l-.011,2.014a4.889,4.889,0,0,1-2.9-1.42,5.274,5.274,0,0,1-1.343-3.13,5.22,5.22,0,0,1,1.065-4.123,6.027,6.027,0,0,1,4.121-1.964,6.306,6.306,0,0,1,4.612.947,5.025,5.025,0,0,1,2.031,3.633,4.883,4.883,0,0,1-1.109,3.9,6.187,6.187,0,0,1-4.181,1.955c-.115.012-.286.03-.514.049l-1-8.449a4.385,4.385,0,0,0-2.734,1.4,3.162,3.162,0,0,0-.713,2.485,2.959,2.959,0,0,0,.769,1.737A3.7,3.7,0,0,0,1780.675,3017.857Zm2.36-6.672.747,6.326a3.854,3.854,0,0,0,2.058-.978,2.962,2.962,0,0,0,.827-2.511,3.068,3.068,0,0,0-1.148-2.12A3.526,3.526,0,0,0,1783.035,3011.185Z" fill="#2f836b"/>
          </g>
        </g>
      </g>
      <g id="Groupe_203" data-name="Groupe 203">
        <g id="Groupe_200" data-name="Groupe 200">
          <g id="Groupe_199" data-name="Groupe 199">
            <path id="Tracé_355" data-name="Tracé 355" d="M1464.048,3022.766l1.755.728a1.791,1.791,0,0,0,.328,1.388,3.207,3.207,0,0,0,1.776,1,3.455,3.455,0,0,0,2.141-.016,2.644,2.644,0,0,0,1.325-1.219,12.349,12.349,0,0,0,.739-2.373,3.977,3.977,0,0,1-3.427.681,4.307,4.307,0,0,1-3.12-2.532,6.537,6.537,0,0,1-.26-4.262,7.585,7.585,0,0,1,1.306-2.78,4.726,4.726,0,0,1,2.181-1.651,4.623,4.623,0,0,1,2.74-.089,4.092,4.092,0,0,1,2.833,2.394l.335-1.333,1.73.433-2.4,9.566a9.353,9.353,0,0,1-1.445,3.53,3.967,3.967,0,0,1-2.094,1.286,5.968,5.968,0,0,1-2.965-.079,5.463,5.463,0,0,1-2.975-1.692A3.108,3.108,0,0,1,1464.048,3022.766Zm3.219-6.259a4.946,4.946,0,0,0,.068,3.4,2.94,2.94,0,0,0,4.333,1.092,4.788,4.788,0,0,0,1.658-2.9,4.672,4.672,0,0,0-.134-3.289,2.874,2.874,0,0,0-1.913-1.576,2.792,2.792,0,0,0-2.381.483A4.65,4.65,0,0,0,1467.267,3016.507Z" fill="#2f836b"/>
            <path id="Tracé_356" data-name="Tracé 356" d="M1476.08,3025.039l3.757-10.772,1.643.572-.569,1.634a4.7,4.7,0,0,1,1.688-1.106,2.143,2.143,0,0,1,1.3.043,3.778,3.778,0,0,1,1.671,1.243l-1.219,1.474a2.77,2.77,0,0,0-1.2-.862,1.846,1.846,0,0,0-1.2-.015,2.062,2.062,0,0,0-1.028.762,7.533,7.533,0,0,0-1.047,2.024l-1.967,5.639Z" fill="#2f836b"/>
            <path id="Tracé_357" data-name="Tracé 357" d="M1484.392,3021.858a5.881,5.881,0,0,1,3.542-3.549,5.313,5.313,0,0,1,3.791.326,5.125,5.125,0,0,1,2.867,2.992,5.872,5.872,0,0,1-.4,4.5,7.534,7.534,0,0,1-2.032,2.882,4.676,4.676,0,0,1-2.56.993,5.594,5.594,0,0,1-2.8-.5,5.133,5.133,0,0,1-2.894-3A6.141,6.141,0,0,1,1484.392,3021.858Zm1.81.82a4.863,4.863,0,0,0-.484,3.384,3.184,3.184,0,0,0,4.376,1.977,4.975,4.975,0,0,0,2.25-2.649,4.717,4.717,0,0,0,.448-3.317,3.189,3.189,0,0,0-4.367-1.985A4.843,4.843,0,0,0,1486.2,3022.678Z" fill="#2f836b"/>
            <path id="Tracé_358" data-name="Tracé 358" d="M1499.846,3036.2l.858-1.44a4.176,4.176,0,0,1-4.1-.193,4.607,4.607,0,0,1-1.421-1.3,3.1,3.1,0,0,1-.618-1.5,3.636,3.636,0,0,1,.222-1.537,9.867,9.867,0,0,1,.823-1.61l3.62-6.071,1.661.991-3.241,5.433a11.245,11.245,0,0,0-.943,1.814,2.02,2.02,0,0,0,.05,1.425,2.4,2.4,0,0,0,1.033,1.122,3.188,3.188,0,0,0,1.63.454,2.478,2.478,0,0,0,1.549-.491,6.072,6.072,0,0,0,1.414-1.752l3.131-5.249,1.66.991-5.843,9.8Z" fill="#2f836b"/>
            <path id="Tracé_359" data-name="Tracé 359" d="M1500.86,3042.024l9.541-12.569,1.4,1.064-.9,1.182a4.344,4.344,0,0,1,1.91-.19,3.865,3.865,0,0,1,1.778.8,4.51,4.51,0,0,1,1.6,2.157,4.615,4.615,0,0,1,.06,2.71,7.766,7.766,0,0,1-1.361,2.736,7.646,7.646,0,0,1-2.407,2.131,4.78,4.78,0,0,1-5.212-.321,3.646,3.646,0,0,1-1.135-1.374,3.968,3.968,0,0,1-.382-1.585l-3.358,4.424Zm7.448-6.916a4.961,4.961,0,0,0-1.258,3.132,2.735,2.735,0,0,0,1.084,2.143,2.8,2.8,0,0,0,2.417.467,5.177,5.177,0,0,0,2.775-2.136,5.033,5.033,0,0,0,1.259-3.143,2.7,2.7,0,0,0-1.05-2.16,2.79,2.79,0,0,0-2.44-.4A5.178,5.178,0,0,0,1508.308,3035.108Z" fill="#2f836b"/>
            <path id="Tracé_360" data-name="Tracé 360" d="M1521,3048.493l1.278,1.555a4.875,4.875,0,0,1-3.141.764,5.932,5.932,0,0,1-4.848-5.4,6.024,6.024,0,0,1,1.916-4.144,6.3,6.3,0,0,1,4.153-2.218,5.02,5.02,0,0,1,3.883,1.5,4.877,4.877,0,0,1,1.636,3.706,6.184,6.184,0,0,1-1.968,4.175q-.119.125-.363.366l-6.167-5.862a4.388,4.388,0,0,0-1.212,2.82,3.168,3.168,0,0,0,1.04,2.367,2.957,2.957,0,0,0,1.7.845A3.693,3.693,0,0,0,1521,3048.493Zm-2.447-6.64,4.616,4.389a3.855,3.855,0,0,0,.959-2.068,2.966,2.966,0,0,0-.967-2.461,3.074,3.074,0,0,0-2.237-.9A3.527,3.527,0,0,0,1518.553,3041.853Z" fill="#2f836b"/>
          </g>
        </g>
        <g id="Groupe_202" data-name="Groupe 202">
          <g id="Groupe_201" data-name="Groupe 201">
            <path id="Tracé_361" data-name="Tracé 361" d="M1464.048,3022.766l1.755.728a1.791,1.791,0,0,0,.328,1.388,3.207,3.207,0,0,0,1.776,1,3.455,3.455,0,0,0,2.141-.016,2.644,2.644,0,0,0,1.325-1.219,12.349,12.349,0,0,0,.739-2.373,3.977,3.977,0,0,1-3.427.681,4.307,4.307,0,0,1-3.12-2.532,6.537,6.537,0,0,1-.26-4.262,7.585,7.585,0,0,1,1.306-2.78,4.726,4.726,0,0,1,2.181-1.651,4.623,4.623,0,0,1,2.74-.089,4.092,4.092,0,0,1,2.833,2.394l.335-1.333,1.73.433-2.4,9.566a9.353,9.353,0,0,1-1.445,3.53,3.967,3.967,0,0,1-2.094,1.286,5.968,5.968,0,0,1-2.965-.079,5.463,5.463,0,0,1-2.975-1.692A3.108,3.108,0,0,1,1464.048,3022.766Zm3.219-6.259a4.946,4.946,0,0,0,.068,3.4,2.94,2.94,0,0,0,4.333,1.092,4.788,4.788,0,0,0,1.658-2.9,4.672,4.672,0,0,0-.134-3.289,2.874,2.874,0,0,0-1.913-1.576,2.792,2.792,0,0,0-2.381.483A4.65,4.65,0,0,0,1467.267,3016.507Z" fill="#2f836b"/>
            <path id="Tracé_362" data-name="Tracé 362" d="M1476.08,3025.039l3.757-10.772,1.643.572-.569,1.634a4.7,4.7,0,0,1,1.688-1.106,2.143,2.143,0,0,1,1.3.043,3.778,3.778,0,0,1,1.671,1.243l-1.219,1.474a2.77,2.77,0,0,0-1.2-.862,1.846,1.846,0,0,0-1.2-.015,2.062,2.062,0,0,0-1.028.762,7.533,7.533,0,0,0-1.047,2.024l-1.967,5.639Z" fill="#2f836b"/>
            <path id="Tracé_363" data-name="Tracé 363" d="M1484.392,3021.858a5.881,5.881,0,0,1,3.542-3.549,5.313,5.313,0,0,1,3.791.326,5.125,5.125,0,0,1,2.867,2.992,5.872,5.872,0,0,1-.4,4.5,7.534,7.534,0,0,1-2.032,2.882,4.676,4.676,0,0,1-2.56.993,5.594,5.594,0,0,1-2.8-.5,5.133,5.133,0,0,1-2.894-3A6.141,6.141,0,0,1,1484.392,3021.858Zm1.81.82a4.863,4.863,0,0,0-.484,3.384,3.184,3.184,0,0,0,4.376,1.977,4.975,4.975,0,0,0,2.25-2.649,4.717,4.717,0,0,0,.448-3.317,3.189,3.189,0,0,0-4.367-1.985A4.843,4.843,0,0,0,1486.2,3022.678Z" fill="#2f836b"/>
            <path id="Tracé_364" data-name="Tracé 364" d="M1499.846,3036.2l.858-1.44a4.176,4.176,0,0,1-4.1-.193,4.607,4.607,0,0,1-1.421-1.3,3.1,3.1,0,0,1-.618-1.5,3.636,3.636,0,0,1,.222-1.537,9.867,9.867,0,0,1,.823-1.61l3.62-6.071,1.661.991-3.241,5.433a11.245,11.245,0,0,0-.943,1.814,2.02,2.02,0,0,0,.05,1.425,2.4,2.4,0,0,0,1.033,1.122,3.188,3.188,0,0,0,1.63.454,2.478,2.478,0,0,0,1.549-.491,6.072,6.072,0,0,0,1.414-1.752l3.131-5.249,1.66.991-5.843,9.8Z" fill="#2f836b"/>
            <path id="Tracé_365" data-name="Tracé 365" d="M1500.86,3042.024l9.541-12.569,1.4,1.064-.9,1.182a4.344,4.344,0,0,1,1.91-.19,3.865,3.865,0,0,1,1.778.8,4.51,4.51,0,0,1,1.6,2.157,4.615,4.615,0,0,1,.06,2.71,7.766,7.766,0,0,1-1.361,2.736,7.646,7.646,0,0,1-2.407,2.131,4.78,4.78,0,0,1-5.212-.321,3.646,3.646,0,0,1-1.135-1.374,3.968,3.968,0,0,1-.382-1.585l-3.358,4.424Zm7.448-6.916a4.961,4.961,0,0,0-1.258,3.132,2.735,2.735,0,0,0,1.084,2.143,2.8,2.8,0,0,0,2.417.467,5.177,5.177,0,0,0,2.775-2.136,5.033,5.033,0,0,0,1.259-3.143,2.7,2.7,0,0,0-1.05-2.16,2.79,2.79,0,0,0-2.44-.4A5.178,5.178,0,0,0,1508.308,3035.108Z" fill="#2f836b"/>
            <path id="Tracé_366" data-name="Tracé 366" d="M1521,3048.493l1.278,1.555a4.875,4.875,0,0,1-3.141.764,5.932,5.932,0,0,1-4.848-5.4,6.024,6.024,0,0,1,1.916-4.144,6.3,6.3,0,0,1,4.153-2.218,5.02,5.02,0,0,1,3.883,1.5,4.877,4.877,0,0,1,1.636,3.706,6.184,6.184,0,0,1-1.968,4.175q-.119.125-.363.366l-6.167-5.862a4.388,4.388,0,0,0-1.212,2.82,3.168,3.168,0,0,0,1.04,2.367,2.957,2.957,0,0,0,1.7.845A3.693,3.693,0,0,0,1521,3048.493Zm-2.447-6.64,4.616,4.389a3.855,3.855,0,0,0,.959-2.068,2.966,2.966,0,0,0-.967-2.461,3.074,3.074,0,0,0-2.237-.9A3.527,3.527,0,0,0,1518.553,3041.853Z" fill="#2f836b"/>
          </g>
        </g>
      </g>
      <g id="Groupe_208" data-name="Groupe 208">
        <g id="Groupe_205" data-name="Groupe 205">
          <g id="Groupe_204" data-name="Groupe 204">
            <path id="Tracé_367" data-name="Tracé 367" d="M1154.615,2980.142l.6-1.8a1.793,1.793,0,0,0,1.361-.427,3.217,3.217,0,0,0,.868-1.844,3.446,3.446,0,0,0-.172-2.135,2.645,2.645,0,0,0-1.311-1.232,12.35,12.35,0,0,0-2.42-.565,3.971,3.971,0,0,1,.926,3.367,4.3,4.3,0,0,1-2.3,3.3,6.543,6.543,0,0,1-4.232.57,7.6,7.6,0,0,1-2.867-1.1,4.721,4.721,0,0,1-1.805-2.056,4.629,4.629,0,0,1-.288-2.726,4.094,4.094,0,0,1,2.182-3l-1.355-.237.308-1.757,9.714,1.7a9.366,9.366,0,0,1,3.627,1.184,3.973,3.973,0,0,1,1.433,2,5.951,5.951,0,0,1,.137,2.963,5.469,5.469,0,0,1-1.472,3.09A3.107,3.107,0,0,1,1154.615,2980.142Zm-6.476-2.756a4.942,4.942,0,0,0,3.381-.314,2.941,2.941,0,0,0,.774-4.4,4.792,4.792,0,0,0-3.013-1.442,4.679,4.679,0,0,0-3.271.372,2.872,2.872,0,0,0-1.433,2.023,2.787,2.787,0,0,0,.654,2.339A4.647,4.647,0,0,0,1148.139,2977.386Z" fill="#2f836b"/>
            <path id="Tracé_368" data-name="Tracé 368" d="M1156.008,2967.978l-11.015-2.966.45-1.68,1.672.45a4.73,4.73,0,0,1-1.227-1.6,2.142,2.142,0,0,1-.051-1.3,3.768,3.768,0,0,1,1.12-1.757l1.558,1.11a2.767,2.767,0,0,0-.773,1.26,1.836,1.836,0,0,0,.072,1.2,2.066,2.066,0,0,0,.835.97,7.549,7.549,0,0,0,2.094.9l5.767,1.553Z" fill="#2f836b"/>
            <path id="Tracé_369" data-name="Tracé 369" d="M1152.232,2959.918a5.882,5.882,0,0,1-3.8-3.274,5.317,5.317,0,0,1,.05-3.8,5.125,5.125,0,0,1,2.775-3.077,5.873,5.873,0,0,1,4.514.071,7.52,7.52,0,0,1,3.021,1.817,4.651,4.651,0,0,1,1.176,2.481,5.589,5.589,0,0,1-.3,2.828,5.124,5.124,0,0,1-2.779,3.1A6.134,6.134,0,0,1,1152.232,2959.918Zm.687-1.864a4.861,4.861,0,0,0,3.411.237,3.184,3.184,0,0,0,1.654-4.508,4.975,4.975,0,0,0-2.805-2.052,4.714,4.714,0,0,0-3.342-.205,3.189,3.189,0,0,0-1.663,4.5A4.848,4.848,0,0,0,1152.919,2958.054Z" fill="#2f836b"/>
            <path id="Tracé_370" data-name="Tracé 370" d="M1165.412,2943.465l-1.5-.752a4.178,4.178,0,0,1,.1,4.1,4.609,4.609,0,0,1-1.19,1.512,3.118,3.118,0,0,1-1.453.726,3.644,3.644,0,0,1-1.549-.11,10.023,10.023,0,0,1-1.666-.7l-6.317-3.17.867-1.729,5.655,2.838a11.272,11.272,0,0,0,1.877.81,2.026,2.026,0,0,0,1.418-.154,2.4,2.4,0,0,0,1.043-1.111,3.179,3.179,0,0,0,.335-1.659,2.486,2.486,0,0,0-.6-1.51,6.092,6.092,0,0,0-1.851-1.282l-5.462-2.742.868-1.728,10.2,5.116Z" fill="#2f836b"/>
            <path id="Tracé_371" data-name="Tracé 371" d="M1171.15,2942.03l-13.229-8.6.959-1.476,1.245.807a4.337,4.337,0,0,1-.329-1.89,3.86,3.86,0,0,1,.673-1.831,4.511,4.511,0,0,1,2.035-1.752,4.62,4.62,0,0,1,2.7-.257,7.762,7.762,0,0,1,2.827,1.16,7.66,7.66,0,0,1,2.3,2.245,4.788,4.788,0,0,1,.057,5.221,3.633,3.633,0,0,1-1.288,1.232,3.937,3.937,0,0,1-1.553.5l4.657,3.028Zm-7.439-6.926a4.955,4.955,0,0,0,3.215,1.027,2.733,2.733,0,0,0,2.059-1.237,2.793,2.793,0,0,0,.291-2.444,5.181,5.181,0,0,0-2.332-2.613,5.047,5.047,0,0,0-3.227-1.028,2.707,2.707,0,0,0-2.078,1.2,2.791,2.791,0,0,0-.224,2.462A5.174,5.174,0,0,0,1163.711,2935.1Z" fill="#2f836b"/>
            <path id="Tracé_372" data-name="Tracé 372" d="M1176.139,2921.474l1.459-1.388a4.866,4.866,0,0,1,.989,3.079,5.929,5.929,0,0,1-5.034,5.226,6.018,6.018,0,0,1-4.272-1.61,6.3,6.3,0,0,1-2.513-3.981,5.02,5.02,0,0,1,1.211-3.981,4.872,4.872,0,0,1,3.576-1.9,6.186,6.186,0,0,1,4.309,1.66c.088.073.219.185.391.336l-5.4,6.575a4.384,4.384,0,0,0,2.9,1,3.171,3.171,0,0,0,2.286-1.209,2.957,2.957,0,0,0,.72-1.758A3.7,3.7,0,0,0,1176.139,2921.474Zm-6.444,2.923,4.043-4.923a3.868,3.868,0,0,0-2.133-.806,2.963,2.963,0,0,0-2.384,1.143,3.074,3.074,0,0,0-.731,2.3A3.521,3.521,0,0,0,1169.695,2924.4Z" fill="#2f836b"/>
          </g>
        </g>
        <g id="Groupe_207" data-name="Groupe 207">
          <g id="Groupe_206" data-name="Groupe 206">
            <path id="Tracé_373" data-name="Tracé 373" d="M1154.615,2980.142l.6-1.8a1.793,1.793,0,0,0,1.361-.427,3.217,3.217,0,0,0,.868-1.844,3.446,3.446,0,0,0-.172-2.135,2.645,2.645,0,0,0-1.311-1.232,12.35,12.35,0,0,0-2.42-.565,3.971,3.971,0,0,1,.926,3.367,4.3,4.3,0,0,1-2.3,3.3,6.543,6.543,0,0,1-4.232.57,7.6,7.6,0,0,1-2.867-1.1,4.721,4.721,0,0,1-1.805-2.056,4.629,4.629,0,0,1-.288-2.726,4.094,4.094,0,0,1,2.182-3l-1.355-.237.308-1.757,9.714,1.7a9.366,9.366,0,0,1,3.627,1.184,3.973,3.973,0,0,1,1.433,2,5.951,5.951,0,0,1,.137,2.963,5.469,5.469,0,0,1-1.472,3.09A3.107,3.107,0,0,1,1154.615,2980.142Zm-6.476-2.756a4.942,4.942,0,0,0,3.381-.314,2.941,2.941,0,0,0,.774-4.4,4.792,4.792,0,0,0-3.013-1.442,4.679,4.679,0,0,0-3.271.372,2.872,2.872,0,0,0-1.433,2.023,2.787,2.787,0,0,0,.654,2.339A4.647,4.647,0,0,0,1148.139,2977.386Z" fill="#2f836b"/>
            <path id="Tracé_374" data-name="Tracé 374" d="M1156.008,2967.978l-11.015-2.966.45-1.68,1.672.45a4.73,4.73,0,0,1-1.227-1.6,2.142,2.142,0,0,1-.051-1.3,3.768,3.768,0,0,1,1.12-1.757l1.558,1.11a2.767,2.767,0,0,0-.773,1.26,1.836,1.836,0,0,0,.072,1.2,2.066,2.066,0,0,0,.835.97,7.549,7.549,0,0,0,2.094.9l5.767,1.553Z" fill="#2f836b"/>
            <path id="Tracé_375" data-name="Tracé 375" d="M1152.232,2959.918a5.882,5.882,0,0,1-3.8-3.274,5.317,5.317,0,0,1,.05-3.8,5.125,5.125,0,0,1,2.775-3.077,5.873,5.873,0,0,1,4.514.071,7.52,7.52,0,0,1,3.021,1.817,4.651,4.651,0,0,1,1.176,2.481,5.589,5.589,0,0,1-.3,2.828,5.124,5.124,0,0,1-2.779,3.1A6.134,6.134,0,0,1,1152.232,2959.918Zm.687-1.864a4.861,4.861,0,0,0,3.411.237,3.184,3.184,0,0,0,1.654-4.508,4.975,4.975,0,0,0-2.805-2.052,4.714,4.714,0,0,0-3.342-.205,3.189,3.189,0,0,0-1.663,4.5A4.848,4.848,0,0,0,1152.919,2958.054Z" fill="#2f836b"/>
            <path id="Tracé_376" data-name="Tracé 376" d="M1165.412,2943.465l-1.5-.752a4.178,4.178,0,0,1,.1,4.1,4.609,4.609,0,0,1-1.19,1.512,3.118,3.118,0,0,1-1.453.726,3.644,3.644,0,0,1-1.549-.11,10.023,10.023,0,0,1-1.666-.7l-6.317-3.17.867-1.729,5.655,2.838a11.272,11.272,0,0,0,1.877.81,2.026,2.026,0,0,0,1.418-.154,2.4,2.4,0,0,0,1.043-1.111,3.179,3.179,0,0,0,.335-1.659,2.486,2.486,0,0,0-.6-1.51,6.092,6.092,0,0,0-1.851-1.282l-5.462-2.742.868-1.728,10.2,5.116Z" fill="#2f836b"/>
            <path id="Tracé_377" data-name="Tracé 377" d="M1171.15,2942.03l-13.229-8.6.959-1.476,1.245.807a4.337,4.337,0,0,1-.329-1.89,3.86,3.86,0,0,1,.673-1.831,4.511,4.511,0,0,1,2.035-1.752,4.62,4.62,0,0,1,2.7-.257,7.762,7.762,0,0,1,2.827,1.16,7.66,7.66,0,0,1,2.3,2.245,4.788,4.788,0,0,1,.057,5.221,3.633,3.633,0,0,1-1.288,1.232,3.937,3.937,0,0,1-1.553.5l4.657,3.028Zm-7.439-6.926a4.955,4.955,0,0,0,3.215,1.027,2.733,2.733,0,0,0,2.059-1.237,2.793,2.793,0,0,0,.291-2.444,5.181,5.181,0,0,0-2.332-2.613,5.047,5.047,0,0,0-3.227-1.028,2.707,2.707,0,0,0-2.078,1.2,2.791,2.791,0,0,0-.224,2.462A5.174,5.174,0,0,0,1163.711,2935.1Z" fill="#2f836b"/>
            <path id="Tracé_378" data-name="Tracé 378" d="M1176.139,2921.474l1.459-1.388a4.866,4.866,0,0,1,.989,3.079,5.929,5.929,0,0,1-5.034,5.226,6.018,6.018,0,0,1-4.272-1.61,6.3,6.3,0,0,1-2.513-3.981,5.02,5.02,0,0,1,1.211-3.981,4.872,4.872,0,0,1,3.576-1.9,6.186,6.186,0,0,1,4.309,1.66c.088.073.219.185.391.336l-5.4,6.575a4.384,4.384,0,0,0,2.9,1,3.171,3.171,0,0,0,2.286-1.209,2.957,2.957,0,0,0,.72-1.758A3.7,3.7,0,0,0,1176.139,2921.474Zm-6.444,2.923,4.043-4.923a3.868,3.868,0,0,0-2.133-.806,2.963,2.963,0,0,0-2.384,1.143,3.074,3.074,0,0,0-.731,2.3A3.521,3.521,0,0,0,1169.695,2924.4Z" fill="#2f836b"/>
          </g>
        </g>
      </g>
      <text id="Individus_hétérogènes_et_complémentaires" data-name="Individus hétérogènes et complémentaires" transform="translate(1020.375 2707.461)" fill="#303030" font-size="12.949" font-family="Hind-Medium, Hind" font-weight="500"><tspan x="0" y="14">Individus hétérogènes et </tspan><tspan x="0" y="29.539">complémentaires</tspan></text>
      <text id="Représentants" transform="translate(1020.375 2759.436)" fill="#303030" font-size="12.949" font-family="Hind-Medium, Hind" font-weight="500"><tspan x="0" y="14">Représentants</tspan></text>
      <text id="Réseau_inter-individuel_où_les_interactions_concernent_les_individus" data-name="Réseau inter-individuel où les interactions concernent les individus" transform="translate(1020.375 2793.398)" fill="#303030" font-size="12.949" font-family="Hind-Medium, Hind" font-weight="500"><tspan x="0" y="14">Réseau inter-individuel </tspan><tspan x="0" y="29.539">où les interactions </tspan><tspan x="0" y="45.079">concernent les individus</tspan></text>
      <g id="Groupe_215" data-name="Groupe 215">
        <g id="Groupe_211" data-name="Groupe 211">
          <g id="Groupe_210" data-name="Groupe 210">
            <g id="Groupe_209" data-name="Groupe 209">
              <path id="Tracé_379" data-name="Tracé 379" d="M1013.133,2734.815c.062,1.278-.477,1.833-1.74,1.833h-16.37c-1.278,0-1.787-.539-1.771-1.818a9.947,9.947,0,0,1,19.589-2.017A10.949,10.949,0,0,1,1013.133,2734.815Z" fill="#303030"/>
              <path id="Tracé_380" data-name="Tracé 380" d="M1003.185,2711.052a5.675,5.675,0,1,1-5.652,5.637A5.7,5.7,0,0,1,1003.185,2711.052Z" fill="#303030"/>
            </g>
          </g>
        </g>
        <g id="Groupe_214" data-name="Groupe 214">
          <g id="Groupe_213" data-name="Groupe 213">
            <g id="Groupe_212" data-name="Groupe 212">
              <path id="Tracé_381" data-name="Tracé 381" d="M1013.133,2734.815c.062,1.278-.477,1.833-1.74,1.833h-16.37c-1.278,0-1.787-.539-1.771-1.818a9.947,9.947,0,0,1,19.589-2.017A10.949,10.949,0,0,1,1013.133,2734.815Z" fill="#303030"/>
              <path id="Tracé_382" data-name="Tracé 382" d="M1003.185,2711.052a5.675,5.675,0,1,1-5.652,5.637A5.7,5.7,0,0,1,1003.185,2711.052Z" fill="#303030"/>
            </g>
          </g>
        </g>
      </g>
      <path id="Tracé_383" data-name="Tracé 383" d="M1011.743,2768.577a8.535,8.535,0,1,1-8.535-8.535A8.534,8.534,0,0,1,1011.743,2768.577Z" fill="#ff6800"/>
      <path id="Tracé_384" data-name="Tracé 384" d="M1011.743,2812.88a8.535,8.535,0,1,1-8.535-8.534A8.535,8.535,0,0,1,1011.743,2812.88Z" fill="#2f836b"/>
      <text id="Action_collective_au_sein_de_la_classe_dans_laquelle_les_interactions_concernent_les_groupes_" data-name="Action collective au sein de la classe dans laquelle les interactions concernent les groupes " transform="translate(1020.375 2850.329)" fill="#303030" font-size="12.949" font-family="Hind-Medium, Hind" font-weight="500"><tspan x="0" y="14">Action collective au sein </tspan><tspan x="0" y="29.539">de la classe dans </tspan><tspan x="0" y="45.079">laquelle les interactions </tspan><tspan x="0" y="60.618">concernent les groupes </tspan></text>
      <path id="Tracé_385" data-name="Tracé 385" d="M1011.743,2869.811a8.535,8.535,0,1,1-8.535-8.535A8.535,8.535,0,0,1,1011.743,2869.811Z" fill="#b9a3e3"/>
      <text id="Action_collective" data-name="Action collective" transform="translate(1358.66 2948.578)" fill="#fff" font-size="20" font-family="ArialMT, Arial"><tspan x="15.704" y="18">Action collective</tspan></text>
      <g id="Groupe_216" data-name="Groupe 216">
        <circle id="Ellipse_66" data-name="Ellipse 66" cx="98" cy="98" r="98" transform="translate(1160.729 2895.296)" fill="none" stroke="#2f836b" stroke-miterlimit="10" stroke-width="3"/>
        <line id="Ligne_69" data-name="Ligne 69" y1="62.365" x2="61.769" transform="translate(1206.519 2948.863)" fill="none" stroke="#303030" stroke-miterlimit="10" stroke-width="2"/>
        <line id="Ligne_70" data-name="Ligne 70" x2="29.696" y2="91.22" transform="translate(1268.289 2946.969)" fill="none" stroke="#303030" stroke-miterlimit="10" stroke-width="2"/>
        <line id="Ligne_71" data-name="Ligne 71" x1="91.466" y1="26.96" transform="translate(1206.519 3011.229)" fill="none" stroke="#303030" stroke-miterlimit="10" stroke-width="2"/>
        <path id="Tracé_386" data-name="Tracé 386" d="M1233.478,3009.445a26.959,26.959,0,1,1-26.959-26.96A26.959,26.959,0,0,1,1233.478,3009.445Z" fill="#303030"/>
        <text id="individu" transform="translate(1179.57 3003.181)" fill="#fff" font-size="11.537" font-family="Hind-Bold, Hind" font-weight="700"><tspan x="5.341" y="12">individu</tspan></text>
        <path id="Tracé_387" data-name="Tracé 387" d="M1295.248,2948.863a26.96,26.96,0,1,1-26.959-26.96A26.959,26.959,0,0,1,1295.248,2948.863Z" fill="#ff6800"/>
        <text id="individu-2" data-name="individu" transform="translate(1241.34 2941.667)" fill="#fff" font-size="11.537" font-family="ArialMT, Arial"><tspan x="7.388" y="10">individu</tspan></text>
        <path id="Tracé_388" data-name="Tracé 388" d="M1324.944,3036.405a26.959,26.959,0,1,1-26.959-26.96A26.958,26.958,0,0,1,1324.944,3036.405Z" fill="#303030"/>
        <text id="individu-3" data-name="individu" transform="translate(1271.036 3030.141)" fill="#fff" font-size="11.537" font-family="Hind-Bold, Hind" font-weight="700"><tspan x="5.341" y="12">individu</tspan></text>
        <path id="Tracé_389" data-name="Tracé 389" d="M1241.339,2957.885" fill="none" stroke="#2f836b" stroke-miterlimit="10" stroke-width="1"/>
        <path id="Tracé_390" data-name="Tracé 390" d="M1213.109,2983.3" fill="none" stroke="#2f836b" stroke-miterlimit="10" stroke-width="1"/>
      </g>
      <g id="Groupe_217" data-name="Groupe 217">
        <circle id="Ellipse_67" data-name="Ellipse 67" cx="98" cy="98" r="98" transform="translate(1233.478 2692.723)" fill="none" stroke="#2f836b" stroke-miterlimit="10" stroke-width="3"/>
        <line id="Ligne_72" data-name="Ligne 72" y1="62.365" x2="61.77" transform="translate(1279.268 2746.291)" fill="none" stroke="#303030" stroke-miterlimit="10" stroke-width="2"/>
        <line id="Ligne_73" data-name="Ligne 73" x2="29.696" y2="91.22" transform="translate(1341.038 2744.396)" fill="none" stroke="#303030" stroke-miterlimit="10" stroke-width="2"/>
        <line id="Ligne_74" data-name="Ligne 74" x1="91.466" y1="26.96" transform="translate(1279.268 2808.656)" fill="none" stroke="#303030" stroke-miterlimit="10" stroke-width="2"/>
        <path id="Tracé_391" data-name="Tracé 391" d="M1306.227,2806.873a26.959,26.959,0,1,1-26.959-26.96A26.959,26.959,0,0,1,1306.227,2806.873Z" fill="#303030"/>
        <text id="individu-4" data-name="individu" transform="translate(1252.319 2799.677)" fill="#fff" font-size="11.537" font-family="ArialMT, Arial"><tspan x="7.388" y="10">individu</tspan></text>
        <path id="Tracé_392" data-name="Tracé 392" d="M1368,2746.291a26.959,26.959,0,1,1-26.959-26.96A26.959,26.959,0,0,1,1368,2746.291Z" fill="#303030"/>
        <text id="individu-5" data-name="individu" transform="translate(1314.089 2740.027)" fill="#fff" font-size="11.537" font-family="Hind-Bold, Hind" font-weight="700"><tspan x="5.341" y="12">individu</tspan></text>
        <path id="Tracé_393" data-name="Tracé 393" d="M1397.693,2833.833a26.959,26.959,0,1,1-26.959-26.96A26.958,26.958,0,0,1,1397.693,2833.833Z" fill="#ff6800"/>
        <text id="individu-6" data-name="individu" transform="translate(1343.785 2826.637)" fill="#fff" font-size="11.537" font-family="ArialMT, Arial"><tspan x="7.388" y="10">individu</tspan></text>
        <path id="Tracé_394" data-name="Tracé 394" d="M1314.088,2755.312" fill="none" stroke="#2f836b" stroke-miterlimit="10" stroke-width="1"/>
        <path id="Tracé_395" data-name="Tracé 395" d="M1285.858,2780.728" fill="none" stroke="#2f836b" stroke-miterlimit="10" stroke-width="1"/>
      </g>
      <g id="Groupe_218" data-name="Groupe 218">
        <circle id="Ellipse_68" data-name="Ellipse 68" cx="98" cy="98" r="98" transform="translate(1453.791 2755.313)" fill="none" stroke="#2f836b" stroke-miterlimit="10" stroke-width="3"/>
        <line id="Ligne_75" data-name="Ligne 75" y1="62.365" x2="61.77" transform="translate(1499.581 2808.88)" fill="none" stroke="#303030" stroke-miterlimit="10" stroke-width="2"/>
        <line id="Ligne_76" data-name="Ligne 76" x2="29.696" y2="91.22" transform="translate(1561.351 2806.985)" fill="none" stroke="#303030" stroke-miterlimit="10" stroke-width="2"/>
        <line id="Ligne_77" data-name="Ligne 77" x1="91.466" y1="26.96" transform="translate(1499.581 2871.245)" fill="none" stroke="#303030" stroke-miterlimit="10" stroke-width="2"/>
        <path id="Tracé_396" data-name="Tracé 396" d="M1526.54,2869.462a26.959,26.959,0,1,1-26.959-26.96A26.959,26.959,0,0,1,1526.54,2869.462Z" fill="#ff6800"/>
        <text id="individu-7" data-name="individu" transform="translate(1472.632 2863.198)" fill="#fff" font-size="11.537" font-family="Hind-Bold, Hind" font-weight="700"><tspan x="5.341" y="12">individu</tspan></text>
        <path id="Tracé_397" data-name="Tracé 397" d="M1588.31,2808.88a26.96,26.96,0,1,1-26.959-26.96A26.959,26.959,0,0,1,1588.31,2808.88Z" fill="#303030"/>
        <text id="individu-8" data-name="individu" transform="translate(1534.402 2801.684)" fill="#fff" font-size="11.537" font-family="ArialMT, Arial"><tspan x="7.388" y="10">individu</tspan></text>
        <path id="Tracé_398" data-name="Tracé 398" d="M1618.006,2896.422a26.959,26.959,0,1,1-26.959-26.96A26.958,26.958,0,0,1,1618.006,2896.422Z" fill="#303030"/>
        <text id="individu-9" data-name="individu" transform="translate(1564.098 2890.158)" fill="#fff" font-size="11.537" font-family="Hind-Bold, Hind" font-weight="700"><tspan x="5.341" y="12">individu</tspan></text>
        <path id="Tracé_399" data-name="Tracé 399" d="M1534.4,2817.9" fill="none" stroke="#2f836b" stroke-miterlimit="10" stroke-width="1"/>
        <path id="Tracé_400" data-name="Tracé 400" d="M1506.171,2843.317" fill="none" stroke="#2f836b" stroke-miterlimit="10" stroke-width="1"/>
      </g>
      <g id="Groupe_219" data-name="Groupe 219">
        <circle id="Ellipse_69" data-name="Ellipse 69" cx="98" cy="98" r="98" transform="translate(1345.361 3027.632)" fill="none" stroke="#2f836b" stroke-miterlimit="10" stroke-width="3"/>
        <line id="Ligne_78" data-name="Ligne 78" y1="62.365" x2="61.77" transform="translate(1391.151 3081.199)" fill="none" stroke="#303030" stroke-miterlimit="10" stroke-width="2"/>
        <line id="Ligne_79" data-name="Ligne 79" x2="29.696" y2="91.22" transform="translate(1452.92 3079.305)" fill="none" stroke="#303030" stroke-miterlimit="10" stroke-width="2"/>
        <line id="Ligne_80" data-name="Ligne 80" x1="91.466" y1="26.96" transform="translate(1391.151 3143.564)" fill="none" stroke="#303030" stroke-miterlimit="10" stroke-width="2"/>
        <path id="Tracé_401" data-name="Tracé 401" d="M1418.11,3141.781a26.959,26.959,0,1,1-26.959-26.96A26.959,26.959,0,0,1,1418.11,3141.781Z" fill="#303030"/>
        <text id="individu-10" data-name="individu" transform="translate(1364.202 3134.585)" fill="#fff" font-size="11.537" font-family="ArialMT, Arial"><tspan x="7.388" y="10">individu</tspan></text>
        <path id="Tracé_402" data-name="Tracé 402" d="M1479.879,3081.2a26.959,26.959,0,1,1-26.959-26.96A26.958,26.958,0,0,1,1479.879,3081.2Z" fill="#ff6800"/>
        <text id="individu-11" data-name="individu" transform="translate(1425.972 3074.935)" fill="#fff" font-size="11.537" font-family="Hind-Bold, Hind" font-weight="700"><tspan x="5.341" y="12">individu</tspan></text>
        <path id="Tracé_403" data-name="Tracé 403" d="M1509.576,3168.741a26.959,26.959,0,1,1-26.959-26.96A26.958,26.958,0,0,1,1509.576,3168.741Z" fill="#303030"/>
        <text id="individu-12" data-name="individu" transform="translate(1455.668 3161.545)" fill="#fff" font-size="11.537" font-family="ArialMT, Arial"><tspan x="7.388" y="10">individu</tspan></text>
        <path id="Tracé_404" data-name="Tracé 404" d="M1425.971,3090.221" fill="none" stroke="#2f836b" stroke-miterlimit="10" stroke-width="1"/>
        <path id="Tracé_405" data-name="Tracé 405" d="M1397.741,3115.637" fill="none" stroke="#2f836b" stroke-miterlimit="10" stroke-width="1"/>
      </g>
      <g id="Groupe_220" data-name="Groupe 220">
        <circle id="Ellipse_70" data-name="Ellipse 70" cx="98" cy="98" r="98" transform="translate(1573.657 2929.632)" fill="none" stroke="#2f836b" stroke-miterlimit="10" stroke-width="3"/>
        <line id="Ligne_81" data-name="Ligne 81" y1="62.365" x2="61.77" transform="translate(1619.447 2983.199)" fill="none" stroke="#303030" stroke-miterlimit="10" stroke-width="2"/>
        <line id="Ligne_82" data-name="Ligne 82" x2="29.696" y2="91.22" transform="translate(1681.217 2981.305)" fill="none" stroke="#303030" stroke-miterlimit="10" stroke-width="2"/>
        <line id="Ligne_83" data-name="Ligne 83" x1="91.466" y1="26.96" transform="translate(1619.447 3045.564)" fill="none" stroke="#303030" stroke-miterlimit="10" stroke-width="2"/>
        <path id="Tracé_406" data-name="Tracé 406" d="M1646.406,3043.781a26.959,26.959,0,1,1-26.959-26.96A26.959,26.959,0,0,1,1646.406,3043.781Z" fill="#ff6800"/>
        <text id="individu-13" data-name="individu" transform="translate(1592.499 3037.517)" fill="#fff" font-size="11.537" font-family="Hind-Bold, Hind" font-weight="700"><tspan x="5.341" y="12">individu</tspan></text>
        <path id="Tracé_407" data-name="Tracé 407" d="M1708.176,2983.2a26.96,26.96,0,1,1-26.959-26.96A26.959,26.959,0,0,1,1708.176,2983.2Z" fill="#303030"/>
        <text id="individu-14" data-name="individu" transform="translate(1654.268 2976.003)" fill="#fff" font-size="11.537" font-family="ArialMT, Arial"><tspan x="7.388" y="10">individu</tspan></text>
        <path id="Tracé_408" data-name="Tracé 408" d="M1737.873,3070.741a26.96,26.96,0,1,1-26.96-26.96A26.959,26.959,0,0,1,1737.873,3070.741Z" fill="#303030"/>
        <text id="individu-15" data-name="individu" transform="translate(1683.964 3064.477)" fill="#fff" font-size="11.537" font-family="Hind-Bold, Hind" font-weight="700"><tspan x="5.341" y="12">individu</tspan></text>
        <path id="Tracé_409" data-name="Tracé 409" d="M1654.268,2992.221" fill="none" stroke="#2f836b" stroke-miterlimit="10" stroke-width="1"/>
        <path id="Tracé_410" data-name="Tracé 410" d="M1626.037,3017.637" fill="none" stroke="#2f836b" stroke-miterlimit="10" stroke-width="1"/>
      </g>
    </g>
  </g>
</svg>
