<svg xmlns="http://www.w3.org/2000/svg" xmlns:xlink="http://www.w3.org/1999/xlink" width="542.891" height="381.28" viewBox="0 0 542.891 381.28">
  <defs>
    <clipPath id="clip-_313">
      <rect width="542.891" height="381.28"/>
    </clipPath>
  </defs>
  <g id="_313" data-name="313" clip-path="url(#clip-_313)">
    <rect width="542.891" height="381.28" fill="#fff"/>
    <g id="Groupe_183" data-name="Groupe 183" transform="translate(-2099.296 -2767.258)">
      <path id="Tracé_312" data-name="Tracé 312" d="M2318.937,2894.559a93.9,93.9,0,1,1-93.9-93.9A93.906,93.906,0,0,1,2318.937,2894.559Z" fill="#b9a3e3" opacity="0.9"/>
      <path id="Tracé_313" data-name="Tracé 313" d="M2490.356,2894.559a93.9,93.9,0,1,1-93.9-93.9A93.9,93.9,0,0,1,2490.356,2894.559Z" fill="#2f836b" opacity="0.9"/>
      <path id="Tracé_314" data-name="Tracé 314" d="M2405.271,3021.232a93.9,93.9,0,1,1-93.9-93.9A93.9,93.9,0,0,1,2405.271,3021.232Z" fill="#ff6800" opacity="0.9"/>
      <text id="Le_tout_est_supérieur_à_la_somme_des_parties_qui_le_composent_approche_holistique_" data-name="Le tout est supérieur à la somme des parties qui le composent (approche holistique)
" transform="translate(2493.245 2901.031)" fill="#2f836b" font-size="12" font-family="Hind-Medium, Hind" font-weight="500"><tspan x="0" y="13">Le tout est supérieur à </tspan><tspan x="0" y="27.4">la somme des parties </tspan><tspan x="0" y="41.8">qui le composent </tspan><tspan x="0" y="56.2">(approche holistique)</tspan><tspan font-family="Hind-Medium"><tspan x="0" y="70.6"></tspan></tspan></text>
      <text id="Mobilisation_des_compétences_individuelles_et_des_motivations_personnelles" data-name="Mobilisation des compétences individuelles et des motivations personnelles" transform="translate(2167.125 2851.254)" fill="#fff" font-size="14" font-family="Hind-Medium, Hind" font-weight="500"><tspan x="7.711" y="15">Mobilisation des </tspan><tspan x="17.063" y="31.8">compétences </tspan><tspan x="11.603" y="48.6">individuelles et </tspan><tspan x="9.265" y="65.4">des motivations </tspan><tspan x="19.492" y="82.2">personnelles</tspan></text>
      <text id="_Processus_de_communication_et_coordination" data-name=" Processus de communication et
coordination" transform="translate(2253.46 3002.292)" fill="#fff" font-size="14" font-family="Hind-Medium, Hind" font-weight="500"><tspan x="16.93" y="15" xml:space="preserve"> Processus de </tspan><tspan x="2.671" y="31.8">communication et</tspan><tspan x="19.079" y="48.6">coordination</tspan></text>
      <text id="Combinaison_de_compétences_pour_parvenir_à_des_résultats_plus_ambitieux" data-name="Combinaison de compétences pour parvenir à des résultats plus ambitieux" transform="translate(2347.363 2851.254)" fill="#fff" font-size="14" font-family="Hind-Medium, Hind" font-weight="500"><tspan x="8.866" y="15">Combinaison de </tspan><tspan x="1.103" y="31.8">compétences pour </tspan><tspan x="15.159" y="48.6">parvenir à des </tspan><tspan x="17.406" y="65.4">résultats plus </tspan><tspan x="27.507" y="82.2">ambitieux</tspan></text>
      <circle id="Ellipse_64" data-name="Ellipse 64" cx="40.01" cy="40.01" r="40.01" transform="matrix(0.924, -0.383, 0.383, 0.924, 2259.092, 2908.08)" fill="#231f20" opacity="0.9"/>
      <text id="Force_du_travail_collectif" data-name="Force du travail collectif" transform="translate(2273.702 2905.47)" fill="#fff" font-size="13" font-family="Hind-Bold, Hind" font-weight="700"><tspan x="12.407" y="14">Force du </tspan><tspan x="18.972" y="29.6">travail </tspan><tspan x="14.279" y="45.2">collectif</tspan></text>
      <g id="Groupe_182" data-name="Groupe 182">
        <g id="Groupe_178" data-name="Groupe 178">
          <g id="Groupe_177" data-name="Groupe 177">
            <g id="Groupe_176" data-name="Groupe 176">
              <path id="Tracé_315" data-name="Tracé 315" d="M2237.345,2834.7c.062,1.278-.477,1.832-1.74,1.832h-16.371c-1.278,0-1.786-.539-1.771-1.817a9.947,9.947,0,0,1,19.589-2.017A11.011,11.011,0,0,1,2237.345,2834.7Z" fill="#fff"/>
              <path id="Tracé_316" data-name="Tracé 316" d="M2227.4,2810.94a5.675,5.675,0,1,1-5.651,5.637A5.7,5.7,0,0,1,2227.4,2810.94Z" fill="#fff"/>
            </g>
          </g>
        </g>
        <g id="Groupe_181" data-name="Groupe 181">
          <g id="Groupe_180" data-name="Groupe 180">
            <g id="Groupe_179" data-name="Groupe 179">
              <path id="Tracé_317" data-name="Tracé 317" d="M2237.345,2834.7c.062,1.278-.477,1.832-1.74,1.832h-16.371c-1.278,0-1.786-.539-1.771-1.817a9.947,9.947,0,0,1,19.589-2.017A11.011,11.011,0,0,1,2237.345,2834.7Z" fill="#fff"/>
              <path id="Tracé_318" data-name="Tracé 318" d="M2227.4,2810.94a5.675,5.675,0,1,1-5.651,5.637A5.7,5.7,0,0,1,2227.4,2810.94Z" fill="#fff"/>
            </g>
          </g>
        </g>
      </g>
      <line id="Ligne_63" data-name="Ligne 63" x2="120.313" transform="translate(2490.04 2901.031)" fill="none" stroke="#2f836b" stroke-miterlimit="10" stroke-width="2"/>
    </g>
  </g>
</svg>
