<?xml version="1.0" encoding="utf-8"?>
<!-- Generator: Adobe Illustrator 15.0.0, SVG Export Plug-In . SVG Version: 6.00 Build 0)  -->
<!DOCTYPE svg PUBLIC "-//W3C//DTD SVG 1.1//EN" "http://www.w3.org/Graphics/SVG/1.1/DTD/svg11.dtd">
<svg version="1.1" id="Calque_1" xmlns="http://www.w3.org/2000/svg" xmlns:xlink="http://www.w3.org/1999/xlink" x="0px" y="0px"
	 width="841.89px" height="631.285px" viewBox="0 0 841.89 631.285" enable-background="new 0 0 841.89 631.285"
	 xml:space="preserve">
<g>
	<defs>
		<rect id="SVGID_1_" width="841.89" height="631.285"/>
	</defs>
	<clipPath id="SVGID_2_">
		<use xlink:href="#SVGID_1_"  overflow="visible"/>
	</clipPath>
	<g id="_314" clip-path="url(#SVGID_2_)">
		<rect fill="#FFFFFF" width="841.89" height="631.285"/>
		<g id="Groupe_175" transform="translate(-2858.804 -2639.018)">
			<circle id="Ellipse_61" fill="#231F20" cx="3176.293" cy="2954.66" r="267.826"/>
			<g id="Groupe_174">
				<g id="Groupe_173">
					<path id="Tracé_286" fill="#FFFFFF" d="M3251.447,2717.612l5.672-14.871l5.122,1.954c0.896,0.314,1.757,0.724,2.565,1.223
						c0.738,0.479,1.348,1.131,1.776,1.9c0.536,0.984,0.809,2.091,0.791,3.212c-0.027,1.289-0.287,2.562-0.767,3.758
						c-0.371,1.021-0.891,1.981-1.541,2.852c-0.512,0.69-1.133,1.291-1.84,1.779c-0.568,0.386-1.201,0.668-1.869,0.833
						c-0.677,0.144-1.374,0.167-2.059,0.068c-0.853-0.119-1.687-0.34-2.486-0.658L3251.447,2717.612z M3254.083,2716.607
						l3.176,1.212c0.77,0.321,1.582,0.523,2.412,0.601c0.555,0.042,1.112-0.048,1.627-0.261c0.709-0.341,1.328-0.843,1.809-1.467
						c0.635-0.821,1.135-1.737,1.482-2.716c0.545-1.215,0.752-2.555,0.6-3.878c-0.129-0.91-0.56-1.751-1.222-2.389
						c-0.732-0.558-1.554-0.989-2.429-1.275l-3.124-1.19L3254.083,2716.607z"/>
					<path id="Tracé_287" fill="#FFFFFF" d="M3266.563,2723.585l6.311-14.613l1.932,0.836l-6.31,14.61L3266.563,2723.585z"/>
					<path id="Tracé_288" fill="#FFFFFF" d="M3273.322,2720.881l1.864,0.7c-0.248,0.653-0.337,1.356-0.258,2.051
						c0.123,0.678,0.438,1.306,0.907,1.81c0.557,0.627,1.238,1.132,2,1.483c0.647,0.327,1.351,0.53,2.072,0.6
						c0.572,0.068,1.15-0.032,1.664-0.289c0.438-0.228,0.787-0.59,1-1.033c0.215-0.422,0.275-0.905,0.178-1.367
						c-0.158-0.56-0.463-1.067-0.885-1.467c-0.705-0.681-1.445-1.324-2.218-1.928c-0.859-0.653-1.643-1.4-2.338-2.227
						c-0.474-0.601-0.78-1.315-0.888-2.072c-0.079-0.696,0.044-1.4,0.354-2.028c0.349-0.723,0.902-1.326,1.594-1.733
						c0.752-0.44,1.621-0.639,2.49-0.567c0.998,0.068,1.971,0.332,2.867,0.777c0.971,0.445,1.844,1.079,2.566,1.866
						c0.617,0.671,1.016,1.513,1.145,2.415c0.115,0.885-0.018,1.785-0.383,2.6l-1.885-0.738c0.342-0.81,0.342-1.723,0-2.533
						c-0.48-0.865-1.246-1.536-2.164-1.9c-0.85-0.498-1.838-0.7-2.815-0.577c-0.659,0.117-1.224,0.542-1.519,1.143
						c-0.247,0.479-0.268,1.043-0.055,1.539c0.619,0.953,1.426,1.769,2.371,2.4c0.98,0.732,1.895,1.549,2.734,2.441
						c0.59,0.664,0.986,1.478,1.145,2.352c0.111,0.797-0.021,1.609-0.385,2.328c-0.371,0.768-0.959,1.407-1.693,1.84
						c-0.797,0.475-1.713,0.708-2.64,0.671c-1.055-0.034-2.091-0.295-3.035-0.768c-1.13-0.503-2.146-1.229-2.988-2.136
						c-0.675-0.756-1.107-1.696-1.243-2.7C3272.744,2722.828,3272.898,2721.803,3273.322,2720.881z"/>
					<path id="Tracé_289" fill="#FFFFFF" d="M3284.884,2732.221l7.711-13.922l5.252,2.911c0.717,0.375,1.4,0.811,2.045,1.3
						c0.564,0.427,1.029,0.973,1.357,1.6c0.293,0.611,0.42,1.287,0.371,1.962c-0.145,2.05-1.488,3.821-3.424,4.512
						c-1.207,0.4-2.797,0.056-4.766-1.033l-3.57-1.977l-3.135,5.66L3284.884,2732.221z M3290.77,2725.939l3.602,1.994
						c0.848,0.581,1.875,0.842,2.898,0.739c0.783-0.194,1.439-0.727,1.787-1.455c0.311-0.525,0.445-1.134,0.387-1.74
						c-0.055-0.558-0.307-1.077-0.709-1.467c-0.508-0.417-1.063-0.777-1.648-1.074l-3.563-1.975L3290.77,2725.939z"/>
					<path id="Tracé_290" fill="#FFFFFF" d="M3301.251,2732.469c1.107-1.982,2.949-3.45,5.129-4.086
						c2.008-0.496,4.133-0.109,5.838,1.063c1.188,0.735,2.15,1.781,2.783,3.025c0.617,1.211,0.859,2.577,0.699,3.927
						c-0.18,1.466-0.699,2.869-1.514,4.1c-0.787,1.279-1.867,2.352-3.154,3.127c-1.168,0.707-2.525,1.039-3.889,0.951
						c-1.348-0.087-2.652-0.518-3.787-1.251c-1.203-0.742-2.174-1.808-2.799-3.075c-0.602-1.221-0.834-2.591-0.666-3.942
						C3300.044,2734.941,3300.509,2733.627,3301.251,2732.469z M3303.063,2733.669c-0.967,1.345-1.375,3.014-1.133,4.653
						c0.588,2.924,3.436,4.816,6.359,4.228c0.074-0.015,0.148-0.031,0.221-0.049c1.641-0.529,3.016-1.665,3.846-3.173
						c0.648-0.968,1.082-2.064,1.271-3.214c0.158-0.996,0.014-2.016-0.412-2.929c-0.43-0.908-1.111-1.672-1.965-2.2
						c-1.199-0.791-2.664-1.069-4.07-0.773c-1.453,0.283-2.826,1.434-4.117,3.454V2733.669z"/>
					<path id="Tracé_291" fill="#FFFFFF" d="M3314.393,2744.1l1.709,1.028c-0.363,0.598-0.576,1.273-0.623,1.971
						c-0.002,0.688,0.195,1.362,0.566,1.942c0.434,0.718,1.014,1.338,1.699,1.822c0.578,0.438,1.232,0.763,1.93,0.962
						c0.551,0.168,1.137,0.173,1.689,0.013c0.469-0.146,0.877-0.439,1.166-0.837c0.285-0.376,0.432-0.839,0.418-1.312
						c-0.053-0.578-0.264-1.131-0.605-1.6c-0.57-0.798-1.184-1.566-1.834-2.3c-0.729-0.796-1.367-1.672-1.9-2.611
						c-0.357-0.676-0.531-1.435-0.5-2.2c0.047-0.699,0.295-1.37,0.715-1.931c0.471-0.649,1.125-1.143,1.879-1.419
						c0.818-0.298,1.709-0.336,2.551-0.11c0.969,0.246,1.879,0.681,2.68,1.28c0.875,0.612,1.621,1.394,2.188,2.3
						c0.488,0.77,0.73,1.669,0.693,2.58c-0.045,0.891-0.338,1.752-0.844,2.487l-1.721-1.065c0.48-0.736,0.643-1.635,0.449-2.492
						c-0.318-0.936-0.949-1.733-1.787-2.257c-0.744-0.642-1.682-1.018-2.664-1.071c-0.668-0.004-1.301,0.312-1.699,0.85
						c-0.328,0.428-0.449,0.979-0.33,1.506c0.439,1.047,1.086,1.995,1.9,2.785c0.832,0.899,1.586,1.869,2.25,2.899
						c0.461,0.76,0.703,1.631,0.701,2.52c-0.035,0.804-0.314,1.578-0.801,2.22c-0.504,0.689-1.199,1.213-2,1.507
						c-0.869,0.323-1.813,0.387-2.717,0.185c-1.033-0.222-2.004-0.666-2.848-1.3c-1.021-0.699-1.891-1.597-2.557-2.641
						c-0.527-0.865-0.783-1.868-0.736-2.88C3313.464,2745.912,3313.803,2744.931,3314.393,2744.1z"/>
					<path id="Tracé_292" fill="#FFFFFF" d="M3324.014,2757.638l9.871-12.483l1.654,1.306l-9.873,12.484L3324.014,2757.638z"/>
					<path id="Tracé_293" fill="#FFFFFF" d="M3331.538,2763.77l9.113-10.675l-3.986-3.4l1.219-1.429l9.594,8.192l-1.219,1.426
						l-4.006-3.418l-9.113,10.676L3331.538,2763.77z"/>
					<path id="Tracé_294" fill="#FFFFFF" d="M3338.858,2770.212l10.785-11.7l1.549,1.427l-10.785,11.7L3338.858,2770.212z"/>
					<path id="Tracé_295" fill="#FFFFFF" d="M3343.106,2774.121l11.223-11.286l7.613,7.572l-1.324,1.332l-6.121-6.086l-3.475,3.494
						l5.301,5.269l-1.326,1.33l-5.299-5.267l-5.1,5.127L3343.106,2774.121z"/>
					<path id="Tracé_296" fill="#FFFFFF" d="M3359.489,2784.167l1.475-1.3l3.975,4.5l-1.473,1.3L3359.489,2784.167z"/>
					<path id="Tracé_297" fill="#FFFFFF" d="M3365.317,2798.293l12.586-9.743l6.572,8.491l-1.484,1.149l-5.283-6.824l-3.9,3.018
						l4.572,5.907l-1.484,1.148l-4.572-5.905l-5.717,4.427L3365.317,2798.293z"/>
					<path id="Tracé_298" fill="#FFFFFF" d="M3379.438,2803.9c1.797-1.388,4.068-2.013,6.322-1.739
						c2.041,0.333,3.844,1.524,4.949,3.273c0.803,1.142,1.277,2.482,1.369,3.876c0.088,1.355-0.227,2.707-0.906,3.884
						c-0.742,1.277-1.771,2.364-3.006,3.174c-1.225,0.868-2.641,1.429-4.127,1.635c-1.354,0.191-2.732-0.039-3.951-0.657
						c-1.205-0.61-2.234-1.518-2.99-2.638c-0.814-1.156-1.289-2.518-1.367-3.931c-0.072-1.358,0.254-2.709,0.938-3.885
						C3377.35,2805.695,3378.298,2804.671,3379.438,2803.9z M3380.637,2805.712c-1.42,0.855-2.449,2.23-2.871,3.832
						c-0.609,2.919,1.266,5.78,4.186,6.388c0.072,0.015,0.146,0.029,0.221,0.042c1.715,0.159,3.426-0.344,4.783-1.405
						c0.979-0.635,1.807-1.472,2.434-2.454c0.537-0.853,0.807-1.847,0.773-2.854c-0.037-1.004-0.363-1.977-0.941-2.8
						c-0.791-1.198-2.029-2.031-3.438-2.313c-1.457-0.311-3.172,0.21-5.15,1.561L3380.637,2805.712z"/>
					<path id="Tracé_299" fill="#FFFFFF" d="M3401.917,2823.833l1.068,1.814l-7.914,4.679c-1.09,0.697-2.293,1.195-3.557,1.47
						c-1.021,0.164-2.068-0.019-2.973-0.518c-1.125-0.65-2.045-1.603-2.654-2.75c-0.688-1.063-1.1-2.279-1.201-3.541
						c-0.053-1.036,0.262-2.058,0.889-2.884c0.869-1.042,1.93-1.909,3.125-2.554l7.916-4.678l1.07,1.813l-7.904,4.674
						c-0.916,0.483-1.74,1.122-2.438,1.887c-0.428,0.543-0.65,1.219-0.629,1.91c0.037,0.798,0.283,1.573,0.711,2.248
						c0.508,1.095,1.445,1.932,2.59,2.314c0.941,0.21,2.27-0.194,3.99-1.211L3401.917,2823.833z"/>
					<path id="Tracé_300" fill="#FFFFFF" d="M3401.007,2844.219l0.48,2.117c-1.529,0.41-3.15,0.295-4.607-0.326
						c-1.371-0.649-2.477-1.756-3.123-3.129c-0.723-1.276-1.059-2.736-0.967-4.2c0.154-1.321,0.709-2.564,1.588-3.563
						c0.947-1.118,2.111-2.032,3.42-2.688c1.32-0.713,2.795-1.098,4.295-1.123c1.33-0.014,2.633,0.382,3.732,1.132
						c1.111,0.761,2.01,1.794,2.607,3c0.697,1.258,0.957,2.711,0.742,4.133c-0.256,1.382-0.965,2.639-2.016,3.573l-1.377-1.626
						c0.764-0.68,1.297-1.582,1.523-2.58c0.141-0.937-0.035-1.893-0.496-2.72c-0.461-0.988-1.223-1.805-2.178-2.332
						c-0.887-0.465-1.9-0.63-2.889-0.471c-1.029,0.15-2.025,0.469-2.949,0.943c-1.088,0.526-2.068,1.25-2.891,2.136
						c-0.684,0.73-1.1,1.671-1.18,2.669c-0.07,0.95,0.123,1.901,0.559,2.748c0.469,0.983,1.273,1.767,2.27,2.206
						C3398.659,2844.542,3399.876,2844.578,3401.007,2844.219z"/>
					<path id="Tracé_301" fill="#FFFFFF" d="M3397.259,2849.175l17.031-0.767l0.906,2.08l-11.979,12.337l-0.959-2.2l3.674-3.63
						l-2.662-6.1l-5.117,0.326L3397.259,2849.175z M3405.085,2850.768l2.158,4.945l3.375-3.285c1.023-1,1.881-1.785,2.572-2.355
						c-1.029,0.224-2.074,0.367-3.127,0.429L3405.085,2850.768z"/>
					<path id="Tracé_302" fill="#FFFFFF" d="M3422.278,2868.538l0.727,1.977l-8.631,3.169c-1.197,0.488-2.473,0.759-3.766,0.8
						c-1.033-0.024-2.029-0.393-2.83-1.048c-0.988-0.843-1.719-1.946-2.111-3.185c-0.482-1.169-0.668-2.441-0.539-3.7
						c0.139-1.028,0.633-1.976,1.4-2.674c1.043-0.869,2.244-1.529,3.537-1.946l8.631-3.169l0.727,1.978l-8.623,3.165
						c-0.986,0.311-1.912,0.789-2.736,1.414c-0.52,0.456-0.861,1.082-0.965,1.765c-0.107,0.792-0.006,1.598,0.293,2.339
						c0.301,1.169,1.072,2.162,2.129,2.745c0.885,0.376,2.266,0.22,4.141-0.467L3422.278,2868.538z"/>
					<path id="Tracé_303" fill="#FFFFFF" d="M3409.032,2879.02l15.219-4.662l0.615,2.014l-13.422,4.112l2.295,7.494l-1.795,0.55
						L3409.032,2879.02z"/>
					<path id="Tracé_304" fill="#FFFFFF" d="M3413.143,2893.12l13.588-3.522l-1.314-5.076l1.816-0.471l3.166,12.211l-1.818,0.471
						l-1.32-5.1l-13.59,3.521L3413.143,2893.12z"/>
				</g>
			</g>
			<circle id="Ellipse_62" fill="#FFFFFF" cx="3176.292" cy="2954.659" r="238.974"/>
			
				<line id="Ligne_59" fill="none" stroke="#231F20" stroke-width="3" stroke-miterlimit="10" x1="3411.028" y1="3111.299" x2="3382.05" y2="3111.299"/>
			<text transform="matrix(1 0 0 1 3434.1492 2728.1377)" fill="#231F20" font-family="'Hind-Regular'" font-size="11.345">Ensemble d’objets à étudier pour </text>
			<text transform="matrix(1 0 0 1 3443.1355 2741.752)" fill="#231F20" font-family="'Hind-Regular'" font-size="11.345">comprendre et aborder le sujet</text>
			<circle id="Ellipse_63" fill="#B9A3E3" cx="3615.951" cy="2730.79" r="12.033"/>
			
				<line id="Ligne_60" fill="none" stroke="#FF6800" stroke-miterlimit="10" x1="3092.564" y1="3013.354" x2="3264.635" y2="2905.572"/>
			
				<line id="Ligne_61" fill="none" stroke="#FF6800" stroke-miterlimit="10" x1="3091.619" y1="2900.844" x2="3269.363" y2="3002.952"/>
			<path id="Tracé_305" fill="#B9A3E3" d="M3097.236,2876.446c0,34.059-27.61,61.668-61.668,61.668s-61.668-27.609-61.668-61.668
				c0-34.058,27.61-61.668,61.668-61.668l0,0c34.058,0,61.667,27.608,61.668,61.666
				C3097.236,2876.445,3097.236,2876.445,3097.236,2876.446z"/>
			<text transform="matrix(1 0 0 1 3031.929 2838.1816)" fill="#231F20" font-family="'Hind-Bold'" font-size="19.156">1</text>
			<path id="Tracé_306" fill="#B9A3E3" d="M3376.132,2869.828c0,34.059-27.607,61.669-61.666,61.669
				c-34.059,0.001-61.669-27.608-61.669-61.667c-0.001-34.058,27.609-61.668,61.667-61.669l0,0
				C3348.522,2808.162,3376.132,2835.77,3376.132,2869.828z"/>
			<text transform="matrix(1 0 0 1 3309.1375 2826.6787)" fill="#231F20" font-family="'Arial-BoldMT'" font-size="19.156">3</text>
			<path id="Tracé_307" fill="#B9A3E3" d="M3099.6,3043.309c0,34.059-27.61,61.668-61.668,61.666
				c-34.058,0-61.666-27.609-61.666-61.668c0.001-34.057,27.609-61.665,61.666-61.666
				C3071.99,2981.642,3099.6,3009.251,3099.6,3043.309z"/>
			<text transform="matrix(1 0 0 1 3032.7922 3005.0449)" fill="#231F20" font-family="'Hind-Bold'" font-size="19.156">6</text>
			<text transform="matrix(1 0 0 1 3008.5291 3028.6865)" fill="#231F20" font-family="'Hind-Regular'" font-size="14.649">Éléments </text>
			<text transform="matrix(1 0 0 1 3015.677 3046.2656)" fill="#231F20" font-family="'Hind-Regular'" font-size="14.649">solides</text>
			<path id="Tracé_308" fill="#B9A3E3" d="M3386.53,3031.018c0.002,34.059-27.607,61.67-61.666,61.67s-61.668-27.609-61.669-61.668
				c0-34.059,27.609-61.668,61.667-61.668l0,0C3358.921,2969.352,3386.53,2996.96,3386.53,3031.018z"/>
			<text transform="matrix(1 0 0 1 3319.5359 2987.8691)" fill="#231F20" font-family="'Arial-BoldMT'" font-size="19.156">4</text>
			<text transform="matrix(1 0 0 1 3302.1355 3016.3975)" fill="#231F20" font-family="'Hind-Regular'" font-size="14.649">Service</text>
			<text transform="matrix(1 0 0 1 2992.3479 3063.5928)" fill="#231F20" font-family="'Hind-Regular'" font-size="9">Ensemble architectural, </text>
			<text transform="matrix(1 0 0 1 3004.0803 3074.3926)" fill="#231F20" font-family="'Hind-Regular'" font-size="9">espaces, mobilier</text>
			<text transform="matrix(1 0 0 1 3292.9822 3039.957)" fill="#231F20" font-family="'Hind-Regular'" font-size="9">Écosystème de la </text>
			<text transform="matrix(1 0 0 1 3301.9285 3050.7578)" fill="#231F20" font-family="'Hind-Regular'" font-size="9">Ressourcerie</text>
			<text transform="matrix(1 0 0 1 3165.1951 3141.0449)" fill="#231F20" font-family="'Hind-Regular'" font-size="7.564">Institutions</text>
			
				<line id="Ligne_62" fill="none" stroke="#FF6800" stroke-miterlimit="10" x1="3178.599" y1="2828.046" x2="3178.599" y2="3068.189"/>
			<path id="Tracé_309" fill="#B9A3E3" d="M3243.775,3122.248c0,34.059-27.609,61.668-61.667,61.668s-61.667-27.609-61.667-61.668
				c0-34.057,27.609-61.666,61.667-61.666l0,0C3216.165,3060.582,3243.775,3088.191,3243.775,3122.248z"/>
			<text transform="matrix(1 0 0 1 3177.3201 3083.9844)" fill="#231F20" font-family="'Hind-Bold'" font-size="19.156">5</text>
			<path id="Tracé_310" fill="#B9A3E3" d="M3236.212,2786.614c0,34.058-27.609,61.667-61.667,61.667
				c-34.058,0-61.667-27.609-61.667-61.667c0-34.058,27.609-61.667,61.667-61.667l0,0
				C3208.603,2724.947,3236.212,2752.556,3236.212,2786.614z"/>
			<text transform="matrix(1 0 0 1 3169.218 2743.4658)" fill="#231F20" font-family="'Arial-BoldMT'" font-size="19.156">2</text>
			<text transform="matrix(1 0 0 1 3006.7708 2868.377)" fill="#231F20" font-family="'Hind-Regular'" font-size="14.649">Contexte</text>
			<text transform="matrix(1 0 0 1 2985.4158 2882.3301)" fill="#231F20" font-family="'Hind-Regular'" font-size="9">Contexte macro et micro : </text>
			<text transform="matrix(1 0 0 1 2991.2122 2893.1309)" fill="#231F20" font-family="'Hind-Regular'" font-size="9">politique, économique, </text>
			<text transform="matrix(1 0 0 1 3002.8811 2903.9307)" fill="#231F20" font-family="'Hind-Regular'" font-size="9">environnemental</text>
			<path id="Tracé_311" fill="#FF6800" d="M3239.993,2954.431c0,34.058-27.609,61.668-61.668,61.668
				c-34.058,0-61.667-27.61-61.667-61.668s27.609-61.668,61.667-61.668C3212.383,2892.762,3239.993,2920.372,3239.993,2954.431
				C3239.993,2954.43,3239.993,2954.431,3239.993,2954.431z"/>
			<text transform="matrix(1 0 0 1 3138.1267 2924.7422)" fill="#FFFFFF" font-family="'Hind-Regular'" font-size="11">Combinaison des </text>
			<text transform="matrix(1 0 0 1 3133.0671 2938.3564)" fill="#FFFFFF" font-family="'Hind-Regular'" font-size="11">relations découlant </text>
			<text transform="matrix(1 0 0 1 3126.2849 2951.9717)" fill="#FFFFFF" font-family="'Hind-Regular'" font-size="11">de la rencontre de ces </text>
			<text transform="matrix(1 0 0 1 3133.864 2965.585)" fill="#FFFFFF" font-family="'Hind-Regular'" font-size="11">éléments servant à </text>
			<text transform="matrix(1 0 0 1 3127.9407 2979.2002)" fill="#FFFFFF" font-family="'Hind-Regular'" font-size="11">mesurer notre champ </text>
			<text transform="matrix(1 0 0 1 3146.2009 2992.8145)" fill="#FFFFFF" font-family="'Hind-Regular'" font-size="11">d’observation</text>
			<text transform="matrix(1 0 0 1 3148.6121 2770.9961)" fill="#231F20" font-family="'Hind-Regular'" font-size="14.649">Sociétés </text>
			<text transform="matrix(1 0 0 1 3145.0823 2788.5742)" fill="#231F20" font-family="'Hind-Regular'" font-size="14.649">humaines</text>
			<text transform="matrix(1 0 0 1 3137.3743 2803.0068)" fill="#231F20" font-family="'Hind-Regular'" font-size="9">Utilisateurs, clients, </text>
			<text transform="matrix(1 0 0 1 3124.4182 2813.8066)" fill="#231F20" font-family="'Hind-Regular'" font-size="9">salariés, équipe backoffice</text>
			<text transform="matrix(1 0 0 1 3284.5427 2853.7988)" fill="#231F20" font-family="'Hind-Regular'" font-size="14.649">Éléments </text>
			<text transform="matrix(1 0 0 1 3276.7708 2871.3779)" fill="#231F20" font-family="'Hind-Regular'" font-size="14.649">immatériels</text>
			<text transform="matrix(1 0 0 1 3279.8928 2891.0576)" fill="#231F20" font-family="'Hind-Regular'" font-size="9">Pensée, émotions, </text>
			<text transform="matrix(1 0 0 1 3272.9719 2901.8574)" fill="#231F20" font-family="'Hind-Regular'" font-size="9">philosophie, attitudes</text>
			<text transform="matrix(1 0 0 1 3138.321 3109.4873)" fill="#231F20" font-family="'Hind-Regular'" font-size="15.494">Prescriptions</text>
			<text transform="matrix(1 0 0 1 3148.7791 3128.0801)" fill="#231F20" font-family="'Hind-Regular'" font-size="15.494">juridiques</text>
			<text transform="matrix(1 0 0 1 3136.6311 3154.9326)" fill="#231F20" font-family="'Hind-Regular'" font-size="8">Règlements, lois, mesures </text>
			<text transform="matrix(1 0 0 1 3154.3987 3164.5322)" fill="#231F20" font-family="'Hind-Regular'" font-size="8">administratives</text>
			<text transform="matrix(1 0 0 1 3431.7625 3097.7852)" enable-background="new    "><tspan x="0" y="0" fill="#231F20" font-family="'Hind-Medium'" font-size="11.345">Le dispositif correspond à une formation dont </tspan><tspan x="0" y="13.614" fill="#231F20" font-family="'Hind-Medium'" font-size="11.345">les composantes s’agencent stratégiquement </tspan><tspan x="0" y="27.228" fill="#231F20" font-family="'Hind-Medium'" font-size="11.345">pour répondre à une problématique :  </tspan><tspan x="0" y="40.842" fill="#231F20" font-family="'Hind-Medium'" font-size="11.345">« Système automatisé de régulation des rapports  </tspan><tspan x="0" y="54.456" fill="#231F20" font-family="'Hind-Medium'" font-size="11.345">de forces qui visent à maintenir ou à développer </tspan><tspan x="0" y="68.07" fill="#231F20" font-family="'Hind-Medium'" font-size="11.345">un certain différentiel de pouvoir face aux </tspan><tspan x="0" y="81.684" fill="#231F20" font-family="'Hind-Medium'" font-size="11.345">modifications du milieu dans lequel il baigne. » </tspan><tspan x="0" y="95.298" fill="#231F20" font-family="'Hind-Medium'" font-size="11.345">(Lafleur, 2015)   </tspan><tspan x="0" y="108.912" fill="#231F20" font-family="'Hind-Medium'" font-size="11.345">   </tspan></text>
		</g>
	</g>
</g>
</svg>
