<svg xmlns="http://www.w3.org/2000/svg" xmlns:xlink="http://www.w3.org/1999/xlink" width="841.89" height="631.284" viewBox="0 0 841.89 631.284">
  <defs>
    <clipPath id="clip-_314">
      <rect width="841.89" height="631.284"/>
    </clipPath>
  </defs>
  <g id="_314" data-name="314" clip-path="url(#clip-_314)">
    <rect width="841.89" height="631.284" fill="#fff"/>
    <g id="Groupe_175" data-name="Groupe 175" transform="translate(-2858.804 -2639.018)">
      <circle id="Ellipse_61" data-name="Ellipse 61" cx="267.826" cy="267.826" r="267.826" transform="translate(2797.53 2954.66) rotate(-45)" fill="#231f20"/>
      <g id="Groupe_174" data-name="Groupe 174">
        <g id="Groupe_173" data-name="Groupe 173">
          <path id="Tracé_286" data-name="Tracé 286" d="M3251.446,2717.612l5.672-14.871,5.122,1.954a13.173,13.173,0,0,1,2.566,1.223,5.392,5.392,0,0,1,1.776,1.9,6.5,6.5,0,0,1,.791,3.212,10.717,10.717,0,0,1-.766,3.758,11.1,11.1,0,0,1-1.541,2.851,7.811,7.811,0,0,1-1.84,1.779,5.789,5.789,0,0,1-1.869.833,5.892,5.892,0,0,1-2.059.068,10.772,10.772,0,0,1-2.486-.658Zm2.637-1.005,3.176,1.212a8.254,8.254,0,0,0,2.412.6,3.551,3.551,0,0,0,1.627-.261,5.032,5.032,0,0,0,1.808-1.467,9.8,9.8,0,0,0,1.483-2.716,7.411,7.411,0,0,0,.6-3.878,4.125,4.125,0,0,0-1.222-2.389,8.24,8.24,0,0,0-2.429-1.275l-3.124-1.191Z" fill="#fff"/>
          <path id="Tracé_287" data-name="Tracé 287" d="M3266.563,2723.585l6.31-14.613,1.932.836-6.309,14.61Z" fill="#fff"/>
          <path id="Tracé_288" data-name="Tracé 288" d="M3273.321,2720.881l1.865.7a4.377,4.377,0,0,0-.258,2.051,3.6,3.6,0,0,0,.907,1.81,6.083,6.083,0,0,0,2,1.483,5.834,5.834,0,0,0,2.073.6,2.948,2.948,0,0,0,1.664-.289,2.284,2.284,0,0,0,1-1.033,2.069,2.069,0,0,0,.176-1.367,3.223,3.223,0,0,0-.884-1.467,28.215,28.215,0,0,0-2.218-1.928,14.625,14.625,0,0,1-2.338-2.227,4.328,4.328,0,0,1-.888-2.072,3.649,3.649,0,0,1,.355-2.028,4.055,4.055,0,0,1,1.593-1.734,4.243,4.243,0,0,1,2.49-.567,7.6,7.6,0,0,1,2.867.777,8.011,8.011,0,0,1,2.566,1.866,4.512,4.512,0,0,1,1.146,2.415,4.831,4.831,0,0,1-.383,2.6l-1.886-.738a3.254,3.254,0,0,0,0-2.533,4.276,4.276,0,0,0-2.164-1.9,4.452,4.452,0,0,0-2.814-.577,2.1,2.1,0,0,0-1.519,1.143,1.809,1.809,0,0,0-.055,1.539,8.375,8.375,0,0,0,2.371,2.4,21.026,21.026,0,0,1,2.734,2.441,4.835,4.835,0,0,1,1.146,2.352,3.963,3.963,0,0,1-.385,2.328,4.317,4.317,0,0,1-1.694,1.84,4.778,4.778,0,0,1-2.64.671,7.3,7.3,0,0,1-3.035-.768,9.162,9.162,0,0,1-2.989-2.136,5.071,5.071,0,0,1-1.243-2.7A5.349,5.349,0,0,1,3273.321,2720.881Z" fill="#fff"/>
          <path id="Tracé_289" data-name="Tracé 289" d="M3284.884,2732.221l7.711-13.922,5.252,2.911a14.4,14.4,0,0,1,2.044,1.3,4.81,4.81,0,0,1,1.359,1.6,3.911,3.911,0,0,1,.371,1.962,5.178,5.178,0,0,1-3.424,4.512q-1.812.6-4.766-1.033l-3.57-1.977-3.135,5.66Zm5.887-6.282,3.6,1.994a4.36,4.36,0,0,0,2.9.739,2.7,2.7,0,0,0,1.787-1.455,2.883,2.883,0,0,0,.386-1.74,2.366,2.366,0,0,0-.708-1.467,9.071,9.071,0,0,0-1.65-1.074l-3.561-1.974Z" fill="#fff"/>
          <path id="Tracé_290" data-name="Tracé 290" d="M3301.251,2732.469a8.648,8.648,0,0,1,5.129-4.086,7.242,7.242,0,0,1,5.838,1.063,7.626,7.626,0,0,1,2.783,3.025,6.869,6.869,0,0,1,.7,3.927,9.546,9.546,0,0,1-1.515,4.1,9.391,9.391,0,0,1-3.153,3.127,6.682,6.682,0,0,1-3.889.951,7.918,7.918,0,0,1-3.787-1.251,7.537,7.537,0,0,1-2.8-3.075,6.988,6.988,0,0,1-.666-3.942A8.976,8.976,0,0,1,3301.251,2732.469Zm1.813,1.2a6.379,6.379,0,0,0-1.134,4.653,5.4,5.4,0,0,0,6.581,4.178,6.763,6.763,0,0,0,3.846-3.173,8.148,8.148,0,0,0,1.271-3.214,5.051,5.051,0,0,0-.412-2.929,5.208,5.208,0,0,0-1.965-2.2,5.377,5.377,0,0,0-4.07-.773Q3305,2730.635,3303.064,2733.665Z" fill="#fff"/>
          <path id="Tracé_291" data-name="Tracé 291" d="M3314.393,2744.1l1.709,1.028a4.366,4.366,0,0,0-.622,1.971,3.579,3.579,0,0,0,.565,1.942,6.084,6.084,0,0,0,1.7,1.822,5.878,5.878,0,0,0,1.93.962,2.962,2.962,0,0,0,1.69.013,2.271,2.271,0,0,0,1.165-.837,2.073,2.073,0,0,0,.419-1.312,3.225,3.225,0,0,0-.606-1.6,28.4,28.4,0,0,0-1.834-2.3,14.409,14.409,0,0,1-1.9-2.611,4.318,4.318,0,0,1-.5-2.2,3.621,3.621,0,0,1,.714-1.931,4.044,4.044,0,0,1,1.879-1.419,4.233,4.233,0,0,1,2.55-.11,7.6,7.6,0,0,1,2.68,1.28,7.971,7.971,0,0,1,2.189,2.3,4.493,4.493,0,0,1,.693,2.58,4.818,4.818,0,0,1-.844,2.487l-1.721-1.065a3.26,3.26,0,0,0,.45-2.492,4.291,4.291,0,0,0-1.788-2.257,4.448,4.448,0,0,0-2.663-1.071,2.1,2.1,0,0,0-1.7.849,1.815,1.815,0,0,0-.33,1.506,8.4,8.4,0,0,0,1.9,2.785,21.057,21.057,0,0,1,2.251,2.9,4.835,4.835,0,0,1,.7,2.519,3.958,3.958,0,0,1-.8,2.22,4.318,4.318,0,0,1-2,1.507,4.789,4.789,0,0,1-2.717.184,7.287,7.287,0,0,1-2.848-1.3,9.171,9.171,0,0,1-2.556-2.641,5.073,5.073,0,0,1-.736-2.88A5.361,5.361,0,0,1,3314.393,2744.1Z" fill="#fff"/>
          <path id="Tracé_292" data-name="Tracé 292" d="M3324.015,2757.638l9.871-12.483,1.653,1.306-9.872,12.484Z" fill="#fff"/>
          <path id="Tracé_293" data-name="Tracé 293" d="M3331.538,2763.77l9.114-10.675-3.987-3.4,1.218-1.429,9.595,8.192-1.22,1.426-4.005-3.418-9.113,10.676Z" fill="#fff"/>
          <path id="Tracé_294" data-name="Tracé 294" d="M3338.859,2770.212l10.785-11.7,1.548,1.427-10.785,11.7Z" fill="#fff"/>
          <path id="Tracé_295" data-name="Tracé 295" d="M3343.107,2774.121l11.223-11.286,7.612,7.572-1.324,1.332-6.12-6.086-3.475,3.494,5.3,5.268-1.325,1.33-5.3-5.266-5.1,5.127Z" fill="#fff"/>
          <path id="Tracé_296" data-name="Tracé 296" d="M3359.49,2784.167l1.474-1.3,3.975,4.5-1.473,1.3Z" fill="#fff"/>
          <path id="Tracé_297" data-name="Tracé 297" d="M3365.318,2798.293l12.586-9.743,6.572,8.491-1.485,1.149-5.284-6.824-3.9,3.017,4.572,5.907-1.484,1.148-4.572-5.905-5.717,4.427Z" fill="#fff"/>
          <path id="Tracé_298" data-name="Tracé 298" d="M3379.438,2803.9a8.643,8.643,0,0,1,6.323-1.739,7.23,7.23,0,0,1,4.948,3.273,7.606,7.606,0,0,1,1.37,3.876,6.876,6.876,0,0,1-.906,3.884,9.512,9.512,0,0,1-3.006,3.174,9.37,9.37,0,0,1-4.128,1.635,6.671,6.671,0,0,1-3.95-.657,7.911,7.911,0,0,1-2.99-2.638,7.537,7.537,0,0,1-1.367-3.931,6.983,6.983,0,0,1,.937-3.885A8.961,8.961,0,0,1,3379.438,2803.9Zm1.2,1.812a6.368,6.368,0,0,0-2.872,3.832,5.4,5.4,0,0,0,4.406,6.429,6.756,6.756,0,0,0,4.785-1.405,8.138,8.138,0,0,0,2.432-2.454,5.043,5.043,0,0,0,.774-2.854,5.213,5.213,0,0,0-.941-2.8,5.383,5.383,0,0,0-3.438-2.313Q3383.6,2803.681,3380.634,2805.708Z" fill="#fff"/>
          <path id="Tracé_299" data-name="Tracé 299" d="M3401.916,2823.833l1.07,1.814-7.915,4.679a10.907,10.907,0,0,1-3.557,1.47,4.633,4.633,0,0,1-2.973-.518,6.931,6.931,0,0,1-2.654-2.75,7.632,7.632,0,0,1-1.2-3.541,4.4,4.4,0,0,1,.887-2.884,10.674,10.674,0,0,1,3.125-2.554l7.916-4.678,1.071,1.813-7.905,4.674a8.93,8.93,0,0,0-2.436,1.887,2.931,2.931,0,0,0-.629,1.91,4.6,4.6,0,0,0,.71,2.248,4.393,4.393,0,0,0,2.591,2.314q1.41.315,3.989-1.211Z" fill="#fff"/>
          <path id="Tracé_300" data-name="Tracé 300" d="M3401.006,2844.219l.482,2.117a7.076,7.076,0,0,1-4.608-.326,6.549,6.549,0,0,1-3.123-3.129,7.548,7.548,0,0,1-.967-4.2,6.549,6.549,0,0,1,1.588-3.563,10.855,10.855,0,0,1,3.42-2.688,9.369,9.369,0,0,1,4.295-1.123,6.5,6.5,0,0,1,3.732,1.132,7.882,7.882,0,0,1,2.608,3,6.513,6.513,0,0,1,.742,4.133,6.319,6.319,0,0,1-2.015,3.573l-1.378-1.626a4.9,4.9,0,0,0,1.523-2.58,4.275,4.275,0,0,0-.495-2.72,5.155,5.155,0,0,0-2.177-2.332,4.634,4.634,0,0,0-2.89-.471,9.473,9.473,0,0,0-2.949.943,9.7,9.7,0,0,0-2.89,2.136,4.42,4.42,0,0,0-1.181,2.669,5.17,5.17,0,0,0,.56,2.748,4.54,4.54,0,0,0,2.269,2.206A5.231,5.231,0,0,0,3401.006,2844.219Z" fill="#fff"/>
          <path id="Tracé_301" data-name="Tracé 301" d="M3397.258,2849.175l17.031-.766.908,2.08-11.979,12.337-.96-2.2,3.675-3.63-2.663-6.1-5.116.326Zm7.827,1.593,2.159,4.945,3.374-3.285q1.536-1.5,2.573-2.355a20.328,20.328,0,0,1-3.127.429Z" fill="#fff"/>
          <path id="Tracé_302" data-name="Tracé 302" d="M3422.279,2868.538l.725,1.977-8.631,3.169a10.9,10.9,0,0,1-3.764.8,4.646,4.646,0,0,1-2.831-1.048,6.935,6.935,0,0,1-2.111-3.185,7.645,7.645,0,0,1-.539-3.7,4.41,4.41,0,0,1,1.4-2.674,10.626,10.626,0,0,1,3.537-1.946l8.631-3.169.726,1.978-8.622,3.165a8.969,8.969,0,0,0-2.737,1.414,2.933,2.933,0,0,0-.965,1.765,4.606,4.606,0,0,0,.293,2.339,4.383,4.383,0,0,0,2.13,2.745q1.326.564,4.141-.467Z" fill="#fff"/>
          <path id="Tracé_303" data-name="Tracé 303" d="M3409.033,2879.02l15.217-4.662.616,2.014-13.421,4.112,2.295,7.494-1.795.55Z" fill="#fff"/>
          <path id="Tracé_304" data-name="Tracé 304" d="M3413.143,2893.12l13.588-3.522-1.314-5.076,1.817-.471,3.165,12.211-1.818.471-1.321-5.1-13.589,3.522Z" fill="#fff"/>
        </g>
      </g>
      <circle id="Ellipse_62" data-name="Ellipse 62" cx="238.974" cy="238.974" r="238.974" transform="translate(2838.332 2954.659) rotate(-45)" fill="#fff"/>
      <line id="Ligne_59" data-name="Ligne 59" x1="28.979" transform="translate(3382.049 3111.298)" fill="none" stroke="#231f20" stroke-miterlimit="10" stroke-width="3"/>
      <text id="Ensemble_d_objets_à_étudier_pour_comprendre_et_aborder_le_sujet" data-name="Ensemble d’objets à étudier pour comprendre et aborder le sujet" transform="translate(3430.399 2716.137)" fill="#231f20" font-size="11.345" font-family="Hind-Regular, Hind"><tspan x="3.751" y="12">Ensemble d’objets à étudier pour </tspan><tspan x="12.737" y="25.614">comprendre et aborder le sujet</tspan></text>
      <circle id="Ellipse_63" data-name="Ellipse 63" cx="12.034" cy="12.034" r="12.034" transform="translate(3602.145 2740.741) rotate(-80.783)" fill="#b9a3e3"/>
      <text id="Dispositif_correspond_à_une_formation_dont_les_composantes_s_agglutinent_stratégiquement_pour_répondre_à_une_problématique._Système_automatisé_de_régulation_des_rapports_de_forces_qui_visent_à_maintenir_ou_à_développer_un_certain_différentiel_de_pouvoir_" data-name="Dispositif correspond à une formation dont les composantes s’agglutinent stratégiquement pour répondre à une problématique. « Système automatisé de régulation des rapports de forces qui visent à maintenir ou à développer un certain différentiel de pouvoir " transform="translate(3417.538 3085.785)" fill="#231f20" font-size="11.345" font-family="Hind-Medium, Hind" font-weight="500"><tspan x="4.225" y="12">Dispositif correspond à une formation dont les </tspan><tspan x="15.207" y="25.614">composantes s’agglutinent stratégiquement </tspan><tspan x="0.855" y="39.229">pour répondre à une problématique. « Système </tspan><tspan x="29.116" y="52.843">automatisé de régulation des rapports de </tspan><tspan x="10.544" y="66.458">forces qui visent à maintenir ou à développer </tspan><tspan x="27.142" y="80.072">un certain différentiel de pouvoir face aux </tspan><tspan x="3.521" y="93.687">modifications du milieu dans lequel il baigne. »</tspan></text>
      <line id="Ligne_60" data-name="Ligne 60" y1="107.781" x2="172.071" transform="translate(3092.564 2905.572)" fill="none" stroke="#ff6800" stroke-miterlimit="10" stroke-width="1"/>
      <line id="Ligne_61" data-name="Ligne 61" x2="177.744" y2="102.108" transform="translate(3091.619 2900.844)" fill="none" stroke="#ff6800" stroke-miterlimit="10" stroke-width="1"/>
      <path id="Tracé_305" data-name="Tracé 305" d="M3097.236,2876.446a61.668,61.668,0,1,1-61.668-61.668A61.667,61.667,0,0,1,3097.236,2876.446Z" fill="#b9a3e3"/>
      <text id="_1" data-name="1" transform="translate(3023.318 2818.181)" fill="#231f20" font-size="19.156" font-family="Hind-Bold, Hind" font-weight="700"><tspan x="8.611" y="20">1</tspan></text>
      <path id="Tracé_306" data-name="Tracé 306" d="M3376.132,2869.828a61.668,61.668,0,1,1-61.668-61.667A61.669,61.669,0,0,1,3376.132,2869.828Z" fill="#b9a3e3"/>
      <text id="_3" data-name="3" transform="translate(3302.215 2809.678)" fill="#231f20" font-size="19.156" font-family="Arial-BoldMT, Arial" font-weight="700"><tspan x="6.923" y="17">3</tspan></text>
      <path id="Tracé_307" data-name="Tracé 307" d="M3099.6,3043.309a61.667,61.667,0,1,1-61.668-61.668A61.669,61.669,0,0,1,3099.6,3043.309Z" fill="#b9a3e3"/>
      <text id="_6" data-name="6" transform="translate(3025.685 2985.044)" fill="#231f20" font-size="19.156" font-family="Hind-Bold, Hind" font-weight="700"><tspan x="7.107" y="20">6</tspan></text>
      <text id="Éléments_solides" data-name="Éléments solides" transform="translate(2993.169 3013.686)" fill="#231f20" font-size="14.649" font-family="Hind-Regular, Hind"><tspan x="15.36" y="15">Éléments </tspan><tspan x="22.508" y="32.579">solides</tspan></text>
      <path id="Tracé_308" data-name="Tracé 308" d="M3386.531,3031.018a61.668,61.668,0,1,1-61.669-61.667A61.669,61.669,0,0,1,3386.531,3031.018Z" fill="#b9a3e3"/>
      <text id="_4" data-name="4" transform="translate(3312.613 2970.869)" fill="#231f20" font-size="19.156" font-family="Arial-BoldMT, Arial" font-weight="700"><tspan x="6.923" y="17">4</tspan></text>
      <text id="Service" transform="translate(3273.957 3001.397)" fill="#231f20" font-size="14.649" font-family="Hind-Regular, Hind"><tspan x="28.179" y="15">Service</tspan></text>
      <text id="Ensemble_architectural_espaces_mobilier" data-name="Ensemble architectural, espaces, mobilier" transform="translate(2985.496 3054.592)" fill="#231f20" font-size="9" font-family="Hind-Regular, Hind"><tspan x="6.852" y="9">Ensemble architectural, </tspan><tspan x="18.584" y="19.8">espaces, mobilier</tspan></text>
      <text id="Écosystème_de_la_Ressourcerie" data-name="Écosystème de la Ressourcerie" transform="translate(3274.488 3030.957)" fill="#231f20" font-size="9" font-family="Hind-Regular, Hind"><tspan x="18.494" y="9">Écosystème de la </tspan><tspan x="27.44" y="19.8">Ressourcerie</tspan></text>
      <text id="Institutions" transform="translate(3131.724 3133.044)" fill="#231f20" font-size="7.564" font-family="Hind-Regular, Hind"><tspan x="33.471" y="8">Institutions</tspan></text>
      <line id="Ligne_62" data-name="Ligne 62" y2="240.144" transform="translate(3178.599 2828.046)" fill="none" stroke="#ff6800" stroke-miterlimit="10" stroke-width="1"/>
      <path id="Tracé_309" data-name="Tracé 309" d="M3243.775,3122.248a61.667,61.667,0,1,1-61.667-61.667A61.668,61.668,0,0,1,3243.775,3122.248Z" fill="#b9a3e3"/>
      <text id="_5" data-name="5" transform="translate(3169.859 3063.984)" fill="#231f20" font-size="19.156" font-family="Hind-Bold, Hind" font-weight="700"><tspan x="7.461" y="20">5</tspan></text>
      <path id="Tracé_310" data-name="Tracé 310" d="M3236.212,2786.614a61.667,61.667,0,1,1-61.667-61.667A61.667,61.667,0,0,1,3236.212,2786.614Z" fill="#b9a3e3"/>
      <text id="_2" data-name="2" transform="translate(3162.295 2726.465)" fill="#231f20" font-size="19.156" font-family="Arial-BoldMT, Arial" font-weight="700"><tspan x="6.923" y="17">2</tspan></text>
      <text id="Contexte" transform="translate(2984.9 2853.376)" fill="#231f20" font-size="14.649" font-family="Hind-Regular, Hind"><tspan x="21.871" y="15">Contexte</tspan></text>
      <text id="Contexte_macro_et_micro_:_politique_économique_environnemental" data-name="Contexte macro et micro : politique, économique, environnemental" transform="translate(2983.847 2873.33)" fill="#231f20" font-size="9" font-family="Hind-Regular, Hind"><tspan x="1.569" y="9">Contexte macro et micro : </tspan><tspan x="7.365" y="19.8">politique, économique, </tspan><tspan x="19.034" y="30.6">environnemental</tspan></text>
      <path id="Tracé_311" data-name="Tracé 311" d="M3239.994,2954.431a61.668,61.668,0,1,1-61.669-61.668A61.668,61.668,0,0,1,3239.994,2954.431Z" fill="#ff6800"/>
      <text id="Combinaison_des_relations_découlant_de_la_rencontre_de_ces_éléments_servant_à_mesurer_notre_champ_d_observation" data-name="Combinaison des relations découlant de la rencontre de ces éléments servant à mesurer notre champ d’observation" transform="translate(3126.16 2912.742)" fill="#fff" font-size="11" font-family="Hind-Regular, Hind"><tspan x="11.967" y="12">Combinaison des </tspan><tspan x="6.907" y="25.614">relations découlant </tspan><tspan x="0.125" y="39.229">de la rencontre de ces </tspan><tspan x="7.704" y="52.843">éléments servant à </tspan><tspan x="1.781" y="66.458">mesurer notre champ </tspan><tspan x="20.041" y="80.072">d’observation</tspan></text>
      <text id="Sociétés_humaines" data-name="Sociétés humaines" transform="translate(3124.185 2755.995)" fill="#231f20" font-size="14.649" font-family="Hind-Regular, Hind"><tspan x="24.427" y="15">Sociétés </tspan><tspan x="20.897" y="32.579">humaines</tspan></text>
      <text id="Utilisateurs_clients_salariés_équipe_backoffice" data-name="Utilisateurs, clients, salariés, équipe backoffice" transform="translate(3122.822 2790.006)" fill="#231f20" font-size="9" font-family="Hind-Regular, Hind"><tspan x="14.552" y="9">Utilisateurs, clients, </tspan><tspan x="1.596" y="19.8">salariés, équipe backoffice</tspan></text>
      <text id="Éléments_immatériels" data-name="Éléments 
immatériels" transform="translate(3262.327 2838.798)" fill="#231f20" font-size="14.649" font-family="Hind-Regular, Hind"><tspan x="22.216" y="15">Éléments </tspan><tspan x="14.444" y="32.579">immatériels</tspan></text>
      <text id="Pensée_émotions_philosophie_attitudes" data-name="Pensée, émotions, philosophie, attitudes" transform="translate(3263.159 2882.057)" fill="#231f20" font-size="9" font-family="Hind-Regular, Hind"><tspan x="16.734" y="9">Pensée, émotions, </tspan><tspan x="9.813" y="19.8">philosophie, attitudes</tspan></text>
      <text id="Prescriptions_juridiques" data-name="Prescriptions
juridiques" transform="translate(3127.226 3093.487)" fill="#231f20" font-size="15.494" font-family="Hind-Regular, Hind"><tspan x="11.095" y="16">Prescriptions</tspan><tspan x="21.553" y="34.593">juridiques</tspan></text>
      <text id="Règlements_lois_mesures_administratives" data-name="Règlements, lois, mesures administratives" transform="translate(3125.785 3146.932)" fill="#231f20" font-size="8" font-family="Hind-Regular, Hind"><tspan x="10.846" y="8">Règlements, lois, mesures </tspan><tspan x="28.614" y="17.6">administratives</tspan></text>
    </g>
  </g>
</svg>
