<svg xmlns="http://www.w3.org/2000/svg" xmlns:xlink="http://www.w3.org/1999/xlink" width="615.889" height="575.28" viewBox="0 0 615.889 575.28">
  <defs>
    <clipPath id="clip-_315">
      <rect width="615.89" height="575.28"/>
    </clipPath>
  </defs>
  <g id="_315" data-name="315" clip-path="url(#clip-_315)">
    <rect width="615.89" height="575.28" fill="#fff"/>
    <path id="Tracé_178" data-name="Tracé 178" d="M4429.558,2939.21c0,124.55-100.965,225.517-225.514,225.517s-225.517-100.967-225.517-225.517,100.964-225.516,225.517-225.516S4429.558,2814.659,4429.558,2939.21Z" transform="translate(-3902.627 -2637.414)" fill="none" stroke="#c6c5c4" stroke-miterlimit="10" stroke-width="6"/>
    <path id="Tracé_179" data-name="Tracé 179" d="M4255.486,2913.356a55.274,55.274,0,1,1-55.276-55.273A55.277,55.277,0,0,1,4255.486,2913.356Z" transform="translate(-3902.627 -2637.414)" fill="#2f836b"/>
    <path id="Tracé_180" data-name="Tracé 180" d="M4073.78,2791.053a47.016,47.016,0,1,1-47.015-47.013A47.016,47.016,0,0,1,4073.78,2791.053Z" transform="translate(-3902.627 -2637.414)" fill="#b9a3e3"/>
    <g id="Groupe_149" data-name="Groupe 149" transform="translate(-3902.627 -2637.414)">
      <g id="Groupe_142" data-name="Groupe 142">
        <g id="Groupe_141" data-name="Groupe 141">
          <g id="Groupe_140" data-name="Groupe 140">
            <path id="Tracé_181" data-name="Tracé 181" d="M4230.658,2934.3v.8a1.035,1.035,0,0,0-.026.1,6.379,6.379,0,0,1-.814,2.87,6.5,6.5,0,0,1-2.764,2.711,6.844,6.844,0,0,1-3.219.735q-25.509-.012-51.018-.008h-.254v-33.776c.079-.272.07-.56.123-.84a9.188,9.188,0,0,1,9.185-7.672h5.17a.32.32,0,0,0,.315-.175c.28-.516.577-1.024.866-1.531q2.545-4.436,5.1-8.888a6.557,6.557,0,0,1,4.19-3.237c.333-.1.683-.131,1.024-.2h1.233c.35.07.7.123,1.041.21a6.358,6.358,0,0,1,4.051,3.044c1.915,3.272,3.8,6.57,5.694,9.842,1.785,3.1,3.561,6.167,5.337,9.264a.248.248,0,0,0,.245.14,8.109,8.109,0,0,1,4.8,2.038,8.067,8.067,0,0,1,1.942,9.553.391.391,0,0,0,.018.4c1.942,3.342,3.866,6.693,5.8,10.043.367.63.743,1.269,1.1,1.907a6.3,6.3,0,0,1,.814,2.572C4230.623,2934.252,4230.623,2934.287,4230.658,2934.3Zm-2.265,4.138a5.5,5.5,0,0,0,1.137-4.829,6.971,6.971,0,0,0-.849-1.959c-.945-1.619-1.881-3.255-2.825-4.891-.919-1.6-1.837-3.184-2.756-4.785-.3-.507-.586-1.014-.892-1.531a8.179,8.179,0,0,1-4.051,3.027,7.79,7.79,0,0,1-1.845.394c-.263.026-.272.026-.272-.228,0-.183.009-.367,0-.559v-.027c0-.1.044-.157.175-.157a7.4,7.4,0,0,0,1.628-.341,7.108,7.108,0,0,0,3.936-3.3,7.051,7.051,0,0,0-.017-6.981,7.07,7.07,0,0,0-7.279-3.526,7.133,7.133,0,0,0,.455,14.146c.114.017.166.044.166.157-.008.228-.008.455-.008.683.008.1-.044.157-.149.131a4.977,4.977,0,0,1-.5-.035,8.023,8.023,0,0,1-5.082-2.826,7.89,7.89,0,0,1-1.68-7.1,7.757,7.757,0,0,1,2.6-4.252,7.837,7.837,0,0,1,4.427-1.915c.122-.009.148-.027.078-.149-.2-.332-.393-.691-.594-1.024-1.181-2.055-2.371-4.1-3.552-6.158a.347.347,0,0,0-.359-.21q-14.29,0-28.579.009a8.418,8.418,0,0,0-1.409.122,8.132,8.132,0,0,0-4.916,2.922,7.823,7.823,0,0,0-1.837,5.065q-.013,15.983-.009,31.956c0,.237.061.28.271.28q5.038-.012,10.078-.008c.289,0,.289,0,.289-.28v-16.928a3.948,3.948,0,0,1,.035-.568,3.4,3.4,0,0,1,3.411-2.948h6.675a3.3,3.3,0,0,1,.586.052,3.4,3.4,0,0,1,2.843,3.377v17.023c0,.21.053.28.263.28,8.634-.008,17.251-.008,25.894-.008a5.571,5.571,0,0,0,1.014-.062A5.4,5.4,0,0,0,4228.393,2938.442Zm-18.73-39.217h.271c-.043-.1-.07-.158-.1-.219q-1.062-1.85-2.125-3.683c-1.085-1.872-2.161-3.761-3.246-5.625a9.337,9.337,0,0,0-1.058-1.609,5.5,5.5,0,0,0-5.162-1.837,5.293,5.293,0,0,0-3.884,2.58c-1.032,1.706-1.994,3.447-2.992,5.179q-1.416,2.48-2.834,4.943c-.044.078-.14.148-.087.245.035.061.157.026.236.026Zm-12.912,41.037v-16.989a2.448,2.448,0,0,0-2.484-2.476h-6.631a2.241,2.241,0,0,0-.543.062,2.381,2.381,0,0,0-1.942,2.423c-.008,2.8,0,5.616,0,8.407,0,2.878,0,5.773-.008,8.651,0,.193.052.237.236.228a11.731,11.731,0,0,1,1.583,0c3.167.009,6.325,0,9.492,0C4196.751,2940.568,4196.751,2940.568,4196.751,2940.262Z" fill="#d98979"/>
            <path id="Tracé_182" data-name="Tracé 182" d="M4196.751,2923.273v16.989c0,.306,0,.306-.3.306-3.167,0-6.325.009-9.492,0a11.731,11.731,0,0,0-1.583,0c-.184.009-.236-.035-.236-.228.008-2.878.008-5.773.008-8.651,0-2.791-.008-5.608,0-8.407a2.381,2.381,0,0,1,1.942-2.423,2.241,2.241,0,0,1,.543-.062h6.631A2.448,2.448,0,0,1,4196.751,2923.273Z" fill="#d98979"/>
          </g>
        </g>
      </g>
      <g id="Groupe_145" data-name="Groupe 145">
        <g id="Groupe_144" data-name="Groupe 144">
          <g id="Groupe_143" data-name="Groupe 143">
            <path id="Tracé_183" data-name="Tracé 183" d="M4230.658,2934.3v.8a1.035,1.035,0,0,0-.026.1,6.379,6.379,0,0,1-.814,2.87,6.5,6.5,0,0,1-2.764,2.711,6.844,6.844,0,0,1-3.219.735q-25.509-.012-51.018-.008h-.254v-33.776c.079-.272.07-.56.123-.84a9.188,9.188,0,0,1,9.185-7.672h5.17a.32.32,0,0,0,.315-.175c.28-.516.577-1.024.866-1.531q2.545-4.436,5.1-8.888a6.557,6.557,0,0,1,4.19-3.237c.333-.1.683-.131,1.024-.2h1.233c.35.07.7.123,1.041.21a6.358,6.358,0,0,1,4.051,3.044c1.915,3.272,3.8,6.57,5.694,9.842,1.785,3.1,3.561,6.167,5.337,9.264a.248.248,0,0,0,.245.14,8.109,8.109,0,0,1,4.8,2.038,8.067,8.067,0,0,1,1.942,9.553.391.391,0,0,0,.018.4c1.942,3.342,3.866,6.693,5.8,10.043.367.63.743,1.269,1.1,1.907a6.3,6.3,0,0,1,.814,2.572C4230.623,2934.252,4230.623,2934.287,4230.658,2934.3Zm-2.265,4.138a5.5,5.5,0,0,0,1.137-4.829,6.971,6.971,0,0,0-.849-1.959c-.945-1.619-1.881-3.255-2.825-4.891-.919-1.6-1.837-3.184-2.756-4.785-.3-.507-.586-1.014-.892-1.531a8.179,8.179,0,0,1-4.051,3.027,7.79,7.79,0,0,1-1.845.394c-.263.026-.272.026-.272-.228,0-.183.009-.367,0-.559v-.027c0-.1.044-.157.175-.157a7.4,7.4,0,0,0,1.628-.341,7.108,7.108,0,0,0,3.936-3.3,7.051,7.051,0,0,0-.017-6.981,7.07,7.07,0,0,0-7.279-3.526,7.133,7.133,0,0,0,.455,14.146c.114.017.166.044.166.157-.008.228-.008.455-.008.683.008.1-.044.157-.149.131a4.977,4.977,0,0,1-.5-.035,8.023,8.023,0,0,1-5.082-2.826,7.89,7.89,0,0,1-1.68-7.1,7.757,7.757,0,0,1,2.6-4.252,7.837,7.837,0,0,1,4.427-1.915c.122-.009.148-.027.078-.149-.2-.332-.393-.691-.594-1.024-1.181-2.055-2.371-4.1-3.552-6.158a.347.347,0,0,0-.359-.21q-14.29,0-28.579.009a8.418,8.418,0,0,0-1.409.122,8.132,8.132,0,0,0-4.916,2.922,7.823,7.823,0,0,0-1.837,5.065q-.013,15.983-.009,31.956c0,.237.061.28.271.28q5.038-.012,10.078-.008c.289,0,.289,0,.289-.28v-16.928a3.948,3.948,0,0,1,.035-.568,3.4,3.4,0,0,1,3.411-2.948h6.675a3.3,3.3,0,0,1,.586.052,3.4,3.4,0,0,1,2.843,3.377v17.023c0,.21.053.28.263.28,8.634-.008,17.251-.008,25.894-.008a5.571,5.571,0,0,0,1.014-.062A5.4,5.4,0,0,0,4228.393,2938.442Zm-18.73-39.217h.271c-.043-.1-.07-.158-.1-.219q-1.062-1.85-2.125-3.683c-1.085-1.872-2.161-3.761-3.246-5.625a9.337,9.337,0,0,0-1.058-1.609,5.5,5.5,0,0,0-5.162-1.837,5.293,5.293,0,0,0-3.884,2.58c-1.032,1.706-1.994,3.447-2.992,5.179q-1.416,2.48-2.834,4.943c-.044.078-.14.148-.087.245.035.061.157.026.236.026Zm-12.912,41.037v-16.989a2.448,2.448,0,0,0-2.484-2.476h-6.631a2.241,2.241,0,0,0-.543.062,2.381,2.381,0,0,0-1.942,2.423c-.008,2.8,0,5.616,0,8.407,0,2.878,0,5.773-.008,8.651,0,.193.052.237.236.228a11.731,11.731,0,0,1,1.583,0c3.167.009,6.325,0,9.492,0C4196.751,2940.568,4196.751,2940.568,4196.751,2940.262Z" fill="#fff"/>
            <path id="Tracé_184" data-name="Tracé 184" d="M4196.751,2923.273v16.989c0,.306,0,.306-.3.306-3.167,0-6.325.009-9.492,0a11.731,11.731,0,0,0-1.583,0c-.184.009-.236-.035-.236-.228.008-2.878.008-5.773.008-8.651,0-2.791-.008-5.608,0-8.407a2.381,2.381,0,0,1,1.942-2.423,2.241,2.241,0,0,1,.543-.062h6.631A2.448,2.448,0,0,1,4196.751,2923.273Z" fill="#2f836b"/>
          </g>
        </g>
      </g>
      <g id="Groupe_148" data-name="Groupe 148">
        <g id="Groupe_147" data-name="Groupe 147">
          <g id="Groupe_146" data-name="Groupe 146">
            <path id="Tracé_185" data-name="Tracé 185" d="M4230.658,2934.3v.8a1.035,1.035,0,0,0-.026.1,6.379,6.379,0,0,1-.814,2.87,6.5,6.5,0,0,1-2.764,2.711,6.844,6.844,0,0,1-3.219.735q-25.509-.012-51.018-.008h-.254v-33.776c.079-.272.07-.56.123-.84a9.188,9.188,0,0,1,9.185-7.672h5.17a.32.32,0,0,0,.315-.175c.28-.516.577-1.024.866-1.531q2.545-4.436,5.1-8.888a6.557,6.557,0,0,1,4.19-3.237c.333-.1.683-.131,1.024-.2h1.233c.35.07.7.123,1.041.21a6.358,6.358,0,0,1,4.051,3.044c1.915,3.272,3.8,6.57,5.694,9.842,1.785,3.1,3.561,6.167,5.337,9.264a.248.248,0,0,0,.245.14,8.109,8.109,0,0,1,4.8,2.038,8.067,8.067,0,0,1,1.942,9.553.391.391,0,0,0,.018.4c1.942,3.342,3.866,6.693,5.8,10.043.367.63.743,1.269,1.1,1.907a6.3,6.3,0,0,1,.814,2.572C4230.623,2934.252,4230.623,2934.287,4230.658,2934.3Zm-2.265,4.138a5.5,5.5,0,0,0,1.137-4.829,6.971,6.971,0,0,0-.849-1.959c-.945-1.619-1.881-3.255-2.825-4.891-.919-1.6-1.837-3.184-2.756-4.785-.3-.507-.586-1.014-.892-1.531a8.179,8.179,0,0,1-4.051,3.027,7.79,7.79,0,0,1-1.845.394c-.263.026-.272.026-.272-.228,0-.183.009-.367,0-.559v-.027c0-.1.044-.157.175-.157a7.4,7.4,0,0,0,1.628-.341,7.108,7.108,0,0,0,3.936-3.3,7.051,7.051,0,0,0-.017-6.981,7.07,7.07,0,0,0-7.279-3.526,7.133,7.133,0,0,0,.455,14.146c.114.017.166.044.166.157-.008.228-.008.455-.008.683.008.1-.044.157-.149.131a4.977,4.977,0,0,1-.5-.035,8.023,8.023,0,0,1-5.082-2.826,7.89,7.89,0,0,1-1.68-7.1,7.757,7.757,0,0,1,2.6-4.252,7.837,7.837,0,0,1,4.427-1.915c.122-.009.148-.027.078-.149-.2-.332-.393-.691-.594-1.024-1.181-2.055-2.371-4.1-3.552-6.158a.347.347,0,0,0-.359-.21q-14.29,0-28.579.009a8.418,8.418,0,0,0-1.409.122,8.132,8.132,0,0,0-4.916,2.922,7.823,7.823,0,0,0-1.837,5.065q-.013,15.983-.009,31.956c0,.237.061.28.271.28q5.038-.012,10.078-.008c.289,0,.289,0,.289-.28v-16.928a3.948,3.948,0,0,1,.035-.568,3.4,3.4,0,0,1,3.411-2.948h6.675a3.3,3.3,0,0,1,.586.052,3.4,3.4,0,0,1,2.843,3.377v17.023c0,.21.053.28.263.28,8.634-.008,17.251-.008,25.894-.008a5.571,5.571,0,0,0,1.014-.062A5.4,5.4,0,0,0,4228.393,2938.442Zm-18.73-39.217h.271c-.043-.1-.07-.158-.1-.219q-1.062-1.85-2.125-3.683c-1.085-1.872-2.161-3.761-3.246-5.625a9.337,9.337,0,0,0-1.058-1.609,5.5,5.5,0,0,0-5.162-1.837,5.293,5.293,0,0,0-3.884,2.58c-1.032,1.706-1.994,3.447-2.992,5.179q-1.416,2.48-2.834,4.943c-.044.078-.14.148-.087.245.035.061.157.026.236.026Zm-12.912,41.037v-16.989a2.448,2.448,0,0,0-2.484-2.476h-6.631a2.241,2.241,0,0,0-.543.062,2.381,2.381,0,0,0-1.942,2.423c-.008,2.8,0,5.616,0,8.407,0,2.878,0,5.773-.008,8.651,0,.193.052.237.236.228a11.731,11.731,0,0,1,1.583,0c3.167.009,6.325,0,9.492,0C4196.751,2940.568,4196.751,2940.568,4196.751,2940.262Z" fill="none" stroke="#fff" stroke-miterlimit="10" stroke-width="1"/>
            <path id="Tracé_186" data-name="Tracé 186" d="M4196.751,2923.273v16.989c0,.306,0,.306-.3.306-3.167,0-6.325.009-9.492,0a11.731,11.731,0,0,0-1.583,0c-.184.009-.236-.035-.236-.228.008-2.878.008-5.773.008-8.651,0-2.791-.008-5.608,0-8.407a2.381,2.381,0,0,1,1.942-2.423,2.241,2.241,0,0,1,.543-.062h6.631A2.448,2.448,0,0,1,4196.751,2923.273Z" fill="none" stroke="#fff" stroke-miterlimit="10" stroke-width="1"/>
          </g>
        </g>
      </g>
    </g>
    <text id="Equipe_2" data-name="Equipe 2" transform="translate(85.952 132.25)" fill="#333" font-size="11.012" font-family="Hind-Regular, Hind"><tspan x="17.989" y="12">Equipe 2</tspan></text>
    <circle id="Ellipse_59" data-name="Ellipse 59" cx="47.016" cy="47.016" r="47.016" transform="translate(432.292 106.962)" fill="#b9a3e3"/>
    <text id="Equipe_5" data-name="Equipe 5" transform="translate(441.122 132.586)" fill="#333" font-size="11.012" font-family="Hind-Regular, Hind"><tspan x="17.906" y="12">Equipe 5</tspan></text>
    <path id="Tracé_187" data-name="Tracé 187" d="M4073.78,3065.251a47.016,47.016,0,1,1-47.015-47.016A47.013,47.013,0,0,1,4073.78,3065.251Z" transform="translate(-3902.627 -2637.414)" fill="#b9a3e3"/>
    <text id="Equipe_3" data-name="Equipe 3" transform="translate(85.952 406.445)" fill="#333" font-size="11.012" font-family="Hind-Regular, Hind"><tspan x="18.143" y="12">Equipe 3</tspan></text>
    <text id="Se_rencontrer" data-name="Se rencontrer" transform="translate(79.114 426.484)" fill="#333" font-size="15" font-family="Hind-Regular, Hind"><tspan x="1.568" y="16">Se rencontrer</tspan></text>
    <text id="S_entraider" data-name="S’entraider" transform="translate(441.12 147.071)" fill="#333" font-size="15" font-family="Hind-Regular, Hind"><tspan x="3.671" y="16">S’entraider</tspan></text>
    <text id="Intégrer" transform="translate(85.952 147.071)" fill="#333" font-size="15" font-family="Hind-Regular, Hind"><tspan x="12.678" y="16">Intégrer</tspan></text>
    <text id="Intégrer-2" data-name="Intégrer" transform="translate(259.397 343.728)" fill="#fff" font-size="11.012" font-family="Helvetica"><tspan x="19.21" y="8">Intégrer</tspan></text>
    <path id="Tracé_188" data-name="Tracé 188" d="M4428.95,3065.251a47.016,47.016,0,1,1-47.015-47.016A47.014,47.014,0,0,1,4428.95,3065.251Z" transform="translate(-3902.627 -2637.414)" fill="#b9a3e3"/>
    <text id="Equipe_4" data-name="Equipe 4" transform="translate(441.12 406.445)" fill="#333" font-size="11.012" font-family="Hind-Regular, Hind"><tspan x="17.737" y="12">Equipe 4</tspan></text>
    <path id="Tracé_189" data-name="Tracé 189" d="M4239.5,2986.881a39.29,39.29,0,1,1-39.291-39.291A39.291,39.291,0,0,1,4239.5,2986.881Z" transform="translate(-3902.627 -2637.414)" fill="#b9a3e3"/>
    <text id="Equipe_1" data-name="Equipe 1" transform="translate(265.671 331.275)" fill="#333" font-size="9.203" font-family="Hind-Regular, Hind"><tspan x="15.821" y="10">Equipe 1</tspan></text>
    <text id="La_ressourcerie" data-name="La ressourcerie" transform="translate(260.69 233.469)" fill="#fff" font-size="9.203" font-family="Hind-Regular, Hind"><tspan x="6.474" y="10">La ressourcerie</tspan></text>
    <line id="Ligne_53" data-name="Ligne 53" x2="78.695" y2="55.643" transform="translate(171.153 182.938)" fill="none" stroke="#2f836b" stroke-miterlimit="10" stroke-width="5"/>
    <line id="Ligne_54" data-name="Ligne 54" x1="80.918" y2="57.646" transform="translate(344.729 180.934)" fill="none" stroke="#2f836b" stroke-miterlimit="10" stroke-width="5"/>
    <line id="Ligne_55" data-name="Ligne 55" y1="55.643" x2="78.695" transform="translate(171.153 331.743)" fill="none" stroke="#2f836b" stroke-miterlimit="10" stroke-width="5"/>
    <line id="Ligne_56" data-name="Ligne 56" x1="80.918" y1="57.648" transform="translate(344.729 331.743)" fill="none" stroke="#2f836b" stroke-miterlimit="10" stroke-width="5"/>
    <line id="Ligne_57" data-name="Ligne 57" x2="250.002" transform="translate(175.646 455.13)" fill="none" stroke="#ff6800" stroke-miterlimit="10" stroke-width="4"/>
    <line id="Ligne_58" data-name="Ligne 58" y2="164.807" transform="translate(124.138 209.757)" fill="none" stroke="#ff6800" stroke-miterlimit="10" stroke-width="4"/>
    <text id="Se_divertir" data-name="Se divertir" transform="translate(441.12 424.574)" fill="#333" font-size="15" font-family="ArialMT, Arial"><tspan x="4.426" y="14">Se divertir</tspan></text>
    <text id="Objectif_commun:_création_de_liens_" data-name="Objectif commun: création de liens " transform="translate(213.243 118.494)" fill="#2f836b" font-size="20" font-family="Hind-Medium, Hind" font-weight="500"><tspan x="9.633" y="21">Objectif commun:</tspan><tspan y="21" font-family="ArialMT, Arial" font-weight="400"> </tspan><tspan x="14.581" y="45" font-family="ArialMT, Arial" font-weight="400">création de liens </tspan></text>
    <text id="S_approprier" data-name="S’approprier" transform="translate(259.397 345.088)" fill="#333" font-size="13" font-family="Hind-Regular, Hind"><tspan x="4.431" y="14">S’approprier</tspan></text>
    <text id="Types_de_solutions" data-name="Types de solutions" transform="translate(416.554 47.119)" fill="#ff6800" font-size="11.345" font-family="Hind-Regular, Hind"><tspan x="8.186" y="12">Types de solutions</tspan></text>
    <circle id="Ellipse_60" data-name="Ellipse 60" cx="7.659" cy="7.659" r="7.659" transform="translate(520.677 47.905)" fill="#ff6800"/>
    <g id="Groupe_156" data-name="Groupe 156" transform="translate(-3902.627 -2637.414)">
      <g id="Groupe_152" data-name="Groupe 152">
        <g id="Groupe_151" data-name="Groupe 151">
          <g id="Groupe_150" data-name="Groupe 150">
            <path id="Tracé_190" data-name="Tracé 190" d="M4313.03,2849.777a15.894,15.894,0,0,1,4.37,19.37c-.44-.24-.87-.46-1.32-.7a14.28,14.28,0,0,0,1.38-5.21h-5.07a29.873,29.873,0,0,1-.29,3.09c-.36-.2-.71-.38-1.06-.57a.234.234,0,0,0-.05-.03c-.31-.16-.3-.16-.27-.5.07-.66.12-1.32.18-1.99h-7.11v6.12h1.04c.3.01.23-.02.31.24.12.42.23.84.35,1.26h-1.7v5.76a5.651,5.651,0,0,0,2.9-1.6c.24.86.48,1.7.73,2.55a15.963,15.963,0,1,1,5.61-27.79Zm4.45,11.93c0-.04.01-.07,0-.09a14.258,14.258,0,0,0-.96-4.61,14.742,14.742,0,0,0-1.58-2.99c-.05-.08-.1-.13-.21-.1-.98.19-1.95.38-2.93.56-.17.03-.34.06-.52.09a25.674,25.674,0,0,1,.81,3.53,29,29,0,0,1,.31,3.61Zm-5.03-8.85c.44-.08.88-.18,1.36-.27a14.559,14.559,0,0,0-5.78-3.94,1.054,1.054,0,0,1,.08.1,12.193,12.193,0,0,1,1.4,1.88,13.9,13.9,0,0,1,1.15,2.28c.06.17.15.2.31.18C4311.46,2853,4311.96,2852.937,4312.45,2852.857Zm-8.67,8.84h7.12a24.6,24.6,0,0,0-1.13-6.96,54.406,54.406,0,0,1-5.99.35Zm5.46-8.4c-.26-.53-.49-1.03-.76-1.5a10.227,10.227,0,0,0-1.58-2.17,5.922,5.922,0,0,0-2.66-1.7,4.352,4.352,0,0,0-.46-.12v5.79C4305.6,2853.577,4307.4,2853.467,4309.24,2853.3Zm-6.97,23.31v-5.77c-1.81.02-3.59.13-5.38.29a.843.843,0,0,1,.03.09,12.686,12.686,0,0,0,2.07,3.34,6.8,6.8,0,0,0,2.18,1.7A4.151,4.151,0,0,0,4302.27,2876.607Zm0-14.9v-6.62a58.849,58.849,0,0,1-5.95-.34,23.884,23.884,0,0,0-1.16,6.96Zm0-8.11v-5.78a5.046,5.046,0,0,0-1.68.66,7.79,7.79,0,0,0-1.87,1.71,12.624,12.624,0,0,0-1.52,2.42c-.11.22-.21.45-.32.7C4298.69,2853.467,4300.47,2853.577,4302.27,2853.6Zm-.01,15.76v-6.13h-7.08v.09c.04.57.08,1.14.14,1.7a21.968,21.968,0,0,0,.95,4.54c.03.09.07.13.17.12.41-.05.82-.1,1.24-.13,1.26-.07,2.52-.13,3.78-.19C4301.73,2869.347,4301.99,2869.357,4302.26,2869.357Zm-4.24,6.42c-.08-.1-.15-.17-.21-.24a11.221,11.221,0,0,1-1.54-2.21c-.33-.61-.61-1.25-.91-1.88-.05-.1-.09-.12-.19-.11-.8.14-1.61.27-2.41.4-.16.03-.33.07-.5.11A14.357,14.357,0,0,0,4298.02,2875.777Zm-2.72-22.65a15.093,15.093,0,0,1,2.69-4.46,14.36,14.36,0,0,0-5.76,3.94C4293.27,2852.787,4294.28,2852.957,4295.3,2853.127Zm-.52,1.44a.432.432,0,0,0-.08-.02c-1.1-.2-2.2-.4-3.3-.62a.271.271,0,0,0-.32.13,15.11,15.11,0,0,0-1.6,3.09,14.391,14.391,0,0,0-.85,3.67c-.03.29-.05.58-.07.89h5.1A25.109,25.109,0,0,1,4294.78,2854.567Zm-.71,15.42c.23-.05.47-.08.71-.12a24.959,24.959,0,0,1-1.11-6.63h-5.11c.11.66.18,1.31.31,1.95a13.992,13.992,0,0,0,2.26,5.24c.05.09.11.1.21.08C4292.25,2870.327,4293.16,2870.157,4294.07,2869.987Z" fill="#ff6800"/>
            <path id="Tracé_191" data-name="Tracé 191" d="M4317.48,2861.617c.01.02,0,.05,0,.09h-5.08a29,29,0,0,0-.31-3.61,25.674,25.674,0,0,0-.81-3.53c.18-.03.35-.06.52-.09.98-.18,1.95-.37,2.93-.56.11-.03.16.02.21.1a14.742,14.742,0,0,1,1.58,2.99A14.258,14.258,0,0,1,4317.48,2861.617Z" fill="#ff6800"/>
            <path id="Tracé_192" data-name="Tracé 192" d="M4317.11,2870.677c.05.04.12.11.12.16s-.09.11-.15.13c-.46.14-.92.27-1.39.41l-2.07.6a.109.109,0,0,0-.05.01c-.37.11-.4.22-.16.52.84,1.03,1.68,2.06,2.52,3.1.22.27.45.55.67.83a.35.35,0,0,1-.06.55c-.45.37-.91.74-1.37,1.11a.33.33,0,0,1-.49-.03c-.3-.36-.59-.72-.88-1.08-.63-.77-1.26-1.55-1.89-2.32l-.51-.63c-.15-.19-.31-.18-.42.03-.46.84-.91,1.67-1.36,2.51-.14.26-.28.53-.43.79a.579.579,0,0,1-.17.14,1,1,0,0,1-.11-.17c-.32-1.09-.63-2.19-.95-3.28-.32-1.13-.64-2.26-.97-3.38-.56-1.95-1.12-3.91-1.68-5.86-.02-.07-.03-.15-.04-.19,0-.16.07-.2.22-.13.19.09.37.19.55.29,1.2.64,2.4,1.28,3.59,1.91,1.15.61,2.3,1.22,3.44,1.83,1.28.69,2.55,1.37,3.83,2.05A1.343,1.343,0,0,1,4317.11,2870.677Z" fill="#ff6800"/>
            <path id="Tracé_193" data-name="Tracé 193" d="M4313.81,2852.587c-.48.09-.92.19-1.36.27-.49.08-.99.14-1.48.23-.16.02-.25-.01-.31-.18a13.9,13.9,0,0,0-1.15-2.28,12.193,12.193,0,0,0-1.4-1.88,1.054,1.054,0,0,0-.08-.1A14.559,14.559,0,0,1,4313.81,2852.587Z" fill="#ff6800"/>
            <path id="Tracé_194" data-name="Tracé 194" d="M4310.9,2861.7h-7.12v-6.61a54.406,54.406,0,0,0,5.99-.35A24.6,24.6,0,0,1,4310.9,2861.7Z" fill="#ff6800"/>
            <path id="Tracé_195" data-name="Tracé 195" d="M4308.48,2851.8c.27.47.5.97.76,1.5-1.84.17-3.64.28-5.46.3v-5.79a4.352,4.352,0,0,1,.46.12,5.922,5.922,0,0,1,2.66,1.7A10.227,10.227,0,0,1,4308.48,2851.8Z" fill="#ff6800"/>
            <path id="Tracé_196" data-name="Tracé 196" d="M4302.27,2870.837v5.77a4.151,4.151,0,0,1-1.1-.35,6.8,6.8,0,0,1-2.18-1.7,12.686,12.686,0,0,1-2.07-3.34.843.843,0,0,0-.03-.09C4298.68,2870.967,4300.46,2870.857,4302.27,2870.837Z" fill="#ff6800"/>
            <path id="Tracé_197" data-name="Tracé 197" d="M4302.27,2855.087v6.62h-7.11a23.884,23.884,0,0,1,1.16-6.96A58.849,58.849,0,0,0,4302.27,2855.087Z" fill="#ff6800"/>
            <path id="Tracé_198" data-name="Tracé 198" d="M4302.27,2847.817v5.78c-1.8-.02-3.58-.13-5.39-.29.11-.25.21-.48.32-.7a12.624,12.624,0,0,1,1.52-2.42,7.79,7.79,0,0,1,1.87-1.71A5.046,5.046,0,0,1,4302.27,2847.817Z" fill="#ff6800"/>
            <path id="Tracé_199" data-name="Tracé 199" d="M4302.26,2863.227v6.13c-.27,0-.53-.01-.8,0-1.26.06-2.52.12-3.78.19-.42.03-.83.08-1.24.13-.1.01-.14-.03-.17-.12a21.968,21.968,0,0,1-.95-4.54c-.06-.56-.1-1.13-.14-1.7v-.09Z" fill="#ff6800"/>
            <path id="Tracé_200" data-name="Tracé 200" d="M4297.81,2875.537c.06.07.13.14.21.24a14.357,14.357,0,0,1-5.76-3.93c.17-.04.34-.08.5-.11.8-.13,1.61-.26,2.41-.4.1-.01.14.01.19.11.3.63.58,1.27.91,1.88A11.221,11.221,0,0,0,4297.81,2875.537Z" fill="#ff6800"/>
            <path id="Tracé_201" data-name="Tracé 201" d="M4297.99,2848.667a15.093,15.093,0,0,0-2.69,4.46c-1.02-.17-2.03-.34-3.07-.52A14.36,14.36,0,0,1,4297.99,2848.667Z" fill="#ff6800"/>
            <path id="Tracé_202" data-name="Tracé 202" d="M4294.7,2854.547a.432.432,0,0,1,.08.02,25.109,25.109,0,0,0-1.12,7.14h-5.1c.02-.31.04-.6.07-.89a14.391,14.391,0,0,1,.85-3.67,15.11,15.11,0,0,1,1.6-3.09.271.271,0,0,1,.32-.13C4292.5,2854.147,4293.6,2854.347,4294.7,2854.547Z" fill="#ff6800"/>
            <path id="Tracé_203" data-name="Tracé 203" d="M4294.78,2869.867c-.24.04-.48.07-.71.12-.91.17-1.82.34-2.73.52-.1.02-.16.01-.21-.08a13.992,13.992,0,0,1-2.26-5.24c-.13-.64-.2-1.29-.31-1.95h5.11A24.959,24.959,0,0,0,4294.78,2869.867Z" fill="#ff6800"/>
          </g>
        </g>
      </g>
      <g id="Groupe_155" data-name="Groupe 155">
        <g id="Groupe_154" data-name="Groupe 154">
          <g id="Groupe_153" data-name="Groupe 153">
            <path id="Tracé_204" data-name="Tracé 204" d="M4313.03,2849.777a15.894,15.894,0,0,1,4.37,19.37c-.44-.24-.87-.46-1.32-.7a14.28,14.28,0,0,0,1.38-5.21h-5.07a29.873,29.873,0,0,1-.29,3.09c-.36-.2-.71-.38-1.06-.57a.234.234,0,0,0-.05-.03c-.31-.16-.3-.16-.27-.5.07-.66.12-1.32.18-1.99h-7.11v6.12h1.04c.3.01.23-.02.31.24.12.42.23.84.35,1.26h-1.7v5.76a5.651,5.651,0,0,0,2.9-1.6c.24.86.48,1.7.73,2.55a15.963,15.963,0,1,1,5.61-27.79Zm4.45,11.93c0-.04.01-.07,0-.09a14.258,14.258,0,0,0-.96-4.61,14.742,14.742,0,0,0-1.58-2.99c-.05-.08-.1-.13-.21-.1-.98.19-1.95.38-2.93.56-.17.03-.34.06-.52.09a25.674,25.674,0,0,1,.81,3.53,29,29,0,0,1,.31,3.61Zm-5.03-8.85c.44-.08.88-.18,1.36-.27a14.559,14.559,0,0,0-5.78-3.94,1.054,1.054,0,0,1,.08.1,12.193,12.193,0,0,1,1.4,1.88,13.9,13.9,0,0,1,1.15,2.28c.06.17.15.2.31.18C4311.46,2853,4311.96,2852.937,4312.45,2852.857Zm-8.67,8.84h7.12a24.6,24.6,0,0,0-1.13-6.96,54.406,54.406,0,0,1-5.99.35Zm5.46-8.4c-.26-.53-.49-1.03-.76-1.5a10.227,10.227,0,0,0-1.58-2.17,5.922,5.922,0,0,0-2.66-1.7,4.352,4.352,0,0,0-.46-.12v5.79C4305.6,2853.577,4307.4,2853.467,4309.24,2853.3Zm-6.97,23.31v-5.77c-1.81.02-3.59.13-5.38.29a.843.843,0,0,1,.03.09,12.686,12.686,0,0,0,2.07,3.34,6.8,6.8,0,0,0,2.18,1.7A4.151,4.151,0,0,0,4302.27,2876.607Zm0-14.9v-6.62a58.849,58.849,0,0,1-5.95-.34,23.884,23.884,0,0,0-1.16,6.96Zm0-8.11v-5.78a5.046,5.046,0,0,0-1.68.66,7.79,7.79,0,0,0-1.87,1.71,12.624,12.624,0,0,0-1.52,2.42c-.11.22-.21.45-.32.7C4298.69,2853.467,4300.47,2853.577,4302.27,2853.6Zm-.01,15.76v-6.13h-7.08v.09c.04.57.08,1.14.14,1.7a21.968,21.968,0,0,0,.95,4.54c.03.09.07.13.17.12.41-.05.82-.1,1.24-.13,1.26-.07,2.52-.13,3.78-.19C4301.73,2869.347,4301.99,2869.357,4302.26,2869.357Zm-4.24,6.42c-.08-.1-.15-.17-.21-.24a11.221,11.221,0,0,1-1.54-2.21c-.33-.61-.61-1.25-.91-1.88-.05-.1-.09-.12-.19-.11-.8.14-1.61.27-2.41.4-.16.03-.33.07-.5.11A14.357,14.357,0,0,0,4298.02,2875.777Zm-2.72-22.65a15.093,15.093,0,0,1,2.69-4.46,14.36,14.36,0,0,0-5.76,3.94C4293.27,2852.787,4294.28,2852.957,4295.3,2853.127Zm-.52,1.44a.432.432,0,0,0-.08-.02c-1.1-.2-2.2-.4-3.3-.62a.271.271,0,0,0-.32.13,15.11,15.11,0,0,0-1.6,3.09,14.391,14.391,0,0,0-.85,3.67c-.03.29-.05.58-.07.89h5.1A25.109,25.109,0,0,1,4294.78,2854.567Zm-.71,15.42c.23-.05.47-.08.71-.12a24.959,24.959,0,0,1-1.11-6.63h-5.11c.11.66.18,1.31.31,1.95a13.992,13.992,0,0,0,2.26,5.24c.05.09.11.1.21.08C4292.25,2870.327,4293.16,2870.157,4294.07,2869.987Z" fill="#ff6800"/>
            <path id="Tracé_205" data-name="Tracé 205" d="M4317.48,2861.617c.01.02,0,.05,0,.09h-5.08a29,29,0,0,0-.31-3.61,25.674,25.674,0,0,0-.81-3.53c.18-.03.35-.06.52-.09.98-.18,1.95-.37,2.93-.56.11-.03.16.02.21.1a14.742,14.742,0,0,1,1.58,2.99A14.258,14.258,0,0,1,4317.48,2861.617Z" fill="#fff"/>
            <path id="Tracé_206" data-name="Tracé 206" d="M4317.11,2870.677c.05.04.12.11.12.16s-.09.11-.15.13c-.46.14-.92.27-1.39.41l-2.07.6a.109.109,0,0,0-.05.01c-.37.11-.4.22-.16.52.84,1.03,1.68,2.06,2.52,3.1.22.27.45.55.67.83a.35.35,0,0,1-.06.55c-.45.37-.91.74-1.37,1.11a.33.33,0,0,1-.49-.03c-.3-.36-.59-.72-.88-1.08-.63-.77-1.26-1.55-1.89-2.32l-.51-.63c-.15-.19-.31-.18-.42.03-.46.84-.91,1.67-1.36,2.51-.14.26-.28.53-.43.79a.579.579,0,0,1-.17.14,1,1,0,0,1-.11-.17c-.32-1.09-.63-2.19-.95-3.28-.32-1.13-.64-2.26-.97-3.38-.56-1.95-1.12-3.91-1.68-5.86-.02-.07-.03-.15-.04-.19,0-.16.07-.2.22-.13.19.09.37.19.55.29,1.2.64,2.4,1.28,3.59,1.91,1.15.61,2.3,1.22,3.44,1.83,1.28.69,2.55,1.37,3.83,2.05A1.343,1.343,0,0,1,4317.11,2870.677Z" fill="#ff6800"/>
            <path id="Tracé_207" data-name="Tracé 207" d="M4313.81,2852.587c-.48.09-.92.19-1.36.27-.49.08-.99.14-1.48.23-.16.02-.25-.01-.31-.18a13.9,13.9,0,0,0-1.15-2.28,12.193,12.193,0,0,0-1.4-1.88,1.054,1.054,0,0,0-.08-.1A14.559,14.559,0,0,1,4313.81,2852.587Z" fill="#fff"/>
            <path id="Tracé_208" data-name="Tracé 208" d="M4310.9,2861.7h-7.12v-6.61a54.406,54.406,0,0,0,5.99-.35A24.6,24.6,0,0,1,4310.9,2861.7Z" fill="#fff"/>
            <path id="Tracé_209" data-name="Tracé 209" d="M4308.48,2851.8c.27.47.5.97.76,1.5-1.84.17-3.64.28-5.46.3v-5.79a4.352,4.352,0,0,1,.46.12,5.922,5.922,0,0,1,2.66,1.7A10.227,10.227,0,0,1,4308.48,2851.8Z" fill="#fff"/>
            <path id="Tracé_210" data-name="Tracé 210" d="M4302.27,2870.837v5.77a4.151,4.151,0,0,1-1.1-.35,6.8,6.8,0,0,1-2.18-1.7,12.686,12.686,0,0,1-2.07-3.34.843.843,0,0,0-.03-.09C4298.68,2870.967,4300.46,2870.857,4302.27,2870.837Z" fill="#fff"/>
            <path id="Tracé_211" data-name="Tracé 211" d="M4302.27,2855.087v6.62h-7.11a23.884,23.884,0,0,1,1.16-6.96A58.849,58.849,0,0,0,4302.27,2855.087Z" fill="#fff"/>
            <path id="Tracé_212" data-name="Tracé 212" d="M4302.27,2847.817v5.78c-1.8-.02-3.58-.13-5.39-.29.11-.25.21-.48.32-.7a12.624,12.624,0,0,1,1.52-2.42,7.79,7.79,0,0,1,1.87-1.71A5.046,5.046,0,0,1,4302.27,2847.817Z" fill="#fff"/>
            <path id="Tracé_213" data-name="Tracé 213" d="M4302.26,2863.227v6.13c-.27,0-.53-.01-.8,0-1.26.06-2.52.12-3.78.19-.42.03-.83.08-1.24.13-.1.01-.14-.03-.17-.12a21.968,21.968,0,0,1-.95-4.54c-.06-.56-.1-1.13-.14-1.7v-.09Z" fill="#fff"/>
            <path id="Tracé_214" data-name="Tracé 214" d="M4297.81,2875.537c.06.07.13.14.21.24a14.357,14.357,0,0,1-5.76-3.93c.17-.04.34-.08.5-.11.8-.13,1.61-.26,2.41-.4.1-.01.14.01.19.11.3.63.58,1.27.91,1.88A11.221,11.221,0,0,0,4297.81,2875.537Z" fill="#fff"/>
            <path id="Tracé_215" data-name="Tracé 215" d="M4297.99,2848.667a15.093,15.093,0,0,0-2.69,4.46c-1.02-.17-2.03-.34-3.07-.52A14.36,14.36,0,0,1,4297.99,2848.667Z" fill="#fff"/>
            <path id="Tracé_216" data-name="Tracé 216" d="M4294.7,2854.547a.432.432,0,0,1,.08.02,25.109,25.109,0,0,0-1.12,7.14h-5.1c.02-.31.04-.6.07-.89a14.391,14.391,0,0,1,.85-3.67,15.11,15.11,0,0,1,1.6-3.09.271.271,0,0,1,.32-.13C4292.5,2854.147,4293.6,2854.347,4294.7,2854.547Z" fill="#fff"/>
            <path id="Tracé_217" data-name="Tracé 217" d="M4294.78,2869.867c-.24.04-.48.07-.71.12-.91.17-1.82.34-2.73.52-.1.02-.16.01-.21-.08a13.992,13.992,0,0,1-2.26-5.24c-.13-.64-.2-1.29-.31-1.95h5.11A24.959,24.959,0,0,0,4294.78,2869.867Z" fill="#fff"/>
          </g>
        </g>
      </g>
    </g>
    <g id="Groupe_164" data-name="Groupe 164" transform="translate(-3902.627 -2637.414)">
      <g id="Groupe_163" data-name="Groupe 163">
        <g id="Groupe_159" data-name="Groupe 159">
          <g id="Groupe_158" data-name="Groupe 158">
            <g id="Groupe_157" data-name="Groupe 157">
              <path id="Tracé_218" data-name="Tracé 218" d="M4213.522,3107.849c0,.652,0,1.308,0,1.964a1.7,1.7,0,0,1-1.774,1.767q-2.177.006-4.353.018c-.274,0-.274.01-.274.274,0,.7,0,1.409,0,2.114,0,.34.01.277-.289.281-.492,0-.989,0-1.509,0v-7.949c0-.233,0-.236.242-.236,1.538,0,3.072,0,4.61,0h.215l.219-.045c.118.094.232.07.323-.069l.222-.049c-.024.045-.052.1-.094.163a.834.834,0,0,0,.26-.006.245.245,0,0,0,.129-.146.141.141,0,0,0-.014-.07l.222-.048a1.411,1.411,0,0,1,.09.149c-.055.028-.107.052-.215.1.118.007.2.014.267.014a1.713,1.713,0,0,1,1.667,1.274A2.371,2.371,0,0,1,4213.522,3107.849Zm-1.83,1.916v-1.878h-4.561v1.878Z" fill="#fff"/>
              <path id="Tracé_219" data-name="Tracé 219" d="M4211.692,3107.887v1.878h-4.561v-1.878Z" fill="#fff"/>
              <path id="Tracé_220" data-name="Tracé 220" d="M4211.432,3105.863a.141.141,0,0,1,.014.07.245.245,0,0,1-.129.146.834.834,0,0,1-.26.006c.042-.065.07-.118.094-.163h0Z" fill="#fff"/>
              <path id="Tracé_221" data-name="Tracé 221" d="M4211.432,3105.863l-.278.059a.379.379,0,0,1,.063-.09c.035-.038.125-.08.149-.062A.238.238,0,0,1,4211.432,3105.863Z" fill="#fff"/>
              <path id="Tracé_222" data-name="Tracé 222" d="M4210.96,3105.922a.533.533,0,0,1-.031.049l-.323.069a.393.393,0,0,1-.087-.086Z" fill="#fff"/>
              <path id="Tracé_223" data-name="Tracé 223" d="M4208.023,3118.786c.056.226.136.448-.066.653-.031.034-.02.118-.024.177a7.88,7.88,0,0,1-.069,1.114,2.476,2.476,0,0,1-2.444,1.989l-3.62.01,0-.767c.271,0,.393-.128.4-.4,0-.128,0-.257,0-.385a.343.343,0,0,0-.368-.371c-.538,0-1.072,0-1.607,0v-.753h4.606a1.265,1.265,0,0,1-.121-.181.412.412,0,0,1,.01-.142.8.8,0,0,1,.122.031c.02.007.034.035.045.056a.514.514,0,0,0,.517.257c.229,0,.333-.132.472-.261-.069-.118-.149-.138-.247-.062-.038.031-.069.069-.107.1-.059.041-.118.079-.177.118.021-.073.017-.167.059-.219.222-.285.441-.278.666,0a.58.58,0,0,1,.07.087.437.437,0,0,0,.566.2c0-.222.006-.451-.007-.68a.227.227,0,0,0-.1-.167.269.269,0,0,0-.222-.014.172.172,0,0,0-.041.271c.1.128.208.257.3.392.024.035.007.1.007.153-.046-.014-.108-.01-.136-.042-.159-.187-.312-.378-.461-.572-.021-.025-.011-.073-.014-.111.17-.011.177-.2.295-.264a.734.734,0,0,1,.305-.07,4.549,4.549,0,0,0,.08-.579c.007-.906,0-1.812,0-2.718v-.212h.8c.43,0,.43,0,.43.434,0,.812-.007,1.628,0,2.444A2.147,2.147,0,0,0,4208.023,3118.786Z" fill="#fff"/>
              <path id="Tracé_224" data-name="Tracé 224" d="M4207.933,3100.136c0,1.531,0,3.062,0,4.592,0,.056-.007.111-.01.188h-1.205v-4.634c-.073-.007-.135-.014-.229-.021.018.243.031.465.045.68a1.728,1.728,0,0,0-.218.025c-.17.041-.306-.021-.337-.163s.059-.254.229-.3a.723.723,0,0,0,.17-.1c-.073-.02-.146-.045-.219-.059-.02-.007-.055.021-.069.011-.243-.2-.528-.084-.788-.084-3.061-.01-6.126-.006-9.188-.006h-.187v.69c-.073.014-.149.025-.222.045a.287.287,0,0,1-.375-.135c-.052-.167.041-.3.236-.347a.512.512,0,0,0,.107-.014.94.94,0,0,0,.125-.1c-.041-.038-.086-.115-.131-.115-.639-.007-1.278,0-1.941,0v4.623c-.392,0-.756,0-1.124,0-.122,0-.115-.08-.115-.163v-4.575a2.54,2.54,0,0,1,2.1-2.534,3.025,3.025,0,0,1,.566-.045q5.061,0,10.125.007a2.524,2.524,0,0,1,2.607,2.075A2.457,2.457,0,0,1,4207.933,3100.136Zm-1.478.569c-.1-.048-.15-.093-.174-.079a1.081,1.081,0,0,0-.163.131c.041.035.09.1.118.094A.986.986,0,0,0,4206.455,3100.705Zm-10.66.011c.007-.011-.1-.108-.118-.1a1.445,1.445,0,0,0-.229.159c.042.049.08.1.16.2A2.244,2.244,0,0,0,4195.795,3100.716Z" fill="#fff"/>
              <path id="Tracé_225" data-name="Tracé 225" d="M4206.281,3100.626c.024-.014.076.031.174.079a.986.986,0,0,1-.219.146c-.028.007-.077-.059-.118-.094A1.081,1.081,0,0,1,4206.281,3100.626Z" fill="#fff"/>
              <path id="Tracé_226" data-name="Tracé 226" d="M4204.556,3107.828q0,1.01,0,2.02a1.7,1.7,0,0,1-1.732,1.732l-4.374.018c-.3,0-.3,0-.3.291v2.371h-1.8v-.212c0-1.194,0-2.388,0-3.586a.477.477,0,0,0-.125-.364c-.1-.1-.184-.226-.277-.34-.066-.083-.15-.142-.247-.052a.188.188,0,0,0-.035.288c.094.121.2.236.285.361.031.045.021.114.031.173-.055-.017-.128-.02-.163-.059-.156-.18-.305-.368-.448-.555a.169.169,0,0,1,0-.121c.212-.053.253-.375.524-.334.017,0,.045-.038.052-.066a.391.391,0,0,1,.4-.274l.01-.212c0-.878,0-1.752,0-2.627,0-.149.035-.2.194-.2,2.086.006,4.176,0,6.265.006A1.7,1.7,0,0,1,4204.556,3107.828Zm-1.822,1.94v-1.881h-4.568v1.881Zm-6.377.139c0-.132.007-.264,0-.4,0-.059-.028-.149-.066-.166a.171.171,0,0,0-.17.048.25.25,0,0,0-.035.212,2.219,2.219,0,0,0,.236.316A.2.2,0,0,1,4196.357,3109.907Z" fill="#fff"/>
              <path id="Tracé_227" data-name="Tracé 227" d="M4202.734,3107.887v1.881h-4.568v-1.881Z" fill="#fff"/>
              <path id="Tracé_228" data-name="Tracé 228" d="M4202.192,3121.181c0,.128,0,.257,0,.385,0,.268-.125.4-.4.4-.531,0-1.065,0-1.6,0h-1.562c-.278,0-.4-.125-.4-.4,0-.125,0-.246,0-.368a.35.35,0,0,1,.375-.381c.538,0,1.073,0,1.607,0s1.069,0,1.607,0A.343.343,0,0,1,4202.192,3121.181Z" fill="#fff"/>
              <path id="Tracé_229" data-name="Tracé 229" d="M4201.8,3121.962l0,.767q-3.344.006-6.685.007a2.522,2.522,0,0,1-2.565-2.017,3.667,3.667,0,0,1-.059-.784c0-1.427,0-2.853,0-4.28,0-.187.052-.246.236-.232.271.013.542.01.809,0,.16-.007.194.052.194.2,0,1.388,0,2.78,0,4.169v.26h6.494v.753c-.534,0-1.069,0-1.607,0a.35.35,0,0,0-.375.381c0,.122,0,.243,0,.368,0,.278.125.4.4.4h1.562C4200.731,3121.962,4201.265,3121.966,4201.8,3121.962Z" fill="#fff"/>
              <path id="Tracé_230" data-name="Tracé 230" d="M4196.354,3109.511c.01.132,0,.264,0,.4a.2.2,0,0,0-.038.014,2.219,2.219,0,0,1-.236-.316.25.25,0,0,1,.035-.212.171.171,0,0,1,.17-.048C4196.326,3109.362,4196.35,3109.452,4196.354,3109.511Z" fill="#fff"/>
              <path id="Tracé_231" data-name="Tracé 231" d="M4195.708,3110.664c.011.017-.017.094-.021.094-.159-.011-.17.152-.26.218a3.311,3.311,0,0,1-.319.177v.208c0,.9,0,1.8,0,2.7,0,.16-.041.212-.205.208-.531-.007-1.062,0-1.614,0v-2.61h-4.578c0,.079-.01.149-.01.222,0,.722-.007,1.444,0,2.169,0,.177-.052.229-.229.222-.458-.01-.916,0-1.378,0h-.2v-6.428a1.713,1.713,0,0,1,1.836-1.774c1.524.017,3.047.024,4.571,0a1.755,1.755,0,0,1,1.8,1.805c-.017.722,0,1.444,0,2.089C4195.344,3110.233,4195.528,3110.449,4195.708,3110.664Zm-.389.191c.146-.111.143-.222-.007-.365-.187.129-.27.3-.177.382A.208.208,0,0,0,4195.319,3110.855Zm-2.041-1.035v-1.937h-4.561v1.937Z" fill="#fff"/>
              <path id="Tracé_232" data-name="Tracé 232" d="M4195.677,3100.619c.021-.011.125.086.118.1a2.244,2.244,0,0,1-.187.26c-.08-.1-.118-.149-.16-.2A1.445,1.445,0,0,1,4195.677,3100.619Z" fill="#fff"/>
              <path id="Tracé_233" data-name="Tracé 233" d="M4195.312,3110.49c.15.143.153.254.007.365a.208.208,0,0,1-.184.017C4195.042,3110.792,4195.125,3110.619,4195.312,3110.49Z" fill="#fff"/>
              <path id="Tracé_234" data-name="Tracé 234" d="M4193.278,3107.883v1.937h-4.561v-1.937Z" fill="#fff"/>
            </g>
          </g>
        </g>
        <g id="Groupe_162" data-name="Groupe 162">
          <g id="Groupe_161" data-name="Groupe 161">
            <g id="Groupe_160" data-name="Groupe 160">
              <path id="Tracé_235" data-name="Tracé 235" d="M4213.522,3107.849c0,.652,0,1.308,0,1.964a1.7,1.7,0,0,1-1.774,1.767q-2.177.006-4.353.018c-.274,0-.274.01-.274.274,0,.7,0,1.409,0,2.114,0,.34.01.277-.289.281-.492,0-.989,0-1.509,0v-7.949c0-.233,0-.236.242-.236,1.538,0,3.072,0,4.61,0h.215l.219-.045c.118.094.232.07.323-.069l.222-.049c-.024.045-.052.1-.094.163a.834.834,0,0,0,.26-.006.245.245,0,0,0,.129-.146.141.141,0,0,0-.014-.07l.222-.048a1.411,1.411,0,0,1,.09.149c-.055.028-.107.052-.215.1.118.007.2.014.267.014a1.713,1.713,0,0,1,1.667,1.274A2.371,2.371,0,0,1,4213.522,3107.849Zm-1.83,1.916v-1.878h-4.561v1.878Z" fill="#ff6800"/>
              <path id="Tracé_236" data-name="Tracé 236" d="M4211.692,3107.887v1.878h-4.561v-1.878Z" fill="#fff"/>
              <path id="Tracé_237" data-name="Tracé 237" d="M4211.432,3105.863a.141.141,0,0,1,.014.07.245.245,0,0,1-.129.146.834.834,0,0,1-.26.006c.042-.065.07-.118.094-.163h0Z"/>
              <path id="Tracé_238" data-name="Tracé 238" d="M4211.432,3105.863l-.278.059a.379.379,0,0,1,.063-.09c.035-.038.125-.08.149-.062A.238.238,0,0,1,4211.432,3105.863Z"/>
              <path id="Tracé_239" data-name="Tracé 239" d="M4210.96,3105.922a.533.533,0,0,1-.031.049l-.323.069a.393.393,0,0,1-.087-.086Z" fill="#fff"/>
              <path id="Tracé_240" data-name="Tracé 240" d="M4208.023,3118.786c.056.226.136.448-.066.653-.031.034-.02.118-.024.177a7.88,7.88,0,0,1-.069,1.114,2.476,2.476,0,0,1-2.444,1.989l-3.62.01,0-.767c.271,0,.393-.128.4-.4,0-.128,0-.257,0-.385a.343.343,0,0,0-.368-.371c-.538,0-1.072,0-1.607,0v-.753h4.606a1.265,1.265,0,0,1-.121-.181.412.412,0,0,1,.01-.142.8.8,0,0,1,.122.031c.02.007.034.035.045.056a.514.514,0,0,0,.517.257c.229,0,.333-.132.472-.261-.069-.118-.149-.138-.247-.062-.038.031-.069.069-.107.1-.059.041-.118.079-.177.118.021-.073.017-.167.059-.219.222-.285.441-.278.666,0a.58.58,0,0,1,.07.087.437.437,0,0,0,.566.2c0-.222.006-.451-.007-.68a.227.227,0,0,0-.1-.167.269.269,0,0,0-.222-.014.172.172,0,0,0-.041.271c.1.128.208.257.3.392.024.035.007.1.007.153-.046-.014-.108-.01-.136-.042-.159-.187-.312-.378-.461-.572-.021-.025-.011-.073-.014-.111.17-.011.177-.2.295-.264a.734.734,0,0,1,.305-.07,4.549,4.549,0,0,0,.08-.579c.007-.906,0-1.812,0-2.718v-.212h.8c.43,0,.43,0,.43.434,0,.812-.007,1.628,0,2.444A2.147,2.147,0,0,0,4208.023,3118.786Z" fill="#ff6800"/>
              <path id="Tracé_241" data-name="Tracé 241" d="M4207.933,3100.136c0,1.531,0,3.062,0,4.592,0,.056-.007.111-.01.188h-1.205v-4.634c-.073-.007-.135-.014-.229-.021.018.243.031.465.045.68a1.728,1.728,0,0,0-.218.025c-.17.041-.306-.021-.337-.163s.059-.254.229-.3a.723.723,0,0,0,.17-.1c-.073-.02-.146-.045-.219-.059-.02-.007-.055.021-.069.011-.243-.2-.528-.084-.788-.084-3.061-.01-6.126-.006-9.188-.006h-.187v.69c-.073.014-.149.025-.222.045a.287.287,0,0,1-.375-.135c-.052-.167.041-.3.236-.347a.512.512,0,0,0,.107-.014.94.94,0,0,0,.125-.1c-.041-.038-.086-.115-.131-.115-.639-.007-1.278,0-1.941,0v4.623c-.392,0-.756,0-1.124,0-.122,0-.115-.08-.115-.163v-4.575a2.54,2.54,0,0,1,2.1-2.534,3.025,3.025,0,0,1,.566-.045q5.061,0,10.125.007a2.524,2.524,0,0,1,2.607,2.075A2.457,2.457,0,0,1,4207.933,3100.136Zm-1.478.569c-.1-.048-.15-.093-.174-.079a1.081,1.081,0,0,0-.163.131c.041.035.09.1.118.094A.986.986,0,0,0,4206.455,3100.705Zm-10.66.011c.007-.011-.1-.108-.118-.1a1.445,1.445,0,0,0-.229.159c.042.049.08.1.16.2A2.244,2.244,0,0,0,4195.795,3100.716Z" fill="#ff6800"/>
              <path id="Tracé_242" data-name="Tracé 242" d="M4206.281,3100.626c.024-.014.076.031.174.079a.986.986,0,0,1-.219.146c-.028.007-.077-.059-.118-.094A1.081,1.081,0,0,1,4206.281,3100.626Z"/>
              <path id="Tracé_243" data-name="Tracé 243" d="M4204.556,3107.828q0,1.01,0,2.02a1.7,1.7,0,0,1-1.732,1.732l-4.374.018c-.3,0-.3,0-.3.291v2.371h-1.8v-.212c0-1.194,0-2.388,0-3.586a.477.477,0,0,0-.125-.364c-.1-.1-.184-.226-.277-.34-.066-.083-.15-.142-.247-.052a.188.188,0,0,0-.035.288c.094.121.2.236.285.361.031.045.021.114.031.173-.055-.017-.128-.02-.163-.059-.156-.18-.305-.368-.448-.555a.169.169,0,0,1,0-.121c.212-.053.253-.375.524-.334.017,0,.045-.038.052-.066a.391.391,0,0,1,.4-.274l.01-.212c0-.878,0-1.752,0-2.627,0-.149.035-.2.194-.2,2.086.006,4.176,0,6.265.006A1.7,1.7,0,0,1,4204.556,3107.828Zm-1.822,1.94v-1.881h-4.568v1.881Zm-6.377.139c0-.132.007-.264,0-.4,0-.059-.028-.149-.066-.166a.171.171,0,0,0-.17.048.25.25,0,0,0-.035.212,2.219,2.219,0,0,0,.236.316A.2.2,0,0,1,4196.357,3109.907Z" fill="#ff6800"/>
              <path id="Tracé_244" data-name="Tracé 244" d="M4202.734,3107.887v1.881h-4.568v-1.881Z" fill="#fff"/>
              <path id="Tracé_245" data-name="Tracé 245" d="M4202.192,3121.181c0,.128,0,.257,0,.385,0,.268-.125.4-.4.4-.531,0-1.065,0-1.6,0h-1.562c-.278,0-.4-.125-.4-.4,0-.125,0-.246,0-.368a.35.35,0,0,1,.375-.381c.538,0,1.073,0,1.607,0s1.069,0,1.607,0A.343.343,0,0,1,4202.192,3121.181Z" fill="#fff"/>
              <path id="Tracé_246" data-name="Tracé 246" d="M4201.8,3121.962l0,.767q-3.344.006-6.685.007a2.522,2.522,0,0,1-2.565-2.017,3.667,3.667,0,0,1-.059-.784c0-1.427,0-2.853,0-4.28,0-.187.052-.246.236-.232.271.013.542.01.809,0,.16-.007.194.052.194.2,0,1.388,0,2.78,0,4.169v.26h6.494v.753c-.534,0-1.069,0-1.607,0a.35.35,0,0,0-.375.381c0,.122,0,.243,0,.368,0,.278.125.4.4.4h1.562C4200.731,3121.962,4201.265,3121.966,4201.8,3121.962Z" fill="#ff6800"/>
              <path id="Tracé_247" data-name="Tracé 247" d="M4196.354,3109.511c.01.132,0,.264,0,.4a.2.2,0,0,0-.038.014,2.219,2.219,0,0,1-.236-.316.25.25,0,0,1,.035-.212.171.171,0,0,1,.17-.048C4196.326,3109.362,4196.35,3109.452,4196.354,3109.511Z"/>
              <path id="Tracé_248" data-name="Tracé 248" d="M4195.708,3110.664c.011.017-.017.094-.021.094-.159-.011-.17.152-.26.218a3.311,3.311,0,0,1-.319.177v.208c0,.9,0,1.8,0,2.7,0,.16-.041.212-.205.208-.531-.007-1.062,0-1.614,0v-2.61h-4.578c0,.079-.01.149-.01.222,0,.722-.007,1.444,0,2.169,0,.177-.052.229-.229.222-.458-.01-.916,0-1.378,0h-.2v-6.428a1.713,1.713,0,0,1,1.836-1.774c1.524.017,3.047.024,4.571,0a1.755,1.755,0,0,1,1.8,1.805c-.017.722,0,1.444,0,2.089C4195.344,3110.233,4195.528,3110.449,4195.708,3110.664Zm-.389.191c.146-.111.143-.222-.007-.365-.187.129-.27.3-.177.382A.208.208,0,0,0,4195.319,3110.855Zm-2.041-1.035v-1.937h-4.561v1.937Z" fill="#ff6800"/>
              <path id="Tracé_249" data-name="Tracé 249" d="M4195.677,3100.619c.021-.011.125.086.118.1a2.244,2.244,0,0,1-.187.26c-.08-.1-.118-.149-.16-.2A1.445,1.445,0,0,1,4195.677,3100.619Z"/>
              <path id="Tracé_250" data-name="Tracé 250" d="M4195.312,3110.49c.15.143.153.254.007.365a.208.208,0,0,1-.184.017C4195.042,3110.792,4195.125,3110.619,4195.312,3110.49Z"/>
              <path id="Tracé_251" data-name="Tracé 251" d="M4193.278,3107.883v1.937h-4.561v-1.937Z" fill="#fff"/>
            </g>
          </g>
        </g>
      </g>
      <rect id="Rectangle_23" data-name="Rectangle 23" width="1.234" height="3.936" transform="translate(4195.123 3108.006)" fill="#fff"/>
      <rect id="Rectangle_24" data-name="Rectangle 24" width="12.356" height="0.688" transform="translate(4194.363 3100.288)" fill="#fff"/>
      <rect id="Rectangle_25" data-name="Rectangle 25" width="3.066" height="1.129" transform="translate(4194.621 3100.487)" fill="#fff"/>
      <rect id="Rectangle_26" data-name="Rectangle 26" width="3.385" height="0.926" transform="translate(4209.488 3105.159)" fill="#fff"/>
      <rect id="Rectangle_27" data-name="Rectangle 27" width="4.504" height="2.767" transform="translate(4202.193 3117.272)" fill="#fff"/>
      <rect id="Rectangle_28" data-name="Rectangle 28" width="1.145" height="4.852" transform="translate(4207.932 3116.534)" fill="#fff"/>
    </g>
    <g id="Groupe_172" data-name="Groupe 172" transform="translate(-3902.627 -2637.414)">
      <g id="Groupe_171" data-name="Groupe 171">
        <g id="Groupe_167" data-name="Groupe 167">
          <g id="Groupe_166" data-name="Groupe 166">
            <g id="Groupe_165" data-name="Groupe 165">
              <path id="Tracé_252" data-name="Tracé 252" d="M4056.781,2915.975c0,.652,0,1.308,0,1.964a1.7,1.7,0,0,1-1.773,1.767q-2.177.006-4.353.017c-.274,0-.274.011-.274.275,0,.7,0,1.409,0,2.114,0,.34.011.277-.288.281-.493,0-.989,0-1.51,0v-7.949c0-.233,0-.236.243-.236,1.538,0,3.072,0,4.61,0h.215l.219-.045c.118.094.232.07.322-.069l.223-.049c-.025.045-.052.1-.094.163a.836.836,0,0,0,.26-.006.246.246,0,0,0,.129-.146.145.145,0,0,0-.014-.07l.222-.048a1.54,1.54,0,0,1,.09.149c-.055.028-.107.052-.215.1.118.007.194.014.267.014a1.71,1.71,0,0,1,1.666,1.274A2.248,2.248,0,0,1,4056.781,2915.975Zm-1.829,1.916v-1.878h-4.561v1.878Z" fill="#fff"/>
              <path id="Tracé_253" data-name="Tracé 253" d="M4054.952,2916.013v1.878h-4.561v-1.878Z" fill="#fff"/>
              <path id="Tracé_254" data-name="Tracé 254" d="M4054.692,2913.989a.145.145,0,0,1,.014.07.246.246,0,0,1-.129.146.836.836,0,0,1-.26.006c.042-.065.069-.118.094-.163h0Z" fill="#fff"/>
              <path id="Tracé_255" data-name="Tracé 255" d="M4054.692,2913.989l-.278.059a.32.32,0,0,1,.063-.09c.034-.038.125-.08.149-.062A.235.235,0,0,1,4054.692,2913.989Z" fill="#fff"/>
              <path id="Tracé_256" data-name="Tracé 256" d="M4054.22,2914.048a.53.53,0,0,1-.032.049l-.322.069a.388.388,0,0,1-.087-.086Z" fill="#fff"/>
              <path id="Tracé_257" data-name="Tracé 257" d="M4051.283,2926.912c.056.226.136.448-.066.653-.031.034-.021.118-.024.177a8.063,8.063,0,0,1-.069,1.114,2.477,2.477,0,0,1-2.444,1.989l-3.62.01,0-.767c.271,0,.392-.128.4-.4,0-.128,0-.257,0-.385a.344.344,0,0,0-.368-.371c-.538,0-1.073,0-1.607,0v-.753h4.606a1.325,1.325,0,0,1-.122-.181.421.421,0,0,1,.011-.142.815.815,0,0,1,.121.031c.021.007.035.035.045.056a.517.517,0,0,0,.518.257c.229,0,.333-.132.472-.261-.07-.118-.15-.138-.247-.062-.038.031-.069.069-.107.1-.059.041-.118.079-.177.118.02-.073.017-.167.059-.219.222-.285.44-.278.666,0a.576.576,0,0,1,.069.087.437.437,0,0,0,.566.2c0-.222.007-.451-.007-.68a.225.225,0,0,0-.1-.167.268.268,0,0,0-.222-.014.172.172,0,0,0-.042.271c.1.128.209.257.3.392.025.035.007.1.007.153-.045-.014-.107-.01-.135-.042-.16-.187-.312-.378-.462-.572-.021-.025-.01-.073-.014-.112.171-.01.177-.2.295-.263a.743.743,0,0,1,.306-.07,4.724,4.724,0,0,0,.08-.579c.007-.906,0-1.812,0-2.718v-.212h.8c.43,0,.43,0,.43.434,0,.812-.007,1.628,0,2.444A2.165,2.165,0,0,0,4051.283,2926.912Z" fill="#fff"/>
              <path id="Tracé_258" data-name="Tracé 258" d="M4051.193,2908.262c0,1.531,0,3.062,0,4.592,0,.056-.007.111-.01.188h-1.205v-4.634c-.073-.007-.135-.014-.229-.021.017.243.031.465.045.68a1.759,1.759,0,0,0-.219.025c-.17.041-.3-.021-.336-.163s.059-.254.229-.3a.718.718,0,0,0,.17-.1c-.073-.02-.146-.045-.219-.059-.021-.007-.055.021-.069.011-.243-.2-.528-.084-.788-.084-3.062-.01-6.126-.006-9.188-.006h-.187v.69c-.073.014-.15.025-.223.045a.287.287,0,0,1-.374-.135c-.052-.167.041-.3.236-.347a.525.525,0,0,0,.107-.014,1.045,1.045,0,0,0,.125-.1c-.041-.038-.087-.115-.132-.115-.638-.007-1.277,0-1.94,0v4.623c-.392,0-.757,0-1.125,0-.121,0-.114-.08-.114-.163V2908.3a2.539,2.539,0,0,1,2.1-2.534,3.047,3.047,0,0,1,.566-.045q5.059,0,10.125.007a2.579,2.579,0,0,1,2.655,2.53Zm-1.479.569c-.1-.048-.149-.093-.173-.079a1.084,1.084,0,0,0-.163.131c.041.035.09.1.118.094A.963.963,0,0,0,4049.714,2908.831Zm-10.659.011c.007-.011-.1-.108-.118-.1a1.393,1.393,0,0,0-.229.159c.041.049.079.1.159.2A2.137,2.137,0,0,0,4039.055,2908.842Z" fill="#fff"/>
              <path id="Tracé_259" data-name="Tracé 259" d="M4049.541,2908.752c.024-.014.076.031.173.079a.963.963,0,0,1-.218.146c-.028.007-.077-.059-.118-.094A1.084,1.084,0,0,1,4049.541,2908.752Z" fill="#fff"/>
              <path id="Tracé_260" data-name="Tracé 260" d="M4047.816,2915.954q0,1.009,0,2.02a1.7,1.7,0,0,1-1.732,1.732q-2.187.01-4.374.017c-.295,0-.295,0-.295.292v2.371h-1.8v-.212c0-1.194,0-2.388,0-3.586a.476.476,0,0,0-.125-.364c-.1-.1-.184-.226-.278-.34-.066-.083-.149-.142-.246-.052a.188.188,0,0,0-.035.288c.094.121.2.236.285.361.031.045.021.114.031.173-.055-.017-.128-.02-.163-.059-.156-.18-.3-.368-.448-.555a.158.158,0,0,1,0-.121c.211-.053.253-.375.524-.334.017,0,.045-.038.052-.066a.391.391,0,0,1,.4-.274l.01-.212c0-.878,0-1.752,0-2.627,0-.149.034-.2.194-.2,2.086.006,4.176,0,6.265.006A1.7,1.7,0,0,1,4047.816,2915.954Zm-1.823,1.94v-1.881h-4.568v1.881Zm-6.376.139c0-.132.007-.264,0-.4,0-.059-.028-.149-.066-.166a.171.171,0,0,0-.17.048.247.247,0,0,0-.035.212,2.222,2.222,0,0,0,.236.316A.2.2,0,0,1,4039.617,2918.033Z" fill="#fff"/>
              <path id="Tracé_261" data-name="Tracé 261" d="M4045.993,2916.013v1.881h-4.568v-1.881Z" fill="#fff"/>
              <path id="Tracé_262" data-name="Tracé 262" d="M4045.452,2929.307c0,.128,0,.257,0,.385,0,.268-.125.4-.4.4-.531,0-1.065,0-1.6,0H4041.9c-.278,0-.4-.125-.4-.4,0-.125,0-.246,0-.368a.349.349,0,0,1,.375-.381c.538,0,1.072,0,1.607,0s1.069,0,1.607,0A.344.344,0,0,1,4045.452,2929.307Z" fill="#fff"/>
              <path id="Tracé_263" data-name="Tracé 263" d="M4045.056,2930.088l0,.767q-3.344.006-6.686.007a2.523,2.523,0,0,1-2.565-2.017,3.7,3.7,0,0,1-.059-.784c0-1.427,0-2.853,0-4.28,0-.187.052-.246.236-.232.271.013.541.01.809,0,.159-.007.194.052.194.2,0,1.388,0,2.78,0,4.169v.26h6.494v.753c-.535,0-1.069,0-1.607,0a.349.349,0,0,0-.375.381c0,.122,0,.243,0,.368,0,.278.125.4.4.4h1.561C4043.991,2930.088,4044.525,2930.091,4045.056,2930.088Z" fill="#fff"/>
              <path id="Tracé_264" data-name="Tracé 264" d="M4039.614,2917.637c.01.132,0,.264,0,.4a.2.2,0,0,0-.038.014,2.222,2.222,0,0,1-.236-.316.247.247,0,0,1,.035-.212.171.171,0,0,1,.17-.048C4039.586,2917.488,4039.61,2917.578,4039.614,2917.637Z" fill="#fff"/>
              <path id="Tracé_265" data-name="Tracé 265" d="M4038.968,2918.79c.01.017-.017.093-.021.093-.16-.01-.17.153-.26.219a3.379,3.379,0,0,1-.32.177v.208c0,.9,0,1.8,0,2.7,0,.16-.042.212-.205.208-.531-.007-1.062,0-1.614,0v-2.611h-4.578c0,.08-.011.15-.011.223,0,.722-.007,1.444,0,2.169,0,.177-.052.229-.229.222-.458-.01-.917,0-1.378,0h-.2v-6.428a1.714,1.714,0,0,1,1.837-1.774c1.523.017,3.047.024,4.571,0a1.755,1.755,0,0,1,1.805,1.805c-.017.722,0,1.444,0,2.089C4038.6,2918.359,4038.787,2918.575,4038.968,2918.79Zm-.389.191c.146-.111.142-.222-.007-.365-.187.129-.27.3-.177.382A.208.208,0,0,0,4038.579,2918.981Zm-2.041-1.035v-1.937h-4.561v1.937Z" fill="#fff"/>
              <path id="Tracé_266" data-name="Tracé 266" d="M4038.937,2908.745c.021-.011.125.086.118.1a2.137,2.137,0,0,1-.188.26c-.08-.1-.118-.149-.159-.2A1.393,1.393,0,0,1,4038.937,2908.745Z" fill="#fff"/>
              <path id="Tracé_267" data-name="Tracé 267" d="M4038.572,2918.616c.149.143.153.254.007.365a.208.208,0,0,1-.184.017C4038.3,2918.918,4038.385,2918.745,4038.572,2918.616Z" fill="#fff"/>
              <path id="Tracé_268" data-name="Tracé 268" d="M4036.538,2916.009v1.937h-4.561v-1.937Z" fill="#fff"/>
            </g>
          </g>
        </g>
        <g id="Groupe_170" data-name="Groupe 170">
          <g id="Groupe_169" data-name="Groupe 169">
            <g id="Groupe_168" data-name="Groupe 168">
              <path id="Tracé_269" data-name="Tracé 269" d="M4056.781,2915.975c0,.652,0,1.308,0,1.964a1.7,1.7,0,0,1-1.773,1.767q-2.177.006-4.353.017c-.274,0-.274.011-.274.275,0,.7,0,1.409,0,2.114,0,.34.011.277-.288.281-.493,0-.989,0-1.51,0v-7.949c0-.233,0-.236.243-.236,1.538,0,3.072,0,4.61,0h.215l.219-.045c.118.094.232.07.322-.069l.223-.049c-.025.045-.052.1-.094.163a.836.836,0,0,0,.26-.006.246.246,0,0,0,.129-.146.145.145,0,0,0-.014-.07l.222-.048a1.54,1.54,0,0,1,.09.149c-.055.028-.107.052-.215.1.118.007.194.014.267.014a1.71,1.71,0,0,1,1.666,1.274A2.248,2.248,0,0,1,4056.781,2915.975Zm-1.829,1.916v-1.878h-4.561v1.878Z" fill="#ff6800"/>
              <path id="Tracé_270" data-name="Tracé 270" d="M4054.952,2916.013v1.878h-4.561v-1.878Z" fill="#fff"/>
              <path id="Tracé_271" data-name="Tracé 271" d="M4054.692,2913.989a.145.145,0,0,1,.014.07.246.246,0,0,1-.129.146.836.836,0,0,1-.26.006c.042-.065.069-.118.094-.163h0Z"/>
              <path id="Tracé_272" data-name="Tracé 272" d="M4054.692,2913.989l-.278.059a.32.32,0,0,1,.063-.09c.034-.038.125-.08.149-.062A.235.235,0,0,1,4054.692,2913.989Z"/>
              <path id="Tracé_273" data-name="Tracé 273" d="M4054.22,2914.048a.53.53,0,0,1-.032.049l-.322.069a.388.388,0,0,1-.087-.086Z" fill="#fff"/>
              <path id="Tracé_274" data-name="Tracé 274" d="M4051.283,2926.912c.056.226.136.448-.066.653-.031.034-.021.118-.024.177a8.063,8.063,0,0,1-.069,1.114,2.477,2.477,0,0,1-2.444,1.989l-3.62.01,0-.767c.271,0,.392-.128.4-.4,0-.128,0-.257,0-.385a.344.344,0,0,0-.368-.371c-.538,0-1.073,0-1.607,0v-.753h4.606a1.325,1.325,0,0,1-.122-.181.421.421,0,0,1,.011-.142.815.815,0,0,1,.121.031c.021.007.035.035.045.056a.517.517,0,0,0,.518.257c.229,0,.333-.132.472-.261-.07-.118-.15-.138-.247-.062-.038.031-.069.069-.107.1-.059.041-.118.079-.177.118.02-.073.017-.167.059-.219.222-.285.44-.278.666,0a.576.576,0,0,1,.069.087.437.437,0,0,0,.566.2c0-.222.007-.451-.007-.68a.225.225,0,0,0-.1-.167.268.268,0,0,0-.222-.014.172.172,0,0,0-.042.271c.1.128.209.257.3.392.025.035.007.1.007.153-.045-.014-.107-.01-.135-.042-.16-.187-.312-.378-.462-.572-.021-.025-.01-.073-.014-.112.171-.01.177-.2.295-.263a.743.743,0,0,1,.306-.07,4.724,4.724,0,0,0,.08-.579c.007-.906,0-1.812,0-2.718v-.212h.8c.43,0,.43,0,.43.434,0,.812-.007,1.628,0,2.444A2.165,2.165,0,0,0,4051.283,2926.912Z" fill="#ff6800"/>
              <path id="Tracé_275" data-name="Tracé 275" d="M4051.193,2908.262c0,1.531,0,3.062,0,4.592,0,.056-.007.111-.01.188h-1.205v-4.634c-.073-.007-.135-.014-.229-.021.017.243.031.465.045.68a1.759,1.759,0,0,0-.219.025c-.17.041-.3-.021-.336-.163s.059-.254.229-.3a.718.718,0,0,0,.17-.1c-.073-.02-.146-.045-.219-.059-.021-.007-.055.021-.069.011-.243-.2-.528-.084-.788-.084-3.062-.01-6.126-.006-9.188-.006h-.187v.69c-.073.014-.15.025-.223.045a.287.287,0,0,1-.374-.135c-.052-.167.041-.3.236-.347a.525.525,0,0,0,.107-.014,1.045,1.045,0,0,0,.125-.1c-.041-.038-.087-.115-.132-.115-.638-.007-1.277,0-1.94,0v4.623c-.392,0-.757,0-1.125,0-.121,0-.114-.08-.114-.163V2908.3a2.539,2.539,0,0,1,2.1-2.534,3.047,3.047,0,0,1,.566-.045q5.059,0,10.125.007a2.579,2.579,0,0,1,2.655,2.53Zm-1.479.569c-.1-.048-.149-.093-.173-.079a1.084,1.084,0,0,0-.163.131c.041.035.09.1.118.094A.963.963,0,0,0,4049.714,2908.831Zm-10.659.011c.007-.011-.1-.108-.118-.1a1.393,1.393,0,0,0-.229.159c.041.049.079.1.159.2A2.137,2.137,0,0,0,4039.055,2908.842Z" fill="#ff6800"/>
              <path id="Tracé_276" data-name="Tracé 276" d="M4049.541,2908.752c.024-.014.076.031.173.079a.963.963,0,0,1-.218.146c-.028.007-.077-.059-.118-.094A1.084,1.084,0,0,1,4049.541,2908.752Z"/>
              <path id="Tracé_277" data-name="Tracé 277" d="M4047.816,2915.954q0,1.009,0,2.02a1.7,1.7,0,0,1-1.732,1.732q-2.187.01-4.374.017c-.295,0-.295,0-.295.292v2.371h-1.8v-.212c0-1.194,0-2.388,0-3.586a.476.476,0,0,0-.125-.364c-.1-.1-.184-.226-.278-.34-.066-.083-.149-.142-.246-.052a.188.188,0,0,0-.035.288c.094.121.2.236.285.361.031.045.021.114.031.173-.055-.017-.128-.02-.163-.059-.156-.18-.3-.368-.448-.555a.158.158,0,0,1,0-.121c.211-.053.253-.375.524-.334.017,0,.045-.038.052-.066a.391.391,0,0,1,.4-.274l.01-.212c0-.878,0-1.752,0-2.627,0-.149.034-.2.194-.2,2.086.006,4.176,0,6.265.006A1.7,1.7,0,0,1,4047.816,2915.954Zm-1.823,1.94v-1.881h-4.568v1.881Zm-6.376.139c0-.132.007-.264,0-.4,0-.059-.028-.149-.066-.166a.171.171,0,0,0-.17.048.247.247,0,0,0-.035.212,2.222,2.222,0,0,0,.236.316A.2.2,0,0,1,4039.617,2918.033Z" fill="#ff6800"/>
              <path id="Tracé_278" data-name="Tracé 278" d="M4045.993,2916.013v1.881h-4.568v-1.881Z" fill="#fff"/>
              <path id="Tracé_279" data-name="Tracé 279" d="M4045.452,2929.307c0,.128,0,.257,0,.385,0,.268-.125.4-.4.4-.531,0-1.065,0-1.6,0H4041.9c-.278,0-.4-.125-.4-.4,0-.125,0-.246,0-.368a.349.349,0,0,1,.375-.381c.538,0,1.072,0,1.607,0s1.069,0,1.607,0A.344.344,0,0,1,4045.452,2929.307Z" fill="#fff"/>
              <path id="Tracé_280" data-name="Tracé 280" d="M4045.056,2930.088l0,.767q-3.344.006-6.686.007a2.523,2.523,0,0,1-2.565-2.017,3.7,3.7,0,0,1-.059-.784c0-1.427,0-2.853,0-4.28,0-.187.052-.246.236-.232.271.013.541.01.809,0,.159-.007.194.052.194.2,0,1.388,0,2.78,0,4.169v.26h6.494v.753c-.535,0-1.069,0-1.607,0a.349.349,0,0,0-.375.381c0,.122,0,.243,0,.368,0,.278.125.4.4.4h1.561C4043.991,2930.088,4044.525,2930.091,4045.056,2930.088Z" fill="#ff6800"/>
              <path id="Tracé_281" data-name="Tracé 281" d="M4039.614,2917.637c.01.132,0,.264,0,.4a.2.2,0,0,0-.038.014,2.222,2.222,0,0,1-.236-.316.247.247,0,0,1,.035-.212.171.171,0,0,1,.17-.048C4039.586,2917.488,4039.61,2917.578,4039.614,2917.637Z"/>
              <path id="Tracé_282" data-name="Tracé 282" d="M4038.968,2918.79c.01.017-.017.093-.021.093-.16-.01-.17.153-.26.219a3.379,3.379,0,0,1-.32.177v.208c0,.9,0,1.8,0,2.7,0,.16-.042.212-.205.208-.531-.007-1.062,0-1.614,0v-2.611h-4.578c0,.08-.011.15-.011.223,0,.722-.007,1.444,0,2.169,0,.177-.052.229-.229.222-.458-.01-.917,0-1.378,0h-.2v-6.428a1.714,1.714,0,0,1,1.837-1.774c1.523.017,3.047.024,4.571,0a1.755,1.755,0,0,1,1.805,1.805c-.017.722,0,1.444,0,2.089C4038.6,2918.359,4038.787,2918.575,4038.968,2918.79Zm-.389.191c.146-.111.142-.222-.007-.365-.187.129-.27.3-.177.382A.208.208,0,0,0,4038.579,2918.981Zm-2.041-1.035v-1.937h-4.561v1.937Z" fill="#ff6800"/>
              <path id="Tracé_283" data-name="Tracé 283" d="M4038.937,2908.745c.021-.011.125.086.118.1a2.137,2.137,0,0,1-.188.26c-.08-.1-.118-.149-.159-.2A1.393,1.393,0,0,1,4038.937,2908.745Z"/>
              <path id="Tracé_284" data-name="Tracé 284" d="M4038.572,2918.616c.149.143.153.254.007.365a.208.208,0,0,1-.184.017C4038.3,2918.918,4038.385,2918.745,4038.572,2918.616Z"/>
              <path id="Tracé_285" data-name="Tracé 285" d="M4036.538,2916.009v1.937h-4.561v-1.937Z" fill="#fff"/>
            </g>
          </g>
        </g>
      </g>
      <rect id="Rectangle_29" data-name="Rectangle 29" width="1.261" height="3.936" transform="translate(4038.357 2916.132)" fill="#fff"/>
      <rect id="Rectangle_30" data-name="Rectangle 30" width="12.356" height="0.688" transform="translate(4037.623 2908.414)" fill="#fff"/>
      <rect id="Rectangle_31" data-name="Rectangle 31" width="3.065" height="1.129" transform="translate(4037.881 2908.613)" fill="#fff"/>
      <rect id="Rectangle_32" data-name="Rectangle 32" width="3.385" height="0.926" transform="translate(4052.748 2913.285)" fill="#fff"/>
      <rect id="Rectangle_33" data-name="Rectangle 33" width="4.504" height="2.767" transform="translate(4045.453 2925.398)" fill="#fff"/>
      <rect id="Rectangle_34" data-name="Rectangle 34" width="1.145" height="4.852" transform="translate(4051.192 2924.66)" fill="#fff"/>
    </g>
  </g>
</svg>
