<svg xmlns="http://www.w3.org/2000/svg" xmlns:xlink="http://www.w3.org/1999/xlink" width="841.89" height="595.28" viewBox="0 0 841.89 595.28">
  <defs>
    <linearGradient id="linear-gradient" x1="9.811" y1="-38.058" x2="9.811" y2="-39.292" gradientUnits="objectBoundingBox">
      <stop offset="0.077" stop-color="#f5d9c3"/>
      <stop offset="0.313" stop-color="#e98898"/>
      <stop offset="0.646" stop-color="#ac949b"/>
    </linearGradient>
    <linearGradient id="linear-gradient-2" x1="-17.7" y1="-33.05" x2="-17.7" y2="-34.252" xlink:href="#linear-gradient"/>
    <linearGradient id="linear-gradient-3" x1="-0.108" y1="1.092" x2="-0.108" y2="0.076" xlink:href="#linear-gradient"/>
    <linearGradient id="linear-gradient-4" x1="14.089" y1="-11.473" x2="14.089" y2="-12.781" xlink:href="#linear-gradient"/>
    <clipPath id="clip-path">
      <rect id="Rectangle_19" data-name="Rectangle 19" width="199.381" height="192.189" transform="translate(2217.289 3513.581)" fill="none"/>
    </clipPath>
    <clipPath id="clip-path-2">
      <rect id="Rectangle_20" data-name="Rectangle 20" width="521.547" height="502.733" transform="translate(2056.119 3359.83)" fill="none"/>
    </clipPath>
    <clipPath id="clip-_322">
      <rect width="841.89" height="595.28"/>
    </clipPath>
  </defs>
  <g id="_322" data-name="322" clip-path="url(#clip-_322)">
    <rect width="841.89" height="595.28" fill="#fff"/>
    <g id="Groupe_52" data-name="Groupe 52" transform="translate(-1893.564 -3310.979)">
      <path id="Tracé_10" data-name="Tracé 10" d="M2173.482,3541.077a51.753,51.753,0,1,1,61.571-64.339.007.007,0,0,1,0,.01c.318,1.625.7,3.363,1.167,5.177a79.525,79.525,0,0,0,16.379,32.312,63.046,63.046,0,0,0,12.549,11.409,59.106,59.106,0,0,0,29.114,9.575c.04,0,.065,0,.1,0l.006.005a49.648,49.648,0,0,1,30.963,12.9,51.752,51.752,0,0,1-69.628,76.583,53.323,53.323,0,0,1-15.47-26.032c-.2-1.211-.454-2.61-.8-4.139a59.721,59.721,0,0,0-13.112-26.19c-6.47-7.391-13.25-11.215-20.061-15.058a112.725,112.725,0,0,0-30.977-11.823.657.657,0,0,0-.066-.012c-.566-.133-1.142-.256-1.733-.373Z" opacity="0.64" fill="url(#linear-gradient)"/>
      <path id="Tracé_11" data-name="Tracé 11" d="M2393.538,3471.282a51.753,51.753,0,1,1,61.587,64.323.007.007,0,0,1-.01,0c-1.638.246-3.39.548-5.223.94a79.522,79.522,0,0,0-33,14.951,62.972,62.972,0,0,0-11.946,12.039,59.091,59.091,0,0,0-10.838,28.668c0,.04-.005.065-.005.105l0,0a49.657,49.657,0,0,1-14.24,30.37,51.752,51.752,0,0,1-73.467-72.908,53.334,53.334,0,0,1,26.683-14.318c1.219-.144,2.627-.339,4.17-.62a59.711,59.711,0,0,0,26.737-11.955c7.667-6.14,11.784-12.747,15.921-19.384a112.7,112.7,0,0,0,13.165-30.431.638.638,0,0,0,.015-.065c.158-.56.306-1.13.448-1.715Z" opacity="0.64" fill="url(#linear-gradient-2)"/>
      <path id="Tracé_12" data-name="Tracé 12" d="M2484.683,3688.2a51.446,51.446,0,0,0-23.372-11.561l-.005,0c-.594-.1-1.172-.212-1.742-.331-.025,0-.051-.007-.066-.011a112.705,112.705,0,0,1-31.252-11.076c-6.9-3.678-13.772-7.339-20.417-14.572a59.71,59.71,0,0,1-13.736-25.867c-.385-1.521-.675-2.913-.9-4.119a53.313,53.313,0,0,0-16.09-25.653,51.752,51.752,0,0,0-67.77,78.232,49.655,49.655,0,0,0,31.265,12.152l.005,0c.04,0,.065,0,.1,0a59.117,59.117,0,0,1,29.336,8.874c.366.232,1.11.71,2.124,1.435,11.42-2.709,19.462-10.483,28.182-17.625,6.87-6.573,6.546-17.168,7.678-26.393-1.132,9.225-.808,19.82-7.678,26.393-8.72,7.142-16.762,14.916-28.182,17.625a66.988,66.988,0,0,1,10.7,9.67,79.524,79.524,0,0,1,17.15,31.909c.515,1.8.934,3.53,1.291,5.148a.007.007,0,0,0,0,.01,51.752,51.752,0,1,0,83.381-54.238Z" opacity="0.64" fill="url(#linear-gradient-3)"/>
      <path id="Tracé_13" data-name="Tracé 13" d="M2220.219,3738.344a51.753,51.753,0,1,1-50.972-73.023.007.007,0,0,1,.01,0c1.656.009,3.435-.02,5.306-.126a79.516,79.516,0,0,0,34.9-9.7,62.988,62.988,0,0,0,13.654-10.059,59.108,59.108,0,0,0,15.115-26.663c.006-.039.015-.063.021-.1l.005,0A49.656,49.656,0,0,1,2257,3590.842a51.751,51.751,0,0,1,61.392,83.33,53.324,53.324,0,0,1-28.567,10.048c-1.226-.044-2.648-.068-4.215-.027a59.706,59.706,0,0,0-28.257,7.7c-8.519,4.89-13.6,10.785-18.71,16.707a112.7,112.7,0,0,0-17.685,28.047c-.007.014-.016.038-.025.062-.242.529-.475,1.07-.706,1.626Z" opacity="0.64" fill="url(#linear-gradient-4)"/>
      <circle id="Ellipse_20" data-name="Ellipse 20" cx="77.19" cy="77.19" r="77.19" transform="translate(2238.877 3533.242)" fill="#fff"/>
      <circle id="Ellipse_21" data-name="Ellipse 21" cx="77.19" cy="77.19" r="77.19" transform="translate(2238.877 3533.242)" fill="#97738b" opacity="0.64"/>
      <path id="Tracé_14" data-name="Tracé 14" d="M2307.583,3598.094a13.987,13.987,0,1,1,22.018.844" fill="none" stroke="#707070" stroke-miterlimit="10" stroke-width="3.656"/>
      <path id="Tracé_15" data-name="Tracé 15" d="M2307.583,3598.094a7,7,0,0,1,1.221,2.935,6.24,6.24,0,0,1-.28,3.346c-.978,2.141-3.427,1.657-6.644,3.512-3.1,1.786-4.706,4.469-6.059,6.725a26.107,26.107,0,0,0-2.8,6.992c-1.866,6.586-.95,10.088-.6,11.186a4.541,4.541,0,0,0,1.864,2.73,5.182,5.182,0,0,0,2.6.532,24.206,24.206,0,0,0,4.06-.151c.819-.1,2.542-.063,5.987.006,2.541.052,6.011.175,10.261.478,3.593-3.085,4.555-5.568,4.195-7.191-.818-3.681-4.059-5.611-5.593-11.985a5.693,5.693,0,0,1,.2-4.061,4.7,4.7,0,0,1,2.464-2.131,4.3,4.3,0,0,1,4.928,1.636,5.012,5.012,0,0,1,.462.9c.407.809.439.91.536.924.422.063.5-1.728,1.723-2.7a3.854,3.854,0,0,1,3.4-.489,4.137,4.137,0,0,1,2.765,3.124" fill="none" stroke="#707070" stroke-miterlimit="10" stroke-width="3.656"/>
      <path id="Tracé_16" data-name="Tracé 16" d="M2329.6,3598.938a6.953,6.953,0,0,0-1.82,4.089,3.949,3.949,0,0,0,.235,1.924c.3.689,1.1,1.366,3.4,2.47a15.649,15.649,0,0,1,7.949,9.988c.8,3.595,2.2,13.383,2.2,14.182a4.509,4.509,0,0,1-2.8,3.6,4.661,4.661,0,0,1-3.2.009" fill="none" stroke="#707070" stroke-miterlimit="10" stroke-width="3.656"/>
      <path id="Tracé_17" data-name="Tracé 17" d="M2437.894,3475.858a9.77,9.77,0,0,1-2.095-6.027c0-5.684,4.955-10.292,11.066-10.292s11.066,4.608,11.066,10.292a9.835,9.835,0,0,1-2.617,6.648" fill="none" stroke="#467095" stroke-miterlimit="10" stroke-width="2.789"/>
      <path id="Tracé_18" data-name="Tracé 18" d="M2437.894,3475.858a4.992,4.992,0,0,1,.967,2.16,4.3,4.3,0,0,1-.222,2.462c-.774,1.576-2.711,1.219-5.257,2.585a13,13,0,0,0-4.794,4.948,18.432,18.432,0,0,0-2.212,5.145c-1.476,4.846-.752,7.423-.474,8.231a3.355,3.355,0,0,0,1.475,2.009,4.344,4.344,0,0,0,2.054.392,20.465,20.465,0,0,0,3.212-.112c.648-.071,2.011-.046,4.737.005,2.01.038,4.756.129,8.118.352" fill="none" stroke="#467095" stroke-miterlimit="10" stroke-width="2.789"/>
      <path id="Tracé_19" data-name="Tracé 19" d="M2455.314,3476.479a4.972,4.972,0,0,0-1.44,3.009,2.732,2.732,0,0,0,.186,1.416c.235.507.873,1,2.691,1.818a11.693,11.693,0,0,1,6.289,7.349c.632,2.646,1.738,9.848,1.738,10.436a3.355,3.355,0,0,1-2.212,2.646,3.958,3.958,0,0,1-2.529.007" fill="none" stroke="#467095" stroke-miterlimit="10" stroke-width="2.789"/>
      <path id="Tracé_20" data-name="Tracé 20" d="M2446.621,3718.582a9.772,9.772,0,0,1-2.1-6.027c0-5.685,4.955-10.293,11.067-10.293s11.066,4.608,11.066,10.293a9.833,9.833,0,0,1-2.618,6.647" fill="none" stroke="#467095" stroke-miterlimit="10" stroke-width="2.789"/>
      <path id="Tracé_21" data-name="Tracé 21" d="M2446.621,3718.582a4.973,4.973,0,0,1,.967,2.16,4.293,4.293,0,0,1-.222,2.462c-.774,1.575-2.711,1.219-5.257,2.584a13.009,13.009,0,0,0-4.794,4.949,18.436,18.436,0,0,0-2.212,5.144c-1.476,4.847-.752,7.424-.474,8.232a3.355,3.355,0,0,0,1.475,2.008,4.335,4.335,0,0,0,2.054.392,20.556,20.556,0,0,0,3.212-.111c.649-.072,2.012-.046,4.738,0,2.01.038,4.755.128,8.117.351" fill="none" stroke="#467095" stroke-miterlimit="10" stroke-width="2.789"/>
      <path id="Tracé_22" data-name="Tracé 22" d="M2464.041,3719.2a4.982,4.982,0,0,0-1.44,3.01,2.727,2.727,0,0,0,.186,1.415c.235.507.874,1.005,2.691,1.818a11.692,11.692,0,0,1,6.289,7.35c.632,2.645,1.739,9.848,1.739,10.436a3.355,3.355,0,0,1-2.213,2.645,3.942,3.942,0,0,1-2.528.007" fill="none" stroke="#467095" stroke-miterlimit="10" stroke-width="2.789"/>
      <path id="Tracé_23" data-name="Tracé 23" d="M2160.944,3712.653a9.771,9.771,0,0,1-2.095-6.027c0-5.684,4.954-10.292,11.066-10.292s11.066,4.608,11.066,10.292a9.84,9.84,0,0,1-2.617,6.648" fill="none" stroke="#467095" stroke-miterlimit="10" stroke-width="2.789"/>
      <path id="Tracé_24" data-name="Tracé 24" d="M2160.944,3712.653a4.977,4.977,0,0,1,.966,2.16,4.286,4.286,0,0,1-.222,2.462c-.773,1.576-2.711,1.22-5.256,2.585a13,13,0,0,0-4.794,4.948,18.465,18.465,0,0,0-2.213,5.145c-1.476,4.846-.751,7.423-.474,8.231a3.358,3.358,0,0,0,1.475,2.009,4.353,4.353,0,0,0,2.055.392,20.475,20.475,0,0,0,3.212-.112c.648-.071,2.011-.046,4.737.005,2.01.038,4.755.129,8.118.352" fill="none" stroke="#467095" stroke-miterlimit="10" stroke-width="2.789"/>
      <path id="Tracé_25" data-name="Tracé 25" d="M2178.364,3713.274a4.964,4.964,0,0,0-1.44,3.009,2.722,2.722,0,0,0,.186,1.416c.234.507.873,1.005,2.69,1.818a11.692,11.692,0,0,1,6.29,7.349c.632,2.646,1.738,9.848,1.738,10.436a3.354,3.354,0,0,1-2.212,2.646,3.952,3.952,0,0,1-2.529.007" fill="none" stroke="#467095" stroke-miterlimit="10" stroke-width="2.789"/>
      <path id="Tracé_26" data-name="Tracé 26" d="M2169.671,3477.775a9.772,9.772,0,0,1-2.095-6.027c0-5.685,4.954-10.293,11.066-10.293s11.066,4.608,11.066,10.293a9.833,9.833,0,0,1-2.617,6.647" fill="none" stroke="#467095" stroke-miterlimit="10" stroke-width="2.789"/>
      <path id="Tracé_27" data-name="Tracé 27" d="M2169.671,3477.775a4.965,4.965,0,0,1,.966,2.159,4.285,4.285,0,0,1-.221,2.462c-.774,1.576-2.711,1.22-5.257,2.585a13,13,0,0,0-4.794,4.949,18.427,18.427,0,0,0-2.212,5.144c-1.477,4.847-.752,7.423-.475,8.231a3.36,3.36,0,0,0,1.475,2.009,4.349,4.349,0,0,0,2.055.392,20.679,20.679,0,0,0,3.212-.111c.648-.072,2.011-.046,4.737.005,2.01.037,4.756.128,8.118.351" fill="none" stroke="#467095" stroke-miterlimit="10" stroke-width="2.789"/>
      <path id="Tracé_28" data-name="Tracé 28" d="M2187.091,3478.4a4.976,4.976,0,0,0-1.44,3.009,2.736,2.736,0,0,0,.186,1.416c.234.507.873,1,2.691,1.818a11.7,11.7,0,0,1,6.289,7.349c.632,2.646,1.738,9.848,1.738,10.436a3.353,3.353,0,0,1-2.212,2.646,3.945,3.945,0,0,1-2.529.007" fill="none" stroke="#467095" stroke-miterlimit="10" stroke-width="2.789"/>
      <g id="Groupe_41" data-name="Groupe 41">
        <g id="Groupe_40" data-name="Groupe 40" clip-path="url(#clip-path)">
          <path id="Tracé_29" data-name="Tracé 29" d="M2331.991,3702.549c43.154-6.418,76.973-40.069,81.937-82.15" fill="none" stroke="#457095" stroke-width="5.529" stroke-dasharray="16.816 11.287"/>
          <path id="Tracé_30" data-name="Tracé 30" d="M2413.32,3594.677c-6.9-41.434-41.919-73.818-85.612-78.421" fill="none" stroke="#457095" stroke-width="5.529" stroke-dasharray="16.816 11.287"/>
          <path id="Tracé_31" data-name="Tracé 31" d="M2301.968,3516.8c-43.154,6.418-76.973,40.069-81.937,82.15" fill="none" stroke="#457095" stroke-width="5.529" stroke-dasharray="16.816 11.287"/>
          <path id="Tracé_32" data-name="Tracé 32" d="M2220.639,3624.673c6.9,41.433,41.919,73.817,85.612,78.42" fill="none" stroke="#457095" stroke-width="5.529" stroke-dasharray="16.816 11.287"/>
          <path id="Tracé_33" data-name="Tracé 33" d="M2310.552,3703.454q3.188.2,6.427.2t6.428-.2m-103.779-100.206q-.223,3.186-.225,6.427t.225,6.426M2323.407,3515.9q-3.186-.2-6.428-.2t-6.427.2M2414.331,3616.1q.223-3.186.225-6.426t-.225-6.427" fill="none" stroke="#457095" stroke-width="5.529"/>
        </g>
      </g>
      <g id="Groupe_43" data-name="Groupe 43">
        <g id="Groupe_42" data-name="Groupe 42">
          <path id="Tracé_34" data-name="Tracé 34" d="M2292.89,3525.659l1.483,6.006-.786.2-1.482-6.008Z" fill="#467095"/>
          <path id="Tracé_35" data-name="Tracé 35" d="M2295.667,3531.329l-1.185-6.072.864-.169,2.538,2.693a17.624,17.624,0,0,1,1.465,1.762l.026-.014c-.23-.8-.393-1.531-.578-2.478l-.5-2.54.74-.144,1.185,6.071-.792.155-2.529-2.7a17.957,17.957,0,0,1-1.522-1.806l-.025.013c.193.757.346,1.485.543,2.493l.506,2.6Z" fill="#467095"/>
          <path id="Tracé_36" data-name="Tracé 36" d="M2301.959,3524.633l-1.866.245-.09-.673,4.542-.6.089.674-1.875.246.715,5.461-.8.1Z" fill="#467095"/>
          <path id="Tracé_37" data-name="Tracé 37" d="M2308.9,3526.567l-2.39.184.172,2.222,2.672-.2.052.668-3.479.268-.472-6.168,3.338-.258.052.669-2.534.194.148,1.949,2.389-.183Z" fill="#467095"/>
          <path id="Tracé_38" data-name="Tracé 38" d="M2310.259,3523.295a9.418,9.418,0,0,1,1.531-.157,2.562,2.562,0,0,1,1.8.471,1.58,1.58,0,0,1,.509,1.174,1.627,1.627,0,0,1-1.127,1.592l0,.027a1.549,1.549,0,0,1,.921,1.23,9.915,9.915,0,0,0,.51,1.69l-.826.013a7.734,7.734,0,0,1-.432-1.468c-.2-.85-.544-1.164-1.269-1.178l-.753.013.05,2.679-.8.015Zm.852,2.8.816-.015c.854-.016,1.386-.5,1.372-1.2-.014-.8-.6-1.136-1.444-1.121a3.5,3.5,0,0,0-.787.079Z" fill="#467095"/>
          <path id="Tracé_39" data-name="Tracé 39" d="M2315.181,3529.326l.287-6.175.881.042,1.822,3.216a17.026,17.026,0,0,1,1.006,2.057l.029-.008c-.035-.828-.019-1.58.026-2.542l.121-2.583.751.034-.287,6.176-.807-.04-1.814-3.223a17.809,17.809,0,0,1-1.049-2.114l-.028.007c.009.782-.016,1.524-.064,2.55l-.123,2.638Z" fill="#467095"/>
          <path id="Tracé_40" data-name="Tracé 40" d="M2324.6,3527.128l-2.383-.261-.242,2.217,2.664.293-.074.666-3.467-.381.676-6.151,3.33.366-.073.666-2.527-.277-.214,1.944,2.381.261Z" fill="#467095"/>
        </g>
      </g>
      <g id="Groupe_45" data-name="Groupe 45">
        <g id="Groupe_44" data-name="Groupe 44">
          <path id="Tracé_41" data-name="Tracé 41" d="M2335.929,3713.41l2.326-.578-.537-2.164-2.6.645-.162-.65,3.386-.841,1.491,6.006-3.252.806-.163-.65,2.468-.613-.469-1.9-2.327.576Z" fill="#467095"/>
          <path id="Tracé_42" data-name="Tracé 42" d="M2330.705,3711.489l1.038,1.2c.413.456.663.753.92,1.069l.017,0c.106-.384.226-.743.433-1.334l.479-1.471.9-.169-1.284,3.425,2.35,2.67-.91.17-1.07-1.275c-.3-.354-.53-.629-.752-.923l-.028,0c-.1.394-.205.7-.357,1.132l-.555,1.579-.91.171,1.295-3.306-2.481-2.766Z" fill="#467095"/>
          <path id="Tracé_43" data-name="Tracé 43" d="M2328.4,3717.393l1.867-.235.085.674-4.547.571-.085-.673,1.877-.236-.686-5.468.8-.1Z" fill="#467095"/>
          <path id="Tracé_44" data-name="Tracé 44" d="M2321.46,3715.428l2.39-.172-.161-2.225-2.673.193-.048-.668,3.478-.251.445,6.171-3.342.24-.048-.669,2.537-.181-.141-1.95-2.39.171Z" fill="#467095"/>
          <path id="Tracé_45" data-name="Tracé 45" d="M2320.115,3718.69a9.233,9.233,0,0,1-1.531.15,2.559,2.559,0,0,1-1.795-.477,1.577,1.577,0,0,1-.5-1.178,1.621,1.621,0,0,1,1.131-1.584v-.027a1.556,1.556,0,0,1-.916-1.235,9.862,9.862,0,0,0-.5-1.689l.825-.012a7.687,7.687,0,0,1,.425,1.47c.2.851.54,1.166,1.264,1.185l.753-.012-.039-2.678.8-.012Zm-.839-2.8-.817.013c-.852.013-1.386.487-1.376,1.194.012.8.594,1.138,1.437,1.125a3.534,3.534,0,0,0,.788-.075Z" fill="#467095"/>
          <path id="Tracé_46" data-name="Tracé 46" d="M2315.207,3712.642l-.315,6.178-.881-.045-1.811-3.227a17.454,17.454,0,0,1-1-2.063l-.029.009c.033.828.013,1.58-.037,2.543l-.131,2.586-.753-.039.315-6.178.807.04,1.8,3.235a18.017,18.017,0,0,1,1.041,2.121l.029-.008c-.007-.782.021-1.524.074-2.55l.134-2.641Z" fill="#467095"/>
          <path id="Tracé_47" data-name="Tracé 47" d="M2305.755,3714.8l2.382.272.251-2.217-2.663-.305.076-.665,3.468.394-.7,6.15-3.33-.38.076-.666,2.527.289.221-1.944-2.381-.271Z" fill="#467095"/>
        </g>
      </g>
      <g id="Groupe_47" data-name="Groupe 47">
        <g id="Groupe_46" data-name="Groupe 46" clip-path="url(#clip-path-2)">
          <path id="Tracé_48" data-name="Tracé 48" d="M2356.161,3854.14c112.884-16.788,201.349-104.813,214.332-214.891" fill="none" stroke="#457095" stroke-width="3.958" stroke-dasharray="43.987 29.525"/>
          <path id="Tracé_49" data-name="Tracé 49" d="M2568.9,3571.964c-18.047-108.384-109.654-193.1-223.945-205.135" fill="none" stroke="#457095" stroke-width="3.958" stroke-dasharray="43.987 29.525"/>
          <path id="Tracé_50" data-name="Tracé 50" d="M2277.625,3368.252c-112.884,16.788-201.349,104.813-214.332,214.891" fill="none" stroke="#457095" stroke-width="3.958" stroke-dasharray="43.987 29.525"/>
          <path id="Tracé_51" data-name="Tracé 51" d="M2064.883,3650.428c18.047,108.384,109.654,193.095,223.945,205.135" fill="none" stroke="#457095" stroke-width="3.958" stroke-dasharray="43.987 29.525"/>
          <path id="Tracé_52" data-name="Tracé 52" d="M2300.08,3856.507q8.335.52,16.812.524t16.815-.524m-271.469-262.121q-.583,8.332-.588,16.81t.588,16.81m271.469-262.121q-8.337-.52-16.815-.524t-16.812.524m271.468,262.121q.585-8.333.589-16.81t-.589-16.81" fill="none" stroke="#457095" stroke-width="3.958"/>
        </g>
      </g>
      <g id="Groupe_49" data-name="Groupe 49">
        <g id="Groupe_48" data-name="Groupe 48">
          <path id="Tracé_53" data-name="Tracé 53" d="M2597.511,3573.306a17.218,17.218,0,0,1,.655,2.893,4.789,4.789,0,0,1-.545,3.459,3.448,3.448,0,0,1-2.414,1.4,3.721,3.721,0,0,1-2.748-.536,4.872,4.872,0,0,1-1.864-3.419,5.22,5.22,0,0,1-.066-1.243l-4.908.7-.218-1.525Zm-5.691,2.37a4.96,4.96,0,0,0,.055,1.281c.261,1.84,1.367,2.827,3.021,2.589,1.637-.234,2.259-1.466,2.021-3.132a6.311,6.311,0,0,0-.333-1.42Z" fill="#467095"/>
          <path id="Tracé_54" data-name="Tracé 54" d="M2598.82,3582.98a17.409,17.409,0,0,1,.569,2.913,4.811,4.811,0,0,1-.638,3.54,3.372,3.372,0,0,1-5.613-.7l-.055.005a3.093,3.093,0,0,1-2.3,1.989,20.3,20.3,0,0,0-3.28,1.276l-.17-1.584a16.008,16.008,0,0,1,2.858-1.088c1.659-.534,2.228-1.252,2.135-2.649l-.154-1.443-5.332.567-.163-1.531Zm-5.442,2.129.168,1.566c.174,1.637,1.217,2.577,2.622,2.428,1.589-.17,2.164-1.351,1.991-2.973a6.542,6.542,0,0,0-.29-1.5Z" fill="#467095"/>
          <path id="Tracé_55" data-name="Tracé 55" d="M2594.621,3603.456c-4.235.275-6.668-2.069-6.866-5.107-.206-3.162,2.2-5.517,5.938-5.76,3.922-.255,6.639,1.911,6.846,5.089C2600.751,3600.947,2598.3,3603.216,2594.621,3603.456Zm-.787-9.246c-2.656.174-4.93,1.706-4.772,4.143s2.575,3.664,5.379,3.482c2.475-.16,4.959-1.564,4.794-4.125S2596.529,3594.037,2593.834,3594.21Z" fill="#467095"/>
          <path id="Tracé_56" data-name="Tracé 56" d="M2600.777,3607.811l.045,1.558-8.279.241c-3.284.1-4.338-1.433-4.4-3.485a4.68,4.68,0,0,1,.246-1.655l1.31.174a3.6,3.6,0,0,0-.2,1.317c.04,1.38.706,2.159,3.126,2.087Z" fill="#467095"/>
          <path id="Tracé_57" data-name="Tracé 57" d="M2594.3,3618.377l0-4.621-4.462,0,0,5.168H2588.5V3612.2l12.374.008v6.461h-1.341l0-4.905-3.91,0,0,4.62Z" fill="#467095"/>
          <path id="Tracé_58" data-name="Tracé 58" d="M2599.375,3623.755l.128-3.627,1.358.049-.315,8.828-1.357-.047.13-3.646-11.007-.389.056-1.556Z" fill="#467095"/>
        </g>
      </g>
    </g>
  </g>
</svg>
